<?xml version="1.0" encoding="UTF-8"?>
<svg id="Capa_1" data-name="Capa 1" xmlns="http://www.w3.org/2000/svg" viewBox="0 0 300 300">
  <defs>
    <style>
      .cls-1 {
        fill: #a3153f;
      }
    </style>
  </defs>
  <g id="Outline">
    <path class="cls-1" d="M238.73,169.96l-.04-.07c-3.99-6.07-11.9-8.17-18.37-4.87l-19.26,9.85c-4.77-6.7-13.72-8.89-21.04-5.15l-24.26,12.43c-2.57,1.32-5.62,1.3-8.18-.05l-16.53-8.78c-12.76-6.81-28.26-5.87-40.11,2.43l-1.87-8.9c-.34-1.62-1.94-2.67-3.56-2.32,0,0,0,0-.01,0l-23.31,5.03c-1.62.35-2.65,1.94-2.31,3.55l13.57,64.67c.29,1.4,1.51,2.4,2.94,2.4.21,0,.42-.02.63-.07l23.32-5.02c1.62-.35,2.65-1.94,2.31-3.56l-1.2-5.79,7.97-1.71c2.32-.5,4.71-.59,7.06-.27l37.48,4.11c7.78,1.03,15.67-.82,22.18-5.21l60.04-40.28c4.08-2.77,5.21-8.29,2.54-12.43ZM78.72,233.59l-12.34-58.78,17.44-3.76,12.35,58.79-17.44,3.75ZM232.85,177.41l-60.04,40.28c-5.33,3.57-11.77,5.07-18.13,4.21l-37.48-4.11c-3.02-.4-6.08-.28-9.05.36l-7.94,1.71-7.92-37.7,2.05-1.43c10-7.03,23.1-7.84,33.89-2.09l16.53,8.78c4.29,2.28,9.42,2.32,13.74.09l24.27-12.45c5.04-2.57,11.21-.75,14.04,4.14.84,1.44.36,3.28-1.06,4.13l-33.45,19.84c-5.85,3.49-12.82,4.59-19.46,3.08l-30.17-7.21-1.4,5.85,30.2,7.21c8.15,1.87,16.71.52,23.89-3.76l33.45-19.84c2.79-1.67,4.46-4.72,4.37-7.97l19.87-10.17c3.72-1.89,8.28-.69,10.58,2.79l.03.05c.9,1.39.54,3.24-.81,4.2Z"/>
    <rect class="cls-1" x="73.95" y="178.75" width="6.01" height="6.01" transform="translate(-35.68 19.67) rotate(-11.85)"/>
    <path class="cls-1" d="M116.93,137.97c-1.66,0-3.01,1.35-3.01,3.01v18.04c0,1.66,1.35,3.01,3.01,3.01h12.02c1.66,0,3.01-1.35,3.01-3.01v-18.04c0-1.66-1.35-3.01-3.01-3.01h-12.02ZM125.95,156h-6.01v-12.02h6.01v12.02Z"/>
    <path class="cls-1" d="M143.99,116.93c-1.66,0-3.01,1.35-3.01,3.01v39.08c0,1.66,1.35,3.01,3.01,3.01h12.02c1.66,0,3.01-1.35,3.01-3.01v-39.08c0-1.66-1.35-3.01-3.01-3.01h-12.02ZM153.01,156h-6.01v-33.07h6.01v33.07Z"/>
    <path class="cls-1" d="M171.04,125.94c-1.66,0-3.01,1.35-3.01,3.01v30.06c0,1.66,1.35,3.01,3.01,3.01h12.02c1.66,0,3.01-1.35,3.01-3.01v-30.06c0-1.66-1.35-3.01-3.01-3.01h-12.02ZM180.06,156h-6.01v-24.05h6.01v24.05Z"/>
    <path class="cls-1" d="M198.1,110.91c-1.66,0-3.01,1.35-3.01,3.01v45.09c0,1.66,1.35,3.01,3.01,3.01h12.02c1.66,0,3.01-1.35,3.01-3.01v-45.09c0-1.66-1.35-3.01-3.01-3.01h-12.02ZM207.12,156h-6.01v-39.08h6.01v39.08Z"/>
    <path class="cls-1" d="M116.93,91.12l18.92,18.92c1.17,1.17,3.08,1.17,4.25,0l33.95-33.95,24.93,24.93c1.17,1.17,3.08,1.17,4.25,0l30.94-30.94v7.77h6.01v-15.03c0-1.66-1.35-3.01-3.01-3.01h-15.03v6.01h7.77l-28.82,28.82-24.93-24.93c-1.17-1.17-3.08-1.17-4.25,0l-33.95,33.95-18.92-18.92c-1.17-1.17-3.08-1.17-4.25,0l-42.08,42.08,4.25,4.25,39.96-39.96Z"/>
  </g>
</svg>