<?xml version="1.0" encoding="UTF-8"?>
<svg id="Capa_1" data-name="Capa 1" xmlns="http://www.w3.org/2000/svg" viewBox="0 0 300 300">
  <defs>
    <style>
      .cls-1 {
        fill: #a3153f;
      }
    </style>
  </defs>
  <path class="cls-1" d="M238.38,155.87c0-9.66-3.83-18.91-10.59-25.74.86-2.68,1.3-5.48,1.3-8.34,0-15.06-12.25-27.31-27.31-27.31-3.49,0-6.91.66-10.11,1.94-3.91-15.99-18.37-27.9-35.55-27.9-10.8,0-20.52,4.7-27.22,12.17-5.91-7.6-15.05-12.17-24.87-12.17-17.37,0-31.5,14.13-31.5,31.5,0,3.42.54,6.77,1.61,9.97-7.99,7.94-12.53,18.78-12.53,30.1,0,5.92,1.2,11.66,3.56,17.04.57,1.29,1.83,2.07,3.16,2.07.46,0,.93-.09,1.39-.29,1.75-.77,2.54-2.8,1.77-4.55-1.98-4.5-2.98-9.3-2.98-14.26,0-10.15,4.36-19.84,11.96-26.58,1.11-.98,1.47-2.56.89-3.93-1.28-3.03-1.93-6.24-1.93-9.56,0-13.56,11.03-24.59,24.59-24.59,8.33,0,16.04,4.21,20.57,11.11-3.22,5.45-5.08,11.8-5.08,18.58v26.52l-12.04,12.04v-29.23c0-1.91-1.55-3.45-3.45-3.45s-3.45,1.55-3.45,3.45v16.75l-6.66-6.66c-1.35-1.35-3.53-1.35-4.88,0-1.35,1.35-1.35,3.53,0,4.88l11.54,11.54v34.47c-3.05-.29-6.03-.97-8.9-2.03-1.79-.66-3.77.25-4.44,2.04-.66,1.79.25,3.77,2.04,4.44,3.64,1.35,7.43,2.18,11.3,2.5v21.01c-2.51-1.14-5.26-1.75-8.11-1.75-10.8,0-19.58,8.78-19.58,19.58,0,2.88.62,5.67,1.83,8.27.57,1.22,1.79,1.99,3.13,1.99h143.08c1.91,0,3.45-1.55,3.45-3.45s-1.55-3.45-3.45-3.45h-15.7v-32.27c18.57-1.75,33.14-17.42,33.14-36.43h0ZM201.79,101.39c11.25,0,20.4,9.15,20.4,20.4,0,2.75-.54,5.42-1.6,7.93-.58,1.36-.22,2.94.89,3.93,6.35,5.64,10,13.73,10,22.22,0,15.2-11.49,27.77-26.24,29.48v-12.21l12.02-12.02c1.35-1.35,1.35-3.53,0-4.88-1.35-1.35-3.53-1.35-4.88,0l-7.13,7.13v-23.61c0-1.91-1.55-3.45-3.45-3.45s-3.45,1.55-3.45,3.45v13l-5.61-5.61v-42.05c0-.53-.01-1.06-.04-1.59,2.81-1.4,5.92-2.14,9.1-2.14h0ZM192.49,156.7l5.84,5.84v22.82c-5.96-.7-11.58-3.2-16.1-7.15,5.58-5.69,9.32-13.18,10.26-21.51h0ZM156.13,75.43c16.37,0,29.69,13.32,29.69,29.69v47.47c0,15.2-11.49,27.77-26.24,29.48v-12.21l12.02-12.02c1.35-1.35,1.35-3.53,0-4.88s-3.53-1.35-4.88,0l-7.13,7.13v-23.61c0-1.91-1.55-3.45-3.45-3.45s-3.45,1.55-3.45,3.45v13l-4.78-4.78c-1.35-1.35-3.53-1.35-4.88,0-1.35,1.35-1.35,3.53,0,4.88l9.67,9.67v22.81c-14.75-1.72-26.24-14.28-26.24-29.48v-47.47c0-16.37,13.32-29.69,29.69-29.69h0ZM146.99,201.63c-2.08,0-4.14.33-6.11.98-3.92-6.59-10.99-10.69-18.86-10.69-5.48,0-10.61,2.08-14.54,5.55v-15.1c7.22-.57,14.05-2.94,20.06-6.96,6.04,7.54,14.99,12.65,25.13,13.61v13.46c-1.8-.55-3.71-.84-5.68-.84h0ZM119.53,141.4v11.19c0,6.15,1.53,11.96,4.22,17.05-4.88,3.28-10.41,5.24-16.27,5.8v-21.99l12.04-12.04ZM79.8,221.21c0-6.99,5.69-12.67,12.67-12.67,3.41,0,6.62,1.34,9.02,3.77.89.9,2.2,1.24,3.41.89,1.22-.35,2.14-1.34,2.41-2.57,1.51-6.84,7.69-11.8,14.71-11.8,6.22,0,11.71,3.74,14,9.52.37.92,1.11,1.64,2.04,1.98.93.34,1.96.25,2.83-.22,1.85-1.02,3.96-1.56,6.09-1.56,6.99,0,12.67,5.69,12.67,12.67,0,1.15-.15,2.27-.45,3.36h-78.96c-.3-1.09-.45-2.21-.45-3.36h0ZM166.28,224.57c.19-1.1.29-2.22.29-3.36,0-6.01-2.72-11.39-6.99-14.98v-17.22c6.39-.6,12.31-2.85,17.32-6.32,5.89,5.46,13.44,8.84,21.43,9.6v32.28h-32.05Z"/>
  <path class="cls-1" d="M79.74,170.87c.64-.64,1.01-1.53,1.01-2.44s-.37-1.8-1.01-2.44-1.53-1.01-2.44-1.01-1.8.37-2.44,1.01c-.65.64-1.01,1.53-1.01,2.44s.37,1.8,1.01,2.44c.64.64,1.53,1.01,2.44,1.01s1.8-.37,2.44-1.01Z"/>
</svg>