<?xml version="1.0" encoding="UTF-8"?>
<svg id="Capa_1" data-name="Capa 1" xmlns="http://www.w3.org/2000/svg" viewBox="0 0 300 300">
  <defs>
    <style>
      .cls-1 {
        fill: #a3153f;
      }
    </style>
  </defs>
  <path class="cls-1" d="M219.58,176.57l-34.48,14.57c.06-.43.12-.86.12-1.32,0-6.7-5.44-12.14-12.14-12.14h-24.83c-1.01,0-2-.22-2.92-.65l-21.05-9.53c-3.29-1.48-6.95-2.27-10.54-2.27h-17.15v6.15h17.15c2.74,0,5.5.58,8.02,1.72l21.05,9.53c1.72.77,3.56,1.17,5.47,1.17h24.83c3.32,0,5.99,2.7,5.99,5.99s-2.7,5.99-5.99,5.99h-32.18v6.15h32.15c2.12,0,4.09-.58,5.81-1.54v.03l43.05-18.22c3.56-1.51,7.47-1.48,11,.06,2.7,1.2,4.92,3.13,6.39,5.65l-76,40.32c-5.81,3.07-12.72,3.69-18.99,1.69l-37.19-11.95-10.6-.15v6.15h9.19l36.72,11.8c3.04.98,6.18,1.44,9.34,1.44,4.98,0,9.96-1.2,14.38-3.56l80.98-42.9-.89-2.52c-1.87-5.22-5.75-9.34-10.85-11.59-5.1-2.18-10.73-2.24-15.86-.06h0Z"/>
  <path class="cls-1" d="M89.92,228.78v-65.24c0-3.38-2.77-6.15-6.15-6.15h-30.95v6.15h30.95v65.27h-30.95v6.15h30.95c3.38-.03,6.15-2.8,6.15-6.18h0Z"/>
  <path class="cls-1" d="M75.69,219.22c0,2.37-1.94,4.3-4.3,4.3s-4.33-1.94-4.33-4.3,1.94-4.33,4.33-4.33,4.3,1.94,4.3,4.33Z"/>
  <path class="cls-1" d="M125.54,135.94l3.32,2.46,22.86-12.66,20.68,12.45,1.78,1.04,3.32-2.4-4.98-25.63,18.29-15.86,1.48-1.41-1.29-3.81-25.88-3.2-9.4-22.25-.86-1.84-1.97-.03h-2.09l-11.03,23.69-24.09,2.03-2.06.25-1.23,3.84,19.08,17.79-5.93,25.54ZM122.93,94.08l19.11-1.66,1.81-.22,8.82-18.93,7.47,17.61.77,1.69,20.77,2.55-14.38,12.48-1.44,1.23,4,20.59-16.47-9.93-1.57-.83-18.22,10.11,4.27-18.44.52-1.91-15.46-14.35Z"/>
  <path class="cls-1" d="M85.13,124.6l-4.46,19.15-.61,2.21,3.47,2.55,19.15-10.6,16.9,10.14,1.91,1.2,3.41-2.49-4.18-21.48,4.46-3.84-4.03-4.64-5.93,5.13-.89,1.04v1.23l2.89,15.27-12.48-7.53-.65-.61-2.61-.06-.61.61-12.75,7.07,3.44-14.94v-1.81l-11.95-11.12,14.63-1.29,1.41-.03,1.29-1.29,6.55-14.07,5.9,13.92.95,1.81h1.72l7.41.92.77-6.12-5.93-.71-7.81-18.44-1.04-1.97-4.24.34-.58,1.81-8.3,17.85-19.55,1.69-2.43.12-1.29,4.49,1.69,1.11,14.38,13.37Z"/>
  <path class="cls-1" d="M186.14,104.23l.55,6.12,5.93-.55,1.38-.06,1.29-1.29,6.55-14.07,5.62,13.25.06,2.49h2.89l14.66,1.81-11.4,9.9-1.01,1.08v1.32l2.92,15.24-12.51-7.5-.65-.65-2.7.03-.55.58-12.69,7.04,3.47-14.94-.03-1.81-7.87-7.34-4.21,4.49,5.62,5.26-4.43,19.15-.61,2.06,3.35,2.77,19.27-10.66,16.93,10.17,1.91,1.17,3.35-2.52-4.18-21.45,14.78-12.81c1.01-.8,1.44-2.15,1.11-3.38l-.71-2.18-21.57-2.64-7.87-18.5-.92-1.69-3.66-.12-.95,1.51-8.6,18.38-4.52.4Z"/>
</svg>