<svg xmlns="http://www.w3.org/2000/svg" xmlns:xlink="http://www.w3.org/1999/xlink" version="1.1" id="Capa_1" x="0px" y="0px" viewBox="0 0 1000 1000" style="enable-background:new 0 0 1000 1000;" xml:space="preserve">
<style type="text/css">
	.st0{fill:#ffffff;}
	.st1{fill:url(#SVGID_1_);}
	.st2{fill:url(#SVGID_00000142159776020812098180000010301975363335696025_);}
	.st3{fill:#ffffff;}
	.st4{fill:url(#SVGID_00000141432850015299031970000006613084336399561903_);}
	.st5{fill:url(#SVGID_00000004529246575385767040000016731139837210203319_);}
	.st6{display:none;}
	.st7{display:inline;}
	.st8{fill:url(#SVGID_00000113355056366760591240000004816825064602503863_);}
	.st9{fill:url(#SVGID_00000106829206285725580530000007205900755592324506_);}
	.st10{fill:url(#SVGID_00000055671305136178682670000009602584879918504077_);}
	.st11{fill:url(#SVGID_00000114759202560738253720000004223620975790188698_);}
	.st12{fill:url(#SVGID_00000139983442445554342900000005349886424983097490_);}
	.st13{fill:url(#SVGID_00000044138694629565485470000005149388908593697706_);}
	.st14{fill:url(#SVGID_00000056419104369031137340000001787201431744491394_);}
	.st15{fill:url(#SVGID_00000163031794959852277160000018163808991578735294_);}
	.st16{fill:url(#SVGID_00000047779473837942817990000009121638426718084493_);}
	.st17{fill:#ffffff;}
	.st18{fill:url(#SVGID_00000124846835400106192800000008537697387877459330_);}
	.st19{fill:url(#SVGID_00000115495006322413714680000004278594803249675686_);}
	.st20{fill:url(#SVGID_00000063602996550416736660000000374189651723825325_);}
	.st21{fill:url(#SVGID_00000166639823496899688470000006208224743793774241_);}
	.st22{fill:url(#SVGID_00000010296188167965322320000000174925126483025329_);}
	.st23{fill:url(#SVGID_00000157279434375766037370000010053668744036138636_);}
	.st24{fill:url(#SVGID_00000032623490657751374730000002671378878702168996_);}
	.st25{fill:url(#SVGID_00000176015578598137972960000005019698519201395126_);}
	.st26{fill:url(#SVGID_00000000218475411553934970000018279642618109836951_);}
	.st27{fill:url(#SVGID_00000181070576013828777890000018049616546161570433_);}
	.st28{fill:url(#SVGID_00000083061090329815395650000015713087655269405119_);}
	.st29{fill:url(#SVGID_00000168815996344969842090000014382146216315457467_);}
</style>
<g class="st6">
	<g class="st7">
		<g>
			<path d="M262.96,676.84c-10.21,0-19.58-2.41-28.11-7.24c-8.53-4.83-15.28-11.61-20.25-20.35c-4.97-8.74-7.45-19.12-7.45-31.15     c0-12.17,2.48-22.62,7.45-31.36c4.96-8.74,11.71-15.53,20.25-20.35c8.53-4.83,17.9-7.24,28.11-7.24c9.65,0,17.9,2.13,24.76,6.4     c6.85,4.27,12.03,10.74,15.52,19.41c3.5,8.67,5.25,19.72,5.25,33.15s-1.65,24.48-4.93,33.15c-3.29,8.67-8.32,15.11-15.11,19.3     C281.67,674.74,273.17,676.84,262.96,676.84z M271.35,645.16c4.47,0,8.5-1.05,12.06-3.15s6.4-5.21,8.5-9.34     c2.1-4.12,3.15-8.99,3.15-14.58c0-6.01-1.05-10.98-3.15-14.89c-2.1-3.91-4.93-6.92-8.5-9.02s-7.59-3.15-12.06-3.15     c-4.62,0-8.71,1.05-12.27,3.15s-6.4,5.11-8.5,9.02c-2.1,3.92-3.15,8.88-3.15,14.89c0,5.6,1.05,10.46,3.15,14.58     c2.1,4.13,4.93,7.24,8.5,9.34S266.74,645.16,271.35,645.16z M296.32,674.95v-19.51l0.21-37.55l-2.1-37.55v-61.05h39.86v155.67     H296.32z" fill="#ffffff"/>
			<path d="M401.21,676.84c-9.65,0-19.06-1.12-28.22-3.36c-9.16-2.24-16.54-5.04-22.13-8.39l11.75-27.27     c5.46,3.22,11.75,5.81,18.88,7.76c7.13,1.96,14.12,2.94,20.98,2.94c6.71,0,11.36-0.73,13.95-2.2c2.59-1.47,3.88-3.46,3.88-5.98     c0-2.1-1.19-3.7-3.57-4.83c-2.38-1.12-5.6-1.92-9.65-2.41c-4.06-0.49-8.43-1.05-13.11-1.68c-4.69-0.63-9.48-1.61-14.37-2.94     c-4.9-1.33-9.33-3.18-13.32-5.56c-3.99-2.38-7.17-5.66-9.55-9.86c-2.38-4.2-3.57-9.51-3.57-15.94c0-7.27,2.13-13.74,6.4-19.41     c4.26-5.67,10.49-10.17,18.67-13.53c8.18-3.36,18.29-5.03,30.32-5.03c7.97,0,16.05,0.84,24.23,2.52     c8.18,1.68,15.07,4.13,20.66,7.34l-11.96,27.27c-5.6-3.36-11.19-5.59-16.78-6.71c-5.6-1.12-10.84-1.68-15.74-1.68     c-6.71,0-11.51,0.73-14.37,2.2c-2.87,1.47-4.3,3.32-4.3,5.56c0,2.24,1.26,3.95,3.78,5.14c2.52,1.19,5.73,2.1,9.65,2.73     c3.91,0.63,8.29,1.26,13.11,1.89c4.83,0.63,9.61,1.57,14.37,2.83c4.75,1.26,9.09,3.11,13.01,5.56c3.91,2.45,7.1,5.74,9.54,9.86     c2.45,4.13,3.67,9.48,3.67,16.05c0,6.85-2.1,13.08-6.29,18.67c-4.2,5.59-10.49,10.07-18.88,13.43     C423.87,675.16,413.52,676.84,401.21,676.84z" fill="#ffffff"/>
			<path d="M532.75,676.84c-12.73,0-23.99-2.52-33.78-7.55c-9.79-5.04-17.49-11.99-23.08-20.88c-5.6-8.88-8.39-18.99-8.39-30.32     c0-11.47,2.8-21.61,8.39-30.42c5.59-8.81,13.29-15.77,23.08-20.87c9.79-5.1,21.05-7.66,33.78-7.66c12.87,0,23.99,2.76,33.36,8.29     c9.37,5.53,16.01,13.18,19.93,22.97l-30.84,15.94c-2.66-5.31-5.95-9.2-9.86-11.64c-3.92-2.45-8.18-3.67-12.8-3.67     c-4.62,0-8.78,1.05-12.48,3.15c-3.71,2.1-6.68,5.11-8.92,9.02c-2.24,3.92-3.36,8.88-3.36,14.89c0,5.74,1.12,10.63,3.36,14.69     c2.24,4.06,5.21,7.13,8.92,9.23c3.7,2.1,7.87,3.15,12.48,3.15c4.62,0,8.88-1.22,12.8-3.67c3.91-2.45,7.2-6.33,9.86-11.64     l30.84,15.73c-3.92,9.79-10.56,17.45-19.93,22.97C556.74,674.08,545.62,676.84,532.75,676.84z" fill="#ffffff"/>
			<path d="M589.19,595.23v-29.79h82.45v29.79H589.19z M651.92,676.84c-14.55,0-25.88-3.6-33.99-10.8     c-8.11-7.2-12.17-18.08-12.17-32.62v-97.76h39.86v97.13c0,4.34,1.08,7.62,3.25,9.86c2.17,2.24,5.07,3.36,8.71,3.36     c4.62,0,8.67-1.19,12.17-3.57l10.07,27.69c-3.64,2.38-7.87,4.09-12.69,5.14S657.23,676.84,651.92,676.84z" fill="#ffffff"/>
			<path d="M751.99,676.84c-12.45,0-23.5-2.52-33.15-7.55s-17.24-11.99-22.76-20.88c-5.53-8.88-8.29-18.99-8.29-30.32     c0-11.47,2.76-21.64,8.29-30.52c5.52-8.88,13.11-15.84,22.76-20.88s20.7-7.55,33.15-7.55c12.45,0,23.53,2.52,33.25,7.55     c9.72,5.04,17.34,12,22.87,20.88c5.52,8.88,8.29,19.06,8.29,30.52c0,11.33-2.76,21.44-8.29,30.32     c-5.53,8.88-13.15,15.84-22.87,20.88C775.52,674.32,764.43,676.84,751.99,676.84z M751.99,645.16c4.47,0,8.5-1.05,12.06-3.15     s6.43-5.21,8.6-9.34c2.17-4.12,3.25-9.05,3.25-14.79c0-5.88-1.08-10.77-3.25-14.69c-2.17-3.91-5.04-6.92-8.6-9.02     s-7.59-3.15-12.06-3.15c-4.48,0-8.5,1.05-12.06,3.15s-6.43,5.11-8.6,9.02c-2.17,3.92-3.25,8.81-3.25,14.69     c0,5.74,1.08,10.67,3.25,14.79c2.17,4.13,5.04,7.24,8.6,9.34S747.51,645.16,751.99,645.16z" fill="#ffffff"/>
			<path d="M851.43,676.84c-6.71,0-12.38-2.2-16.99-6.61c-4.62-4.41-6.92-10.17-6.92-17.31c0-6.99,2.31-12.62,6.92-16.89     c4.62-4.26,10.28-6.4,16.99-6.4c6.71,0,12.38,2.13,16.99,6.4c4.62,4.27,6.92,9.9,6.92,16.89c0,7.13-2.31,12.9-6.92,17.31     C863.8,674.64,858.14,676.84,851.43,676.84z" fill="#ffffff"/>
		</g>
	</g>
	<g class="st7">
		<linearGradient id="SVGID_1_" gradientUnits="userSpaceOnUse" x1="207.1562" y1="598.0615" x2="875.3418" y2="598.0615" fill="#ffffff">
			<stop offset="7.041998e-04" style="stop-color:#ffffff" fill="#ffffff"/>
			<stop offset="1" style="stop-color:#ffffff" fill="#ffffff"/>
		</linearGradient>
		<path class="st1" d="M262.96,676.84c-10.21,0-19.58-2.41-28.11-7.24c-8.53-4.83-15.28-11.61-20.25-20.35    c-4.97-8.74-7.45-19.12-7.45-31.15c0-12.17,2.48-22.62,7.45-31.36c4.96-8.74,11.71-15.53,20.25-20.35    c8.53-4.83,17.9-7.24,28.11-7.24c9.65,0,17.9,2.13,24.76,6.4c6.85,4.27,12.03,10.74,15.52,19.41c3.5,8.67,5.25,19.72,5.25,33.15    s-1.65,24.48-4.93,33.15c-3.29,8.67-8.32,15.11-15.11,19.3C281.67,674.74,273.17,676.84,262.96,676.84z M271.35,645.16    c4.47,0,8.5-1.05,12.06-3.15s6.4-5.21,8.5-9.34c2.1-4.12,3.15-8.99,3.15-14.58c0-6.01-1.05-10.98-3.15-14.89    c-2.1-3.91-4.93-6.92-8.5-9.02s-7.59-3.15-12.06-3.15c-4.62,0-8.71,1.05-12.27,3.15s-6.4,5.11-8.5,9.02    c-2.1,3.92-3.15,8.88-3.15,14.89c0,5.6,1.05,10.46,3.15,14.58c2.1,4.13,4.93,7.24,8.5,9.34S266.74,645.16,271.35,645.16z     M296.32,674.95v-19.51l0.21-37.55l-2.1-37.55v-61.05h39.86v155.67H296.32z" fill="#ffffff"/>
		
			<linearGradient id="SVGID_00000122722656417705626610000005671738635634785975_" gradientUnits="userSpaceOnUse" x1="207.1562" y1="598.0615" x2="875.3418" y2="598.0615" fill="#ffffff">
			<stop offset="7.041998e-04" style="stop-color:#ffffff" fill="#ffffff"/>
			<stop offset="1" style="stop-color:#ffffff" fill="#ffffff"/>
		</linearGradient>
		<path style="fill:url(#SVGID_00000122722656417705626610000005671738635634785975_);" d="M401.21,676.84    c-9.65,0-19.06-1.12-28.22-3.36c-9.16-2.24-16.54-5.04-22.13-8.39l11.75-27.27c5.46,3.22,11.75,5.81,18.88,7.76    c7.13,1.96,14.12,2.94,20.98,2.94c6.71,0,11.36-0.73,13.95-2.2c2.59-1.47,3.88-3.46,3.88-5.98c0-2.1-1.19-3.7-3.57-4.83    c-2.38-1.12-5.6-1.92-9.65-2.41c-4.06-0.49-8.43-1.05-13.11-1.68c-4.69-0.63-9.48-1.61-14.37-2.94c-4.9-1.33-9.33-3.18-13.32-5.56    c-3.99-2.38-7.17-5.66-9.55-9.86c-2.38-4.2-3.57-9.51-3.57-15.94c0-7.27,2.13-13.74,6.4-19.41c4.26-5.67,10.49-10.17,18.67-13.53    c8.18-3.36,18.29-5.03,30.32-5.03c7.97,0,16.05,0.84,24.23,2.52c8.18,1.68,15.07,4.13,20.66,7.34l-11.96,27.27    c-5.6-3.36-11.19-5.59-16.78-6.71c-5.6-1.12-10.84-1.68-15.74-1.68c-6.71,0-11.51,0.73-14.37,2.2c-2.87,1.47-4.3,3.32-4.3,5.56    c0,2.24,1.26,3.95,3.78,5.14c2.52,1.19,5.73,2.1,9.65,2.73c3.91,0.63,8.29,1.26,13.11,1.89c4.83,0.63,9.61,1.57,14.37,2.83    c4.75,1.26,9.09,3.11,13.01,5.56c3.91,2.45,7.1,5.74,9.54,9.86c2.45,4.13,3.67,9.48,3.67,16.05c0,6.85-2.1,13.08-6.29,18.67    c-4.2,5.59-10.49,10.07-18.88,13.43C423.87,675.16,413.52,676.84,401.21,676.84z"/>
		
			<linearGradient id="SVGID_00000173121659516809398370000016000511434577820818_" gradientUnits="userSpaceOnUse" x1="207.1562" y1="598.0615" x2="875.3418" y2="598.0615" fill="#ffffff">
			<stop offset="7.041998e-04" style="stop-color:#ffffff" fill="#ffffff"/>
			<stop offset="1" style="stop-color:#ffffff" fill="#ffffff"/>
		</linearGradient>
		<path style="fill:url(#SVGID_00000173121659516809398370000016000511434577820818_);" d="M532.75,676.84    c-12.73,0-23.99-2.52-33.78-7.55c-9.79-5.04-17.49-11.99-23.08-20.88c-5.6-8.88-8.39-18.99-8.39-30.32    c0-11.47,2.8-21.61,8.39-30.42c5.59-8.81,13.29-15.77,23.08-20.87c9.79-5.1,21.05-7.66,33.78-7.66c12.87,0,23.99,2.76,33.36,8.29    c9.37,5.53,16.01,13.18,19.93,22.97l-30.84,15.94c-2.66-5.31-5.95-9.2-9.86-11.64c-3.92-2.45-8.18-3.67-12.8-3.67    c-4.62,0-8.78,1.05-12.48,3.15c-3.71,2.1-6.68,5.11-8.92,9.02c-2.24,3.92-3.36,8.88-3.36,14.89c0,5.74,1.12,10.63,3.36,14.69    c2.24,4.06,5.21,7.13,8.92,9.23c3.7,2.1,7.87,3.15,12.48,3.15c4.62,0,8.88-1.22,12.8-3.67c3.91-2.45,7.2-6.33,9.86-11.64    l30.84,15.73c-3.92,9.79-10.56,17.45-19.93,22.97C556.74,674.08,545.62,676.84,532.75,676.84z"/>
		
			<linearGradient id="SVGID_00000121964676702836208590000008624124593341108412_" gradientUnits="userSpaceOnUse" x1="207.1562" y1="598.0615" x2="875.3418" y2="598.0615" fill="#ffffff">
			<stop offset="7.041998e-04" style="stop-color:#ffffff" fill="#ffffff"/>
			<stop offset="1" style="stop-color:#ffffff" fill="#ffffff"/>
		</linearGradient>
		<path style="fill:url(#SVGID_00000121964676702836208590000008624124593341108412_);" d="M589.19,595.23v-29.79h82.45v29.79    H589.19z M651.92,676.84c-14.55,0-25.88-3.6-33.99-10.8c-8.11-7.2-12.17-18.08-12.17-32.62v-97.76h39.86v97.13    c0,4.34,1.08,7.62,3.25,9.86c2.17,2.24,5.07,3.36,8.71,3.36c4.62,0,8.67-1.19,12.17-3.57l10.07,27.69    c-3.64,2.38-7.87,4.09-12.69,5.14S657.23,676.84,651.92,676.84z"/>
		
			<linearGradient id="SVGID_00000039825752817560377990000008440975103101315489_" gradientUnits="userSpaceOnUse" x1="207.1562" y1="598.0615" x2="875.3418" y2="598.0615" fill="#ffffff">
			<stop offset="7.041998e-04" style="stop-color:#ffffff" fill="#ffffff"/>
			<stop offset="1" style="stop-color:#ffffff" fill="#ffffff"/>
		</linearGradient>
		<path style="fill:url(#SVGID_00000039825752817560377990000008440975103101315489_);" d="M751.99,676.84    c-12.45,0-23.5-2.52-33.15-7.55s-17.24-11.99-22.76-20.88c-5.53-8.88-8.29-18.99-8.29-30.32c0-11.47,2.76-21.64,8.29-30.52    c5.52-8.88,13.11-15.84,22.76-20.88s20.7-7.55,33.15-7.55c12.45,0,23.53,2.52,33.25,7.55c9.72,5.04,17.34,12,22.87,20.88    c5.52,8.88,8.29,19.06,8.29,30.52c0,11.33-2.76,21.44-8.29,30.32c-5.53,8.88-13.15,15.84-22.87,20.88    C775.52,674.32,764.43,676.84,751.99,676.84z M751.99,645.16c4.47,0,8.5-1.05,12.06-3.15s6.43-5.21,8.6-9.34    c2.17-4.12,3.25-9.05,3.25-14.79c0-5.88-1.08-10.77-3.25-14.69c-2.17-3.91-5.04-6.92-8.6-9.02s-7.59-3.15-12.06-3.15    c-4.48,0-8.5,1.05-12.06,3.15s-6.43,5.11-8.6,9.02c-2.17,3.92-3.25,8.81-3.25,14.69c0,5.74,1.08,10.67,3.25,14.79    c2.17,4.13,5.04,7.24,8.6,9.34S747.51,645.16,751.99,645.16z"/>
		
			<linearGradient id="SVGID_00000033363954970481350350000013680955996851611531_" gradientUnits="userSpaceOnUse" x1="207.1562" y1="598.0615" x2="875.3418" y2="598.0615" fill="#ffffff">
			<stop offset="7.041998e-04" style="stop-color:#ffffff" fill="#ffffff"/>
			<stop offset="1" style="stop-color:#ffffff" fill="#ffffff"/>
		</linearGradient>
		<path style="fill:url(#SVGID_00000033363954970481350350000013680955996851611531_);" d="M851.43,676.84    c-6.71,0-12.38-2.2-16.99-6.61c-4.62-4.41-6.92-10.17-6.92-17.31c0-6.99,2.31-12.62,6.92-16.89c4.62-4.26,10.28-6.4,16.99-6.4    c6.71,0,12.38,2.13,16.99,6.4c4.62,4.27,6.92,9.9,6.92,16.89c0,7.13-2.31,12.9-6.92,17.31    C863.8,674.64,858.14,676.84,851.43,676.84z"/>
	</g>
</g>
<g class="st6">
	<g class="st7">
		<g>
			<path d="M211.51,447.13v-42.67l104.68-146.02h68.68L282.85,404.46l-31.34-9.33h182.36v52.01H211.51z M334.86,491.81v-44.67     l2-52.01v-40.01h62.34v136.69H334.86z" fill="#ffffff"/>
			<path d="M550.22,496.47c-20,0-37.73-4.72-53.17-14.17c-15.45-9.44-27.62-23.28-36.51-41.51c-8.89-18.22-13.33-40.12-13.33-65.68     c0-25.56,4.44-47.45,13.33-65.68c8.89-18.22,21.06-32.06,36.51-41.51c15.44-9.44,33.17-14.17,53.17-14.17     c19.78,0,37.45,4.72,53.01,14.17c15.55,9.45,27.72,23.28,36.5,41.51c8.78,18.23,13.17,40.12,13.17,65.68     c0,25.56-4.39,47.46-13.17,65.68c-8.78,18.23-20.95,32.06-36.5,41.51C587.67,491.75,570,496.47,550.22,496.47z M550.22,442.46     c7.11,0,13.39-2.22,18.84-6.67c5.44-4.44,9.72-11.61,12.84-21.5c3.11-9.89,4.67-22.95,4.67-39.17c0-16.44-1.56-29.56-4.67-39.34     c-3.12-9.78-7.39-16.89-12.84-21.34c-5.45-4.44-11.73-6.67-18.84-6.67c-7.12,0-13.39,2.22-18.84,6.67     c-5.45,4.45-9.78,11.56-13,21.34c-3.22,9.78-4.83,22.89-4.83,39.34c0,16.23,1.61,29.29,4.83,39.17c3.22,9.89,7.55,17.06,13,21.5     C536.83,440.25,543.11,442.46,550.22,442.46z" fill="#ffffff"/>
		</g>
	</g>
	<g class="st7">
		
			<linearGradient id="SVGID_00000000925315798761098510000005082534082014531728_" gradientUnits="userSpaceOnUse" x1="211.5088" y1="375.1218" x2="652.9053" y2="375.1218" fill="#ffffff">
			<stop offset="7.041998e-04" style="stop-color:#ffffff" fill="#ffffff"/>
			<stop offset="1" style="stop-color:#ffffff" fill="#ffffff"/>
		</linearGradient>
		<path style="fill:url(#SVGID_00000000925315798761098510000005082534082014531728_);" d="M211.51,447.13v-42.67l104.68-146.02    h68.68L282.85,404.46l-31.34-9.33h182.36v52.01H211.51z M334.86,491.81v-44.67l2-52.01v-40.01h62.34v136.69H334.86z"/>
		
			<linearGradient id="SVGID_00000155148905556485107060000011975307522387951753_" gradientUnits="userSpaceOnUse" x1="211.5088" y1="375.1218" x2="652.9053" y2="375.1218" fill="#ffffff">
			<stop offset="7.041998e-04" style="stop-color:#ffffff" fill="#ffffff"/>
			<stop offset="1" style="stop-color:#ffffff" fill="#ffffff"/>
		</linearGradient>
		<path style="fill:url(#SVGID_00000155148905556485107060000011975307522387951753_);" d="M550.22,496.47    c-20,0-37.73-4.72-53.17-14.17c-15.45-9.44-27.62-23.28-36.51-41.51c-8.89-18.22-13.33-40.12-13.33-65.68    c0-25.56,4.44-47.45,13.33-65.68c8.89-18.22,21.06-32.06,36.51-41.51c15.44-9.44,33.17-14.17,53.17-14.17    c19.78,0,37.45,4.72,53.01,14.17c15.55,9.45,27.72,23.28,36.5,41.51c8.78,18.23,13.17,40.12,13.17,65.68    c0,25.56-4.39,47.46-13.17,65.68c-8.78,18.23-20.95,32.06-36.5,41.51C587.67,491.75,570,496.47,550.22,496.47z M550.22,442.46    c7.11,0,13.39-2.22,18.84-6.67c5.44-4.44,9.72-11.61,12.84-21.5c3.11-9.89,4.67-22.95,4.67-39.17c0-16.44-1.56-29.56-4.67-39.34    c-3.12-9.78-7.39-16.89-12.84-21.34c-5.45-4.44-11.73-6.67-18.84-6.67c-7.12,0-13.39,2.22-18.84,6.67    c-5.45,4.45-9.78,11.56-13,21.34c-3.22,9.78-4.83,22.89-4.83,39.34c0,16.23,1.61,29.29,4.83,39.17c3.22,9.89,7.55,17.06,13,21.5    C536.83,440.25,543.11,442.46,550.22,442.46z"/>
	</g>
</g>
<g class="st6">
	<g class="st7">
		<g>
			<path d="M722.75,422.57c-7.7,0-14.54-1.7-20.54-5.11c-5.99-3.4-10.69-8.36-14.1-14.87c-3.41-6.51-5.11-14.21-5.11-23.09     c0-8.88,1.7-16.54,5.11-22.98c3.4-6.44,8.1-11.4,14.1-14.87c5.99-3.48,12.84-5.22,20.54-5.22c7.69,0,14.54,1.74,20.54,5.22     c5.99,3.48,10.73,8.44,14.21,14.87c3.48,6.44,5.22,14.1,5.22,22.98c0,8.88-1.74,16.58-5.22,23.09     c-3.48,6.51-8.21,11.47-14.21,14.87C737.29,420.87,730.44,422.57,722.75,422.57z M708.76,493.83l106.12-155.41h31.75     L740.51,493.83H708.76z M722.75,401.48c3.7,0,6.81-1.7,9.32-5.11c2.51-3.4,3.77-9.03,3.77-16.87c0-7.84-1.26-13.47-3.77-16.87     c-2.52-3.4-5.63-5.11-9.32-5.11c-3.55,0-6.59,1.7-9.1,5.11c-2.52,3.41-3.77,9.03-3.77,16.87c0,7.85,1.26,13.47,3.77,16.87     C716.16,399.78,719.19,401.48,722.75,401.48z M832.42,495.83c-7.55,0-14.36-1.7-20.42-5.11c-6.07-3.4-10.81-8.36-14.21-14.87     c-3.41-6.51-5.11-14.21-5.11-23.09c0-8.88,1.7-16.54,5.11-22.98c3.4-6.44,8.14-11.4,14.21-14.87c6.07-3.48,12.88-5.22,20.42-5.22     c7.69,0,14.58,1.74,20.65,5.22c6.07,3.48,10.77,8.44,14.1,14.87c3.33,6.44,5,14.1,5,22.98c0,8.88-1.67,16.58-5,23.09     c-3.33,6.51-8.03,11.47-14.1,14.87C846.99,494.13,840.11,495.83,832.42,495.83z M832.42,474.74c3.7,0,6.81-1.7,9.32-5.11     c2.51-3.4,3.77-9.03,3.77-16.87c0-7.84-1.26-13.47-3.77-16.87c-2.52-3.4-5.63-5.11-9.32-5.11c-3.55,0-6.63,1.7-9.21,5.11     c-2.59,3.41-3.88,9.03-3.88,16.87c0,7.85,1.29,13.47,3.88,16.87C825.79,473.04,828.86,474.74,832.42,474.74z" fill="#ffffff"/>
		</g>
	</g>
	<g class="st7">
		
			<linearGradient id="SVGID_00000040534920209601872150000013109545232710746517_" gradientUnits="userSpaceOnUse" x1="683.0049" y1="416.1277" x2="872.1562" y2="416.1277" fill="#ffffff">
			<stop offset="7.041998e-04" style="stop-color:#ffffff" fill="#ffffff"/>
			<stop offset="1" style="stop-color:#ffffff" fill="#ffffff"/>
		</linearGradient>
		<path style="fill:url(#SVGID_00000040534920209601872150000013109545232710746517_);" d="M722.75,422.57    c-7.7,0-14.54-1.7-20.54-5.11c-5.99-3.4-10.69-8.36-14.1-14.87c-3.41-6.51-5.11-14.21-5.11-23.09c0-8.88,1.7-16.54,5.11-22.98    c3.4-6.44,8.1-11.4,14.1-14.87c5.99-3.48,12.84-5.22,20.54-5.22c7.69,0,14.54,1.74,20.54,5.22c5.99,3.48,10.73,8.44,14.21,14.87    c3.48,6.44,5.22,14.1,5.22,22.98c0,8.88-1.74,16.58-5.22,23.09c-3.48,6.51-8.21,11.47-14.21,14.87    C737.29,420.87,730.44,422.57,722.75,422.57z M708.76,493.83l106.12-155.41h31.75L740.51,493.83H708.76z M722.75,401.48    c3.7,0,6.81-1.7,9.32-5.11c2.51-3.4,3.77-9.03,3.77-16.87c0-7.84-1.26-13.47-3.77-16.87c-2.52-3.4-5.63-5.11-9.32-5.11    c-3.55,0-6.59,1.7-9.1,5.11c-2.52,3.41-3.77,9.03-3.77,16.87c0,7.85,1.26,13.47,3.77,16.87    C716.16,399.78,719.19,401.48,722.75,401.48z M832.42,495.83c-7.55,0-14.36-1.7-20.42-5.11c-6.07-3.4-10.81-8.36-14.21-14.87    c-3.41-6.51-5.11-14.21-5.11-23.09c0-8.88,1.7-16.54,5.11-22.98c3.4-6.44,8.14-11.4,14.21-14.87c6.07-3.48,12.88-5.22,20.42-5.22    c7.69,0,14.58,1.74,20.65,5.22c6.07,3.48,10.77,8.44,14.1,14.87c3.33,6.44,5,14.1,5,22.98c0,8.88-1.67,16.58-5,23.09    c-3.33,6.51-8.03,11.47-14.1,14.87C846.99,494.13,840.11,495.83,832.42,495.83z M832.42,474.74c3.7,0,6.81-1.7,9.32-5.11    c2.51-3.4,3.77-9.03,3.77-16.87c0-7.84-1.26-13.47-3.77-16.87c-2.52-3.4-5.63-5.11-9.32-5.11c-3.55,0-6.63,1.7-9.21,5.11    c-2.59,3.41-3.88,9.03-3.88,16.87c0,7.85,1.29,13.47,3.88,16.87C825.79,473.04,828.86,474.74,832.42,474.74z"/>
	</g>
</g>
<g>
	<g>
		<path d="M262.96,676.84c-10.21,0-19.58-2.41-28.11-7.24c-8.53-4.83-15.28-11.61-20.25-20.35c-4.97-8.74-7.45-19.12-7.45-31.15    c0-12.17,2.48-22.62,7.45-31.36c4.96-8.74,11.71-15.53,20.25-20.35c8.53-4.83,17.9-7.24,28.11-7.24c9.65,0,17.9,2.13,24.76,6.4    c6.85,4.27,12.03,10.74,15.52,19.41c3.5,8.67,5.25,19.72,5.25,33.15s-1.65,24.48-4.93,33.15c-3.29,8.67-8.32,15.11-15.11,19.3    C281.67,674.74,273.17,676.84,262.96,676.84z M271.35,645.16c4.47,0,8.5-1.05,12.06-3.15s6.4-5.21,8.5-9.34    c2.1-4.12,3.15-8.99,3.15-14.58c0-6.01-1.05-10.98-3.15-14.89c-2.1-3.91-4.93-6.92-8.5-9.02s-7.59-3.15-12.06-3.15    c-4.62,0-8.71,1.05-12.27,3.15s-6.4,5.11-8.5,9.02c-2.1,3.92-3.15,8.88-3.15,14.89c0,5.6,1.05,10.46,3.15,14.58    c2.1,4.13,4.93,7.24,8.5,9.34S266.74,645.16,271.35,645.16z M296.32,674.95v-19.51l0.21-37.55l-2.1-37.55v-61.05h39.86v155.67    H296.32z" fill="#ffffff"/>
		<path d="M401.21,676.84c-9.65,0-19.06-1.12-28.22-3.36c-9.16-2.24-16.54-5.04-22.13-8.39l11.75-27.27    c5.46,3.22,11.75,5.81,18.88,7.76c7.13,1.96,14.12,2.94,20.98,2.94c6.71,0,11.36-0.73,13.95-2.2c2.59-1.47,3.88-3.46,3.88-5.98    c0-2.1-1.19-3.7-3.57-4.83c-2.38-1.12-5.6-1.92-9.65-2.41c-4.06-0.49-8.43-1.05-13.11-1.68c-4.69-0.63-9.48-1.61-14.37-2.94    c-4.9-1.33-9.33-3.18-13.32-5.56c-3.99-2.38-7.17-5.66-9.55-9.86c-2.38-4.2-3.57-9.51-3.57-15.94c0-7.27,2.13-13.74,6.4-19.41    c4.26-5.67,10.49-10.17,18.67-13.53c8.18-3.36,18.29-5.03,30.32-5.03c7.97,0,16.05,0.84,24.23,2.52    c8.18,1.68,15.07,4.13,20.66,7.34l-11.96,27.27c-5.6-3.36-11.19-5.59-16.78-6.71c-5.6-1.12-10.84-1.68-15.74-1.68    c-6.71,0-11.51,0.73-14.37,2.2c-2.87,1.47-4.3,3.32-4.3,5.56c0,2.24,1.26,3.95,3.78,5.14c2.52,1.19,5.73,2.1,9.65,2.73    c3.91,0.63,8.29,1.26,13.11,1.89c4.83,0.63,9.61,1.57,14.37,2.83c4.75,1.26,9.09,3.11,13.01,5.56c3.91,2.45,7.1,5.74,9.54,9.86    c2.45,4.13,3.67,9.48,3.67,16.05c0,6.85-2.1,13.08-6.29,18.67c-4.2,5.59-10.49,10.07-18.88,13.43    C423.87,675.16,413.52,676.84,401.21,676.84z" fill="#ffffff"/>
		<path d="M532.75,676.84c-12.73,0-23.99-2.52-33.78-7.55c-9.79-5.04-17.49-11.99-23.08-20.88c-5.6-8.88-8.39-18.99-8.39-30.32    c0-11.47,2.8-21.61,8.39-30.42c5.59-8.81,13.29-15.77,23.08-20.87c9.79-5.1,21.05-7.66,33.78-7.66c12.87,0,23.99,2.76,33.36,8.29    c9.37,5.53,16.01,13.18,19.93,22.97l-30.84,15.94c-2.66-5.31-5.95-9.2-9.86-11.64c-3.92-2.45-8.18-3.67-12.8-3.67    c-4.62,0-8.78,1.05-12.48,3.15c-3.71,2.1-6.68,5.11-8.92,9.02c-2.24,3.92-3.36,8.88-3.36,14.89c0,5.74,1.12,10.63,3.36,14.69    c2.24,4.06,5.21,7.13,8.92,9.23c3.7,2.1,7.87,3.15,12.48,3.15c4.62,0,8.88-1.22,12.8-3.67c3.91-2.45,7.2-6.33,9.86-11.64    l30.84,15.73c-3.92,9.79-10.56,17.45-19.93,22.97C556.74,674.08,545.62,676.84,532.75,676.84z" fill="#ffffff"/>
		<path d="M591.07,595.23v-29.79h82.45v29.79H591.07z M653.8,676.84c-14.55,0-25.88-3.6-33.99-10.8    c-8.11-7.2-12.17-18.08-12.17-32.62v-97.76h39.86v97.13c0,4.34,1.08,7.62,3.25,9.86c2.17,2.24,5.07,3.36,8.71,3.36    c4.62,0,8.67-1.19,12.17-3.57l10.07,27.69c-3.64,2.38-7.87,4.09-12.69,5.14S659.12,676.84,653.8,676.84z" fill="#ffffff"/>
		<path d="M750.52,676.84c-12.45,0-23.5-2.52-33.15-7.55s-17.24-11.99-22.76-20.88c-5.53-8.88-8.29-18.99-8.29-30.32    c0-11.47,2.76-21.64,8.29-30.52c5.52-8.88,13.11-15.84,22.76-20.88s20.7-7.55,33.15-7.55c12.45,0,23.53,2.52,33.25,7.55    c9.72,5.04,17.34,12,22.87,20.88c5.52,8.88,8.29,19.06,8.29,30.52c0,11.33-2.76,21.44-8.29,30.32    c-5.53,8.88-13.15,15.84-22.87,20.88C774.05,674.32,762.96,676.84,750.52,676.84z M750.52,645.16c4.47,0,8.5-1.05,12.06-3.15    s6.43-5.21,8.6-9.34c2.17-4.12,3.25-9.05,3.25-14.79c0-5.88-1.08-10.77-3.25-14.69c-2.17-3.91-5.04-6.92-8.6-9.02    s-7.59-3.15-12.06-3.15c-4.48,0-8.5,1.05-12.06,3.15s-6.43,5.11-8.6,9.02c-2.17,3.92-3.25,8.81-3.25,14.69    c0,5.74,1.08,10.67,3.25,14.79c2.17,4.13,5.04,7.24,8.6,9.34S746.04,645.16,750.52,645.16z" fill="#ffffff"/>
		<path d="M849.33,676.84c-6.71,0-12.38-2.2-16.99-6.61c-4.62-4.41-6.92-10.17-6.92-17.31c0-6.99,2.31-12.62,6.92-16.89    c4.62-4.26,10.28-6.4,16.99-6.4c6.71,0,12.38,2.13,16.99,6.4c4.62,4.27,6.92,9.9,6.92,16.89c0,7.13-2.31,12.9-6.92,17.31    C861.71,674.64,856.04,676.84,849.33,676.84z" fill="#ffffff"/>
	</g>
	<g>
		
			<linearGradient id="SVGID_00000086667711314516083110000002802001655333049496_" gradientUnits="userSpaceOnUse" x1="207.1562" y1="598.0615" x2="873.2451" y2="598.0615" fill="#ffffff">
			<stop offset="7.041998e-04" style="stop-color:#ffffff" fill="#ffffff"/>
			<stop offset="1" style="stop-color:#ffffff" fill="#ffffff"/>
		</linearGradient>
		<path style="fill:url(#SVGID_00000086667711314516083110000002802001655333049496_);" d="M262.96,676.84    c-10.21,0-19.58-2.41-28.11-7.24c-8.53-4.83-15.28-11.61-20.25-20.35c-4.97-8.74-7.45-19.12-7.45-31.15    c0-12.17,2.48-22.62,7.45-31.36c4.96-8.74,11.71-15.53,20.25-20.35c8.53-4.83,17.9-7.24,28.11-7.24c9.65,0,17.9,2.13,24.76,6.4    c6.85,4.27,12.03,10.74,15.52,19.41c3.5,8.67,5.25,19.72,5.25,33.15s-1.65,24.48-4.93,33.15c-3.29,8.67-8.32,15.11-15.11,19.3    C281.67,674.74,273.17,676.84,262.96,676.84z M271.35,645.16c4.47,0,8.5-1.05,12.06-3.15s6.4-5.21,8.5-9.34    c2.1-4.12,3.15-8.99,3.15-14.58c0-6.01-1.05-10.98-3.15-14.89c-2.1-3.91-4.93-6.92-8.5-9.02s-7.59-3.15-12.06-3.15    c-4.62,0-8.71,1.05-12.27,3.15s-6.4,5.11-8.5,9.02c-2.1,3.92-3.15,8.88-3.15,14.89c0,5.6,1.05,10.46,3.15,14.58    c2.1,4.13,4.93,7.24,8.5,9.34S266.74,645.16,271.35,645.16z M296.32,674.95v-19.51l0.21-37.55l-2.1-37.55v-61.05h39.86v155.67    H296.32z"/>
		
			<linearGradient id="SVGID_00000142873751258060850820000015299814159671573410_" gradientUnits="userSpaceOnUse" x1="207.1562" y1="598.0615" x2="873.2451" y2="598.0615" fill="#ffffff">
			<stop offset="7.041998e-04" style="stop-color:#ffffff" fill="#ffffff"/>
			<stop offset="1" style="stop-color:#ffffff" fill="#ffffff"/>
		</linearGradient>
		<path style="fill:url(#SVGID_00000142873751258060850820000015299814159671573410_);" d="M401.21,676.84    c-9.65,0-19.06-1.12-28.22-3.36c-9.16-2.24-16.54-5.04-22.13-8.39l11.75-27.27c5.46,3.22,11.75,5.81,18.88,7.76    c7.13,1.96,14.12,2.94,20.98,2.94c6.71,0,11.36-0.73,13.95-2.2c2.59-1.47,3.88-3.46,3.88-5.98c0-2.1-1.19-3.7-3.57-4.83    c-2.38-1.12-5.6-1.92-9.65-2.41c-4.06-0.49-8.43-1.05-13.11-1.68c-4.69-0.63-9.48-1.61-14.37-2.94c-4.9-1.33-9.33-3.18-13.32-5.56    c-3.99-2.38-7.17-5.66-9.55-9.86c-2.38-4.2-3.57-9.51-3.57-15.94c0-7.27,2.13-13.74,6.4-19.41c4.26-5.67,10.49-10.17,18.67-13.53    c8.18-3.36,18.29-5.03,30.32-5.03c7.97,0,16.05,0.84,24.23,2.52c8.18,1.68,15.07,4.13,20.66,7.34l-11.96,27.27    c-5.6-3.36-11.19-5.59-16.78-6.71c-5.6-1.12-10.84-1.68-15.74-1.68c-6.71,0-11.51,0.73-14.37,2.2c-2.87,1.47-4.3,3.32-4.3,5.56    c0,2.24,1.26,3.95,3.78,5.14c2.52,1.19,5.73,2.1,9.65,2.73c3.91,0.63,8.29,1.26,13.11,1.89c4.83,0.63,9.61,1.57,14.37,2.83    c4.75,1.26,9.09,3.11,13.01,5.56c3.91,2.45,7.1,5.74,9.54,9.86c2.45,4.13,3.67,9.48,3.67,16.05c0,6.85-2.1,13.08-6.29,18.67    c-4.2,5.59-10.49,10.07-18.88,13.43C423.87,675.16,413.52,676.84,401.21,676.84z"/>
		
			<linearGradient id="SVGID_00000173161142315991873810000016086115664639371183_" gradientUnits="userSpaceOnUse" x1="207.1562" y1="598.0615" x2="873.2451" y2="598.0615" fill="#ffffff">
			<stop offset="7.041998e-04" style="stop-color:#ffffff" fill="#ffffff"/>
			<stop offset="1" style="stop-color:#ffffff" fill="#ffffff"/>
		</linearGradient>
		<path style="fill:url(#SVGID_00000173161142315991873810000016086115664639371183_);" d="M532.75,676.84    c-12.73,0-23.99-2.52-33.78-7.55c-9.79-5.04-17.49-11.99-23.08-20.88c-5.6-8.88-8.39-18.99-8.39-30.32    c0-11.47,2.8-21.61,8.39-30.42c5.59-8.81,13.29-15.77,23.08-20.87c9.79-5.1,21.05-7.66,33.78-7.66c12.87,0,23.99,2.76,33.36,8.29    c9.37,5.53,16.01,13.18,19.93,22.97l-30.84,15.94c-2.66-5.31-5.95-9.2-9.86-11.64c-3.92-2.45-8.18-3.67-12.8-3.67    c-4.62,0-8.78,1.05-12.48,3.15c-3.71,2.1-6.68,5.11-8.92,9.02c-2.24,3.92-3.36,8.88-3.36,14.89c0,5.74,1.12,10.63,3.36,14.69    c2.24,4.06,5.21,7.13,8.92,9.23c3.7,2.1,7.87,3.15,12.48,3.15c4.62,0,8.88-1.22,12.8-3.67c3.91-2.45,7.2-6.33,9.86-11.64    l30.84,15.73c-3.92,9.79-10.56,17.45-19.93,22.97C556.74,674.08,545.62,676.84,532.75,676.84z"/>
		
			<linearGradient id="SVGID_00000133527456850249081380000017409885236218989187_" gradientUnits="userSpaceOnUse" x1="207.1562" y1="598.0615" x2="873.2451" y2="598.0615" fill="#ffffff">
			<stop offset="7.041998e-04" style="stop-color:#ffffff" fill="#ffffff"/>
			<stop offset="1" style="stop-color:#ffffff" fill="#ffffff"/>
		</linearGradient>
		<path style="fill:url(#SVGID_00000133527456850249081380000017409885236218989187_);" d="M591.07,595.23v-29.79h82.45v29.79    H591.07z M653.8,676.84c-14.55,0-25.88-3.6-33.99-10.8c-8.11-7.2-12.17-18.08-12.17-32.62v-97.76h39.86v97.13    c0,4.34,1.08,7.62,3.25,9.86c2.17,2.24,5.07,3.36,8.71,3.36c4.62,0,8.67-1.19,12.17-3.57l10.07,27.69    c-3.64,2.38-7.87,4.09-12.69,5.14S659.12,676.84,653.8,676.84z"/>
		
			<linearGradient id="SVGID_00000027591853600323270490000011964883835049311880_" gradientUnits="userSpaceOnUse" x1="207.1562" y1="598.0615" x2="873.2451" y2="598.0615" fill="#ffffff">
			<stop offset="7.041998e-04" style="stop-color:#ffffff" fill="#ffffff"/>
			<stop offset="1" style="stop-color:#ffffff" fill="#ffffff"/>
		</linearGradient>
		<path style="fill:url(#SVGID_00000027591853600323270490000011964883835049311880_);" d="M750.52,676.84    c-12.45,0-23.5-2.52-33.15-7.55s-17.24-11.99-22.76-20.88c-5.53-8.88-8.29-18.99-8.29-30.32c0-11.47,2.76-21.64,8.29-30.52    c5.52-8.88,13.11-15.84,22.76-20.88s20.7-7.55,33.15-7.55c12.45,0,23.53,2.52,33.25,7.55c9.72,5.04,17.34,12,22.87,20.88    c5.52,8.88,8.29,19.06,8.29,30.52c0,11.33-2.76,21.44-8.29,30.32c-5.53,8.88-13.15,15.84-22.87,20.88    C774.05,674.32,762.96,676.84,750.52,676.84z M750.52,645.16c4.47,0,8.5-1.05,12.06-3.15s6.43-5.21,8.6-9.34    c2.17-4.12,3.25-9.05,3.25-14.79c0-5.88-1.08-10.77-3.25-14.69c-2.17-3.91-5.04-6.92-8.6-9.02s-7.59-3.15-12.06-3.15    c-4.48,0-8.5,1.05-12.06,3.15s-6.43,5.11-8.6,9.02c-2.17,3.92-3.25,8.81-3.25,14.69c0,5.74,1.08,10.67,3.25,14.79    c2.17,4.13,5.04,7.24,8.6,9.34S746.04,645.16,750.52,645.16z"/>
		
			<linearGradient id="SVGID_00000047035594788645557620000000428497984793024163_" gradientUnits="userSpaceOnUse" x1="207.1562" y1="598.0615" x2="873.2451" y2="598.0615" fill="#ffffff">
			<stop offset="7.041998e-04" style="stop-color:#ffffff" fill="#ffffff"/>
			<stop offset="1" style="stop-color:#ffffff" fill="#ffffff"/>
		</linearGradient>
		<path style="fill:url(#SVGID_00000047035594788645557620000000428497984793024163_);" d="M849.33,676.84    c-6.71,0-12.38-2.2-16.99-6.61c-4.62-4.41-6.92-10.17-6.92-17.31c0-6.99,2.31-12.62,6.92-16.89c4.62-4.26,10.28-6.4,16.99-6.4    c6.71,0,12.38,2.13,16.99,6.4c4.62,4.27,6.92,9.9,6.92,16.89c0,7.13-2.31,12.9-6.92,17.31    C861.71,674.64,856.04,676.84,849.33,676.84z"/>
	</g>
</g>
<g>
	<g>
		<path d="M211.51,447.13v-42.67l104.68-146.02h68.68L282.85,404.46l-31.34-9.33h182.36v52.01H211.51z M334.86,491.81v-44.67    l2-52.01v-40.01h62.34v136.69H334.86z" fill="#ffffff"/>
		<path d="M550.22,496.47c-20,0-37.73-4.72-53.17-14.17c-15.45-9.44-27.62-23.28-36.51-41.51c-8.89-18.22-13.33-40.12-13.33-65.68    c0-25.56,4.44-47.45,13.33-65.68c8.89-18.22,21.06-32.06,36.51-41.51c15.44-9.44,33.17-14.17,53.17-14.17    c19.78,0,37.45,4.72,53.01,14.17c15.55,9.45,27.72,23.28,36.5,41.51c8.78,18.23,13.17,40.12,13.17,65.68    c0,25.56-4.39,47.46-13.17,65.68c-8.78,18.23-20.95,32.06-36.5,41.51C587.67,491.75,570,496.47,550.22,496.47z M550.22,442.46    c7.11,0,13.39-2.22,18.84-6.67c5.44-4.44,9.72-11.61,12.84-21.5c3.11-9.89,4.67-22.95,4.67-39.17c0-16.44-1.56-29.56-4.67-39.34    c-3.12-9.78-7.39-16.89-12.84-21.34c-5.45-4.44-11.73-6.67-18.84-6.67c-7.12,0-13.39,2.22-18.84,6.67    c-5.45,4.45-9.78,11.56-13,21.34c-3.22,9.78-4.83,22.89-4.83,39.34c0,16.23,1.61,29.29,4.83,39.17c3.22,9.89,7.55,17.06,13,21.5    C536.83,440.25,543.11,442.46,550.22,442.46z" fill="#ffffff"/>
	</g>
	<g>
		
			<linearGradient id="SVGID_00000139281499362201663300000011637617448546784444_" gradientUnits="userSpaceOnUse" x1="211.5088" y1="375.1218" x2="652.9053" y2="375.1218" fill="#ffffff">
			<stop offset="7.041998e-04" style="stop-color:#ffffff" fill="#ffffff"/>
			<stop offset="1" style="stop-color:#ffffff" fill="#ffffff"/>
		</linearGradient>
		<path style="fill:url(#SVGID_00000139281499362201663300000011637617448546784444_);" d="M211.51,447.13v-42.67l104.68-146.02    h68.68L282.85,404.46l-31.34-9.33h182.36v52.01H211.51z M334.86,491.81v-44.67l2-52.01v-40.01h62.34v136.69H334.86z"/>
		
			<linearGradient id="SVGID_00000032608482234153308390000013027752194858329531_" gradientUnits="userSpaceOnUse" x1="211.5088" y1="375.1218" x2="652.9053" y2="375.1218" fill="#ffffff">
			<stop offset="7.041998e-04" style="stop-color:#ffffff" fill="#ffffff"/>
			<stop offset="1" style="stop-color:#ffffff" fill="#ffffff"/>
		</linearGradient>
		<path style="fill:url(#SVGID_00000032608482234153308390000013027752194858329531_);" d="M550.22,496.47    c-20,0-37.73-4.72-53.17-14.17c-15.45-9.44-27.62-23.28-36.51-41.51c-8.89-18.22-13.33-40.12-13.33-65.68    c0-25.56,4.44-47.45,13.33-65.68c8.89-18.22,21.06-32.06,36.51-41.51c15.44-9.44,33.17-14.17,53.17-14.17    c19.78,0,37.45,4.72,53.01,14.17c15.55,9.45,27.72,23.28,36.5,41.51c8.78,18.23,13.17,40.12,13.17,65.68    c0,25.56-4.39,47.46-13.17,65.68c-8.78,18.23-20.95,32.06-36.5,41.51C587.67,491.75,570,496.47,550.22,496.47z M550.22,442.46    c7.11,0,13.39-2.22,18.84-6.67c5.44-4.44,9.72-11.61,12.84-21.5c3.11-9.89,4.67-22.95,4.67-39.17c0-16.44-1.56-29.56-4.67-39.34    c-3.12-9.78-7.39-16.89-12.84-21.34c-5.45-4.44-11.73-6.67-18.84-6.67c-7.12,0-13.39,2.22-18.84,6.67    c-5.45,4.45-9.78,11.56-13,21.34c-3.22,9.78-4.83,22.89-4.83,39.34c0,16.23,1.61,29.29,4.83,39.17c3.22,9.89,7.55,17.06,13,21.5    C536.83,440.25,543.11,442.46,550.22,442.46z"/>
	</g>
</g>
<g>
	<g>
		<path d="M722.75,422.57c-7.7,0-14.54-1.7-20.54-5.11c-5.99-3.4-10.69-8.36-14.1-14.87c-3.41-6.51-5.11-14.21-5.11-23.09    c0-8.88,1.7-16.54,5.11-22.98c3.4-6.44,8.1-11.4,14.1-14.87c5.99-3.48,12.84-5.22,20.54-5.22c7.69,0,14.54,1.74,20.54,5.22    c5.99,3.48,10.73,8.44,14.21,14.87c3.48,6.44,5.22,14.1,5.22,22.98c0,8.88-1.74,16.58-5.22,23.09    c-3.48,6.51-8.21,11.47-14.21,14.87C737.29,420.87,730.44,422.57,722.75,422.57z M708.76,493.83l106.12-155.41h31.75    L740.51,493.83H708.76z M722.75,401.48c3.7,0,6.81-1.7,9.32-5.11c2.51-3.4,3.77-9.03,3.77-16.87c0-7.84-1.26-13.47-3.77-16.87    c-2.52-3.4-5.63-5.11-9.32-5.11c-3.55,0-6.59,1.7-9.1,5.11c-2.52,3.41-3.77,9.03-3.77,16.87c0,7.85,1.26,13.47,3.77,16.87    C716.16,399.78,719.19,401.48,722.75,401.48z M832.42,495.83c-7.55,0-14.36-1.7-20.42-5.11c-6.07-3.4-10.81-8.36-14.21-14.87    c-3.41-6.51-5.11-14.21-5.11-23.09c0-8.88,1.7-16.54,5.11-22.98c3.4-6.44,8.14-11.4,14.21-14.87c6.07-3.48,12.88-5.22,20.42-5.22    c7.69,0,14.58,1.74,20.65,5.22c6.07,3.48,10.77,8.44,14.1,14.87c3.33,6.44,5,14.1,5,22.98c0,8.88-1.67,16.58-5,23.09    c-3.33,6.51-8.03,11.47-14.1,14.87C846.99,494.13,840.11,495.83,832.42,495.83z M832.42,474.74c3.7,0,6.81-1.7,9.32-5.11    c2.51-3.4,3.77-9.03,3.77-16.87c0-7.84-1.26-13.47-3.77-16.87c-2.52-3.4-5.63-5.11-9.32-5.11c-3.55,0-6.63,1.7-9.21,5.11    c-2.59,3.41-3.88,9.03-3.88,16.87c0,7.85,1.29,13.47,3.88,16.87C825.79,473.04,828.86,474.74,832.42,474.74z" fill="#ffffff"/>
	</g>
	<g>
		
			<linearGradient id="SVGID_00000034812259907039594950000003705116105848766373_" gradientUnits="userSpaceOnUse" x1="683.0049" y1="416.1277" x2="872.1562" y2="416.1277" fill="#ffffff">
			<stop offset="7.041998e-04" style="stop-color:#ffffff" fill="#ffffff"/>
			<stop offset="1" style="stop-color:#ffffff" fill="#ffffff"/>
		</linearGradient>
		<path style="fill:url(#SVGID_00000034812259907039594950000003705116105848766373_);" d="M722.75,422.57    c-7.7,0-14.54-1.7-20.54-5.11c-5.99-3.4-10.69-8.36-14.1-14.87c-3.41-6.51-5.11-14.21-5.11-23.09c0-8.88,1.7-16.54,5.11-22.98    c3.4-6.44,8.1-11.4,14.1-14.87c5.99-3.48,12.84-5.22,20.54-5.22c7.69,0,14.54,1.74,20.54,5.22c5.99,3.48,10.73,8.44,14.21,14.87    c3.48,6.44,5.22,14.1,5.22,22.98c0,8.88-1.74,16.58-5.22,23.09c-3.48,6.51-8.21,11.47-14.21,14.87    C737.29,420.87,730.44,422.57,722.75,422.57z M708.76,493.83l106.12-155.41h31.75L740.51,493.83H708.76z M722.75,401.48    c3.7,0,6.81-1.7,9.32-5.11c2.51-3.4,3.77-9.03,3.77-16.87c0-7.84-1.26-13.47-3.77-16.87c-2.52-3.4-5.63-5.11-9.32-5.11    c-3.55,0-6.59,1.7-9.1,5.11c-2.52,3.41-3.77,9.03-3.77,16.87c0,7.85,1.26,13.47,3.77,16.87    C716.16,399.78,719.19,401.48,722.75,401.48z M832.42,495.83c-7.55,0-14.36-1.7-20.42-5.11c-6.07-3.4-10.81-8.36-14.21-14.87    c-3.41-6.51-5.11-14.21-5.11-23.09c0-8.88,1.7-16.54,5.11-22.98c3.4-6.44,8.14-11.4,14.21-14.87c6.07-3.48,12.88-5.22,20.42-5.22    c7.69,0,14.58,1.74,20.65,5.22c6.07,3.48,10.77,8.44,14.1,14.87c3.33,6.44,5,14.1,5,22.98c0,8.88-1.67,16.58-5,23.09    c-3.33,6.51-8.03,11.47-14.1,14.87C846.99,494.13,840.11,495.83,832.42,495.83z M832.42,474.74c3.7,0,6.81-1.7,9.32-5.11    c2.51-3.4,3.77-9.03,3.77-16.87c0-7.84-1.26-13.47-3.77-16.87c-2.52-3.4-5.63-5.11-9.32-5.11c-3.55,0-6.63,1.7-9.21,5.11    c-2.59,3.41-3.88,9.03-3.88,16.87c0,7.85,1.29,13.47,3.88,16.87C825.79,473.04,828.86,474.74,832.42,474.74z"/>
	</g>
</g>
</svg>