<?xml version="1.0" encoding="utf-8"?>
<!-- Generator: Adobe Illustrator 25.4.1, SVG Export Plug-In . SVG Version: 6.00 Build 0)  -->
<svg version="1.1" id="Capa_1" xmlns="http://www.w3.org/2000/svg" xmlns:xlink="http://www.w3.org/1999/xlink" x="0px" y="0px"
	 viewBox="0 0 1000 1000" style="enable-background:new 0 0 1000 1000;" xml:space="preserve">
<style type="text/css">
	.st0{fill:#FF9F05;}
	.st1{fill:url(#SVGID_1_);}
	.st2{fill:url(#SVGID_00000157275910117166944970000006492458164715641767_);}
	.st3{fill:#FCC103;}
	.st4{fill:url(#SVGID_00000063618723761704463880000007103779788729973677_);}
	.st5{fill:url(#SVGID_00000174571117439363230510000002122341507123407245_);}
	.st6{display:none;}
	.st7{display:inline;}
	.st8{fill:url(#SVGID_00000065771894133359963850000018122075795721662907_);}
	.st9{fill:url(#SVGID_00000169521246206117662000000005284307340934323113_);}
	.st10{fill:url(#SVGID_00000135653619189850437290000003522503823140391590_);}
	.st11{fill:url(#SVGID_00000058567410359990962890000002886214358284564371_);}
	.st12{fill:url(#SVGID_00000036942063226880600950000017690241016396234381_);}
	.st13{fill:url(#SVGID_00000013194938794822030640000010595535237192201092_);}
	.st14{fill:url(#SVGID_00000010291658059842574400000011698193232846352514_);}
	.st15{fill:url(#SVGID_00000137129936330571417480000001304201612528335511_);}
	.st16{fill:url(#SVGID_00000139983440256835599220000011898717365386195095_);}
	.st17{fill:#FED901;}
	.st18{fill:url(#SVGID_00000065795518582232493820000015930939530496610476_);}
	.st19{fill:url(#SVGID_00000109711126782880998260000009885923517040935084_);}
	.st20{fill:url(#SVGID_00000180338414831592776010000012366928583563766659_);}
	.st21{fill:url(#SVGID_00000098179636989533175570000002995423073832048562_);}
	.st22{fill:url(#SVGID_00000005986276809207168080000003050160302025754763_);}
	.st23{fill:url(#SVGID_00000032615135293610520130000003957997040625014667_);}
	.st24{fill:url(#SVGID_00000143588154275038286110000008804417860151136406_);}
	.st25{fill:url(#SVGID_00000088847053509009854770000000812836862215837625_);}
	.st26{fill:url(#SVGID_00000111152847593300062390000007753804540923896472_);}
	.st27{fill:url(#SVGID_00000158742556531420344870000007310352743303099572_);}
	.st28{fill:url(#SVGID_00000103987103956966803180000000502275380766515127_);}
	.st29{fill:url(#SVGID_00000183945225922300837470000009290118270343428766_);}
</style>
<path class="st0" d="M468.72,799.72c-9.48-0.74-18.96-1.51-28.44-2.2c-47.13-3.43-93.59-10.59-138.63-25.35
	c-22.54-7.39-44.35-16.48-63.54-30.78c-14.53-10.83-26.5-23.69-30.54-42.13c-3.4-15.51,0.55-29.51,9.58-42.2
	c10.43-14.66,24.65-24.89,40.38-33.04c8.05-4.18,17.86-0.63,22.19,7.22c4.35,7.9,1.96,17.4-5.78,22.67
	c-7.78,5.3-16.36,10.05-23.33,16.41c-6.16,5.62-10.88,13.88-9.23,22.05c0.84,4.16,3.24,7.84,5.97,11.1
	c15.55,18.55,41.43,28.14,63.69,35.6c37.81,12.67,76.87,19.18,116.45,22.93c44.58,4.23,89.21,4.62,133.81,0.92
	c52.64-4.37,104.5-12.6,153.34-34.15c12.7-5.61,25.34-12.87,35.24-22.77c4.89-4.88,8.72-11.39,8.39-18.28
	c-0.34-7.21-5.04-12.43-10.05-17.08c-4.55-4.23-9.47-8.06-14.7-11.42c-5.2-3.35-10.94-6.48-14.02-11.85
	c-2.53-4.41-2.84-10.01-0.83-14.68c2.02-4.66,6.32-8.27,11.27-9.44c5.45-1.29,11.22,0.29,16.18,2.9
	c17.03,8.97,33.37,23.73,41.49,41.36c10.08,21.9,4.5,43.68-11.52,60.9c-7.59,8.16-16.66,15.02-26.4,20.41
	c-15.59,8.63-32.05,16.15-48.85,22.08c-45.27,15.97-92.43,22.86-140.11,26.53c-10.05,0.78-20.11,1.53-30.16,2.29
	C509.97,799.72,489.34,799.72,468.72,799.72z"/>
<path class="st0" d="M398.76,603.59c-7.23,1.41-14.34,3.28-21.47,5.09c-6.88,1.75-13.75,3.6-20.51,5.79
	c-15.31,4.96-29.96,11.58-41.22,23.71c-13.37,14.39-13.66,34,0.29,47.79c6.52,6.45,14.47,11.99,22.71,16.06
	c28.97,14.29,60.45,19.44,92.14,23.26c38.6,4.65,77.32,4.92,116.05,2.15c30.89-2.21,61.45-6.67,91.07-16.07
	c15.42-4.89,30.41-10.9,42.55-22.02c10.5-9.62,15.5-25.25,10.42-38.9c-4.96-13.34-17.65-22.33-29.92-28.43
	c-16.62-8.26-34.29-12.92-52.25-17.11c-3.77-0.88-8-1.1-11.27,0.98c-5.66,3.59-7.55,12.29-10.77,17.81
	c-6.9,11.81,10.37,14.52,17.81,15.88c14.42,2.64,28.49,7.2,41.72,13.54c2.38,1.14,4.8,2.39,6.54,4.38c1.74,1.99,2.67,4.9,1.64,7.34
	c-0.97,2.29-3.35,3.6-5.59,4.69c-14.51,7.09-29.93,12.16-45.75,15.35c-67.17,13.51-134.61,13.38-201.96,1.11
	c-16.49-3-32.62-7.37-47.73-14.74c-4.02-1.96-8.54-5.09-8.23-9.55c0.27-3.89,4.13-6.41,7.62-8.15c17.08-8.54,35.38-12.76,54-16.41
	c9.15-1.79,7.54-11.03,4-17.01c-3.03-5.2-6.23-10.3-9.38-15.43C401.27,604.68,400.4,603.27,398.76,603.59z"/>
<linearGradient id="SVGID_1_" gradientUnits="userSpaceOnUse" x1="499.1013" y1="650.9511" x2="499.1013" y2="201.5469">
	<stop  offset="7.041998e-04" style="stop-color:#FF9F05"/>
	<stop  offset="1" style="stop-color:#FED901"/>
</linearGradient>
<path class="st1" d="M655.55,341.1c-11.77-64.99-69.59-117.83-134.6-126.55c-62.79-8.42-124.74,22.11-157.98,75.71
	c-13.9,22.42-22.15,48.47-22.61,74.85c-0.71,40.97,17.01,78.84,34.01,115.11c18.09,38.59,38.64,75.97,60.14,112.74
	c8.61,14.72,17.37,29.35,26.21,43.93c19.44,32.11,58.52,32.06,77.95-0.22c32.73-54.37,65.15-110.18,92.49-167.55
	c18.59-39,31.68-82.52,24.88-125.18C655.89,343,655.73,342.05,655.55,341.1z M499.41,426.17c-35.21-0.14-63.91-29.04-63.91-64.33
	c0.01-35.3,28.74-63.96,64.12-63.98c35.41-0.02,64.14,28.58,64.19,63.91C563.87,397.29,534.85,426.31,499.41,426.17z"/>
</svg>
