<svg xmlns="http://www.w3.org/2000/svg" xmlns:xlink="http://www.w3.org/1999/xlink" version="1.1" id="Capa_1" x="0px" y="0px" viewBox="0 0 1000 1000" style="enable-background:new 0 0 1000 1000;" xml:space="preserve">
<style type="text/css">
	.st0{fill:#ffffff;}
	.st1{fill:url(#SVGID_1_);}
	.st2{fill:url(#SVGID_00000129925542529129776760000014324116402434006202_);}
	.st3{fill:#ffffff;}
	.st4{fill:url(#SVGID_00000168093787084291882020000005639849615656984449_);}
	.st5{fill:url(#SVGID_00000034785357448358824330000011372800551259997070_);}
	.st6{display:none;}
	.st7{display:inline;}
	.st8{fill:url(#SVGID_00000076593109102526462160000001549483641871770025_);}
	.st9{fill:url(#SVGID_00000075884863460910350910000010018056399319372710_);}
	.st10{fill:url(#SVGID_00000158733328298202448620000010836051396517250489_);}
	.st11{fill:url(#SVGID_00000036945772700046407140000008540530489328583061_);}
	.st12{fill:url(#SVGID_00000006677253687235108620000013281845293004547246_);}
	.st13{fill:url(#SVGID_00000082330723479726212780000013392080591338970784_);}
	.st14{fill:url(#SVGID_00000116204261052900971430000003635424483978270625_);}
	.st15{fill:url(#SVGID_00000181777192454363884290000006778806530358473628_);}
	.st16{fill:url(#SVGID_00000020361849989252455540000016365936522364858287_);}
	.st17{fill:#ffffff;}
	.st18{fill:url(#SVGID_00000014608429442905620330000005197391382160544141_);}
	.st19{fill:url(#SVGID_00000133519740554134133070000000339542793021616794_);}
	.st20{fill:url(#SVGID_00000128454777045771339960000002117650559518063255_);}
	.st21{fill:url(#SVGID_00000013903811100252374200000002085389927350075036_);}
	.st22{fill:url(#SVGID_00000125583011643606264930000007805222084932369285_);}
	.st23{fill:url(#SVGID_00000013181613262976192170000008850843857671627414_);}
	.st24{fill:url(#SVGID_00000054976747613338710460000017412717314702271909_);}
	.st25{fill:url(#SVGID_00000093136359866154553210000009186962967530707622_);}
	.st26{fill:url(#SVGID_00000036957102076266435020000007626787246096562855_);}
	.st27{fill:url(#SVGID_00000134238009742258090260000010776609660616681876_);}
	.st28{fill:url(#SVGID_00000170964474038414125140000016380713405284224423_);}
	.st29{fill:url(#SVGID_00000061457398994266931120000003811821847209461896_);}
</style>
<g>
	<path class="st17" d="M816.31,631.32c-1.36-0.42-4.11-0.88-6.51-2.07c-18.64-9.21-37.25-18.46-55.76-27.91   c-8.03-4.1-11.07-10.68-8.99-17.93c2.25-7.85,10.75-13.01,18.43-9.41c21.07,9.89,41.84,20.44,62.44,31.31   c6.12,3.23,7.36,9.72,5.25,16.24C829.1,627.9,824.33,631,816.31,631.32z" fill="#ffffff"/>
	<g>
		<linearGradient id="SVGID_1_" gradientUnits="userSpaceOnUse" x1="744.4078" y1="470.4596" x2="861.4706" y2="470.4596" fill="#ffffff">
			<stop offset="7.041998e-04" style="stop-color:#ffffff" fill="#ffffff"/>
			<stop offset="1" style="stop-color:#ffffff" fill="#ffffff"/>
		</linearGradient>
		<path class="st1" d="M760.32,367.31c1.78-0.64,5.09-1.5,8.1-2.99c17.41-8.59,34.76-17.31,52.1-26.04    c2.03-1.02,4.07-2.14,5.84-3.54c8.78-6.94,7.16-20.83-3.37-24.39c-4.05-1.37-9.76-0.8-13.7,1.05    c-18.61,8.72-36.88,18.16-55.23,27.42c-1.81,0.91-3.56,2.13-5.03,3.53c-4.62,4.4-5.67,9.82-3.49,15.69    C747.75,364.03,752.35,366.96,760.32,367.31z M816.31,631.32c8.03-0.32,12.79-3.42,14.85-9.78c2.11-6.52,0.87-13.01-5.25-16.24    c-20.59-10.86-41.37-21.42-62.44-31.31c-7.68-3.61-16.18,1.56-18.43,9.41c-2.08,7.26,0.96,13.83,8.99,17.93    c18.51,9.46,37.13,18.7,55.76,27.91C812.19,630.44,814.95,630.9,816.31,631.32z M817.58,484.87c0,0.01,0,0.02,0,0.04    c8.68,0,17.37,0,26.05,0c0.46,0,0.92,0.01,1.37-0.01c9.93-0.58,16.47-6.46,16.47-14.78c0-8.33-6.52-14.54-16.47-14.7    c-18.28-0.28-36.57-0.46-54.83,0.19c-4.49,0.16-9.61,2.8-13.08,5.85c-4.19,3.68-4.35,9.37-1.98,14.63    c2.77,6.14,8.09,8.55,14.37,8.72C798.84,485.06,808.21,484.87,817.58,484.87z" fill="#ffffff"/>
		
			<linearGradient id="SVGID_00000127012191899109250150000004168600119990165678_" gradientUnits="userSpaceOnUse" x1="157.5204" y1="514.2027" x2="744.3391" y2="514.2027" fill="#ffffff">
			<stop offset="7.041998e-04" style="stop-color:#ffffff" fill="#ffffff"/>
			<stop offset="1" style="stop-color:#ffffff" fill="#ffffff"/>
		</linearGradient>
		<path style="fill:url(#SVGID_00000127012191899109250150000004168600119990165678_);" d="M157.52,456.34    c2.6-10.12,4.38-20.54,7.92-30.32c19.24-53.14,66.84-86.86,123.33-87.92c2.52-0.05,5.06-0.25,7.56,0.01    c33.68,3.44,64.52-5.14,95.57-18.13c79.56-33.27,159.98-64.46,240.06-96.47c15.6-6.23,24.4-0.19,24.42,16.78    c0.03,40.56,0.11,81.13-0.12,121.69c-0.03,5.36,1.42,7.22,6.83,8.39c47.48,10.25,80.87,51.32,81.25,99.35    c0.38,47.53-33.14,89.47-80.51,99.89c-6.52,1.43-7.61,3.99-7.57,9.92c0.25,39.42,0.13,78.83,0.13,118.25    c0,20.1-8.14,25.52-26.98,17.98c-59.89-23.97-119.77-47.95-179.66-71.92c-2.11-0.85-4.27-1.58-7.7-2.84    c0.89,3.17,1.5,5.43,2.15,7.67c7.73,26.33,16.71,52.37,22.92,79.05c10.71,46.03-30.1,85.82-76.14,78.74    c-28.64-4.4-47.59-21.08-56.15-48.95c-15.04-48.98-30.12-97.95-44.69-147.08c-1.99-6.7-4.93-8.59-11.52-9.33    c-56.66-6.38-94.82-36.69-114.32-90.18c-3.17-8.69-4.56-18.04-6.77-27.08C157.52,474.68,157.52,465.51,157.52,456.34z     M626.38,257.8c-2.3,0.74-4.25,1.23-6.11,1.97c-83.88,33.51-167.74,67.09-251.68,100.47c-4.68,1.86-5.92,4.33-5.91,9.1    c0.15,66.9,0.18,133.79-0.04,200.69c-0.02,5.73,1.76,8.23,7.09,10.35c79.69,31.68,159.28,63.62,238.9,95.49    c5.69,2.28,11.42,4.45,17.75,6.91C626.38,540.77,626.38,399.56,626.38,257.8z M333.17,367.93c-17.47,0-34.63-0.94-51.66,0.18    c-52.17,3.42-91.24,44.81-94.56,99.18c-2.94,48.25,34.12,95.14,83.57,103.17c19.03,3.09,38.77,1.79,58.19,2.42    c1.5,0.05,3.02-0.41,4.46-0.62C333.17,503.9,333.17,435.99,333.17,367.93z M318.21,602.53c15.2,49.84,30,99.1,45.31,148.21    c6.58,21.1,28.63,32.07,49.37,25.52c21.2-6.69,31.12-26.3,24.45-48.67c-9.49-31.78-18.97-63.56-28.86-95.22    c-0.97-3.1-4.24-6.43-7.27-7.76c-12.98-5.69-26.65-9.89-39.35-16.11C347.99,601.71,333.75,601.37,318.21,602.53z M656.72,541.2    c33.65-5.66,59.31-38.33,57.9-73.32c-1.38-34.21-27.99-65.83-57.9-68.57C656.72,446.6,656.72,493.87,656.72,541.2z"/>
		<path class="st17" d="M760.32,367.31c-7.97-0.34-12.56-3.28-14.79-9.27c-2.18-5.87-1.13-11.29,3.49-15.69    c1.47-1.4,3.21-2.62,5.03-3.53c18.35-9.26,36.62-18.7,55.23-27.42c3.94-1.85,9.66-2.41,13.7-1.05    c10.53,3.56,12.15,17.45,3.37,24.39c-1.77,1.4-3.81,2.52-5.84,3.54c-17.34,8.72-34.69,17.45-52.1,26.04    C765.41,365.8,762.09,366.66,760.32,367.31z" fill="#ffffff"/>
		<path class="st17" d="M817.58,484.87c-9.37,0-18.74,0.19-28.11-0.06c-6.28-0.17-11.6-2.58-14.37-8.72    c-2.37-5.25-2.22-10.94,1.98-14.63c3.47-3.05,8.6-5.69,13.08-5.85c18.26-0.65,36.56-0.47,54.83-0.19    c9.96,0.15,16.47,6.37,16.47,14.7c0,8.33-6.53,14.2-16.47,14.78c-0.46,0.03-0.91,0.01-1.37,0.01c-8.68,0-17.37,0-26.05,0    C817.58,484.9,817.58,484.88,817.58,484.87z" fill="#ffffff"/>
		
			<linearGradient id="SVGID_00000160182875058020816220000011274075253326170254_" gradientUnits="userSpaceOnUse" x1="456.5287" y1="344.2133" x2="690.2807" y2="344.2133" fill="#ffffff">
			<stop offset="7.041998e-04" style="stop-color:#ffffff" fill="#ffffff"/>
			<stop offset="1" style="stop-color:#ffffff" fill="#ffffff"/>
		</linearGradient>
		<path style="fill:url(#SVGID_00000160182875058020816220000011274075253326170254_);" d="M581.69,307.58    c7.93,0.3,12.53,3.59,14.79,9.81c2.31,6.35,0.46,11.84-4.7,15.92c-2.46,1.94-5.52,3.24-8.47,4.43    c-33.97,13.62-67.98,27.16-101.97,40.72c-11.6,4.63-20.11,2.47-23.52-5.94c-3.69-9.1,0.62-16.42,12.64-21.24    c34.4-13.79,68.8-27.57,103.23-41.28C576.62,308.82,579.76,308.15,581.69,307.58z"/>
	</g>
</g>
</svg>