<svg xmlns="http://www.w3.org/2000/svg" xmlns:xlink="http://www.w3.org/1999/xlink" version="1.1" id="Capa_1" x="0px" y="0px" viewBox="0 0 1000 1000" style="enable-background:new 0 0 1000 1000;" xml:space="preserve">
<style type="text/css">
	.st0{fill:#ffffff;}
	.st1{fill:url(#SVGID_1_);}
	.st2{fill:url(#SVGID_00000165215641077405263030000008035744881068527793_);}
	.st3{fill:#ffffff;}
	.st4{fill:url(#SVGID_00000096764030159017720480000002180244271659301007_);}
	.st5{fill:url(#SVGID_00000116212564931817057940000003540305139582524042_);}
	.st6{display:none;}
	.st7{display:inline;}
	.st8{fill:url(#SVGID_00000015325979844038719550000017877691534875820942_);}
	.st9{fill:url(#SVGID_00000000223197347943663410000016456986178002648459_);}
	.st10{fill:url(#SVGID_00000150796663647279917000000000059094616316747411_);}
	.st11{fill:url(#SVGID_00000059994611984929029960000011641559079028428941_);}
	.st12{fill:url(#SVGID_00000177471038800445294480000012456542092636722859_);}
	.st13{fill:url(#SVGID_00000177451474555965253590000013999475735736963755_);}
	.st14{fill:url(#SVGID_00000038386391966221072070000007743315987509720460_);}
	.st15{fill:url(#SVGID_00000171688125478064413510000006669957478610928829_);}
	.st16{fill:url(#SVGID_00000012445193188633671750000007494260270961044668_);}
	.st17{fill:#ffffff;}
	.st18{fill:url(#SVGID_00000078723975134231670300000004246186983296306096_);}
	.st19{fill:url(#SVGID_00000052073103487880597430000011343838635842921375_);}
	.st20{fill:url(#SVGID_00000075853233396265934330000015743982913342070919_);}
	.st21{fill:url(#SVGID_00000083048343643575913420000002682388304763842449_);}
	.st22{fill:url(#SVGID_00000104668522714938730390000002254040435808384388_);}
	.st23{fill:url(#SVGID_00000005957906856578659230000004215616987235236513_);}
	.st24{fill:url(#SVGID_00000083769077650110795100000000938947256343009460_);}
	.st25{fill:url(#SVGID_00000031906660976136912790000004435513747112867464_);}
	.st26{fill:url(#SVGID_00000165923473028709993970000001878425490866501282_);}
	.st27{fill:url(#SVGID_00000124852088309766650340000009150136799888305035_);}
	.st28{fill:url(#SVGID_00000160177455809398857010000006175707408899332741_);}
	.st29{fill:url(#SVGID_00000154401447036286613290000003765193018688959119_);}
</style>
<g>
	<linearGradient id="SVGID_1_" gradientUnits="userSpaceOnUse" x1="275.8605" y1="480.5964" x2="773.4145" y2="480.5964" fill="#ffffff">
		<stop offset="7.041998e-04" style="stop-color:#ffffff" fill="#ffffff"/>
		<stop offset="1" style="stop-color:#ffffff" fill="#ffffff"/>
	</linearGradient>
	<path class="st1" d="M636.4,231.82c3.24,0,6.48,0,9.72,0c8.97,2.52,16.95,6.88,22.08,14.76c4.19,6.45,7.94,13.37,10.65,20.54   c2.75,7.29,4,15.15,5.97,23c14.35,0,28.75-0.05,43.14,0.01c15.17,0.07,28.16,5.39,36.7,18.14c4.1,6.12,5.91,13.77,8.76,20.72   c0,120.5,0,240.99,0,361.49c-0.24,0.6-0.58,1.17-0.7,1.8c-4.26,22.54-21.2,37.01-44.27,37.03c-135.83,0.09-271.67,0.11-407.5-0.14   c-6.73-0.01-14.01-1.61-20.09-4.48c-17.43-8.24-24.98-23.03-24.98-42c0.01-113.17,0-226.33,0-339.5c0-3.08-0.07-6.15,0.03-9.23   c0.66-20.83,12.88-37.07,33-42.12c7.39-1.85,15.39-1.48,23.13-1.65c10.97-0.25,21.95-0.06,32.68-0.06   c5.28-24.85,10.1-49.36,38.46-58.3c3.24,0,6.48,0,9.72,0c8.97,2.52,16.96,6.88,22.08,14.76c4.19,6.45,7.94,13.37,10.65,20.55   c2.75,7.29,4,15.15,5.9,22.75c10.03,0,20.02,0,29.85,0c5.21-24.61,10.04-49.12,38.41-58.07c3.24,0,6.48,0,9.72,0   c8.97,2.52,16.96,6.88,22.08,14.76c4.19,6.45,7.94,13.37,10.65,20.55c2.75,7.29,4,15.15,5.9,22.75c10.03,0,20.02,0,29.85,0   C603.2,265.29,608.03,240.77,636.4,231.82z M305.04,437.05c0,2.14,0,3.74,0,5.35c0,79.82,0,159.65,0,239.47   c0,13.11,5.15,18.33,18.11,18.33c134.39,0,268.78,0,403.16,0c12.68,0,17.95-5.29,17.95-18c0-79.98,0-159.97,0-239.95   c0-1.71,0-3.42,0-5.19C597.59,437.05,451.6,437.05,305.04,437.05z M567.67,319.48c-0.42,2.35-0.82,4.55-1.21,6.76   c-2.26,12.88-6.21,25.12-14.11,35.76c-6.77,9.12-15.44,15.21-27.23,15.53c-7.59,0.21-13.86-5.24-14.91-12.58   c-1.01-7.06,3.4-14.41,10.67-15.71c6.27-1.12,9.25-5.14,11.28-10.07c2.56-6.22,4.31-12.78,6.55-19.61c-29.85,0-58.76,0-87.73,0   c-0.42,2.64-0.75,5.05-1.21,7.43c-2.42,12.67-6.3,24.77-14.17,35.23c-6.84,9.08-15.54,15.12-27.33,15.32   c-7.56,0.13-13.78-5.47-14.68-12.83c-0.87-7.1,3.63-14.21,10.93-15.56c5.16-0.96,8.27-3.79,10.03-8.05   c2.85-6.9,5.08-14.05,7.82-21.8c-2.66,0-3.94,0-5.23,0c-31.74,0-63.47-0.02-95.21,0.01c-11.32,0.01-16.87,5.65-16.88,17.12   c-0.02,22.18-0.01,44.37-0.01,66.55c0,1.53,0,3.06,0,4.5c146.78,0,292.78,0,438.69,0c0.22-0.52,0.44-0.81,0.45-1.09   c0.03-24.29,0.16-48.57-0.01-72.86c-0.06-8.06-6.22-13.89-14.34-14.17c-5.5-0.19-11.01-0.06-16.51-0.06c-9.68,0-19.36,0-29.04,0   c-0.46,2.73-0.82,4.97-1.22,7.19c-2.32,12.87-6.27,25.11-14.22,35.71c-6.82,9.1-15.53,15.12-27.33,15.33   c-7.56,0.14-13.79-5.46-14.7-12.82c-0.88-7.1,3.62-14.21,10.91-15.57c5.15-0.96,8.27-3.77,10.03-8.04c2.84-6.9,5.1-14.05,7.78-21.6   C625.42,319.48,596.64,319.48,567.67,319.48z M422.12,289.93c-2.25-6.92-3.79-13.39-6.5-19.33c-1.63-3.56-5.08-6.29-7.71-9.4   c-2.52,3.03-5.84,5.71-7.38,9.17c-2.71,6.11-4.33,12.71-6.56,19.55C403.59,289.93,412.27,289.93,422.12,289.93z M539.23,289.94   c-3.2-8.34-5.5-16.08-9.09-23.17c-3.67-7.26-7.27-7.31-10.89-0.16c-3.65,7.22-6,15.09-9.16,23.32   C520.22,289.94,528.9,289.94,539.23,289.94z M656.16,289.95c-3.75-9.01-6.55-17.21-10.53-24.8c-2.79-5.33-5.35-5.08-8.82-0.14   c-5.22,7.4-7.44,15.92-8.83,24.95C636.87,289.95,645.55,289.95,656.16,289.95z" fill="#ffffff"/>
	
		<linearGradient id="SVGID_00000034068387785040159920000006840920260665303695_" gradientUnits="userSpaceOnUse" x1="335.1578" y1="568.5316" x2="714.14" y2="568.5316" fill="#ffffff">
		<stop offset="7.041998e-04" style="stop-color:#ffffff" fill="#ffffff"/>
		<stop offset="1" style="stop-color:#ffffff" fill="#ffffff"/>
	</linearGradient>
	<path style="fill:url(#SVGID_00000034068387785040159920000006840920260665303695_);" d="M524.65,466.01c57.17,0,114.34,0,171.51,0   c12.7,0,17.98,5.28,17.98,17.98c0.01,56.36,0.01,112.72,0,169.08c0,12.7-5.28,17.98-17.98,17.98c-114.34,0-228.67,0-343.01,0   c-12.7,0-17.98-5.28-17.98-17.98c-0.01-56.36-0.01-112.72,0-169.08c0-12.7,5.28-17.98,17.98-17.98   C410.31,466.01,467.48,466.01,524.65,466.01z M364.53,641.56c19.53,0,38.67,0,57.7,0c0-19.82,0-39.29,0-58.68   c-19.42,0-38.45,0-57.7,0C364.53,602.49,364.53,621.84,364.53,641.56z M452.11,582.84c0,19.86,0,39.34,0,58.67   c19.5,0,38.65,0,57.7,0c0-19.75,0-39.1,0-58.67C490.52,582.84,471.49,582.84,452.11,582.84z M539.63,582.73   c0,19.62,0,39.21,0,58.85c19.31,0,38.46,0,57.53,0c0-19.8,0-39.27,0-58.85C577.87,582.73,558.96,582.73,539.63,582.73z    M627.05,582.81c0,19.94,0,39.41,0,58.84c19.41,0,38.44,0,57.65,0c0-19.71,0-39.19,0-58.84   C665.38,582.81,646.35,582.81,627.05,582.81z M364.52,553.12c19.55,0,38.7,0,57.7,0c0-19.5,0-38.65,0-57.69   c-19.43,0-38.46,0-57.7,0C364.52,514.72,364.52,533.75,364.52,553.12z M509.88,495.4c-19.57,0-38.6,0-57.84,0   c0,19.38,0,38.53,0,57.75c19.43,0,38.57,0,57.84,0C509.88,533.8,509.88,514.77,509.88,495.4z M539.57,495.38   c0,19.54,0,38.69,0,57.7c19.5,0,38.65,0,57.7,0c0-19.42,0-38.46,0-57.7C577.98,495.38,558.94,495.38,539.57,495.38z M627.03,495.38   c0,19.55,0,38.7,0,57.7c19.5,0,38.65,0,57.69,0c0-19.43,0-38.46,0-57.7C665.43,495.38,646.4,495.38,627.03,495.38z"/>
</g>
</svg>