<svg xmlns="http://www.w3.org/2000/svg" xmlns:xlink="http://www.w3.org/1999/xlink" version="1.1" id="Capa_1" x="0px" y="0px" viewBox="0 0 1000 1000" style="enable-background:new 0 0 1000 1000;" xml:space="preserve">
<style type="text/css">
	.st0{fill:#ffffff;}
	.st1{fill:url(#SVGID_1_);}
	.st2{fill:url(#SVGID_00000129885403612864676280000015941951588567234437_);}
	.st3{fill:#ffffff;}
	.st4{fill:url(#SVGID_00000132054738946707855600000004606185286204761260_);}
	.st5{fill:url(#SVGID_00000137834637858655217140000005007016831500036257_);}
	.st6{display:none;}
	.st7{display:inline;}
	.st8{fill:url(#SVGID_00000016051216505802686010000001873835053370762391_);}
	.st9{fill:url(#SVGID_00000003789400676681111780000004498501651147005869_);}
	.st10{fill:url(#SVGID_00000126287579018031919710000009412736688442161804_);}
	.st11{fill:url(#SVGID_00000142162054970005013550000003698821504398574480_);}
	.st12{fill:url(#SVGID_00000021097002971712727420000017683794101664198317_);}
	.st13{fill:url(#SVGID_00000047027896383434702030000012123720125007786122_);}
	.st14{fill:url(#SVGID_00000066497173481049279170000006334824289608888990_);}
	.st15{fill:url(#SVGID_00000048480672880445208120000001134251574348984458_);}
	.st16{fill:url(#SVGID_00000123433714355913762650000005307478518543857807_);}
	.st17{fill:#ffffff;}
	.st18{fill:url(#SVGID_00000013892089200187525320000006625143331298847381_);}
	.st19{fill:url(#SVGID_00000176029150958840816760000013883729239228846526_);}
	.st20{fill:url(#SVGID_00000126293633128892367190000011078688197080506298_);}
	.st21{fill:url(#SVGID_00000112620024742382014400000006484690499599344779_);}
	.st22{fill:url(#SVGID_00000168808690714428850780000017762131368561840259_);}
	.st23{fill:url(#SVGID_00000158715154801367830360000008952429551290833087_);}
	.st24{fill:url(#SVGID_00000049922727006791397590000007477334278345032631_);}
	.st25{fill:url(#SVGID_00000178204236308644588700000004953285167628632202_);}
	.st26{fill:url(#SVGID_00000183232192767660985390000007551012094867089792_);}
	.st27{fill:url(#SVGID_00000112634979487775333500000014466342559598719400_);}
	.st28{fill:url(#SVGID_00000170992472570278411790000010081090883541771648_);}
	.st29{fill:url(#SVGID_00000061473787180736389510000002587852514483553415_);}
</style>
<g>
	<linearGradient id="SVGID_1_" gradientUnits="userSpaceOnUse" x1="149.9836" y1="534.7104" x2="889" y2="534.7104" fill="#ffffff">
		<stop offset="0" style="stop-color:#ffffff" fill="#ffffff"/>
		<stop offset="1" style="stop-color:#ffffff" fill="#ffffff"/>
	</linearGradient>
	<path class="st1" d="M149.98,357.33c4.39-10.47,12.43-14.41,23.51-13.89c9.1,0.43,18.24,0.09,28.38,0.09   c0-6.22-0.07-11.91,0.01-17.59c0.25-16.7,11.89-28.84,28.58-28.97c30.55-0.25,61.1-0.18,91.65-0.01   c11.26,0.07,20.37,4.98,27.26,13.93c6.75,8.77,13.79,17.33,20.11,26.39c3.45,4.95,7.37,6.38,13.22,6.37   c76.5-0.19,152.99-0.13,229.49-0.1c3.12,0,6.3-0.06,9.33,0.52c5.81,1.11,8.77,5.22,8.52,10.84c-0.23,5.25-3.25,9.08-8.81,9.88   c-3.07,0.45-6.23,0.37-9.35,0.37c-143.37,0.02-286.74,0.01-430.12,0.01c-3.09,0-6.17,0-9.7,0c0,39.3,0,77.92,0,117.12   c5.68,0,11.53,0,18.42,0c0-2.41,0-4.95,0-7.49c0-22.14-0.01-44.27,0-66.41c0.01-15.76,6.14-22.01,21.65-22.02   c114.02-0.01,228.05,0.05,342.07-0.1c10.02-0.01,16.62,3.89,21.62,12.53c57.16,98.82,114.56,197.5,171.66,296.36   c3.2,5.55,6.54,7.59,12.91,7.4c16.52-0.49,33.07-0.17,50.01-0.17c0-10.7,0-20.69,0-31.77c-5.74,0-11.4,0.07-17.07-0.01   c-15.37-0.24-25.18-9.98-25.43-25.33c-0.13-8.18-0.13-16.36,0-24.54c0.24-15.42,10.06-25.14,25.4-25.28c5.5-0.05,11-0.01,17-0.01   c0-8.07,0-15.63,0-24.31c-2.55,0-5.09,0-7.63,0c-23.82,0-47.63-0.19-71.44,0.06c-17.35,0.18-29.78-7.32-38.38-22.2   c-26.33-45.58-52.84-91.05-79.22-136.6c-8.33-14.39-1.6-26.02,15.03-26.04c45.22-0.04,90.45-0.01,135.67-0.01c2.56,0,5.13,0,7.69,0   c-13.6-12.34-29.47-19.14-47.2-20.29c-16.54-1.08-33.17-0.66-49.76-0.93c-2.64-0.04-5.34,0.04-7.9-0.48   c-5.13-1.03-7.88-4.52-8.13-9.65c-0.27-5.43,2.22-10.43,7.6-10.67c42.12-1.86,84.93-5.4,120.29,24.6   c10.13,8.59,18.49,19.4,26.92,29.79c2.93,3.6,5.36,5.25,9.92,5.13c11.54-0.29,23.09-0.23,34.64-0.06   c18.93,0.28,30.44,11.99,30.53,30.86c0.05,9.86-0.03,19.73,0.01,29.59c0.05,13.1-5.57,23.68-14.68,32.6   c-4.57,4.47-10.67,4.66-14.9,0.62c-4.46-4.26-5.67-10.04-1.4-14.17c9.22-8.92,9.93-19.7,9.38-31.25c-0.29-6-0.12-12.03-0.04-18.04   c0.08-5.72-2.87-8.48-8.36-8.54c-10.33-0.1-20.66-0.03-31.57-0.03c0.3,1.93,0.58,3.45,0.77,4.98c1.45,11.89,4.06,23.78,4.12,35.69   c0.37,77.95,0.2,155.91,0.19,233.86c0,18.1-6.04,24.07-24.27,24.07c-44.74,0-89.49,0.09-134.23-0.13c-5.09-0.02-7.28,1.68-9.46,6.2   c-13.25,27.41-35.46,42.44-65.8,42.48c-30.33,0.04-52.61-14.94-65.91-42.3c-2.39-4.92-4.84-6.46-10.15-6.39   c-23.57,0.31-47.15,0.15-70.72,0.12c-9.09-0.01-14.06-3.89-14.02-10.81c0.04-6.85,5.11-10.8,14.13-10.82   c24.28-0.04,48.56-0.01,73.68-0.01c0.61-26.38,10.85-47.71,32.74-62.56c13.56-9.2,28.74-13.12,45.12-12.08   c30.84,1.96,66.23,25.97,68.01,74.15c17.88,0,35.78,0,54.55,0c-1.21-2.35-2.17-4.43-3.31-6.4   c-35.81-61.75-71.67-123.46-107.39-185.26c-2.26-3.91-4.48-5.87-9.4-5.86c-142.65,0.16-285.3,0.13-427.95,0.13   c-1.88,0-3.75,0-6.06,0c0,66.08,0,131.61,0,197.51c13.85,0,27.45,0,41.63,0c0.59-23.67,9.15-43.63,27.75-58.56   c13.62-10.94,29.39-16.31,46.83-15.85c39.47,1.04,64.5,27.11,71.67,74.78c12.08,0,24.28,0.02,36.49-0.01   c5.59-0.01,9.97,2.01,11.82,7.55c2.44,7.28-2.57,13.91-10.8,14.04c-13.94,0.21-27.88,0.06-41.98,0.06   c-0.89,1.95-1.65,3.69-2.48,5.39c-13.43,27.64-35.53,43.08-66.19,43.16c-30.63,0.08-53.02-15.07-66.28-42.83   c-2.08-4.35-4.23-5.99-9.07-5.84c-12.5,0.38-25.04-0.39-37.51,0.28c-11.11,0.6-19.01-3.27-23.96-13.2   C149.98,593.13,149.98,475.23,149.98,357.33z M810.15,549.25c0-32.98,0.61-65.15-0.36-97.28c-0.3-10-4.62-19.96-7.57-29.79   c-3.14-10.49-9.17-15.63-21.51-14.49c-15.9,1.47-32.03,0.36-48.35,0.36c0,47.54,0,94.24,0,141.21   C758.52,549.25,784.18,549.25,810.15,549.25z M368.78,482.56c0-25.07,0-49.44,0-73.99c-29.84,0-59.22,0-88.66,0   c0,24.91,0,49.29,0,73.99C309.77,482.56,338.98,482.56,368.78,482.56z M480,482.54c0-25,0-49.38,0-74c-29.81,0-59.2,0-88.7,0   c0,24.89,0,49.28,0,74C420.93,482.54,450.15,482.54,480,482.54z M599.35,482.67c-14.33-24.69-28.01-48.31-41.81-71.86   c-0.72-1.23-2.51-2.61-3.81-2.62c-16.97-0.18-33.94-0.12-51.11-0.12c0,25.31,0,49.85,0,74.59   C534.78,482.67,566.41,482.67,599.35,482.67z M649.48,700.06c-0.05-28.05-23.04-50.98-50.99-50.88   c-28.02,0.1-50.79,23.08-50.69,51.17c0.1,28.12,23,50.97,50.98,50.89C626.77,751.15,649.53,728.18,649.48,700.06z M337.55,700.52   c0.15-27.95-22.71-51.12-50.65-51.34c-27.81-0.23-51.06,22.75-51.33,50.71c-0.26,27.75,22.82,51.13,50.69,51.35   C314.1,751.46,337.4,728.41,337.55,700.52z M636.32,408.32c24.52,42.23,48.44,83.42,73.33,126.3c0-43.6,0-84.81,0-126.3   C685.39,408.32,661.65,408.32,636.32,408.32z M212.7,408.42c0,24.97,0,49.5,0,73.94c15.29,0,30.03,0,44.88,0   c0-24.87,0-49.22,0-73.94C242.58,408.42,228.02,408.42,212.7,408.42z M346.8,343.01c-5.87-7.52-10.72-14.3-16.23-20.48   c-1.86-2.08-5.39-3.74-8.18-3.77c-30.48-0.28-60.97-0.34-91.45,0.07c-2.48,0.03-6.56,3.69-7.02,6.2   c-1.06,5.74-0.33,11.81-0.33,17.98C264.69,343.01,305.05,343.01,346.8,343.01z M810.56,617.14c-2.83,0-4.95,0.01-7.08,0   c-13.92-0.07-13.92-0.07-13.92,14.07c0,18.68,0,18.69,18.86,17.7c0.65-0.03,1.27-0.47,2.14-0.81   C810.56,638.07,810.56,628.12,810.56,617.14z" fill="#ffffff"/>
	<path class="st3" d="M598.49,733.04c-18.26-0.06-32.86-14.74-32.81-32.97c0.06-18.18,14.79-32.72,33.09-32.68   c18.21,0.04,33.04,14.89,32.92,32.96C631.58,718.47,616.72,733.09,598.49,733.04z M587.35,700.2c0,6.05,4.83,10.98,10.91,11.14   c6.44,0.17,11.73-4.84,11.73-11.12c0.01-6.29-5.27-11.3-11.71-11.13C592.17,689.25,587.35,694.15,587.35,700.2z" fill="#ffffff"/>
	<path class="st0" d="M286.78,733.04c-18.46,0.09-33.03-14.38-33.04-32.81c-0.01-18.43,14.53-32.91,33-32.84   c18.14,0.06,32.51,14.3,32.74,32.44C319.7,718.18,305.17,732.95,286.78,733.04z M286.62,711.34c6.49-0.03,11.33-5.06,11.11-11.54   c-0.21-6.16-5-10.74-11.21-10.72c-6.48,0.03-11.3,5.04-11.09,11.54C275.63,706.78,280.42,711.37,286.62,711.34z" fill="#ffffff"/>
</g>
</svg>