<svg width="343" height="81" viewBox="0 0 343 81" fill="none" xmlns="http://www.w3.org/2000/svg">
<path d="M254.169 46.3473V55.1469H250.241V46.983C250.241 44.7881 249.412 43.7308 247.712 43.7308C245.704 43.7308 244.453 45.1762 244.453 47.5183V55.1469H240.525V40.6258H243.202L243.971 42.4192C244.57 41.7349 245.31 41.1894 246.141 40.8207C246.972 40.452 247.874 40.269 248.783 40.2845C252.162 40.2845 254.169 42.6735 254.169 46.3473ZM257.569 49.024V40.6258H261.53V48.5689C261.53 50.6367 262.628 51.868 264.441 51.868C266.255 51.868 267.325 50.6099 267.325 48.5689V40.6258H271.253V49.0173C271.253 52.9387 268.577 55.5618 264.441 55.5618C260.306 55.5618 257.589 52.9454 257.589 49.0173L257.569 49.024ZM288.886 47.8462C288.885 48.231 288.86 48.6154 288.813 48.9972H277.838C277.918 49.8693 278.333 50.6765 278.996 51.2492C279.658 51.8219 280.517 52.1157 281.391 52.0687C282.009 52.0892 282.62 51.9435 283.161 51.6468C283.703 51.3502 284.155 50.9135 284.47 50.3824H288.599C288.042 52.3027 286.783 53.9431 285.072 54.9773C283.361 56.0116 281.324 56.3637 279.365 55.9638C277.406 55.5638 275.669 54.4411 274.501 52.8189C273.332 51.1968 272.817 49.1941 273.058 47.2094C273.299 45.2247 274.278 43.4035 275.801 42.108C277.323 40.8125 279.278 40.1377 281.276 40.218C283.273 40.2983 285.168 41.1277 286.582 42.5411C287.996 43.9546 288.825 45.8486 288.906 47.8462H288.886ZM277.925 46.3138H284.965C284.773 45.5136 284.31 44.8042 283.655 44.3056C283.001 43.8069 282.194 43.5495 281.371 43.5769C280.57 43.555 279.787 43.8169 279.16 44.3165C278.533 44.8161 278.103 45.5211 277.945 46.3071L277.925 46.3138ZM296.843 55.5685C293.196 55.5685 290.76 53.4874 290.74 50.3757H294.568C294.568 51.6672 295.578 52.3096 296.99 52.3096C298.081 52.3096 299.051 51.8211 299.051 50.8441C299.051 49.8671 297.793 49.5526 296.261 49.2983C293.939 48.9102 290.987 48.2879 290.987 44.8684C290.987 42.1181 293.323 40.2243 296.829 40.2243C300.336 40.2243 302.638 42.1716 302.651 45.0759H298.924C298.924 43.9182 298.101 43.3494 296.736 43.3494C295.511 43.3494 294.788 43.9115 294.788 44.7413C294.788 45.7116 296.026 45.9324 297.539 46.2067C299.908 46.635 302.932 47.1369 302.932 50.6768C302.932 53.6346 300.51 55.5685 296.843 55.5685ZM314.556 51.6605V55.1536H311.785C308.587 55.1536 306.626 53.193 306.626 49.9675V43.791H303.996V42.9077L309.738 36.8115H310.487V40.5991H314.502V43.7576H310.561V49.4188C310.529 49.719 310.564 50.0227 310.666 50.3072C310.767 50.5917 310.931 50.8497 311.146 51.0619C311.361 51.2741 311.621 51.4352 311.906 51.533C312.192 51.6309 312.496 51.663 312.796 51.6271L314.556 51.6605ZM325.932 40.5522V44.2461H324.232C322.017 44.2461 321.141 45.2231 321.141 47.5919V55.1336H317.213V40.6124H319.749L320.418 42.3924C320.916 41.764 321.559 41.2662 322.292 40.9421C323.026 40.6179 323.827 40.4772 324.627 40.5321L325.932 40.5522ZM326.882 47.9131C326.882 43.51 330.228 40.2444 334.738 40.2444C339.248 40.2444 342.588 43.5167 342.588 47.9131C342.6 48.9393 342.404 49.9573 342.012 50.9056C341.619 51.8539 341.039 52.7128 340.305 53.4303C339.571 54.1478 338.7 54.709 337.743 55.08C336.786 55.4509 335.764 55.624 334.738 55.5886C330.275 55.5618 326.922 52.2762 326.922 47.8864L326.882 47.9131ZM338.606 47.9131C338.585 47.1515 338.34 46.4129 337.901 45.7899C337.463 45.1668 336.85 44.6869 336.14 44.4102C335.43 44.1335 334.654 44.0723 333.91 44.2342C333.165 44.3961 332.485 44.774 331.954 45.3205C331.423 45.8671 331.065 46.558 330.925 47.307C330.784 48.0559 330.868 48.8296 331.165 49.5312C331.462 50.2329 331.96 50.8313 332.595 51.2517C333.231 51.6721 333.976 51.8958 334.738 51.8947C335.266 51.9166 335.792 51.8271 336.283 51.632C336.774 51.4369 337.218 51.1407 337.587 50.7625C337.955 50.3844 338.24 49.9329 338.423 49.4373C338.605 48.9418 338.681 48.4133 338.646 47.8864L338.606 47.9131ZM256.09 72.0905C256.124 73.1043 255.95 74.1143 255.579 75.0584C255.208 76.0024 254.648 76.8605 253.932 77.5796C253.217 78.2987 252.362 78.8637 251.42 79.2397C250.478 79.6158 249.469 79.7948 248.455 79.7659C246.795 79.7838 245.183 79.207 243.911 78.1398L243.443 79.351H240.545V59.597H244.473V65.6195C245.658 64.8216 247.06 64.406 248.488 64.4284C249.498 64.4033 250.503 64.5847 251.441 64.9617C252.378 65.3386 253.229 65.9031 253.941 66.6205C254.653 67.3379 255.21 68.1931 255.58 69.1337C255.95 70.0743 256.123 71.0804 256.09 72.0905ZM248.147 76.052C248.934 76.056 249.705 75.8259 250.362 75.3909C251.019 74.956 251.531 74.3358 251.835 73.6091C252.138 72.8823 252.219 72.0818 252.067 71.3091C251.915 70.5363 251.536 69.8262 250.98 69.2688C250.423 68.7115 249.714 68.332 248.942 68.1785C248.169 68.025 247.368 68.1044 246.641 68.4067C245.914 68.709 245.293 69.2206 244.857 69.8764C244.421 70.5323 244.189 71.3029 244.192 72.0905C244.177 72.6142 244.269 73.1353 244.463 73.6222C244.656 74.109 244.947 74.5513 245.317 74.9221C245.687 75.2929 246.129 75.5843 246.616 75.7785C247.102 75.9728 247.623 76.0658 248.147 76.052ZM273.716 64.8098V79.331H270.638L270.297 78.0328C268.999 79.1625 267.333 79.7789 265.612 79.7659C263.617 79.707 261.723 78.8728 260.332 77.4405C258.941 76.0081 258.163 74.0902 258.163 72.0938C258.163 70.0974 258.941 68.1795 260.332 66.7472C261.723 65.3148 263.617 64.4807 265.612 64.4217C267.368 64.4003 269.068 65.0323 270.384 66.195L270.805 64.8098H273.716ZM269.868 72.0704C269.864 71.2875 269.628 70.5233 269.19 69.8743C268.752 69.2253 268.132 68.7207 267.407 68.4242C266.683 68.1276 265.887 68.0524 265.119 68.208C264.352 68.3637 263.648 68.7432 263.096 69.2987C262.544 69.8542 262.17 70.5607 262.019 71.3291C261.869 72.0974 261.949 72.8931 262.251 73.6157C262.552 74.3383 263.061 74.9554 263.713 75.389C264.365 75.8226 265.131 76.0533 265.913 76.052C266.438 76.0632 266.958 75.9675 267.444 75.7708C267.93 75.5742 268.371 75.2806 268.74 74.9081C269.108 74.5356 269.398 74.0919 269.589 73.604C269.781 73.1161 269.871 72.5943 269.855 72.0704H269.868ZM291.135 70.5514V79.351H287.207V71.1871C287.207 68.9922 286.37 67.9349 284.67 67.9349C282.663 67.9349 281.412 69.3803 281.412 71.7224V79.351H277.484V64.8299H280.16L280.93 66.6233C281.527 65.9374 282.268 65.3904 283.099 65.0205C283.93 64.6506 284.832 64.4668 285.741 64.482C289.054 64.482 291.121 66.8709 291.121 70.5514H291.135ZM293.771 72.0436C293.755 71.0284 293.946 70.0205 294.33 69.0807C294.715 68.1409 295.286 67.2889 296.009 66.5759C296.732 65.8629 297.591 65.3039 298.536 64.9325C299.481 64.5611 300.492 64.3851 301.507 64.415C303.244 64.3659 304.941 64.9401 306.291 66.0338C307.641 67.1274 308.555 68.6682 308.868 70.3774H304.967C304.675 69.6929 304.185 69.1113 303.56 68.7071C302.935 68.3029 302.204 68.0946 301.46 68.1089C300.952 68.1137 300.449 68.2211 299.984 68.4248C299.518 68.6285 299.098 68.9242 298.749 69.2942C298.4 69.6642 298.13 70.1008 297.954 70.5779C297.778 71.0549 297.701 71.5626 297.726 72.0704C297.701 72.5808 297.778 73.0911 297.953 73.5711C298.129 74.0512 298.398 74.4913 298.746 74.8655C299.094 75.2397 299.514 75.5405 299.98 75.75C300.446 75.9595 300.949 76.0736 301.46 76.0855C302.223 76.09 302.969 75.8584 303.596 75.4223C304.223 74.9862 304.699 74.3671 304.96 73.6497H308.915C308.619 75.3979 307.702 76.9805 306.332 78.1067C304.963 79.2328 303.233 79.8268 301.46 79.7793C300.442 79.7938 299.431 79.6034 298.488 79.2194C297.544 78.8354 296.688 78.2656 295.97 77.5439C295.251 76.8222 294.685 75.9633 294.305 75.0184C293.925 74.0735 293.739 73.0619 293.758 72.0436H293.771ZM310.588 72.0905C310.588 67.6873 313.934 64.4217 318.437 64.4217C322.941 64.4217 326.287 67.6873 326.287 72.0905C326.287 74.1723 325.46 76.1688 323.987 77.6409C322.515 79.1129 320.519 79.9399 318.437 79.9399C316.355 79.9399 314.359 79.1129 312.887 77.6409C311.415 76.1688 310.588 74.1723 310.588 72.0905ZM322.305 72.0905C322.284 71.3288 322.039 70.5902 321.6 69.9672C321.161 69.3441 320.549 68.8642 319.839 68.5875C319.129 68.3108 318.353 68.2496 317.609 68.4115C316.864 68.5734 316.184 68.9513 315.653 69.4978C315.122 70.0444 314.764 70.7353 314.624 71.4843C314.483 72.2332 314.567 73.0069 314.864 73.7086C315.161 74.4102 315.659 75.0086 316.294 75.429C316.93 75.8494 317.675 76.0731 318.437 76.0721C318.958 76.086 319.476 75.9915 319.958 75.7946C320.441 75.5977 320.877 75.3028 321.239 74.9284C321.602 74.5541 321.882 74.1085 322.064 73.62C322.245 73.1314 322.322 72.6106 322.292 72.0905H322.305Z" fill="#8F1A95"/>
<path d="M40.2941 26.0979V29.0021C37.6776 26.5396 33.2075 24.1172 26.4087 24.1172C14.2966 24.1172 0.97998 34.824 0.97998 52.7847C0.97998 70.7453 14.2765 80.0067 26.4087 80.0067C31.5468 80.1291 36.5294 78.2393 40.2941 74.7403L44.0615 79.3509H59.6801V26.0979H40.2941ZM30.31 62.1197C28.2466 62.1197 26.2296 61.5078 24.514 60.3615C22.7984 59.2151 21.4612 57.5858 20.6716 55.6795C19.882 53.7733 19.6754 51.6756 20.078 49.6519C20.4805 47.6282 21.4741 45.7694 22.9331 44.3104C24.3921 42.8513 26.251 41.8577 28.2747 41.4552C30.2984 41.0527 32.396 41.2593 34.3023 42.0489C36.2086 42.8385 37.8379 44.1756 38.9842 45.8913C40.1306 47.6069 40.7424 49.6239 40.7424 51.6872C40.7424 53.0572 40.4726 54.4138 39.9483 55.6795C39.424 56.9453 38.6556 58.0953 37.6868 59.0641C36.7181 60.0328 35.568 60.8013 34.3023 61.3255C33.0366 61.8498 31.68 62.1197 30.31 62.1197ZM157.701 11.4162C157.7 13.6739 157.029 15.8805 155.773 17.7566C154.517 19.6327 152.732 21.094 150.645 21.9555C148.559 22.8171 146.263 23.0401 144.049 22.5964C141.836 22.1527 139.803 21.0622 138.21 19.4629C136.616 17.8637 135.533 15.8276 135.097 13.6123C134.661 11.3971 134.892 9.10234 135.761 7.01852C136.63 4.93469 138.097 3.15549 139.978 1.90613C141.858 0.656774 144.067 -0.00657139 146.325 4.90768e-05C149.346 0.0089088 152.241 1.2158 154.373 3.35598C156.506 5.49615 157.703 8.39485 157.701 11.4162ZM120.227 50.6366V79.3509H101.042V43.9381C106.95 47.3603 113.453 49.6332 120.207 50.6366H120.227ZM101.042 26.1782V20.9787C101.042 10.7002 109.373 1.86705 119.652 1.86705H129.181V18.65H124.496C121.505 18.6834 120.2 21.1661 120.2 24.1573V33.0774C115.628 32.0713 111.292 30.1972 107.426 27.5567C105.561 26.2769 103.268 25.7817 101.042 26.1782ZM221.179 79.3509H202.141V51.3058C202.14 50.2305 201.925 49.1662 201.509 48.1749C201.092 47.1835 200.483 46.2851 199.715 45.532C198.948 44.7789 198.038 44.1861 197.039 43.7884C196.04 43.3907 194.972 43.1959 193.897 43.2154C191.741 43.3008 189.704 44.2267 188.222 45.795C186.74 47.3633 185.93 49.4495 185.967 51.6069V79.3844H167.531V26.0979H185.967V31.5852C185.967 31.5852 190.618 24.6056 201.806 24.6056C212.64 24.6056 220.778 33.0172 221.179 42.3054V79.3509ZM90.0206 6.73196V79.3509H70.949L71.0695 11.5768L90.0206 6.73196ZM155.801 44.246V79.3242H136.729V50.6834C143.432 49.7472 149.901 47.5637 155.801 44.246Z" fill="#FA4616"/>
<path d="M128.726 51.2724C117.66 51.3359 106.835 48.0387 97.6828 41.817C95.7945 40.524 94.4971 38.5339 94.076 36.2844C93.655 34.0349 94.1448 31.7103 95.4377 29.822C96.7307 27.9336 98.7208 26.6362 100.97 26.2152C103.22 25.7942 105.544 26.284 107.433 27.5769C113.742 31.7749 121.151 34.0146 128.729 34.0146C136.307 34.0146 143.717 31.7749 150.026 27.5769C151.914 26.284 154.239 25.7942 156.488 26.2152C158.738 26.6362 160.728 27.9336 162.021 29.822C163.314 31.7103 163.803 34.0349 163.382 36.2844C162.961 38.5339 161.664 40.524 159.776 41.817C150.621 48.0388 139.794 51.336 128.726 51.2724Z" fill="#8F1A95"/>
</svg>
