<svg width="124" height="123" viewBox="0 0 124 123" fill="none" xmlns="http://www.w3.org/2000/svg">
<g clip-path="url(#clip0_913_10)">
<path d="M82.9562 1.40413C77.5508 2.96025 74.6023 4.51637 70.9987 7.95621C69.2788 9.51233 68.5417 9.75803 68.0503 9.02092C67.5588 8.20191 65.2656 8.28381 56.5022 9.26662C50.4415 10.0037 45.4456 10.6589 45.2818 10.8228C45.1999 10.9047 46.3465 12.297 47.9026 13.7712L50.7692 16.5558L43.6438 23.7631L36.5184 30.9704L33.57 28.1039L30.6215 25.2373L19.6468 36.294L8.67206 47.2687L10.4739 49.2343C11.4567 50.299 12.2757 51.3637 12.2757 51.6094C12.2757 51.8551 10.9653 54.2303 9.40917 56.8511C7.85305 59.4719 6.54264 62.0928 6.54264 62.748C6.54264 63.4032 5.23222 65.205 3.6761 66.7611C1.05527 69.3 0.80957 69.9553 0.80957 74.3779C0.80957 76.9987 1.21908 80.111 1.71048 81.1757C2.61139 83.2232 5.55983 85.025 8.01685 85.025C8.75396 85.025 10.5558 86.8268 11.8662 88.8744C14.7327 93.4608 20.4658 97.2283 25.3799 97.8835C27.2636 98.1292 28.9016 98.7844 29.0654 99.2758C29.2292 99.7672 29.5568 101.16 29.8025 102.47C30.4577 105.173 35.3718 110.906 38.6478 112.544C40.4496 113.527 40.941 114.264 40.941 116.557C40.941 124.419 54.3728 124.829 56.0927 116.966L56.666 114.509H64.3647C70.5892 114.509 72.0634 114.755 72.0634 115.738C72.0634 117.949 73.8652 120.898 75.9127 121.799C81.2363 124.256 87.6246 121.225 87.6246 116.311C87.6246 114.346 88.116 113.69 90.3273 112.789C91.7196 112.216 94.5043 110.251 96.4699 108.531L99.9097 105.255V109.841C99.9097 116.639 101.384 118.113 109.246 118.441L115.471 118.768V116.639C115.471 114.509 115.389 114.509 109.82 114.509C105.397 114.509 104.087 114.182 103.677 113.199C102.776 110.906 103.104 110.414 105.479 110.414C108.346 110.414 111.376 107.384 111.376 104.599C111.376 101.979 108.182 98.9482 105.479 98.9482H103.35L103.022 90.1848C102.776 83.8784 102.203 80.5205 101.22 78.3911L99.7459 75.5245L109.984 59.9633C115.88 51.0361 120.876 42.6003 121.777 39.9795C127.183 23.6812 116.863 5.49918 99.664 1.24033C92.9481 -0.479592 89.4264 -0.397691 82.9562 1.40413ZM103.35 6.15439C115.553 11.6418 122.269 26.0563 118.337 38.5053C116.945 43.1736 93.8491 78.5549 91.9653 79.1282C91.0644 79.3739 70.0978 48.9067 66.9036 42.6822C64.7742 38.6691 63.4638 31.7075 64.6923 30.9704C65.1837 30.6428 66.0027 27.6943 66.4122 24.3364C67.5588 15.1635 72.8824 8.69332 82.0553 5.41728C87.7884 3.36975 97.8622 3.77926 103.35 6.15439ZM63.8733 13.5255C63.8733 14.3445 63.6276 16.9653 63.3 19.3405L62.8086 23.6812L61.0887 22.0432L59.2869 20.3233L49.5406 30.1514L39.7125 39.9795H34.3071C29.3111 39.9795 28.6559 40.2252 26.8541 42.2727C24.2332 45.385 15.7155 49.48 14.487 48.2515C13.8318 47.5963 15.6336 45.2212 21.6943 39.1605C26.1989 34.6559 30.212 30.9704 30.6215 30.9704C31.1129 30.9704 32.669 32.117 34.1433 33.5912L36.846 36.2121L46.4284 26.7115C55.6013 17.5386 55.9289 17.0472 54.6185 15.573C52.3253 13.0341 52.3253 13.0341 62.0715 12.297C63.3 12.2151 63.8733 12.5427 63.8733 13.5255ZM60.5973 30.8066C60.5973 38.0139 62.481 43.0917 68.8693 52.756C72.0634 57.5882 74.848 62.0109 75.0937 62.6661C75.4213 63.4851 73.7833 63.7308 67.3131 63.7308H59.123L58.1402 61.028C56.3384 56.6873 51.9158 51.1999 48.0664 48.5791C46.0189 47.2687 44.0533 45.2212 43.6438 44.0745C42.9067 42.1908 43.48 41.3718 50.6873 34.0007C55.028 29.66 58.9592 26.0563 59.5326 26.0563C60.2697 26.0563 60.5973 27.5305 60.5973 30.8066ZM39.6306 44.566C41.2686 46.1221 41.2686 45.6307 39.303 52.2646C37.5012 58.4072 36.1089 60.0452 33.6519 59.2262C32.4233 58.8986 31.5224 57.1787 30.2939 53.3294C28.4102 47.1868 28.2464 45.6307 29.6387 44.2383C31.1129 42.7641 38.0745 43.0098 39.6306 44.566ZM26.936 54.7217C28.8197 60.9461 30.7034 62.9118 34.7985 62.9118C38.3202 62.9118 40.6953 60.4547 42.1696 55.1312C42.9067 52.6741 43.8895 50.6266 44.4628 50.6266C44.9542 50.6266 47.2474 52.5922 49.5406 54.9674C58.7954 64.4679 58.7135 78.473 49.2949 87.8097C44.5447 92.6418 40.6953 94.2798 32.9966 94.6893C26.936 95.0169 25.7894 94.8531 21.7762 92.8875C17.5174 90.7581 14.0775 86.9907 12.7671 82.8137C12.2757 81.4214 11.4567 80.93 8.75396 80.7662L5.31412 80.5205V75.1969C5.31412 70.5286 5.55983 69.7914 7.11594 69.0543C8.26256 68.5629 9.16347 67.0887 9.73677 64.9593C10.9653 60.1271 15.1422 54.3941 19.4011 51.5275C21.5305 50.1352 23.6599 48.9886 24.2332 48.9886C24.8065 48.9886 26.0351 51.5275 26.936 54.7217ZM82.301 72.9037C84.4304 76.1797 86.9694 79.7015 87.8703 80.6843C89.9997 83.0594 93.6034 83.1413 95.8147 80.93C97.3708 79.3739 97.4527 79.3739 98.3536 81.1757C98.9269 82.1585 99.5002 85.6802 99.7459 88.9563C100.401 98.9482 96.4699 106.074 88.4436 109.513C84.758 111.07 84.3485 111.561 84.3485 113.936C84.3485 117.867 83.3657 118.768 79.7621 118.441C76.6499 118.195 76.568 118.113 76.1584 114.509L75.7489 110.824L64.119 110.578L52.4891 110.332L52.2434 114.264L51.9977 118.195H48.3121H44.6266L44.3809 114.346C44.1352 111.151 43.8076 110.496 42.1696 110.087C39.303 109.35 35.1261 105.582 33.8157 102.47C32.4233 99.112 32.9147 98.1292 36.027 98.1292C40.7772 98.1292 47.4112 94.8531 51.9977 90.3486C57.2393 85.1069 59.7783 79.0463 59.7783 71.9209V67.0068H69.115H78.3698L82.301 72.9037ZM107.281 103.535C108.182 104.517 108.1 105.009 107.035 106.155C105.725 107.384 105.561 107.384 104.25 106.155C103.186 105.009 103.104 104.517 104.005 103.535C104.578 102.798 105.315 102.224 105.643 102.224C105.97 102.224 106.708 102.798 107.281 103.535Z" fill="#3F3F3F"/>
<path d="M86.3959 8.77523C69.1148 13.3617 62.7265 34.1645 74.4383 47.5963C85.1673 59.7995 106.38 56.3597 113.096 41.3718C115.471 36.1302 115.635 27.3667 113.505 22.5346C111.539 18.1119 106.789 13.116 102.203 10.8228C97.9439 8.69333 90.409 7.71052 86.3959 8.77523ZM102.53 14.9997C104.414 16.392 107.117 19.0948 108.509 21.0604C110.72 24.2545 110.966 25.1554 110.966 31.298C110.966 37.3587 110.72 38.4234 108.509 42.1089C106.953 44.5659 104.496 47.023 101.957 48.5791C98.4353 50.7904 97.2887 51.0361 91.8013 51.0361C84.8397 50.9542 82.2189 49.9714 77.8782 45.5488C74.1107 41.7813 72.8003 38.8329 72.3089 33.4274C71.4899 25.0735 75.4211 18.03 82.8741 14.2626C86.6416 12.297 88.0339 12.0513 93.1117 12.297C98.1077 12.5427 99.5 12.9522 102.53 14.9997Z" fill="#3F3F3F"/>
<path d="M90.2459 30.3971C79.1074 41.6175 78.616 42.1908 80.0902 43.5012C81.4825 44.8116 82.1377 44.2383 93.1944 33.1817C104.333 21.9613 104.824 21.388 103.35 20.0776C101.958 18.7671 101.303 19.3404 90.2459 30.3971Z" fill="#3F3F3F"/>
<path d="M80.0078 21.7156C75.8308 26.4658 80.663 33.4274 86.3141 30.8885C91.6377 28.4315 89.754 20.3233 83.939 20.3233C82.4648 20.3233 80.7449 20.9785 80.0078 21.7156ZM85.8227 25.483C86.1503 27.121 83.7752 28.2677 82.5467 27.0391C81.3182 25.8106 82.4648 23.4355 84.1028 23.7631C84.9218 23.9269 85.6589 24.664 85.8227 25.483Z" fill="#3F3F3F"/>
<path d="M95.7326 34.4102C90.9824 35.9664 90.9824 43.4193 95.7326 44.6479C99.9915 45.7945 103.186 43.6651 103.186 39.57C103.186 35.5569 99.582 33.0998 95.7326 34.4102ZM99.7458 39.4062C100.073 41.0442 97.6982 42.1908 96.4697 40.9623C95.2412 39.7338 96.3878 37.3587 98.0258 37.6863C98.8449 37.8501 99.582 38.5872 99.7458 39.4062Z" fill="#3F3F3F"/>
<path d="M44.4626 58.0796C43.8074 58.7348 44.2169 59.9633 45.9368 62.748C47.2472 64.7955 48.3119 67.5801 48.3119 68.8086C48.3119 70.6923 48.6395 71.1019 50.3595 71.1019C52.3251 71.1019 52.4889 70.9381 51.9156 67.9896C51.3423 64.6317 49.5405 60.7823 47.6567 58.571C46.1825 56.933 45.6911 56.8511 44.4626 58.0796Z" fill="#3F3F3F"/>
<path d="M16.7805 61.2737C13.4225 64.9593 16.0434 71.1019 20.9574 71.1019C25.7077 71.1019 28.2466 63.567 24.3973 60.9461C21.8583 59.1443 18.5823 59.3081 16.7805 61.2737ZM22.7593 64.7955C23.0869 66.4335 20.7117 67.5801 19.4832 66.3516C18.2547 65.1231 19.4013 62.748 21.0393 63.0756C21.8583 63.2394 22.5955 63.9765 22.7593 64.7955Z" fill="#3F3F3F"/>
<path d="M67.9683 77.2444C67.9683 79.0463 67.6407 79.292 65.1018 79.292C62.2353 79.292 62.2354 79.292 62.2354 82.9775C62.2354 88.1373 64.8561 90.7581 69.852 90.7581C73.3738 90.7581 74.5205 91.5771 74.5205 94.116C74.5205 95.0988 67.395 95.0988 66.7398 94.0341C66.4941 93.5427 65.2657 93.2151 64.1191 93.2151C62.563 93.2151 62.1535 93.5427 62.563 94.5255C62.8087 95.2626 63.0544 95.9179 63.0544 96.1636C63.0544 96.3274 64.2009 96.9826 65.5113 97.7197C66.9855 98.4568 67.9683 99.6034 67.9683 100.586C67.9683 101.815 68.5417 102.224 70.0159 102.224C71.4902 102.224 72.0634 101.815 72.0634 100.586C72.0634 99.2758 72.6368 98.9482 74.93 98.9482H77.7965V95.0169C77.7965 89.6934 76.1584 87.4821 72.0634 87.4821C67.6407 87.4821 66.3303 86.8268 66.3303 84.5336C66.3303 82.8137 66.7398 82.568 69.5244 82.568C71.3263 82.568 73.1282 83.0594 73.7015 83.7965C74.2748 84.4517 75.4214 85.025 76.2404 85.025C78.2879 85.025 78.206 82.9775 76.1585 80.93C75.2576 80.0291 73.9472 79.292 73.292 79.292C72.5549 79.292 72.0634 78.5548 72.0634 77.2444C72.0634 75.6064 71.654 75.1969 70.0159 75.1969C68.3779 75.1969 67.9683 75.6064 67.9683 77.2444Z" fill="#3F3F3F"/>
<path d="M91.7199 93.7065C91.7199 96.0816 91.0647 97.3102 88.6896 99.7672C85.6592 102.716 85.004 105.5 87.2154 105.5C89.181 105.5 94.0131 99.931 94.914 96.7369C96.3064 91.8228 96.0607 90.7581 93.7674 90.7581C91.9656 90.7581 91.7199 91.0857 91.7199 93.7065Z" fill="#3F3F3F"/>
</g>
<defs>
<clipPath id="clip0_913_10">
<rect width="124" height="123" fill="white"/>
</clipPath>
</defs>
</svg>
