<?xml version="1.0" standalone="no"?>
<!DOCTYPE svg PUBLIC "-//W3C//DTD SVG 20010904//EN"
 "http://www.w3.org/TR/2001/REC-SVG-20010904/DTD/svg10.dtd">
<svg version="1.0" xmlns="http://www.w3.org/2000/svg"
 width="167.000000pt" height="120.000000pt" viewBox="0 0 167.000000 120.000000"
 preserveAspectRatio="xMidYMid meet">

<g transform="translate(0.000000,120.000000) scale(0.100000,-0.100000)"
fill="#fff" stroke="none">
<path d="M815 1105 c-7 -73 -1 -115 15 -115 4 0 9 12 11 28 6 43 -2 162 -11
162 -4 0 -11 -34 -15 -75z"/>
<path d="M614 1149 c2 -10 10 -44 16 -77 7 -33 22 -75 33 -94 l22 -33 3 26 c2
14 -14 60 -38 110 -23 46 -39 77 -36 68z"/>
<path d="M1004 1084 c-42 -94 -53 -165 -17 -114 15 21 55 162 48 168 -2 3 -16
-22 -31 -54z"/>
<path d="M491 925 c37 -36 74 -65 83 -65 15 0 15 2 0 25 -15 24 -125 105 -141
105 -5 0 22 -30 58 -65z"/>
<path d="M1154 948 c-75 -53 -103 -88 -73 -88 11 0 149 129 138 130 -3 0 -32
-19 -65 -42z"/>
<path d="M760 941 c-94 -31 -165 -107 -185 -198 l-7 -33 251 0 251 0 0 30 c0
61 -62 145 -134 182 -43 22 -136 32 -176 19z"/>
<path d="M141 889 c0 -15 6 -32 14 -39 8 -7 15 -23 15 -37 0 -14 4 -21 10 -18
17 10 11 44 -9 55 -11 5 -22 22 -24 37 l-4 28 -2 -26z"/>
<path d="M1459 818 c-7 -13 -12 -27 -11 -32 2 -5 -4 -16 -13 -26 -8 -9 -13
-24 -10 -33 4 -8 2 -18 -4 -22 -19 -11 -12 -22 19 -28 24 -5 30 -12 30 -31 0
-14 -8 -30 -17 -35 -15 -9 -14 -10 10 -11 15 0 27 -4 27 -8 0 -4 15 -13 33
-20 26 -10 29 -14 17 -23 -12 -8 -11 -9 5 -5 11 3 31 -1 45 -9 22 -13 2 -14
-181 -15 -200 0 -206 1 -237 23 -17 13 -29 27 -25 30 3 4 0 7 -9 7 -8 0 -25 9
-38 20 -13 11 -28 20 -34 20 -14 0 -3 -10 78 -69 l69 -51 214 0 c130 0 213 4
211 9 -1 6 -19 20 -38 33 -30 21 -35 29 -35 63 0 38 2 40 33 43 28 3 31 6 21
18 -6 8 -13 22 -14 32 -5 56 -38 118 -56 107 -4 -3 -12 2 -17 11 -7 12 -11 13
-17 5 -5 -9 -12 -8 -25 4 -17 16 -19 15 -31 -7z m51 -197 c0 -14 -5 -19 -15
-15 -9 4 -15 19 -15 36 0 26 2 28 15 14 8 -8 15 -24 15 -35z m40 -12 c0 -24
-4 -38 -10 -34 -5 3 -10 22 -10 41 0 19 5 34 10 34 6 0 10 -18 10 -41z"/>
<path d="M110 785 c-6 -8 -10 -20 -7 -27 4 -8 6 -7 6 4 1 9 9 22 19 27 9 6 12
11 6 11 -6 0 -17 -7 -24 -15z"/>
<path d="M340 777 c13 -14 164 -45 184 -37 20 8 20 8 -8 19 -30 12 -185 28
-176 18z"/>
<path d="M1178 770 c-62 -11 -78 -21 -49 -32 19 -7 175 24 190 38 7 7 -91 2
-141 -6z"/>
<path d="M81 688 c-1 -10 4 -18 9 -18 6 0 10 -24 10 -53 0 -48 -3 -55 -26 -66
-15 -6 -24 -14 -21 -17 3 -3 14 -1 25 5 11 6 29 8 39 5 15 -5 15 -4 3 5 -12 9
-9 13 18 23 17 7 32 16 32 20 0 4 12 8 28 8 18 0 23 3 14 9 -17 11 6 20 51 22
18 1 24 3 14 6 -9 2 -15 9 -12 14 4 5 87 9 186 9 118 0 178 -3 174 -10 -3 -5
-18 -11 -33 -11 -18 -1 -21 -3 -9 -6 16 -4 14 -8 -14 -29 -18 -13 -41 -24 -51
-24 -10 0 -17 -4 -16 -9 2 -5 -8 -19 -22 -30 -23 -21 -32 -22 -239 -20 -150 1
-216 -2 -219 -10 -3 -8 58 -11 210 -11 l214 0 106 78 c59 42 107 80 107 85 1
4 -87 7 -195 7 -192 0 -196 0 -232 -25 -20 -14 -40 -25 -44 -25 -5 0 -8 11 -8
25 0 14 5 25 10 25 6 0 10 8 9 18 0 10 -3 12 -6 5 -3 -8 -24 -13 -53 -13 -29
0 -50 5 -53 13 -3 7 -6 5 -6 -5z m89 -47 c0 -20 -8 -35 -22 -45 -33 -24 -38
-20 -38 29 0 43 1 45 30 45 27 0 30 -3 30 -29z"/>
<path d="M576 570 l-128 -100 -219 0 c-139 0 -219 -4 -219 -10 0 -6 81 -10
223 -10 l224 0 96 74 c53 40 110 85 127 100 30 25 37 26 148 26 l117 0 129
-100 129 -100 223 0 c143 0 224 4 224 10 0 6 -80 10 -219 10 l-218 0 -129 100
-129 100 -125 0 -125 0 -129 -100z"/>
<path d="M1000 663 c0 -5 84 -7 186 -5 187 3 240 -2 199 -18 -17 -7 -15 -9 12
-9 17 -1 40 -4 50 -7 10 -3 0 6 -22 20 -39 26 -43 26 -232 26 -106 0 -193 -3
-193 -7z"/>
<path d="M1031 636 c12 -13 21 -14 40 -7 23 9 23 10 2 10 -12 1 -30 4 -40 7
-16 6 -17 5 -2 -10z"/>
<path d="M323 633 c9 -2 23 -2 30 0 6 3 -1 5 -18 5 -16 0 -22 -2 -12 -5z"/>
<path d="M383 633 c9 -2 23 -2 30 0 6 3 -1 5 -18 5 -16 0 -22 -2 -12 -5z"/>
<path d="M448 633 c6 -2 18 -2 25 0 6 3 1 5 -13 5 -14 0 -19 -2 -12 -5z"/>
<path d="M513 633 c9 -2 23 -2 30 0 6 3 -1 5 -18 5 -16 0 -22 -2 -12 -5z"/>
<path d="M1123 633 c9 -2 23 -2 30 0 6 3 -1 5 -18 5 -16 0 -22 -2 -12 -5z"/>
<path d="M1188 633 c6 -2 18 -2 25 0 6 3 1 5 -13 5 -14 0 -19 -2 -12 -5z"/>
<path d="M1253 633 c9 -2 23 -2 30 0 6 3 -1 5 -18 5 -16 0 -22 -2 -12 -5z"/>
<path d="M1313 633 c9 -2 23 -2 30 0 6 3 -1 5 -18 5 -16 0 -22 -2 -12 -5z"/>
<path d="M258 603 c7 -3 16 -2 19 1 4 3 -2 6 -13 5 -11 0 -14 -3 -6 -6z"/>
<path d="M318 603 c6 -2 18 -2 25 0 6 3 1 5 -13 5 -14 0 -19 -2 -12 -5z"/>
<path d="M378 603 c6 -2 18 -2 25 0 6 3 1 5 -13 5 -14 0 -19 -2 -12 -5z"/>
<path d="M448 603 c6 -2 18 -2 25 0 6 3 1 5 -13 5 -14 0 -19 -2 -12 -5z"/>
<path d="M508 603 c6 -2 18 -2 25 0 6 3 1 5 -13 5 -14 0 -19 -2 -12 -5z"/>
<path d="M1128 603 c6 -2 18 -2 25 0 6 3 1 5 -13 5 -14 0 -19 -2 -12 -5z"/>
<path d="M1188 603 c6 -2 18 -2 25 0 6 3 1 5 -13 5 -14 0 -19 -2 -12 -5z"/>
<path d="M1258 603 c7 -3 16 -2 19 1 4 3 -2 6 -13 5 -11 0 -14 -3 -6 -6z"/>
<path d="M1318 603 c6 -2 18 -2 25 0 6 3 1 5 -13 5 -14 0 -19 -2 -12 -5z"/>
<path d="M1388 603 c7 -3 16 -2 19 1 4 3 -2 6 -13 5 -11 0 -14 -3 -6 -6z"/>
<path d="M750 520 l0 -50 75 0 75 0 0 50 0 50 -75 0 -75 0 0 -50z m70 25 c0
-10 -10 -15 -30 -15 -20 0 -30 5 -30 15 0 10 10 15 30 15 20 0 30 -5 30 -15z
m70 0 c0 -9 -9 -15 -25 -15 -16 0 -25 6 -25 15 0 9 9 15 25 15 16 0 25 -6 25
-15z m-70 -40 c0 -10 -10 -15 -30 -15 -20 0 -30 5 -30 15 0 10 10 15 30 15 20
0 30 -5 30 -15z m70 0 c0 -9 -9 -15 -25 -15 -16 0 -25 6 -25 15 0 9 9 15 25
15 16 0 25 -6 25 -15z"/>
<path d="M1468 543 c7 -3 16 -2 19 1 4 3 -2 6 -13 5 -11 0 -14 -3 -6 -6z"/>
<path d="M295 403 c-6 -2 -8 -33 -5 -80 4 -68 8 -78 25 -81 16 -3 18 -1 8 9
-18 19 -16 68 3 76 8 3 23 -2 32 -11 14 -13 14 -21 5 -47 -12 -31 -12 -31 7
-14 11 10 20 28 20 41 0 27 -34 54 -60 47 -15 -4 -19 1 -22 29 -2 19 -7 33
-13 31z"/>
<path d="M425 402 c-5 -4 -10 -42 -10 -85 0 -62 3 -77 15 -77 12 0 14 12 12
62 -4 96 -6 108 -17 100z"/>
<path d="M1332 403 c-10 -4 -10 -8 -1 -19 7 -9 10 -38 7 -79 -3 -56 -2 -65 13
-65 12 0 15 7 11 28 l-5 27 22 -27 c13 -16 30 -28 39 -28 12 0 8 8 -14 31
l-29 31 24 19 c23 19 23 19 2 19 -12 0 -20 -4 -17 -9 3 -5 -1 -14 -9 -21 -13
-11 -15 -5 -15 44 0 55 -2 59 -28 49z"/>
<path d="M25 315 c0 -71 1 -75 23 -75 19 0 21 3 12 19 -25 48 5 57 38 11 13
-16 29 -30 38 -30 11 0 8 9 -12 36 -25 33 -26 37 -11 46 20 11 22 39 5 56 -7
7 -30 12 -53 12 l-40 0 0 -75z m73 34 c2 -19 -2 -28 -17 -32 -24 -6 -31 0 -31
28 0 44 43 47 48 4z"/>
<path d="M746 374 c-3 -8 -3 -26 0 -40 4 -14 2 -24 -4 -24 -17 0 -25 -40 -12
-55 15 -18 61 -20 78 -3 9 9 15 9 24 0 7 -7 19 -12 27 -12 12 0 11 3 -2 18
-22 24 -21 38 3 62 l20 20 -24 0 c-19 0 -23 -4 -19 -19 7 -27 -11 -34 -31 -12
-11 13 -14 21 -7 26 6 3 11 17 11 31 0 20 -5 24 -29 24 -17 0 -31 -6 -35 -16z
m49 -14 c0 -22 -29 -18 -33 3 -3 14 1 18 15 15 10 -2 18 -10 18 -18z m5 -100
c-33 -22 -61 7 -45 47 5 14 10 13 33 -10 23 -23 25 -29 12 -37z"/>
<path d="M966 353 c19 -28 25 -48 22 -75 -3 -33 -1 -38 17 -38 18 0 20 5 17
34 -4 34 16 78 47 104 13 10 11 12 -13 12 -15 0 -25 -4 -21 -10 3 -5 0 -21 -8
-36 l-14 -26 -17 26 c-9 15 -14 31 -11 36 3 6 -5 10 -19 10 l-25 0 25 -37z"/>
<path d="M1270 380 c0 -5 5 -10 10 -10 6 0 10 5 10 10 0 6 -4 10 -10 10 -5 0
-10 -4 -10 -10z"/>
<path d="M192 338 c-12 -6 -25 -21 -28 -34 -7 -28 12 -64 33 -64 13 0 14 3 5
12 -17 17 -15 75 2 81 22 9 39 -19 34 -58 -4 -39 -1 -43 18 -17 19 25 17 49
-6 72 -23 23 -26 23 -58 8z"/>
<path d="M499 340 c-22 -13 -32 -56 -19 -80 11 -21 54 -27 65 -10 3 5 0 7 -8
4 -17 -6 -50 23 -42 37 4 5 19 9 36 9 34 0 40 24 10 40 -23 12 -22 12 -42 0z
m36 -20 c3 -5 -3 -10 -14 -10 -12 0 -21 5 -21 10 0 6 6 10 14 10 8 0 18 -4 21
-10z"/>
<path d="M598 339 c-25 -14 -22 -36 8 -55 14 -9 23 -23 20 -30 -3 -8 -1 -14 3
-14 5 0 12 8 16 17 4 12 -2 25 -21 39 -15 13 -24 27 -19 33 5 9 11 9 23 -1 13
-11 14 -11 11 1 -7 19 -20 23 -41 10z"/>
<path d="M1087 339 c-9 -6 -17 -15 -17 -21 0 -9 3 -9 12 0 16 16 38 15 38 -2
0 -8 -10 -18 -22 -22 -51 -15 -43 -53 10 -52 l37 0 -4 44 c-3 49 -24 69 -54
53z m33 -63 c0 -16 -18 -31 -27 -22 -8 8 5 36 17 36 5 0 10 -6 10 -14z"/>
<path d="M1188 339 c-25 -14 -22 -36 8 -55 15 -10 23 -23 19 -31 -3 -9 0 -13
7 -11 25 8 20 44 -7 56 -14 6 -25 16 -25 21 0 15 18 23 25 11 3 -5 11 -10 17
-10 7 0 6 6 -2 15 -15 17 -19 18 -42 4z"/>
<path d="M1472 338 c-12 -6 -25 -21 -28 -34 -7 -28 12 -64 33 -64 13 0 14 3 5
12 -17 17 -15 75 2 81 22 9 39 -19 34 -58 -5 -41 8 -46 22 -9 14 35 13 41 -10
64 -23 23 -26 23 -58 8z"/>
<path d="M1265 290 c0 -38 4 -50 15 -50 12 0 14 11 12 50 -5 67 -27 67 -27 0z"/>
<path d="M1581 300 c10 -21 19 -44 19 -50 0 -16 17 -12 24 6 8 22 8 26 -3 19
-6 -3 -13 10 -17 30 -4 25 -12 35 -24 35 -17 0 -17 -2 1 -40z"/>
<path d="M1633 313 c-1 -25 0 -25 10 -8 5 11 15 23 21 27 7 5 3 8 -9 8 -15 0
-20 -7 -22 -27z"/>
<path d="M1170 255 c0 -8 4 -15 10 -15 5 0 7 7 4 15 -4 8 -8 15 -10 15 -2 0
-4 -7 -4 -15z"/>
<path d="M580 250 c0 -5 5 -10 11 -10 5 0 7 5 4 10 -3 6 -8 10 -11 10 -2 0 -4
-4 -4 -10z"/>
<path d="M1030 149 c-41 -5 -133 -20 -205 -34 -212 -41 -252 -45 -420 -45
-140 0 -250 11 -360 35 l-30 6 29 -17 c92 -52 275 -94 413 -94 114 0 179 10
357 51 213 50 330 68 520 81 133 9 170 15 141 20 -54 9 -352 7 -445 -3z"/>
</g>
</svg>
