<?xml version="1.0" encoding="UTF-8"?>
<svg width="24px" height="24px" viewBox="0 0 24 24" version="1.1" xmlns="http://www.w3.org/2000/svg" xmlns:xlink="http://www.w3.org/1999/xlink">
    <!-- Generator: Sketch 55.2 (78181) - https://sketchapp.com -->
    <title>whatsapp-white</title>
    <desc>Created with Sketch.</desc>
    <g id="Page-1" stroke="none" stroke-width="1" fill="none" fill-rule="evenodd">
        <g id="whatsapp-white" transform="translate(1.000000, 1.000000)">
            <path d="M0.790999419,21.224056 L6.03235296,19.5587853 L6.22014909,19.6618483 C7.73216788,20.4916488 9.43328838,20.9332149 11.1999087,20.9332149 C16.8893223,20.9332149 21.5,16.3583907 21.5,10.7169825 C21.5,5.07505799 16.8894634,0.5 11.1999087,0.5 C5.51013424,0.5 0.899431228,5.07499054 0.899431228,10.7168948 C0.899431228,12.6019934 1.4149286,14.4113256 2.37624664,15.9903198 L2.49765958,16.1897442 L0.790999419,21.224056 Z" id="whatsup-copy-2" stroke="#FFFFFF" stroke-width="2"></path>
            <path d="M8.20454082,6.00867951 C8.10978975,6.00424332 8.00704411,6 7.89462596,6 C7.53871737,6 7.16968181,6.10241815 6.94731298,6.32470991 C6.67668035,6.59522108 6,7.22882488 6,8.52978606 C6,9.83094011 6.96981634,11.0882144 7.10493528,11.2646977 C7.24044898,11.440988 8.99640287,14.1500541 11.7283911,15.2561121 C13.860783,16.1191442 14.493937,16.0422823 14.9804244,15.9383212 C15.6882936,15.7872978 16.5771768,15.2779073 16.802704,14.6606982 C17.0282312,14.0431033 17.0282312,13.51375 16.9606224,13.4038096 C16.8929149,13.293387 16.7124931,13.2275192 16.4418605,13.0949157 C16.1712278,12.9626979 14.8404692,12.3230185 14.5924386,12.2349698 C14.3443094,12.1468246 14.1149329,12.173731 13.9241477,12.4315123 C13.6608188,12.7876613 13.4075572,13.153647 13.1978218,13.3706346 C13.0331919,13.5409458 12.7682838,13.5646698 12.5404865,13.4700632 C12.240935,13.3453676 11.3977495,13.0582689 10.3638775,12.1577222 C9.55948064,11.4569969 9.01624139,10.5913611 8.85832295,10.3265398 C8.70040456,10.0621042 8.8444064,9.90423368 8.96610227,9.76034681 C9.10487306,9.59611129 9.23288567,9.47816649 9.36820199,9.32396066 C9.50351831,9.16946546 9.57912177,9.08720306 9.66933265,8.91052693 C9.75954353,8.73423658 9.69884362,8.55225631 9.6311361,8.41984568 C9.56332992,8.28743501 9.02147241,6.98666674 8.79663608,6.45692767 C8.61779353,6.03577885 8.48079929,6.02150588 8.20454082,6.00867951 Z" id="whatsup-path" fill="#FFFFFF" fill-rule="nonzero"></path>
        </g>
    </g>
</svg>