<?xml version="1.0" encoding="utf-8"?>
<!-- Generator: Adobe Illustrator 25.4.1, SVG Export Plug-In . SVG Version: 6.00 Build 0)  -->
<svg version="1.1" id="Capa_1" xmlns="http://www.w3.org/2000/svg" xmlns:xlink="http://www.w3.org/1999/xlink" x="0px" y="0px"
	 viewBox="0 0 189.5 137.1" style="enable-background:new 0 0 189.5 137.1;" xml:space="preserve">
<style type="text/css">
	.st0{fill:#14647A;}
</style>
<path class="st0" d="M183.4,84.7c-15.3-1.9-30.6-0.9-45.8,0.6c-7.6,0.9-15.1,2-22.6,3.5c-1.9,0.4-3.7,0.7-5.6,1.1l-5.6,1.2
	c-3.7,0.7-7.4,1.7-11.1,2.7c-3.6,0.9-7.5,2-11.4,2.7c-3.8,0.8-7.7,1.4-11.6,1.9c-7.8,1-15.7,1.5-23.6,1C38.3,98.7,30.6,97,23,94.9
	c-7.5-2.2-15-4.7-21.6-8.7c7.1,3.1,14.5,5.1,22,6.6c7.5,1.5,15.2,2.4,22.9,2.7c3.8,0.1,7.7,0.1,11.5,0c3.8-0.2,7.7-0.4,11.5-0.9
	c3.8-0.4,7.6-1,11.4-1.7c3.8-0.7,7.5-1.6,11.3-2.5c15-3.5,30.2-6,45.5-7.2c7.7-0.6,15.4-0.8,23-0.7
	C168.2,82.7,175.9,83.2,183.4,84.7"/>
<path class="st0" d="M183.4,84.3c-7.5-1.5-15.2-2-22.9-2.2c-7.7-0.2-15.4,0.1-23,0.7c-15.3,1.2-30.5,3.7-45.5,7.2
	c-3.8,0.8-7.5,1.8-11.3,2.5c-3.8,0.7-7.6,1.3-11.4,1.7c-3.8,0.5-7.7,0.7-11.5,0.9c-3.8,0.1-7.7,0.2-11.5,0
	C38.6,94.9,31,94,23.4,92.5c-7.5-1.5-15-3.6-22-6.6c3.7,1.1,7.5,1.9,11.2,2.7c3.7,0.8,7.5,1.4,11.3,1.8c7.5,0.9,15.1,0.9,22.6,1
	c3.7,0,7.5,0,11.2-0.1c3.7-0.1,7.5-0.3,11.2-0.7c3.7-0.4,7.5-0.9,11.2-1.5c1.9-0.3,3.7-0.7,5.5-1.1l5.6-1.2
	c3.8-0.8,7.6-1.6,11.4-2.2l5.7-1c1.9-0.3,3.8-0.5,5.8-0.8c7.7-1.1,15.4-1.6,23.2-2.1c3.9-0.1,7.7-0.3,11.6-0.2c1.9,0,3.9,0,5.8,0.1
	c1.9,0.1,3.9,0.1,5.8,0.3C168.3,81.5,176,82.4,183.4,84.3"/>
</svg>
