<svg width="18" height="25" viewBox="0 0 18 25" fill="none" xmlns="http://www.w3.org/2000/svg">
<path d="M16.9706 5.89785L16.9672 5.90116C17.0401 6.10325 17.1081 6.30787 17.1663 6.51659C17.1072 6.30761 17.0438 6.10046 16.9706 5.89785ZM8.78229 0.142212L2.62012 2.69501L6.16056 6.23554C6.85256 5.53878 7.793 5.14545 8.775 5.14209C9.757 5.13872 10.7001 5.52559 11.3969 6.21759C12.0936 6.90959 12.487 7.85003 12.4903 8.83203C12.4937 9.81403 12.1068 10.7572 11.4148 11.4539L16.6255 6.24251L16.9672 5.9009C16.3612 4.21551 15.25 2.75812 13.7852 1.72752C12.3204 0.696925 10.5733 0.143314 8.78229 0.142212Z" fill="#4285F4"/>
<path d="M8.78406 12.5538C8.05199 12.5537 7.33637 12.3366 6.72759 11.93C6.11882 11.5234 5.64419 10.9455 5.36365 10.2694C5.08312 9.59316 5.00926 8.849 5.15141 8.13087C5.29356 7.41273 5.64534 6.75282 6.16233 6.2345L2.62188 2.69397C1.81145 3.50225 1.16874 4.46273 0.73069 5.5202C0.292639 6.57767 0.0678848 7.71128 0.069343 8.85589C0.069343 12.6953 2.04331 15.1015 4.3657 17.5706C4.52143 17.7299 4.65102 17.9063 4.79786 18.0714L11.3869 11.4822C10.6949 12.1693 9.75918 12.5546 8.78406 12.5538Z" fill="#FFBA00"/>
<path d="M8.78407 0.142212C6.47278 0.142212 4.25616 1.06037 2.62183 2.69469C0.987505 4.32902 0.0693505 6.54564 0.0693505 8.85693C0.0675788 9.87928 0.228006 10.8954 0.544651 11.8675L11.7435 0.669104C10.7952 0.32263 9.79369 0.144324 8.78407 0.142212Z" fill="#0066DA"/>
<path d="M9.56933 23.5756C10.3609 21.3731 11.5521 19.3356 13.0831 17.5654C15.5794 15.029 17.4988 12.6961 17.4988 8.85644C17.4967 7.84688 17.3186 6.84541 16.9723 5.89709L4.79785 18.0716C6.19946 19.6648 7.2641 21.5252 7.92765 23.5407C7.98334 23.7124 8.09109 23.8626 8.23596 23.9703C8.38083 24.0779 8.55563 24.1379 8.7361 24.1417C8.91657 24.1455 9.09376 24.0931 9.24307 23.9916C9.39239 23.8902 9.50641 23.7448 9.56933 23.5756Z" fill="#00AC47"/>
<path opacity="0.5" d="M4.3653 17.571C4.52103 17.7304 4.65062 17.9067 4.79746 18.0718C4.65027 17.907 4.52068 17.7306 4.3653 17.571ZM1.12081 4.70264C0.850305 5.20061 0.629344 5.72394 0.461103 6.2651C0.629382 5.72396 0.850341 5.20063 1.12081 4.70264ZM0.461103 6.2651C0.288923 6.81891 0.172727 7.3886 0.114258 7.9656C0.172735 7.3886 0.288932 6.81891 0.461103 6.2651Z" fill="#0066DA"/>
<path d="M8.08419 23.8194C8.10162 23.841 8.12297 23.8562 8.14206 23.8755C8.1228 23.8562 8.10153 23.8409 8.08419 23.8194ZM8.59984 24.1192L8.6347 24.1249L8.59984 24.1192ZM6.71241 20.7936C6.68007 20.7352 6.65323 20.6732 6.62012 20.6152C6.65288 20.6735 6.68042 20.7353 6.71241 20.7936ZM7.92872 23.5415C7.75042 23.0165 7.5498 22.5062 7.32688 22.0106C7.54701 22.5076 7.75042 23.0161 7.92872 23.5415ZM8.37282 24.0437C8.35286 24.0339 8.33247 24.0257 8.31321 24.0142C8.33273 24.0257 8.35252 24.034 8.37282 24.0437ZM12.0198 18.899C11.8028 19.2018 11.612 19.52 11.4161 19.8351C11.6114 19.5196 11.8033 19.2021 12.0198 18.899Z" fill="white"/>
<path d="M9.69824 23.2741C9.90252 22.7588 10.1222 22.2525 10.3572 21.7553C10.1207 22.2515 9.90252 22.7587 9.69824 23.2741ZM11.1215 20.2975C10.8706 20.7295 10.6422 21.1749 10.4244 21.6258C10.6422 21.1744 10.8715 20.73 11.1215 20.2975Z" fill="white"/>
<path d="M2.62189 2.69397C1.81146 3.50225 1.16875 4.46273 0.730697 5.5202C0.292647 6.57767 0.0678923 7.71128 0.0693505 8.85589C0.0675788 9.87823 0.228006 10.8944 0.544651 11.8665L6.16965 6.24147L2.62189 2.69397Z" fill="#EA4435"/>
</svg>
