<svg width="70" height="65" viewBox="0 0 70 65" fill="none" xmlns="http://www.w3.org/2000/svg">
<path fill-rule="evenodd" clip-rule="evenodd" d="M33.3663 6.10985L31.2448 8.23137C30.6045 8.87168 29.5642 8.87168 28.9247 8.23137C28.2829 7.59107 28.2829 6.55079 28.9247 5.91124L33.8478 0.988159C34.4881 0.346395 35.5269 0.346395 36.1679 0.988159L41.091 5.91124C41.7313 6.55154 41.7313 7.59182 41.091 8.23137C40.4507 8.87168 39.4104 8.87168 38.7708 8.23137L36.6484 6.10892V15.975L55.4783 26.9592C55.4914 26.9662 55.5044 26.9734 55.5173 26.9808C56.013 27.2658 56.3249 27.7891 56.3401 28.3597L56.3406 28.3861L56.3407 28.405L56.3407 28.4168V50.2446L65.2021 55.361L64.4259 52.4626C64.1914 51.5879 64.7116 50.6868 65.5863 50.4523C66.4611 50.2178 67.3622 50.738 67.5966 51.6127L69.3988 58.3379C69.6333 59.2141 69.1131 60.1138 68.2384 60.3482L61.5132 62.1505C60.6384 62.3849 59.7373 61.8647 59.5029 60.99C59.2684 60.1153 59.7886 59.2142 60.6633 58.9797L63.5613 58.2036L54.8641 53.182L35.883 64.2543C35.8639 64.2664 35.8446 64.278 35.8249 64.2893C35.315 64.5809 34.6879 64.5795 34.1809 64.2842L15.1431 53.1788L6.44076 58.2033L9.33716 58.979C10.2119 59.2135 10.732 60.1146 10.4976 60.9893C10.2632 61.8641 9.36207 62.3842 8.48729 62.1498L1.81919 60.3629C1.39097 60.2641 1.00328 59.9948 0.766486 59.5845C0.728287 59.5183 0.695224 59.4505 0.667175 59.3816C0.536391 59.0614 0.505291 58.6974 0.601637 58.3373L2.40384 51.612C2.63828 50.7373 3.53938 50.2172 4.41415 50.4516C5.28888 50.686 5.80902 51.5871 5.57459 52.4619L4.79792 55.3619L13.6747 50.2366V28.4514L13.6742 28.4297L13.674 28.405C13.674 27.8212 13.9839 27.2812 14.4879 26.9875L33.3663 15.9751V6.10985ZM36.6484 26.7643V19.7754L51.4416 28.4044L35.0068 37.9914L28.933 34.4488L18.5715 28.4046L33.3663 19.7755V26.7643C33.3663 27.6698 34.1019 28.4053 35.0074 28.4053C35.9129 28.4053 36.6484 27.6698 36.6484 26.7643ZM24.3247 47.8775L18.4153 51.2894L33.3663 60.0104V40.8357L16.956 31.2635V48.3421L22.6837 45.035C23.4683 44.5823 24.4727 44.8511 24.9254 45.6357C25.3782 46.4203 25.1093 47.4247 24.3247 47.8775ZM53.0586 48.3496V31.2624L36.6484 40.8351V60.0074L51.5903 51.2918L45.675 47.8764C44.8904 47.4237 44.6215 46.4193 45.0742 45.6346C45.527 44.85 46.5314 44.5812 47.316 45.0339L53.0586 48.3496Z" fill="white"/>
</svg>
