<svg width="27" height="25" viewBox="0 0 27 25" fill="none" xmlns="http://www.w3.org/2000/svg">
<path d="M15.1227 20.142C20.8668 20.142 25.5229 15.8443 25.5229 10.5418C25.5229 5.23933 20.8668 0.94165 15.1227 0.94165C9.3786 0.94165 4.72252 5.23933 4.72252 10.5418C4.72252 10.5418 5.47293 15.3419 1.52246 15.3419C1.52246 19.342 8.72259 20.142 15.1227 20.142Z" fill="#BBDEFB"/>
<path d="M15.1239 20.9422C5.43412 20.9422 0.723633 19.1102 0.723633 15.3421C0.723633 15.1299 0.80792 14.9265 0.957952 14.7764C1.10798 14.6264 1.31147 14.5421 1.52365 14.5421C2.31726 14.5421 2.89647 14.3149 3.29488 13.8509C4.2293 12.7581 3.93649 10.686 3.93329 10.6652C3.92369 4.80753 8.94778 0.141846 15.1239 0.141846C21.2984 0.141846 26.3241 4.80753 26.3241 10.542C26.3241 16.2765 21.2984 20.9422 15.1239 20.9422ZM2.44526 16.0589C3.20688 18.211 7.55256 19.3422 15.1239 19.3422C20.4184 19.3422 24.7241 15.3933 24.7241 10.542C24.7241 5.68915 20.4184 1.74187 15.1239 1.74187C9.8294 1.74187 5.52372 5.68915 5.52372 10.542C5.53332 10.542 5.93173 13.2317 4.5109 14.8909C3.98011 15.5098 3.2492 15.9231 2.44526 16.0589Z" fill="#455A64"/>
<path d="M18.3221 24.1425C20.0895 24.1425 21.5222 22.7098 21.5222 20.9425C21.5222 19.1751 20.0895 17.7424 18.3221 17.7424C16.5548 17.7424 15.1221 19.1751 15.1221 20.9425C15.1221 22.7098 16.5548 24.1425 18.3221 24.1425Z" fill="#37474F"/>
<path d="M8.72252 24.1425C10.4899 24.1425 11.9226 22.7098 11.9226 20.9425C11.9226 19.1751 10.4899 17.7424 8.72252 17.7424C6.95518 17.7424 5.52246 19.1751 5.52246 20.9425C5.52246 22.7098 6.95518 24.1425 8.72252 24.1425Z" fill="#37474F"/>
<path d="M11.9531 8.94207C11.5114 8.94207 11.145 8.58366 11.145 8.14206C11.145 7.70045 11.4954 7.34204 11.9371 7.34204H11.9531C12.1652 7.34204 12.3687 7.42633 12.5187 7.57636C12.6688 7.72639 12.7531 7.92988 12.7531 8.14206C12.7531 8.35423 12.6688 8.55772 12.5187 8.70775C12.3687 8.85778 12.1652 8.94207 11.9531 8.94207ZM18.3532 8.94207C17.9132 8.94207 17.5452 8.58366 17.5452 8.14206C17.5452 7.70045 17.8956 7.34204 18.3372 7.34204H18.3532C18.5653 7.34204 18.7688 7.42633 18.9189 7.57636C19.0689 7.72639 19.1532 7.92988 19.1532 8.14206C19.1532 8.35423 19.0689 8.55772 18.9189 8.70775C18.7688 8.85778 18.5653 8.94207 18.3532 8.94207ZM15.1211 16.1422C14.0072 16.1471 12.9252 15.7703 12.0553 15.0745C11.1854 14.3787 10.5801 13.4059 10.3402 12.3181C10.3062 12.116 10.3509 11.9085 10.4651 11.7383C10.5794 11.5681 10.7545 11.4482 10.9544 11.4031C11.1544 11.358 11.364 11.3912 11.5403 11.496C11.7165 11.6007 11.8459 11.7689 11.9019 11.9661C12.0632 12.6988 12.4706 13.3541 13.0564 13.8228C13.6422 14.2916 14.3709 14.5455 15.1211 14.5422C15.8714 14.5457 16.6003 14.292 17.1861 13.8232C17.7719 13.3544 18.1793 12.6989 18.3404 11.9661C18.387 11.7588 18.5142 11.5786 18.6937 11.465C18.8733 11.3514 19.0907 11.3138 19.298 11.3605C19.5053 11.4072 19.6855 11.5343 19.7991 11.7139C19.9127 11.8935 19.9503 12.1108 19.9036 12.3181C19.6634 13.4061 19.0578 14.3789 18.1876 15.0747C17.3175 15.7704 16.2352 16.1472 15.1211 16.1422Z" fill="#455A64"/>
</svg>
