<svg width="25" height="25" viewBox="0 0 25 25" fill="none" xmlns="http://www.w3.org/2000/svg">
<path d="M0.790039 24.1422L2.51045 17.7453C1.12298 15.2534 0.682169 12.3455 1.2689 9.5553C1.85564 6.76509 3.43056 4.2797 5.70468 2.55519C7.9788 0.830692 10.7996 -0.017243 13.6494 0.166986C16.4992 0.351214 19.1868 1.55525 21.2192 3.55815C23.2515 5.56105 24.4922 8.22846 24.7136 11.0709C24.935 13.9134 24.1223 16.7402 22.4245 19.0327C20.7267 21.3251 18.2577 22.9295 15.4707 23.5513C12.6837 24.1731 9.76556 23.7707 7.25176 22.4179L0.790039 24.1422ZM7.56333 20.0241L7.96295 20.2608C9.78375 21.3382 11.9104 21.7841 14.0115 21.5289C16.1127 21.2737 18.0702 20.3318 19.5791 18.8499C21.0881 17.3681 22.0636 15.4295 22.3537 13.3363C22.6438 11.2432 22.2322 9.11299 21.1831 7.27774C20.1339 5.44249 18.5061 4.00527 16.5534 3.19005C14.6006 2.37483 12.4326 2.22741 10.3871 2.77075C8.3417 3.31409 6.53373 4.51767 5.245 6.19394C3.95626 7.87021 3.25915 9.92501 3.26229 12.0381C3.26058 13.7902 3.74594 15.5084 4.66436 17.0015L4.91497 17.414L3.95317 20.9843L7.56333 20.0241Z" fill="url(#paint0_linear_713_1123)"/>
<path fill-rule="evenodd" clip-rule="evenodd" d="M17.2636 13.6812C17.0293 13.4925 16.755 13.3598 16.4616 13.293C16.1682 13.2262 15.8633 13.2271 15.5703 13.2957C15.13 13.4783 14.8456 14.168 14.5611 14.5129C14.5011 14.5956 14.4129 14.6536 14.3132 14.676C14.2134 14.6984 14.1089 14.6837 14.0192 14.6346C12.4074 14.0044 11.0563 12.8486 10.1855 11.355C10.1113 11.2618 10.0761 11.1435 10.0875 11.0249C10.0988 10.9064 10.1558 10.7968 10.2465 10.7194C10.5638 10.4058 10.7967 10.0174 10.9238 9.59013C10.952 9.11882 10.8439 8.64936 10.6122 8.23772C10.4332 7.66061 10.0924 7.14674 9.63012 6.75683C9.3917 6.64977 9.12734 6.61388 8.86894 6.65347C8.61055 6.69307 8.36914 6.80646 8.17386 6.97997C7.83484 7.27199 7.56574 7.63621 7.38639 8.0458C7.20704 8.4554 7.12201 8.89994 7.13755 9.3467C7.13859 9.59758 7.17044 9.84738 7.23237 10.0905C7.38965 10.6747 7.63153 11.2328 7.95034 11.7472C8.18036 12.1413 8.43133 12.5227 8.70218 12.89C9.5824 14.0964 10.6889 15.1206 11.9601 15.9059C12.5981 16.305 13.2799 16.6294 13.9921 16.8729C14.732 17.2077 15.5489 17.3362 16.356 17.2448C16.8159 17.1753 17.2516 16.994 17.6248 16.7169C17.9981 16.4398 18.2973 16.0754 18.4964 15.6557C18.6133 15.4022 18.6488 15.1187 18.598 14.8443C18.476 14.283 17.7242 13.9517 17.2636 13.6812Z" fill="url(#paint1_linear_713_1123)"/>
<defs>
<linearGradient id="paint0_linear_713_1123" x1="14.4256" y1="24.858" x2="3.19342" y2="0.156552" gradientUnits="userSpaceOnUse">
<stop stop-color="#00D95F"/>
<stop offset="1" stop-color="#07FF74"/>
</linearGradient>
<linearGradient id="paint1_linear_713_1123" x1="13.6719" y1="17.5906" x2="8.95269" y2="6.36466" gradientUnits="userSpaceOnUse">
<stop stop-color="#00D95F"/>
<stop offset="1" stop-color="#07FF74"/>
</linearGradient>
</defs>
</svg>
