<?xml version="1.0" encoding="UTF-8"?>
<svg id="Capa_1" data-name="Capa 1" xmlns="http://www.w3.org/2000/svg" viewBox="0 0 300 300">
  <defs>
    <style>
      .cls-1 {
        fill: #004f49;
      }
    </style>
  </defs>
  <path class="cls-1" d="M252.83,86.33c0-4.98-4.05-9.04-9.04-9.04h-27.52c-4.98,0-9.04,4.05-9.04,9.04,0,3.93,2.52,7.28,6.03,8.52v130.86c0,1.66,1.35,3.01,3.01,3.01h27.52c1.66,0,3.01-1.35,3.01-3.01V94.85c3.51-1.24,6.03-4.59,6.03-8.52ZM240.78,95.37v6.03h-21.49v-6.03h21.49ZM219.29,222.7v-115.28h21.49v115.28h-21.49ZM243.79,89.35h-27.52c-1.66,0-3.01-1.35-3.01-3.01s1.35-3.01,3.01-3.01h27.52c1.66,0,3.01,1.35,3.01,3.01s-1.35,3.01-3.01,3.01Z"/>
  <path class="cls-1" d="M92.76,86.33c0-4.98-4.05-9.04-9.04-9.04h-27.52c-4.98,0-9.04,4.05-9.04,9.04,0,3.93,2.52,7.28,6.03,8.52v130.86c0,1.66,1.35,3.01,3.01,3.01h27.52c1.66,0,3.01-1.35,3.01-3.01V94.85c3.51-1.24,6.03-4.59,6.03-8.52ZM80.71,95.37v6.03h-21.49v-6.03h21.49ZM59.22,222.7v-115.28h21.49v115.28h-21.49ZM83.72,89.35h-27.52c-1.66,0-3.01-1.35-3.01-3.01s1.35-3.01,3.01-3.01h27.52c1.66,0,3.01,1.35,3.01,3.01s-1.35,3.01-3.01,3.01Z"/>
  <path class="cls-1" d="M204.23,101.4h-10.6l-15.67-19.59c-5.36-6.7-13.35-10.54-21.93-10.54-1.66,0-3.01,1.35-3.01,3.01v139.38c0,1.66,1.35,3.01,3.01,3.01h48.2c1.66,0,3.01-1.35,3.01-3.01v-109.26c0-1.66-1.35-3.01-3.01-3.01ZM201.21,131.52v6.03h-42.18v-6.03h42.18ZM189.16,125.5h-6.03v-27.56l6.03,7.53v20.03ZM159.04,143.57h6.03v42.98h-6.03v-42.98ZM171.09,143.57h6.03v42.98h-6.03v-42.98ZM177.11,192.58v18.08h-6.03v-18.08h6.03ZM183.14,192.58h6.03v18.08h-6.03v-18.08ZM183.14,186.55v-42.98h6.03v42.98h-6.03ZM195.19,143.57h6.03v42.98h-6.03v-42.98ZM201.21,125.5h-6.03v-18.08h6.03v18.08ZM173.25,85.57l3.86,4.83v35.09h-6.03v-42.26c.77.72,1.49,1.5,2.16,2.34ZM165.06,79.22v46.28h-6.03v-48c2.1.29,4.12.87,6.03,1.72ZM159.04,192.58h6.03v18.08h-6.03v-18.08ZM195.19,210.65v-18.08h6.03v18.08h-6.03Z"/>
  <path class="cls-1" d="M143.97,71.27c-8.58,0-16.57,3.84-21.93,10.54l-15.67,19.59h-10.6c-1.66,0-3.01,1.35-3.01,3.01v109.26c0,1.66,1.35,3.01,3.01,3.01h48.2c1.66,0,3.01-1.35,3.01-3.01V74.28c0-1.66-1.35-3.01-3.01-3.01ZM110.84,105.47l6.03-7.53v27.56h-6.03v-20.03ZM140.96,131.52v6.03h-42.18v-6.03h42.18ZM98.79,143.57h6.03v42.98h-6.03v-42.98ZM110.84,143.57h6.03v42.98h-6.03v-42.98ZM116.86,192.58v18.08h-6.03v-18.08h6.03ZM122.89,192.58h6.03v18.08h-6.03v-18.08ZM122.89,186.55v-42.98h6.03v42.98h-6.03ZM134.94,143.57h6.03v42.98h-6.03v-42.98ZM140.96,125.5h-6.03v-46.28c1.9-.85,3.93-1.44,6.03-1.72v48ZM126.75,85.57c.67-.84,1.39-1.62,2.16-2.34v42.26h-6.03v-35.1l3.86-4.83ZM104.81,107.42v18.08h-6.03v-18.08h6.03ZM98.79,192.58h6.03v18.08h-6.03v-18.08ZM134.94,210.65v-18.08h6.03v18.08h-6.03Z"/>
</svg>