<?xml version="1.0" encoding="UTF-8"?>
<svg id="Capa_1" data-name="Capa 1" xmlns="http://www.w3.org/2000/svg" viewBox="0 0 300 300">
  <defs>
    <style>
      .cls-1 {
        fill: #004f49;
      }
    </style>
  </defs>
  <path class="cls-1" d="M233.92,167.97h-8.99c-6.62,0-11.99,5.37-11.99,11.99v11.99h-25.33l-5.84-12.46c2.78-3.83,4.28-8.44,4.28-13.17,0-1.79-.23-3.57-.66-5.31l35.07-14.19c6.1-2.47,9.05-9.41,6.59-15.52l-2.43-5.99c2.85-2.49,3.8-6.51,2.36-10.01l-20.08-49.65c-1.89-4.55-7.07-6.73-11.64-4.9l-129.57,52.43c-4.58,1.84-6.8,7.05-4.96,11.63.96,2.4,2.92,4.26,5.36,5.11l22.35,7.83,2.76,6.82-5.99,2.42c-2.5-2.82-6.49-3.77-10-2.38l-5.52,2.24c-4.57,1.84-6.78,7.03-4.94,11.6,0,.01.01.03.02.04l11.15,27.55c1.88,4.55,7.05,6.76,11.64,4.98l5.55-2.24c3.47-1.45,5.68-4.91,5.52-8.66l5.99-2.42,1.11,2.73c2.46,6.1,9.4,9.06,15.51,6.6,0,0,.01,0,.02,0l22.9-9.27c3.31,5.66,8.92,9.58,15.37,10.73l7.19,15.38c3.47,7.35,10.86,12.06,18.99,12.08h27.24v11.99c0,6.62,5.37,11.99,11.99,11.99h8.99c3.31,0,5.99-2.68,5.99-5.99v-59.94c0-3.31-2.68-5.99-5.99-5.99ZM66.09,121.52c-.05-1.23.69-2.35,1.84-2.8l129.57-52.43c1.51-.59,3.22.12,3.85,1.62l20.08,49.65c.3.71.29,1.52-.01,2.23-.3.72-.88,1.3-1.61,1.59l-73.18,29.61c-.67.27-1.42.28-2.1.04l-76.46-26.79c-1.17-.39-1.97-1.49-1.98-2.72ZM90.81,183.2l-5.52,2.22c-1.51.6-3.23-.14-3.84-1.65l-11.17-27.58c-.59-1.5.13-3.19,1.62-3.81l5.53-2.23c1.51-.6,3.21.12,3.84,1.62l11.16,27.57c.61,1.51-.12,3.23-1.62,3.86h0ZM96.87,174.32l-8.9-22.01,5.47-2.21,8.92,22.01-5.48,2.21ZM118.98,181.42c-3.03,1.23-6.48-.22-7.72-3.25,0,0,0,0,0,0l-15.28-37.79,46.6,16.32c2.05.71,4.28.66,6.29-.14l70.41-28.49,2.22,5.49c1.22,3.03-.24,6.48-3.27,7.71l-99.25,40.14ZM149.77,175.43l30.02-12.15c.19,1,.28,2.02.28,3.04.01,9.12-7.38,16.53-16.5,16.54-5.56,0-10.75-2.78-13.81-7.43h0ZM185.7,209.93c-5.82,0-11.11-3.37-13.59-8.64l-5.89-12.61c4.05-.48,7.89-2.07,11.11-4.58l5.64,12.11c.49,1.06,1.56,1.73,2.73,1.73h27.24v11.99h-27.24ZM233.92,233.91h-8.99c-3.31,0-5.99-2.68-5.99-5.99v-47.95c0-3.31,2.68-5.99,5.99-5.99h8.99v59.94Z"/>
</svg>