<svg id="Capa_1" data-name="Capa 1" xmlns="http://www.w3.org/2000/svg" viewBox="0 0 56 56"><defs><style>.cls-1{fill:#00a8c0;}</style></defs><path class="cls-1" d="M46.05,39.73l-.54-24.31,1-4.18L45.41,11,45.2,1.14,9.77,2l.06,2.62-.36,0L10,11l.51,23-.62,2.54.68.17.22,10.19,23.81-.57,7.72,8.33,0-3.09.88.84-.43-6.28L46.19,46l0-1.9.24,0Zm-5.31,8.4-4.87-4.65L14,45.18l-.61-7.83,25.31,6.12L43.43,24l1.12,14.48.1,4.28-3.55.27.1,1.57h-.5ZM11.33,5.91l6-.47L12.51,25.55l-1-13.37ZM44,13.29l-.09-1.17H44Zm-.93,6L37.64,41.69,21.4,37.76a2.43,2.43,0,0,0,.7-.09,3.63,3.63,0,0,0,.78-.36.81.81,0,0,1,.27-.12.22.22,0,0,1,.12.06l.07,0-.51-.76-.07,0v.07a.2.2,0,0,1-.06.14,1.54,1.54,0,0,1-.24.17,2,2,0,0,1-1,.26,1.5,1.5,0,0,1-1-.31,1.18,1.18,0,0,1-.44-.95,1.2,1.2,0,0,1,.44-1,1.5,1.5,0,0,1,1-.31,2,2,0,0,1,1,.27,1.63,1.63,0,0,1,.24.16.22.22,0,0,1,.06.15v.07l.07,0,.51-.76-.07,0a.26.26,0,0,1-.12.07,1,1,0,0,1-.27-.13,3.63,3.63,0,0,0-.78-.36,2.68,2.68,0,0,0-.74-.09,2.11,2.11,0,0,0-1.76.74,1.76,1.76,0,0,0-.39,1.15,1.81,1.81,0,0,0,.22.89,1.69,1.69,0,0,0,.51.59l.13.08L13.3,35.8l-.43-5.52L18.74,6,33,9.47h-.19a2.12,2.12,0,0,0-2.11,2.11v6.18a2.12,2.12,0,0,0,2.11,2.11h.65a2.12,2.12,0,0,0,2.11-2.11V11.58a2.12,2.12,0,0,0-.86-1.7l7.81,1.89Zm-9.15-7.63v6a.78.78,0,0,1-.78.78h-.05a.79.79,0,0,1-.79-.78v-6a.79.79,0,0,1,.79-.78h.05A.78.78,0,0,1,33.91,11.68ZM21.29,5.13l20.54-1.6.52,6.7Zm22.65,5.48-.16,0-.61-7.91h.59ZM11.27,3.44,31.21,3,11.3,4.5Zm.75,34,.62,7.92H12.2ZM40.77,50.8l-5.44-5.87h0l5.4,5.16Zm3.92-6.25-2.09.05v-.24l2.09-.16Z"/><polygon class="cls-1" points="24.04 18.36 21.35 18.36 21.36 15.27 23.53 15.28 23.53 13.85 21.38 13.86 21.36 11.05 24.17 11.05 24.17 9.52 19.71 9.52 19.71 19.75 24.06 19.74 24.04 18.36"/><path class="cls-1" d="M27.55,19.87A2.05,2.05,0,0,0,29.79,18l0-2.07H28.22v2c0,.52-.67.51-.67.51a.78.78,0,0,1-.91-.65l0-6.23c.07-.62.77-.62.77-.62a.86.86,0,0,1,.89.67l0,1.42,1.47,0-.06-1.64a2.29,2.29,0,0,0-2.22-2,2.14,2.14,0,0,0-2.49,2l.06,6.76A2.4,2.4,0,0,0,27.55,19.87Z"/><path class="cls-1" d="M20.51,25.47h.55a1.28,1.28,0,0,0,1.3-1.26V22.83a1.27,1.27,0,0,0-1.3-1.25H19.52v6.18h1Zm0-2.95H21a.48.48,0,0,1,.48.46v1.14a.48.48,0,0,1-.48.46h-.56Z"/><polygon class="cls-1" points="25.42 27.88 25.42 26.93 23.83 26.93 23.83 21.56 22.78 21.56 22.78 27.84 22.82 27.84 22.82 27.88 25.42 27.88"/><path class="cls-1" d="M26.69,21.62l-1.05,6.2h.91l.19-1.24H27.9l.2,1.25H29L28,21.62H26.69Zm.18,4.15.39-2.53a.05.05,0,0,1,.1,0l.41,2.53Z"/><path class="cls-1" d="M34.42,21.64h-.9l-1.05,6.19h.91l.19-1.23h1.16l.2,1.25h.91l-1.06-6.21Zm-.72,4.14.39-2.52a.05.05,0,0,1,.1,0l.41,2.52Z"/><polygon class="cls-1" points="29.53 22.51 31.23 22.51 29.36 26.93 29.36 27.79 32.14 27.79 32.14 26.93 30.37 26.93 32.31 22.51 32.31 21.64 29.53 21.64 29.53 22.51"/><path class="cls-1" d="M21.6,31.8v.49h1.13V31.8Zm1.08.22h-.49v-.17h.49Zm-.54-.17V32h-.49v-.17Zm-.49.22h.49v.17h-.49Zm.54.17v-.17h.49v.17Z"/><path class="cls-1" d="M32.6,31.8v.49h1.12V31.8Zm1.07.22h-.49v-.17h.49Zm-.54-.17V32h-.48v-.17Zm-.48.22h.48v.17h-.48Zm.53.17v-.17h.49v.17Z"/><path class="cls-1" d="M28.86,31.31h-2.4v1h2.4Zm-.05.49H27.69v-.44h1.12Zm-1.17-.44v.44H26.51v-.44Zm-1.13.49h1.13v.44H26.51Zm1.18.44v-.44h1.12v.44Z"/><path class="cls-1" d="M35.67,29.59h.1l-.15-.25h.07l-.15-.2h.07l-.21-.24-.2.24h.07l-.15.2h.07l-.15.25h.1l-.17.29h.11l-.22.36H35l-.26.45h.16l-.27.45h.17l-.27.45-1.26-1.25.11-.1h-.21l0,0,0,0H29.46l-1.8-1.8-1.8,1.8H22l0,0,0,0h0L20.7,31.48l-.2-.34h.16l-.26-.45h.16l-.27-.45h.15l-.22-.36h.12l-.17-.29h.1l-.15-.25h.07l-.16-.2h.08l-.21-.24-.21.24h.08l-.16.2h.07l-.14.25h.1l-.18.29h.12l-.22.36h.15l-.27.45h.17l-.27.45h.17l-.3.49h.82v.73l-.29.29.34.35L22,30.91l1.61,1.61-.1.09.35.34,3.82-3.82L31.48,33l.35-.34-.19-.19,1.52-1.51L35.25,33l.1-.11h.12v-.12l.12-.12-.12-.12v-.9h.82L36,31.14h.17l-.27-.45h.16l-.27-.45h.15l-.21-.36h.11Zm-15.7,2h.59l-.59.59Zm15.36.76-.76-.76h.76Z"/><path class="cls-1" d="M27.22,37.06a.17.17,0,0,1-.13,0H24.85V34.34a.17.17,0,0,1,0-.13.26.26,0,0,1,.13-.07v-.08H23.88v.08a.3.3,0,0,1,.14.07.22.22,0,0,1,0,.13v3.08a.19.19,0,0,1,0,.12.23.23,0,0,1-.14.07v.09h3.21a.17.17,0,0,1,.13,0,.37.37,0,0,1,.07.13h.08v-.94h-.08A.37.37,0,0,1,27.22,37.06Z"/><path class="cls-1" d="M30.53,34.14a.26.26,0,0,1,.13.07.22.22,0,0,1,0,.13v1.81a1.84,1.84,0,0,1,0,.47.47.47,0,0,1-.13.25,1.55,1.55,0,0,1-1.75,0,.55.55,0,0,1-.13-.25,2.47,2.47,0,0,1,0-.47V34.34a.22.22,0,0,1,0-.13.3.3,0,0,1,.14-.07v-.08H27.65v.08a.26.26,0,0,1,.13.07.17.17,0,0,1,0,.13v2a1.91,1.91,0,0,0,.1.66.84.84,0,0,0,.37.44,2.6,2.6,0,0,0,1.34.28,1.93,1.93,0,0,0,1.59-.51,1.51,1.51,0,0,0,.21-.87v-2a.17.17,0,0,1,0-.13.26.26,0,0,1,.13-.07v-.08H30.53Z"/><path class="cls-1" d="M35.43,35.79a.79.79,0,0,0,.49-.77.88.88,0,0,0-.7-.91,2.27,2.27,0,0,0-.57,0H32.18v.08a.3.3,0,0,1,.14.07.23.23,0,0,1,0,.13v3.08a.19.19,0,0,1,0,.12.23.23,0,0,1-.14.07v.09h2.49a2.43,2.43,0,0,0,.59-.06,1.19,1.19,0,0,0,.42-.21.94.94,0,0,0,.36-.78A.86.86,0,0,0,35.43,35.79Zm-2.28-1.13h1.39a.86.86,0,0,1,.46.09.42.42,0,0,1,.13.33.39.39,0,0,1-.14.33.81.81,0,0,1-.45.1H33.15ZM35,37a1,1,0,0,1-.54.11H33.15v-1H34.5a1.05,1.05,0,0,1,.54.1A.5.5,0,0,1,35,37Z"/><path class="cls-1" d="M19.71,33.77H35.6A32.68,32.68,0,0,0,19.71,33.77Z"/></svg>