<svg id="Capa_1" data-name="Capa 1" xmlns="http://www.w3.org/2000/svg" viewBox="0 0 56 56"><defs><style>.cls-1{fill:#00a8c0;}</style></defs><path class="cls-1" d="M42.18,52.1H38.75c0,.27,0,.5-.06.73a1.8,1.8,0,0,1-2,1.91c-1.6,0-3.21,0-4.81,0a1.82,1.82,0,0,1-2.09-1.93c0-.2,0-.41-.06-.68H26.38s-.09.07-.1.13c-.32,2.24-.6,2.48-2.85,2.48H19.67c-1.71,0-2.25-.51-2.36-2.18,0-.14,0-.27-.07-.45H13.83c0,.33-.05.67-.1,1A1.73,1.73,0,0,1,12,54.72c-1.78.05-3.55.05-5.33,0A1.76,1.76,0,0,1,4.82,53c0-.27,0-.54-.07-.91-.59,0-1.14,0-1.69,0a1.73,1.73,0,0,1-1.8-1.77c0-1.78,0-3.56,0-5.33A1.71,1.71,0,0,1,3,43.16c.58,0,1.17,0,1.81,0V20.86c-.45,0-.89,0-1.33,0-1.52,0-2.17-.66-2.18-2.17s0-3,0-4.49c0-1.66.62-2.28,2.26-2.29h1.3c0-1.32,0-2.6,0-3.87a3.09,3.09,0,0,1,.42-1.46c1-1.53,2-3,3-4.53C9,1,9.57,1,10.3,2c1,1.5,2,3,3,4.53A3.19,3.19,0,0,1,13.74,8c.06,1.25,0,2.5,0,3.82h3.56c0-1.26-.07-2.48,0-3.68a4.17,4.17,0,0,1,.56-1.82c.9-1.49,1.9-2.92,2.88-4.36.66-1,1.29-1,1.94,0,1.06,1.55,2.11,3.11,3.11,4.71A2.78,2.78,0,0,1,26.2,8c.05,1.24,0,2.49,0,3.81h3.57c0-1.17-.07-2.38,0-3.57a4.47,4.47,0,0,1,.58-1.93c.88-1.46,1.86-2.86,2.82-4.27C34,1,34.53,1,35.27,2l.12.18c1,1.48,2.27,2.84,2.86,4.46s.44,3.38.62,5.16h3.38a31.27,31.27,0,0,1,0-3.35A5.82,5.82,0,0,1,43,6.17c.82-1.41,1.78-2.75,2.7-4.1C46.43,1,47,1,47.74,2c1,1.52,2.08,3.05,3.06,4.61A2.92,2.92,0,0,1,51.18,8c0,1.25,0,2.5,0,3.91h1.36c1.53,0,2.18.65,2.2,2.15s0,3.06,0,4.6-.65,2.17-2.15,2.2c-.42,0-.84,0-1.33,0V43.13c.48,0,.95,0,1.43,0a1.82,1.82,0,0,1,2,2.08c0,1.56,0,3.13,0,4.7s-.65,2.1-2.09,2.13c-.45,0-.9,0-1.41,0,0,.34,0,.61-.07.87a1.77,1.77,0,0,1-1.79,1.81c-1.77,0-3.55,0-5.33,0C42.82,54.69,42.37,54,42.18,52.1Zm-17.8.78c0-.32.06-.59.06-.86V8.45a1.79,1.79,0,0,0-.15-.9c-.79-1.25-1.63-2.47-2.53-3.81C21,4.9,20.24,5.91,19.62,7a3.57,3.57,0,0,0-.53,1.72q0,21.53,0,43.05c0,.36,0,.73.05,1.12Zm12.49,0c0-.36.06-.66.06-1q0-21.67,0-43.35a1.85,1.85,0,0,0-.12-.92C36,6.36,35.15,5.1,34.25,3.73c-.67,1-1.21,1.89-1.84,2.71a4.28,4.28,0,0,0-.86,2.8q0,21.2,0,42.41v1.23Zm-25,0c0-.25,0-.45,0-.65q0-21.94,0-43.88a1.79,1.79,0,0,0-.19-.89C11,6.23,10.14,5,9.28,3.74c-.66,1-1.21,1.91-1.87,2.75A4.1,4.1,0,0,0,6.6,9.2q0,21.17,0,42.31v1.36ZM46.74,3.73c-.76,1.13-1.5,2.13-2.13,3.2a3.83,3.83,0,0,0-.52,1.73q0,21.57,0,43.14c0,.34,0,.68,0,1h5.22c0-.26,0-.43,0-.6q0-21.93,0-43.88a1.76,1.76,0,0,0-.18-.89C48.42,6.24,47.6,5,46.74,3.73ZM26.28,20.91V43h3.45V20.91Zm15.9,22.16V20.91H38.77V43.07ZM13.82,20.91V43h3.43V20.91ZM29.73,50.24V45H26.31v5.24Zm0-31.26V13.81H26.3V19ZM13.84,45v5.25h3.41V45Zm28.35,0H38.77v5.24h3.42ZM13.81,19h3.45V13.79H13.81Zm24.94-5.21V19h3.41V13.76ZM3.11,45V50.2H4.76V45Zm48.13,5.24h1.64V45H51.24ZM3.11,19H4.76V13.8H3.11Zm49.8-5.16H51.28V19h1.63Z"/><path class="cls-1" d="M23,49.39c-.56.4-.9.83-1.19.8s-.6-.49-.89-.76c.29-.31.55-.79.9-.87S22.42,49,23,49.39Z"/><path class="cls-1" d="M21.83,13.35c.37.6.77,1,.73,1.26s-.51.57-.79.85c-.29-.31-.75-.59-.82-.94S21.39,13.91,21.83,13.35Z"/><path class="cls-1" d="M21.82,19.41c-.44-.56-.91-.92-.87-1.17s.53-.63.82-.94c.28.28.75.54.79.85S22.2,18.81,21.82,19.41Z"/><path class="cls-1" d="M23,45.81c-.56.4-.9.83-1.19.8s-.6-.48-.9-.75c.3-.31.55-.78.9-.87S22.42,45.4,23,45.81Z"/><path class="cls-1" d="M35.49,49.37c-.57.41-.9.84-1.2.82s-.6-.48-.89-.74c.28-.32.53-.81.88-.89S34.91,49,35.49,49.37Z"/><path class="cls-1" d="M35.49,18.1c-.55.43-.87.87-1.17.86s-.61-.45-.92-.7c.28-.32.51-.81.84-.9S34.9,17.73,35.49,18.1Z"/><path class="cls-1" d="M35.51,45.81c-.6.41-.95.83-1.25.8s-.81-.51-.8-.79a1.18,1.18,0,0,1,.79-.82C34.55,45,34.91,45.4,35.51,45.81Z"/><path class="cls-1" d="M34.24,15.84c-.4-.58-.81-.92-.79-1.22s.49-.59.76-.88c.3.3.77.56.85.91S34.65,15.27,34.24,15.84Z"/><path class="cls-1" d="M9.26,13.36c.42.57.86.9.84,1.2s-.49.6-.76.9c-.31-.3-.8-.54-.88-.89S8.86,13.93,9.26,13.36Z"/><path class="cls-1" d="M9.32,19.41c-.43-.57-.92-.93-.86-1.19s.54-.61.85-.92c.28.29.75.56.79.88S9.71,18.82,9.32,19.41Z"/><path class="cls-1" d="M9.21,44.58c.44.54.89.85.88,1.16s-.46.62-.71.92c-.33-.27-.83-.5-.93-.84S8.83,45.16,9.21,44.58Z"/><path class="cls-1" d="M9.25,50.59c-.39-.55-.86-.94-.8-1.19s.58-.6.9-.89c.26.3.72.6.74.92S9.66,50.06,9.25,50.59Z"/><path class="cls-1" d="M48,14.64c-.57.38-.93.8-1.23.76s-.58-.51-.87-.79c.31-.29.6-.76.94-.81S47.42,14.23,48,14.64Z"/><path class="cls-1" d="M46.72,19.41c-.41-.58-.87-1-.81-1.22s.57-.59.88-.88c.28.29.74.58.77.89S47.14,18.84,46.72,19.41Z"/><path class="cls-1" d="M46.65,47c-.36-.57-.78-.93-.73-1.23s.52-.57.82-.85c.29.31.75.6.81,1S47.09,46.5,46.65,47Z"/><path class="cls-1" d="M46.76,48.15c.39.56.85.94.79,1.21s-.57.59-.89.88c-.26-.3-.73-.59-.74-.9S46.35,48.7,46.76,48.15Z"/></svg>