<?xml version="1.0" encoding="utf-8"?>
<!-- Generator: Adobe Illustrator 25.4.1, SVG Export Plug-In . SVG Version: 6.00 Build 0)  -->
<svg version="1.1" id="Capa_1" xmlns="http://www.w3.org/2000/svg" xmlns:xlink="http://www.w3.org/1999/xlink" x="0px" y="0px"
	 viewBox="0 0 56 56" style="enable-background:new 0 0 56 56;" xml:space="preserve">
<style type="text/css">
	.st0{fill:none;stroke:#2E9372;stroke-width:2.3486;stroke-linecap:round;stroke-miterlimit:10;}
	.st1{fill:#2E9372;}
	.st2{fill:#FFFFFF;}
	.st3{clip-path:url(#SVGID_00000084489472186964053100000017560367346148301697_);fill:#FFFFFF;}
	.st4{fill:none;stroke:#2E9372;stroke-width:2.2965;stroke-miterlimit:10;}
	.st5{fill:none;stroke:#2E9372;stroke-width:2.3486;stroke-miterlimit:10;}
</style>
<g>
	<g id="_x3C_Repetición_radial_x3E__00000089548545141744468880000003520769162301265825_">
		<line class="st0" x1="27.82" y1="47.82" x2="27.69" y2="54.24"/>
	</g>
	<g id="_x3C_Repetición_radial_x3E__00000165209149501623141820000016486335695013267371_">
		<line class="st0" x1="14.57" y1="42.18" x2="9.94" y2="46.63"/>
	</g>
	<g id="_x3C_Repetición_radial_x3E__00000060000646990392140820000013944211740819251072_">
		<line class="st0" x1="9.18" y1="28.82" x2="2.76" y2="28.69"/>
	</g>
	<g id="_x3C_Repetición_radial_x3E__00000062871022887082983960000014775590059609118592_">
		<line class="st0" x1="14.82" y1="15.57" x2="10.37" y2="10.94"/>
	</g>
	<g id="_x3C_Repetición_radial_x3E__00000156562605933357654530000003598437602971274666_">
		<line class="st0" x1="28.18" y1="10.18" x2="28.31" y2="3.76"/>
	</g>
	<g id="_x3C_Repetición_radial_x3E__00000077284390294763029760000008909761771151259521_">
		<line class="st0" x1="41.43" y1="15.82" x2="46.06" y2="11.37"/>
	</g>
	<g id="_x3C_Repetición_radial_x3E__00000067232783502286134920000017635653972129994145_">
		<line class="st0" x1="46.82" y1="29.18" x2="53.24" y2="29.31"/>
	</g>
	<g id="_x3C_Repetición_radial_x3E__00000110452036180928780260000012720124748777015985_">
		<line class="st0" x1="41.18" y1="42.43" x2="45.63" y2="47.06"/>
	</g>
</g>
<g>
	<g id="_x3C_Repetición_radial_x3E__00000179607153417226407380000001129133366449999030_">
		<line class="st0" x1="20.91" y1="45.86" x2="19.24" y2="49.71"/>
	</g>
	<g id="_x3C_Repetición_radial_x3E__00000056428188654078035840000004194584564341593245_">
		<line class="st0" x1="11.06" y1="35.91" x2="7.16" y2="37.45"/>
	</g>
	<g id="_x3C_Repetición_radial_x3E__00000116196883285131210650000005604416409975548820_">
		<line class="st0" x1="11.14" y1="21.91" x2="7.29" y2="20.24"/>
	</g>
	<g id="_x3C_Repetición_radial_x3E__00000177455304591682249260000003048463234477371043_">
		<line class="st0" x1="21.09" y1="12.06" x2="19.55" y2="8.16"/>
	</g>
	<g id="_x3C_Repetición_radial_x3E__00000130640061182964478540000015890100008572933016_">
		<line class="st0" x1="35.09" y1="12.14" x2="36.76" y2="8.29"/>
	</g>
	<g id="_x3C_Repetición_radial_x3E__00000052095390635541182100000017518897720624277389_">
		<line class="st0" x1="44.94" y1="22.09" x2="48.84" y2="20.55"/>
	</g>
	<g id="_x3C_Repetición_radial_x3E__00000089549815557800215530000017224397778579103933_">
		<line class="st0" x1="44.86" y1="36.09" x2="48.71" y2="37.76"/>
	</g>
	<g id="_x3C_Repetición_radial_x3E__00000163769576431398737800000002608216703185904797_">
		<line class="st0" x1="34.91" y1="45.94" x2="36.45" y2="49.84"/>
	</g>
</g>
<g>
	<path class="st1" d="M-76.86,169.74c-0.37-0.28-0.49-0.65-0.49-1.12c0.01-16.9,0.01-33.8,0.01-50.7c0-0.88,0.24-1.12,1.09-1.12
		c4.69,0,9.37,0,14.06,0c0.58,0,0.89,0.22,0.95,0.65c0.07,0.51-0.26,0.88-0.82,0.89c-1.12,0.01-2.24,0-3.39,0
		c0,16.61,0,33.19,0,49.8c3.52,0,7.04,0,10.63,0c0-0.18,0-0.36,0-0.55c0-2.91,0-5.82,0-8.73c0-0.88,0.24-1.12,1.14-1.12
		c0.9,0,1.79,0,2.69,0c0.88,0,1.12,0.24,1.12,1.14c0,2.89,0,5.79,0,8.68c0,0.19,0,0.37,0,0.61c1.39,0,2.72,0,4.06,0
		c0.52,0,0.93,0.32,0.86,0.74c-0.05,0.29-0.3,0.54-0.46,0.8C-55.9,169.74-66.38,169.74-76.86,169.74z M-67.08,127.03
		c0-2.9,0-5.78,0-8.65c-2.9,0-5.75,0-8.62,0c0,2.9,0,5.78,0,8.65C-72.8,127.03-69.95,127.03-67.08,127.03z M-67.07,137.33
		c0-2.92,0-5.77,0-8.65c-2.9,0-5.76,0-8.64,0c0,2.9,0,5.76,0,8.65C-72.81,137.33-69.96,137.33-67.07,137.33z M-67.08,147.6
		c0-2.92,0-5.78,0-8.65c-2.9,0-5.77,0-8.63,0c0,2.9,0,5.76,0,8.65C-72.82,147.6-69.97,147.6-67.08,147.6z M-67.07,157.86
		c0-2.9,0-5.76,0-8.64c-2.9,0-5.77,0-8.63,0c0,2.91,0,5.77,0,8.64C-72.81,157.86-69.95,157.86-67.07,157.86z M-67.07,168.17
		c0-2.91,0-5.78,0-8.65c-2.9,0-5.77,0-8.64,0c0,2.9,0,5.77,0,8.65C-72.82,168.17-69.97,168.17-67.07,168.17z M-53.22,159.34
		c0,2.98,0,5.9,0,8.81c0.6,0,1.16,0,1.74,0c0-2.95,0-5.87,0-8.81C-52.07,159.34-52.63,159.34-53.22,159.34z"/>
	<path class="st1" d="M-42.94,169.74c-0.15-0.27-0.4-0.53-0.44-0.82c-0.06-0.44,0.33-0.73,0.86-0.73c1.08-0.01,2.16,0,3.27,0
		c0-16.63,0-33.21,0-49.81c-3.53,0-7.04,0-10.64,0c0,0.17,0,0.35,0,0.53c0,2.93,0,5.86,0,8.79c0,0.83-0.25,1.09-1.07,1.09
		c-0.93,0-1.86,0-2.79,0c-0.83,0-1.09-0.25-1.09-1.07c0-2.91,0-5.82,0-8.74c0-0.19,0-0.37,0-0.63c-0.63,0-1.22,0-1.82,0
		c-0.72,0-1.45,0.01-2.17,0c-0.52-0.01-0.86-0.31-0.87-0.75c-0.01-0.46,0.34-0.78,0.88-0.79c0.09,0,0.17,0,0.26,0
		c10.01,0,20.02,0,30.04,0c0.92,0,1.15,0.23,1.15,1.16c0,16.87,0,33.73,0.01,50.6c0,0.48-0.1,0.87-0.49,1.17
		C-32.88,169.74-37.91,169.74-42.94,169.74z M-28.98,118.38c-2.91,0-5.77,0-8.65,0c0,2.9,0,5.76,0,8.64c2.9,0,5.76,0,8.65,0
		C-28.98,124.14-28.98,121.28-28.98,118.38z M-37.63,128.67c0,2.92,0,5.77,0,8.65c2.9,0,5.76,0,8.64,0c0-2.9,0-5.77,0-8.65
		C-31.89,128.67-34.74,128.67-37.63,128.67z M-37.64,147.59c2.9,0,5.77,0,8.65,0c0-2.89,0-5.76,0-8.64c-2.9,0-5.76,0-8.65,0
		C-37.64,141.83-37.64,144.68-37.64,147.59z M-28.98,149.21c-2.92,0-5.77,0-8.65,0c0,2.9,0,5.76,0,8.64c2.9,0,5.76,0,8.65,0
		C-28.98,154.96-28.98,152.11-28.98,149.21z M-28.99,168.17c0-2.91,0-5.78,0-8.65c-2.9,0-5.77,0-8.64,0c0,2.9,0,5.77,0,8.65
		C-34.74,168.17-31.89,168.17-28.99,168.17z M-51.47,118.39c-0.6,0-1.18,0-1.75,0c0,2.96,0,5.87,0,8.8c0.6,0,1.16,0,1.75,0
		C-51.47,124.24-51.47,121.32-51.47,118.39z"/>
	<path class="st1" d="M-49.88,143.27c0,2.34,0,4.68,0,7.02c0,0.82-0.25,1.08-1.08,1.08c-0.95,0.01-1.89,0.01-2.84,0
		c-0.76-0.01-1.03-0.28-1.03-1.03c0-4.72,0-9.44,0-14.15c0-0.74,0.26-1.02,0.97-1.03c1-0.01,2-0.01,3,0
		c0.72,0.01,0.97,0.29,0.97,1.03C-49.88,138.55-49.88,140.91-49.88,143.27z M-53.22,136.77c0,4.36,0,8.68,0,13c0.6,0,1.16,0,1.75,0
		c0-4.34,0-8.66,0-13C-52.06,136.77-52.62,136.77-53.22,136.77z"/>
</g>
<path class="st1" d="M-88.19,70.75c0.3-0.21,0.57-0.51,0.91-0.61c0.35-0.11,0.76-0.02,1.19-0.02c-0.55-1.49-0.31-2.76,0.97-3.68
	c1-0.72,2.12-0.75,3.15-0.07c1.36,0.89,1.62,2.19,1.1,3.74c0.51,0,0.96-0.01,1.4,0c0.87,0.03,1.31,0.76,0.9,1.54
	c-0.38,0.73-0.8,1.44-1.21,2.15c-0.08,0.13-0.17,0.31-0.3,0.35c-0.53,0.17-0.45,0.59-0.45,0.98c0,0.56,0,1.11,0,1.73
	c2.29-0.09,4.47-0.41,6.3-1.84c0.95-0.74,1.83-1.58,2.7-2.41c1.79-1.72,3.94-2.53,6.38-2.69c0.43-0.03,0.73-0.08,0.91-0.57
	c0.24-0.65,0.8-1.01,1.51-1.02c0.94-0.02,1.89-0.02,2.84,0c0.78,0.02,1.33,0.44,1.6,1.15c0.13,0.33,0.31,0.42,0.61,0.43
	c2.7,0.11,5.02,1.08,6.94,3.01c1.07,1.07,2.15,2.16,3.54,2.85c1.6,0.8,3.31,1.02,5.12,1.1c0-0.79,0-1.52-0.01-2.25
	c0-0.09-0.05-0.22-0.12-0.27c-1.03-0.73-1.35-1.92-1.92-2.94c-0.32-0.58,0.18-1.24,0.86-1.3c0.24-0.02,0.49-0.01,0.73-0.01
	c0.24,0,0.48,0,0.78,0c-0.52-1.6-0.25-2.94,1.23-3.81c1.03-0.61,2.09-0.52,3.07,0.16c1.11,0.76,1.37,1.78,0.97,3.66
	c0.37,0,0.74-0.02,1.1,0c0.71,0.04,1.15,0.66,0.9,1.33c-0.29,0.8-0.64,1.59-0.97,2.38c-0.05,0.12-0.14,0.29-0.24,0.33
	c-0.5,0.18-0.46,0.58-0.45,0.99c0.01,0.33,0.02,0.67-0.02,1c-0.05,0.51-0.37,0.81-0.8,0.8c-0.43-0.01-0.76-0.32-0.78-0.83
	c-0.03-0.54-0.01-1.08-0.01-1.66c-0.92,0-1.8,0-2.72,0c0,7.22,0,14.42,0,21.67c0.87,0,1.75,0,2.71,0c0-0.19,0-0.39,0-0.59
	c0-5.27,0-10.54,0-15.81c0-0.22,0.02-0.46,0.07-0.67c0.1-0.39,0.39-0.57,0.79-0.55c0.37,0.02,0.62,0.22,0.7,0.59
	c0.04,0.2,0.06,0.42,0.06,0.62c0,5.53,0,11.06,0,16.59c0,1.12-0.32,1.44-1.43,1.44c-15.82,0-31.65,0-47.47,0
	c-1.12,0-1.43-0.31-1.43-1.44c0-4.62,0-9.24,0-13.86c0-0.05,0-0.11,0-0.16c0.02-0.67,0.29-1.03,0.78-1.04
	c0.52-0.01,0.83,0.37,0.83,1.05c0,3.48,0,6.97,0,10.45c0,1.12,0,2.23,0,3.38c0.93,0,1.81,0,2.71,0c0-7.23,0-14.44,0-21.69
	c-0.89,0-1.77,0-2.71,0c0,0.92,0,1.85,0,2.77c0,0.49,0.01,0.98,0,1.47c-0.02,0.61-0.32,0.97-0.81,0.97c-0.48,0-0.79-0.35-0.8-0.97
	c-0.02-1.28-0.01-2.56,0-3.83c0-0.28-0.06-0.47-0.33-0.64c-0.21-0.14-0.36-0.42-0.48-0.66c-0.33-0.69-0.62-1.39-0.93-2.08
	C-88.19,71.24-88.19,71-88.19,70.75z M-64.46,92.73c-5.38,0-10.71,0-16.02,0c0,1.17,0,2.3,0,3.41c5.36,0,10.69,0,16.02,0
	C-64.46,94.99-64.46,93.87-64.46,92.73z M-58.13,96.15c5.38,0,10.7,0,16.03,0c0-1.16,0-2.29,0-3.42c-5.36,0-10.69,0-16.03,0
	C-58.13,93.88-58.13,94.99-58.13,96.15z M-64.47,71.42c-0.75,0.11-1.46,0.25-2.18,0.32c-0.43,0.05-0.52,0.25-0.52,0.65
	c0.01,6.03,0.01,12.07,0.01,18.1c0,0.17,0.01,0.34,0.02,0.54c0.91,0,1.77,0,2.67,0C-64.47,84.52-64.47,78.02-64.47,71.42z
	 M-58.11,71.41c0,6.63,0,13.13,0,19.61c0.91,0,1.77,0,2.68,0c0-0.2,0-0.35,0-0.51c0-6.05,0-12.1,0-18.15c0-0.09,0.03-0.19-0.01-0.26
	c-0.05-0.11-0.13-0.27-0.23-0.29C-56.46,71.67-57.27,71.55-58.11,71.41z M-68.78,91.04c0-6.16,0-12.29,0-18.5
	c-0.29,0.19-0.55,0.32-0.77,0.51c-0.61,0.52-1.2,1.07-1.81,1.6c-0.26,0.22-0.35,0.48-0.35,0.82c0.01,5.01,0.01,10.01,0.01,15.02
	c0,0.19,0,0.37,0,0.56C-70.68,91.04-69.74,91.04-68.78,91.04z M-50.93,91.04c0.02-0.09,0.04-0.16,0.04-0.22c0-5.18,0-10.36,0-15.54
	c0-0.15-0.07-0.35-0.18-0.45c-0.66-0.62-1.34-1.23-2.03-1.82c-0.2-0.17-0.45-0.29-0.7-0.45c0,6.22,0,12.35,0,18.49
	C-52.83,91.04-51.89,91.04-50.93,91.04z M-62.1,69.96c-0.72-0.09-0.77-0.05-0.77,0.58c0,8.38,0,16.77,0,25.15
	c0,0.15,0.02,0.3,0.03,0.45c0.26,0,0.48,0,0.74,0c0-0.26,0-0.49,0-0.71c0-5.22,0-10.43,0-15.65c0-0.24-0.03-0.54,0.08-0.72
	c0.15-0.23,0.42-0.46,0.68-0.54c0.35-0.1,0.65,0.12,0.76,0.48c0.07,0.23,0.09,0.48,0.09,0.72c0,5.27,0,10.54,0,15.81
	c0,0.2,0,0.41,0,0.6c0.29,0,0.51,0,0.73,0c0.01-0.13,0.02-0.21,0.02-0.3c0-8.45,0-16.91,0-25.36c0-0.57-0.08-0.62-0.75-0.5
	c0,0.18,0,0.37,0,0.56c0,1.73,0,3.47,0,5.2c0,0.21,0.02,0.47-0.09,0.61c-0.19,0.23-0.49,0.53-0.73,0.53c-0.25,0-0.54-0.31-0.71-0.55
	c-0.11-0.16-0.08-0.44-0.08-0.66C-62.1,73.77-62.1,71.88-62.1,69.96z M-73.3,91.04c0-4.88,0-9.73,0-14.58
	c-0.98,0.49-1.93,0.96-2.88,1.43c0,4.37,0,8.76,0,13.15C-75.2,91.04-74.26,91.04-73.3,91.04z M-49.29,76.46c0,4.85,0,9.7,0,14.57
	c0.98,0,1.93,0,2.9,0c0-4.42,0-8.81,0-13.13C-47.38,77.41-48.33,76.94-49.29,76.46z M-77.84,91.04c0-4.31,0-8.55,0-12.79
	c-0.91,0.09-1.77,0.18-2.65,0.26c0,4.19,0,8.34,0,12.53C-79.6,91.04-78.73,91.04-77.84,91.04z M-42.09,78.51
	c-0.91-0.09-1.77-0.18-2.66-0.27c0,4.26,0,8.52,0,12.79c0.91,0,1.77,0,2.66,0C-42.09,86.85-42.09,82.71-42.09,78.51z M-86.29,71.72
	c0.11,0.27,0.17,0.55,0.32,0.77c0.1,0.15,0.31,0.33,0.48,0.33c1.38,0.03,2.76,0.02,4.13,0.01c0.13,0,0.32-0.07,0.39-0.17
	c0.2-0.28,0.34-0.59,0.54-0.94C-82.42,71.72-84.33,71.72-86.29,71.72z M-36.35,71.73c-1.92,0-3.83,0-5.79,0
	c0.1,0.2,0.2,0.34,0.26,0.5c0.18,0.49,0.5,0.65,1.03,0.63c1.03-0.05,2.06-0.01,3.09-0.01c1.08,0,1.08,0,1.43-1.03
	C-36.33,71.79-36.34,71.77-36.35,71.73z M-84.77,68.73c-0.04,0.7,0.53,1.34,1.24,1.37c0.65,0.03,1.3-0.56,1.33-1.22
	c0.04-0.68-0.56-1.34-1.24-1.37C-84.09,67.47-84.73,68.06-84.77,68.73z M-37.82,68.81c0-0.67-0.59-1.29-1.26-1.31
	c-0.67-0.02-1.32,0.61-1.32,1.3c0,0.68,0.63,1.32,1.31,1.3C-38.41,70.09-37.82,69.48-37.82,68.81z"/>
<g>
	<path class="st2" d="M202.72,13.57c0.01,0.11,0.01,0.22,0,0.33c-0.02,0.23-0.2,0.39-0.43,0.39c-0.23,0-0.41-0.17-0.43-0.41v-0.14
		c0-0.3,0.09-0.46,0.29-0.53C202.42,13.12,202.7,13.29,202.72,13.57z"/>
	<path class="st2" d="M205.76,16.27c-0.01,0.09-0.01,0.18-0.04,0.27c-0.06,0.19-0.25,0.31-0.44,0.29c-0.2-0.02-0.36-0.17-0.38-0.36
		c-0.01-0.12-0.01-0.24,0-0.35c0.02-0.23,0.2-0.38,0.44-0.38c0.22,0.01,0.39,0.17,0.41,0.39c0,0.05,0,0.1,0,0.15H205.76z"/>
	<g>
		<g>
			<path class="st2" d="M209.84,16.14c-0.19-0.34-0.38-0.68-0.57-1.02c-0.04-0.07-0.05-0.13,0-0.21c0.2-0.35,0.39-0.69,0.58-1.05
				c0.22-0.4,0.22-0.8-0.07-1.16c-0.1-0.13-0.25-0.23-0.41-0.31c-0.36-0.19-0.73-0.35-1.1-0.52c-0.07-0.03-0.1-0.07-0.11-0.15
				c-0.04-0.38-0.09-0.76-0.13-1.14c-0.05-0.45-0.25-0.78-0.69-0.95c-0.19-0.07-0.38-0.07-0.58-0.03c-0.4,0.08-0.79,0.16-1.19,0.23
				c-0.05,0.01-0.13-0.02-0.17-0.06c-0.26-0.27-0.51-0.57-0.78-0.83c-0.14-0.14-0.32-0.23-0.48-0.35c-0.02-0.02-0.04-0.04-0.06-0.06
				h-0.55c-0.02,0.02-0.04,0.04-0.06,0.06c-0.15,0.11-0.32,0.19-0.45,0.32c-0.28,0.27-0.54,0.56-0.79,0.85
				c-0.07,0.08-0.14,0.09-0.24,0.08c-0.43-0.09-0.85-0.17-1.29-0.24c-0.52-0.08-1.03,0.29-1.11,0.85c-0.06,0.42-0.11,0.85-0.16,1.27
				c-0.01,0.09-0.05,0.12-0.12,0.16c-0.36,0.16-0.72,0.33-1.09,0.5c-0.48,0.23-0.72,0.68-0.6,1.15c0.03,0.11,0.08,0.22,0.13,0.33
				c0.19,0.35,0.38,0.7,0.58,1.05c0.04,0.07,0.04,0.12,0,0.19c-0.2,0.35-0.39,0.69-0.58,1.05c-0.33,0.6-0.13,1.21,0.49,1.49
				c0.36,0.17,0.72,0.33,1.07,0.5c0.07,0.03,0.1,0.07,0.11,0.15c0.05,0.42,0.09,0.84,0.16,1.26c0.09,0.62,0.61,0.97,1.23,0.85
				c0.4-0.08,0.8-0.16,1.19-0.24c0.08-0.02,0.13,0,0.19,0.06c0.26,0.28,0.52,0.56,0.78,0.84c0.14,0.15,0.29,0.28,0.49,0.35
				c0.02,0,0.03,0.03,0.05,0.05h0.55c0.02-0.02,0.03-0.04,0.05-0.06c0.15-0.11,0.32-0.19,0.45-0.32c0.27-0.27,0.53-0.55,0.78-0.84
				c0.08-0.08,0.15-0.11,0.26-0.08c0.42,0.09,0.84,0.18,1.26,0.24c0.57,0.08,1.03-0.28,1.12-0.85c0.07-0.42,0.11-0.85,0.16-1.27
				c0.01-0.08,0.05-0.13,0.12-0.16c0.36-0.16,0.72-0.34,1.09-0.5c0.52-0.23,0.71-0.73,0.6-1.15
				C209.95,16.36,209.9,16.24,209.84,16.14z M201.22,13.95c-0.01-0.08-0.01-0.15-0.01-0.23c-0.01-0.49,0.18-0.86,0.63-1.09
				c0.65-0.33,1.48,0.13,1.54,0.85c0.03,0.31,0.03,0.61-0.13,0.89c-0.22,0.41-0.71,0.64-1.17,0.54
				C201.61,14.82,201.26,14.42,201.22,13.95z M202.69,17.02c-0.09,0.12-0.17,0.24-0.34,0.23c-0.13,0-0.22-0.05-0.28-0.16
				c-0.07-0.13-0.06-0.25,0.02-0.37c0.19-0.25,0.38-0.49,0.56-0.74c0.77-1.01,1.54-2.02,2.31-3.02c0.04-0.05,0.09-0.11,0.14-0.15
				c0.13-0.09,0.31-0.07,0.41,0.04c0.12,0.12,0.13,0.3,0.02,0.44c-0.24,0.32-0.48,0.63-0.72,0.95
				C204.11,15.16,203.4,16.09,202.69,17.02z M206.41,16.28c0.04,0.68-0.41,1.12-0.94,1.19c-0.59,0.08-1.21-0.35-1.24-1.06
				c-0.02-0.43,0.05-0.82,0.41-1.1c0.34-0.27,0.72-0.32,1.12-0.15c0.4,0.17,0.62,0.5,0.65,0.95
				C206.41,16.17,206.41,16.23,206.41,16.28z"/>
		</g>
	</g>
</g>
<g>
	<g>
		<g>
			<path class="st2" d="M249.06-10.95L249.06-10.95l8.65,0.01c0-0.21,0.17-0.39,0.39-0.39l2.41,0l0-4.83l-2.41,0
				c-0.21,0-0.39-0.17-0.39-0.39l-8.65-0.01c0,0.21-0.17,0.39-0.39,0.39l-2.41,0l0,4.83l2.41,0
				C248.88-11.34,249.06-11.17,249.06-10.95z M257.27-13.85c-0.07-0.08-0.04-0.21,0.07-0.25c0.07-0.03,0.11-0.1,0.1-0.18
				c-0.02-0.11,0.08-0.2,0.18-0.18c0.08,0.01,0.15-0.03,0.18-0.1c0.04-0.1,0.17-0.14,0.25-0.07c0.06,0.05,0.14,0.05,0.2,0
				c0.08-0.07,0.21-0.04,0.25,0.07c0.03,0.07,0.1,0.11,0.18,0.1c0.11-0.02,0.2,0.08,0.18,0.18c-0.01,0.08,0.03,0.15,0.1,0.18
				c0.1,0.04,0.14,0.17,0.07,0.25c-0.05,0.06-0.05,0.14,0,0.2c0.07,0.08,0.04,0.21-0.07,0.25c-0.07,0.03-0.11,0.1-0.1,0.18
				c0.02,0.11-0.08,0.2-0.18,0.18c-0.08-0.01-0.15,0.03-0.18,0.1c-0.04,0.1-0.17,0.14-0.25,0.07c-0.06-0.05-0.14-0.05-0.2,0
				c-0.08,0.07-0.21,0.04-0.25-0.07c-0.03-0.07-0.1-0.11-0.18-0.1c-0.11,0.02-0.2-0.08-0.18-0.18c0.01-0.08-0.03-0.15-0.1-0.18
				c-0.1-0.04-0.14-0.17-0.07-0.25C257.32-13.7,257.32-13.79,257.27-13.85z M256.66-12.19l2.98,0l0,0.35l-2.98,0L256.66-12.19z
				 M253.39-16.13c1.32,0,2.38,1.07,2.38,2.39c0,1.32-1.07,2.38-2.39,2.38c-1.32,0-2.38-1.07-2.38-2.39
				C251-15.07,252.07-16.14,253.39-16.13z M247.14-15.68l2.98,0l0,0.35l-2.98,0L247.14-15.68z M248.52-12.87
				c-0.08,0.07-0.21,0.04-0.25-0.07c-0.03-0.07-0.1-0.11-0.18-0.1c-0.11,0.02-0.2-0.08-0.18-0.18c0.01-0.08-0.03-0.15-0.1-0.18
				c-0.1-0.04-0.14-0.17-0.07-0.25c0.05-0.06,0.05-0.14,0-0.2c-0.07-0.08-0.04-0.21,0.07-0.25c0.07-0.03,0.11-0.1,0.1-0.18
				c-0.02-0.11,0.08-0.2,0.18-0.18c0.08,0.01,0.15-0.03,0.18-0.1c0.04-0.1,0.17-0.14,0.25-0.07c0.06,0.05,0.14,0.05,0.2,0
				c0.08-0.07,0.21-0.04,0.25,0.07c0.03,0.07,0.1,0.11,0.18,0.1c0.11-0.02,0.2,0.08,0.18,0.18c-0.01,0.08,0.03,0.15,0.1,0.18
				c0.1,0.04,0.14,0.17,0.07,0.25c-0.05,0.06-0.05,0.14,0,0.2c0.07,0.08,0.04,0.21-0.07,0.25c-0.07,0.03-0.11,0.1-0.1,0.18
				c0.02,0.11-0.08,0.2-0.18,0.18c-0.08-0.01-0.15,0.03-0.18,0.1c-0.04,0.1-0.17,0.14-0.25,0.07
				C248.67-12.92,248.58-12.92,248.52-12.87z"/>
			<path class="st2" d="M245.31-17.38l0,7.25l16.16,0.01l0-7.25L245.31-17.38z M261.02-10.56l-15.27-0.01l0-6.36l15.27,0.01
				L261.02-10.56z"/>
		</g>
		<g>
			<path class="st2" d="M252.82-12.82c-0.13,0-0.26-0.02-0.39-0.05c-0.12-0.04-0.22-0.08-0.3-0.14l0.13-0.29
				c0.07,0.05,0.16,0.09,0.25,0.13c0.1,0.03,0.2,0.05,0.3,0.05c0.08,0,0.14-0.01,0.19-0.02c0.05-0.02,0.08-0.04,0.1-0.06
				c0.02-0.03,0.03-0.06,0.03-0.09c0-0.04-0.02-0.08-0.05-0.11c-0.04-0.03-0.08-0.05-0.14-0.06c-0.06-0.02-0.12-0.03-0.19-0.05
				c-0.07-0.02-0.14-0.03-0.21-0.06c-0.07-0.02-0.13-0.05-0.19-0.09c-0.06-0.04-0.1-0.08-0.14-0.14c-0.04-0.06-0.05-0.13-0.05-0.22
				c0-0.1,0.03-0.18,0.08-0.26c0.05-0.08,0.13-0.14,0.23-0.19c0.1-0.05,0.24-0.07,0.39-0.07c0.11,0,0.21,0.01,0.31,0.04
				c0.1,0.02,0.19,0.06,0.27,0.11l-0.12,0.29c-0.08-0.04-0.16-0.08-0.23-0.1c-0.08-0.02-0.15-0.03-0.23-0.03
				c-0.07,0-0.14,0.01-0.18,0.03c-0.05,0.02-0.08,0.04-0.1,0.07c-0.02,0.03-0.03,0.06-0.03,0.1c0,0.04,0.02,0.08,0.05,0.1
				c0.04,0.03,0.08,0.05,0.14,0.06c0.06,0.02,0.12,0.03,0.19,0.05s0.14,0.03,0.21,0.06c0.07,0.02,0.13,0.05,0.19,0.08
				c0.06,0.04,0.1,0.08,0.14,0.14c0.04,0.06,0.05,0.13,0.05,0.22c0,0.09-0.03,0.18-0.08,0.26c-0.05,0.08-0.13,0.14-0.24,0.19
				C253.11-12.85,252.98-12.82,252.82-12.82z"/>
			<path class="st2" d="M253.52-12.61l0.79-2.25h0.33l-0.79,2.25H253.52z"/>
		</g>
	</g>
</g>
<g>
	<g>
		<g>
			<path class="st2" d="M258.04,140.64h-9.29c-0.11,0-0.2-0.09-0.2-0.2v-11.41c0-0.11,0.09-0.2,0.2-0.2h2.52
				c0.11,0,0.2,0.09,0.2,0.2c0,0.11-0.09,0.2-0.2,0.2h-2.32v11.02h8.89v-11.02h-2.31c-0.11,0-0.2-0.09-0.2-0.2
				c0-0.11,0.09-0.2,0.2-0.2h2.51c0.11,0,0.2,0.09,0.2,0.2v11.41C258.23,140.55,258.15,140.64,258.04,140.64z"/>
			<path class="st2" d="M257.13,139.66h-7.48c-0.11,0-0.2-0.09-0.2-0.2v-9.78c0-0.11,0.09-0.2,0.2-0.2h1.61c0.11,0,0.2,0.09,0.2,0.2
				c0,0.11-0.09,0.2-0.2,0.2h-1.42v9.39h7.09v-9.39h-1.41c-0.11,0-0.2-0.09-0.2-0.2c0-0.11,0.09-0.2,0.2-0.2h1.61
				c0.11,0,0.2,0.09,0.2,0.2v9.78C257.33,139.57,257.24,139.66,257.13,139.66z"/>
			<path class="st2" d="M255.47,130.07h-4.16c-0.11,0-0.2-0.09-0.2-0.2v-1.19c0-0.11,0.09-0.2,0.2-0.2h4.16c0.11,0,0.2,0.09,0.2,0.2
				v1.19C255.67,129.98,255.58,130.07,255.47,130.07z M251.51,129.67h3.76v-0.79h-3.76V129.67z"/>
			<path class="st2" d="M254.63,128.88c-0.11,0-0.2-0.09-0.2-0.2v-0.29c0-0.22-0.18-0.4-0.4-0.4h-1.09c-0.22,0-0.4,0.18-0.4,0.4
				v0.29c0,0.11-0.09,0.2-0.2,0.2c-0.11,0-0.2-0.09-0.2-0.2v-0.29c0-0.44,0.36-0.8,0.8-0.8h1.09c0.44,0,0.8,0.36,0.8,0.8v0.29
				C254.83,128.79,254.74,128.88,254.63,128.88z"/>
		</g>
		<g>
			<path class="st2" d="M251.32,132.36c-0.28,0-0.51-0.23-0.51-0.51s0.23-0.51,0.51-0.51c0.28,0,0.51,0.23,0.51,0.51
				S251.6,132.36,251.32,132.36z M251.32,131.74c-0.06,0-0.11,0.05-0.11,0.11s0.05,0.11,0.11,0.11s0.11-0.05,0.11-0.11
				S251.38,131.74,251.32,131.74z"/>
			<path class="st2" d="M255.75,131.63h-3.28c-0.11,0-0.2-0.09-0.2-0.2c0-0.11,0.09-0.2,0.2-0.2h3.28c0.11,0,0.2,0.09,0.2,0.2
				C255.95,131.54,255.86,131.63,255.75,131.63z"/>
			<path class="st2" d="M254.42,132.33h-1.94c-0.11,0-0.2-0.09-0.2-0.2c0-0.11,0.09-0.2,0.2-0.2h1.94c0.11,0,0.2,0.09,0.2,0.2
				C254.61,132.24,254.53,132.33,254.42,132.33z"/>
		</g>
		<g>
			<path class="st2" d="M251.32,134.3c-0.28,0-0.51-0.23-0.51-0.51s0.23-0.51,0.51-0.51c0.28,0,0.51,0.23,0.51,0.51
				S251.6,134.3,251.32,134.3z M251.32,133.67c-0.06,0-0.11,0.05-0.11,0.11c0,0.06,0.05,0.11,0.11,0.11s0.11-0.05,0.11-0.11
				C251.43,133.72,251.38,133.67,251.32,133.67z"/>
			<path class="st2" d="M255.75,133.56h-3.28c-0.11,0-0.2-0.09-0.2-0.2c0-0.11,0.09-0.2,0.2-0.2h3.28c0.11,0,0.2,0.09,0.2,0.2
				C255.95,133.47,255.86,133.56,255.75,133.56z"/>
			<path class="st2" d="M254.42,134.27h-1.94c-0.11,0-0.2-0.09-0.2-0.2c0-0.11,0.09-0.2,0.2-0.2h1.94c0.11,0,0.2,0.09,0.2,0.2
				C254.61,134.18,254.53,134.27,254.42,134.27z"/>
		</g>
		<g>
			<path class="st2" d="M251.32,136.24c-0.28,0-0.51-0.23-0.51-0.51s0.23-0.51,0.51-0.51c0.28,0,0.51,0.23,0.51,0.51
				S251.6,136.24,251.32,136.24z M251.32,135.61c-0.06,0-0.11,0.05-0.11,0.11s0.05,0.11,0.11,0.11s0.11-0.05,0.11-0.11
				S251.38,135.61,251.32,135.61z"/>
			<path class="st2" d="M255.75,135.5h-3.28c-0.11,0-0.2-0.09-0.2-0.2c0-0.11,0.09-0.2,0.2-0.2h3.28c0.11,0,0.2,0.09,0.2,0.2
				C255.95,135.41,255.86,135.5,255.75,135.5z"/>
			<path class="st2" d="M254.42,136.21h-1.94c-0.11,0-0.2-0.09-0.2-0.2c0-0.11,0.09-0.2,0.2-0.2h1.94c0.11,0,0.2,0.09,0.2,0.2
				C254.61,136.12,254.53,136.21,254.42,136.21z"/>
		</g>
		<g>
			<path class="st2" d="M251.32,138.17c-0.28,0-0.51-0.23-0.51-0.51s0.23-0.51,0.51-0.51c0.28,0,0.51,0.23,0.51,0.51
				S251.6,138.17,251.32,138.17z M251.32,137.55c-0.06,0-0.11,0.05-0.11,0.11s0.05,0.11,0.11,0.11s0.11-0.05,0.11-0.11
				S251.38,137.55,251.32,137.55z"/>
			<path class="st2" d="M255.75,137.44h-3.28c-0.11,0-0.2-0.09-0.2-0.2c0-0.11,0.09-0.2,0.2-0.2h3.28c0.11,0,0.2,0.09,0.2,0.2
				C255.95,137.35,255.86,137.44,255.75,137.44z"/>
			<path class="st2" d="M254.42,138.14h-1.94c-0.11,0-0.2-0.09-0.2-0.2s0.09-0.2,0.2-0.2h1.94c0.11,0,0.2,0.09,0.2,0.2
				S254.53,138.14,254.42,138.14z"/>
		</g>
	</g>
</g>
<g>
	<defs>
		<rect id="SVGID_1_" x="201.54" y="-50.7" width="10.79" height="10.79"/>
	</defs>
	<clipPath id="SVGID_00000128445001409359814650000016042501855277699769_">
		<use xlink:href="#SVGID_1_"  style="overflow:visible;"/>
	</clipPath>
	<path style="clip-path:url(#SVGID_00000128445001409359814650000016042501855277699769_);fill:#FFFFFF;" d="M212.26-44.87
		c-0.12-0.4-0.39-0.73-0.75-0.92l0.11-0.18l0.01-0.02c0.23-0.45,0.21-0.97-0.05-1.41c-0.24-0.39-0.63-0.63-1.07-0.68
		c0.04-0.4-0.07-0.81-0.32-1.13c-0.3-0.4-0.77-0.63-1.27-0.63h-0.54c-0.07-0.13-0.16-0.26-0.27-0.37c-0.31-0.32-0.73-0.5-1.18-0.5
		c-0.45,0-0.87,0.18-1.18,0.5c-0.11,0.11-0.2,0.24-0.27,0.37h-0.54c-0.5,0-0.96,0.23-1.27,0.63c-0.25,0.33-0.36,0.73-0.32,1.13
		c-0.44,0.05-0.84,0.29-1.07,0.68c-0.26,0.43-0.28,0.96-0.05,1.41l0.12,0.2c-0.35,0.19-0.63,0.52-0.75,0.92
		c-0.16,0.52-0.03,1.08,0.34,1.49l0.01,0.01l1.82,1.59c-0.29,0.18-0.48,0.49-0.48,0.85c0,0.55,0.45,1,1,1h5.25c0.55,0,1-0.45,1-1
		c0-0.36-0.19-0.68-0.48-0.85l1.81-1.58l0.01-0.01l0.01-0.01C212.3-43.78,212.42-44.34,212.26-44.87L212.26-44.87z M210.35-47.44
		L210.35-47.44c0.29,0,0.55,0.14,0.69,0.39c0.15,0.24,0.16,0.53,0.03,0.78l-2.18,3.67L210.35-47.44z M208.92-49.2
		c0.3,0,0.58,0.14,0.77,0.38c0.18,0.24,0.24,0.54,0.17,0.83l-1.58,5.24c0,0,0.29-6.39,0.28-6.45H208.92z M206.21-49.77
		c0.19-0.2,0.45-0.31,0.72-0.31c0.27,0,0.53,0.11,0.72,0.31c0.19,0.2,0.29,0.46,0.28,0.73l-0.36,7.88c-0.01,0.33-0.28,0.59-0.6,0.61
		h-0.07c-0.33-0.02-0.59-0.28-0.6-0.61l-0.36-7.88C205.93-49.31,206.02-49.57,206.21-49.77L206.21-49.77z M204.18-48.82
		c0.18-0.24,0.46-0.38,0.77-0.38h0.36c0,0.06,0.28,6.45,0.28,6.45l-1.58-5.24C203.94-48.28,204-48.58,204.18-48.82L204.18-48.82z
		 M202.83-47.06c0.15-0.24,0.4-0.39,0.69-0.39h0.01l1.45,4.83l-2.18-3.67C202.67-46.53,202.68-46.82,202.83-47.06L202.83-47.06z
		 M202.21-44.68c0.08-0.25,0.24-0.45,0.47-0.56l1.97,3.36l-2.25-1.94C202.19-44.06,202.12-44.37,202.21-44.68L202.21-44.68z
		 M203.94-40.92c0-0.2,0.17-0.37,0.37-0.37h0.02l0.85,0.74h-0.87C204.1-40.55,203.94-40.71,203.94-40.92L203.94-40.92z
		 M209.56-41.29c0.2,0,0.37,0.17,0.37,0.37c0,0.2-0.17,0.37-0.37,0.37h-0.87l0.85-0.74H209.56z M211.47-43.81l-2.25,1.94l1.97-3.36
		c0.22,0.11,0.39,0.31,0.47,0.56C211.75-44.37,211.68-44.06,211.47-43.81L211.47-43.81z M211.47-43.81"/>
</g>
<circle class="st4" cx="-7.24" cy="104.65" r="13.41"/>
<circle class="st5" cx="28" cy="29" r="14.68"/>
</svg>
