<svg id="Capa_1" data-name="Capa 1" xmlns="http://www.w3.org/2000/svg" viewBox="0 0 56 56"><defs><style>.cls-1{fill:#00a8c0;}</style></defs><path class="cls-1" d="M34.18,52.67H30.84V49.49c0-1.87,0-3.74,0-5.61a1.72,1.72,0,0,0-.43-1.34,1.68,1.68,0,0,0-1.31-.36,16.74,16.74,0,0,1-2.24,0,1.62,1.62,0,0,0-1.3.36,1.72,1.72,0,0,0-.43,1.34c0,1.91,0,3.83,0,5.74v3h-10V3.3h.59c.84,0,1.63,0,2.43,0a1.36,1.36,0,0,0,.82-.55,2.72,2.72,0,0,1,.24-.24l.3-.26-.53-.49a6.37,6.37,0,0,0-.67-.6.66.66,0,0,0-.53-.1H4.27c-1.39,0-1.73.34-1.73,1.74V17.2q0,18,0,36.05a1.81,1.81,0,0,0,.41,1.31,1.73,1.73,0,0,0,1.27.4h0q12.74,0,25.47,0h4.49a1.77,1.77,0,0,0,1.31-.35,1.1,1.1,0,0,0,.27-.82C35.73,52.67,34.73,52.67,34.18,52.67Zm-5.71-8.12v8h-.91v-8Zm-15.63.12v7.91H4.92V44.67ZM4.92,11.3V3.38h7.92V11.3Zm7.91,23.09v7.92H4.93V34.39ZM4.94,21.65V13.7h7.88v8Zm7.9,2.4V32H4.93V24.05Z"/><path class="cls-1" d="M53.47,2.85c0-1.49-.32-1.81-1.78-1.81H21.88a1.64,1.64,0,0,0-1.24.31,1.13,1.13,0,0,0-.29.86,1.13,1.13,0,0,0,.31.82,1.63,1.63,0,0,0,1.2.28h3.31V6.44c0,1.92,0,3.84,0,5.76a1.61,1.61,0,0,0,.4,1.24,1.52,1.52,0,0,0,1.2.36c.49,0,1,0,1.48,0,.26,0,.53,0,.79,0,1.51,0,1.81-.3,1.81-1.77q0-2.82,0-5.64v-3h10V52.63a3.44,3.44,0,0,1-.43,0h-.81a16,16,0,0,0-1.82.06,1.53,1.53,0,0,0-.87.61.6.6,0,0,0-.14.5,1.91,1.91,0,0,0,.9,1,.88.88,0,0,0,.47.11l.3,0h12.9c2,0,2.18-.18,2.18-2.13ZM43.19,11.3v-8h7.88v8Zm0,10.33V13.69h7.88v7.94Zm7.93,12.73v7.93H43.18V34.36Zm0,10.3v7.93H43.18V44.66ZM43.17,32v-7.9h7.92V32ZM28.46,3.36v8.05h-.93v-8Z"/><path class="cls-1" d="M25.55,36.13a1.4,1.4,0,0,0,1,.36h.1c.78,0,1.56,0,2.34,0h.47a1.37,1.37,0,0,0,1-.35,1.41,1.41,0,0,0,.35-1V20.89a1.34,1.34,0,0,0-.36-1,1.42,1.42,0,0,0-1.13-.35c-.83,0-1.7,0-2.54,0a1.58,1.58,0,0,0-1.25.35,1.73,1.73,0,0,0-.41,1.3c0,1.63,0,3.27,0,4.9V30c0,1.66,0,3.33,0,5A1.53,1.53,0,0,0,25.55,36.13Zm2-2V21.84h.93V34.18Z"/></svg>