<svg id="Capa_1" data-name="Capa 1" xmlns="http://www.w3.org/2000/svg" viewBox="0 0 56 56"><defs><style>.cls-1{fill:#00a8c0;}</style></defs><path class="cls-1" d="M54.55,6.28c-.36-.17-.66-.46-1-.59a2.41,2.41,0,0,1-1.72-3c.13-.8-.07-1.6-1.11-1.58s-1.13.8-1,1.55A2.43,2.43,0,0,1,48,5.7c-.19.08-.35.26-.54.34a2.14,2.14,0,0,0-1.34,2.4c.08,1.7,0,3.4,0,5.2a18.9,18.9,0,0,1-7.57-1.87,23.72,23.72,0,0,0-9.21-2.66,22.27,22.27,0,0,0-11.71,2.51,19.13,19.13,0,0,1-7.81,2c0-1.67-.09-3.24,0-4.8a2.52,2.52,0,0,0-1.67-3A2.8,2.8,0,0,1,6.15,2.44a1,1,0,0,0-1.06-1.3,1,1,0,0,0-1,1.32C4.41,4.32,3.48,5.31,1.93,6c-.16.07-.29.2-.45.28A1.66,1.66,0,0,0,.5,8q0,22.65,0,45.31c0,1.24.28,1.55,1.49,1.55H54c1.21,0,1.51-.31,1.51-1.53q0-22.7,0-45.41A1.62,1.62,0,0,0,54.55,6.28ZM2.69,8.53a1.09,1.09,0,0,1,.44-.74C3.77,7.34,4.45,7,5,6.62c2.28.57,3.09,1.94,2.75,4.12a20.23,20.23,0,0,0,0,2.92h-5C2.67,11.88,2.65,10.21,2.69,8.53Zm0,7.39H7.6V40.58H2.73ZM9.2,52.61H2.75V42.88H9.2Zm.71-29.52H14v14H9.91ZM16.19,32v-.86a1.53,1.53,0,0,0,0-.3V23.09h4.06v14h-4ZM26.83,52.64H11.41v-9.5c0-.32,0-.64,0-1,.05-1-.37-1.58-1.48-1.58V39.4h16.9Zm0-15.52H22.53v-14h4.31Zm0-16.31H13.56c-.29-1.1,0-1.95,1.12-2a11.52,11.52,0,0,1,3.44.39c1.07.24,2.07.81,3.14,1a3.53,3.53,0,0,0,4.11-2.46,3.26,3.26,0,0,0-2.07-4,1.7,1.7,0,0,0-1-.14c-.42.19-1,.55-1,.94s.46.74.75,1.1c.05.06.2,0,.3.07a1,1,0,0,1,1,1.25A1.15,1.15,0,0,1,22,18.06a18.39,18.39,0,0,1-2.36-.65,21.28,21.28,0,0,0-3.71-.95c-2.78-.26-4.44,1.34-4.71,4.36H9.92V15.89a27.9,27.9,0,0,0,3.33-.54,39.72,39.72,0,0,0,5.35-1.84c2.68-1.2,6.35-2.28,8.24-2.17Zm2.29-9.55a19.5,19.5,0,0,1,7.51,2,23.91,23.91,0,0,0,8.79,2.55,1,1,0,0,1,.68.66c.07,1.42,0,2.85,0,4.36H44.7a13.14,13.14,0,0,0-.25-1.65,3.85,3.85,0,0,0-4-2.7,21.38,21.38,0,0,0-4.05.87c-.76.19-1.47.58-2.23.73a1.28,1.28,0,0,1-1.65-1c-.16-.81.32-1.24,1.13-1.36a1,1,0,0,0,1-1.28c-.14-.77-.72-.89-1.39-.84a3.28,3.28,0,0,0-2.91,3.3,3.34,3.34,0,0,0,3.38,3.32,14.35,14.35,0,0,0,3.1-.72,23.24,23.24,0,0,1,3.5-.87c1.5-.13,2.21.76,2,2.24H29.13Zm17,11.87v14H42v-14Zm-6.32,0v14h-4v-14Zm-10.63,0h4.34v14H29.13ZM44.57,42.76c0,2.89,0,5.78,0,8.68v1.2H29.13V39.39h17c0,.36.05.7.08,1.14C44.63,40.59,44.56,41.59,44.57,42.76Zm8.7,9.87H46.82v-9.8h6.45Zm0-12.05H48.39V15.94h4.89Zm.08-30.39a26.69,26.69,0,0,0,0,3.47h-5c0-1.79-.07-3.56,0-5.32,0-.9,2.35-1.72,3.19-1.38A2.68,2.68,0,0,1,53.36,10.19Z"/><path class="cls-1" d="M15,50.57c1.4,0,2.79,0,4.18,0s2.86,0,4.29,0c.94,0,1.37-.43,1.37-1.37q0-3.15,0-6.32c0-.92-.39-1.39-1.35-1.38q-4.29,0-8.57,0a1.19,1.19,0,0,0-1.37,1.37v6.32C13.49,50.16,14,50.59,15,50.57Zm.77-6.88h6.84v4.65H15.72Z"/><path class="cls-1" d="M41.16,41.48q-4.29,0-8.58,0c-.94,0-1.37.43-1.36,1.37,0,2.11,0,4.21,0,6.32,0,1,.48,1.42,1.45,1.4,1.4,0,2.79,0,4.18,0s2.86,0,4.29,0c.88,0,1.36-.38,1.36-1.26,0-2.18,0-4.36,0-6.54C42.49,41.89,42.06,41.48,41.16,41.48Zm-.87,6.88H33.44V43.69h6.85Z"/></svg>