<svg id="Capa_1" data-name="Capa 1" xmlns="http://www.w3.org/2000/svg" viewBox="0 0 56 56"><defs><style>.cls-1{fill:#00a8c0;}</style></defs><path class="cls-1" d="M41.13,24.37v-.15l0-.36A13.17,13.17,0,1,0,19.2,35.46a8.18,8.18,0,0,1,2.16,2.83c-.06.24-.12.45-.17.66a8.8,8.8,0,0,0-.29,1.3,5.8,5.8,0,0,0,0,.93,5.71,5.71,0,0,1,0,.72,2.14,2.14,0,0,0,1.47,2.52v1.12c0,1.08,0,2.17,0,3.25a3.37,3.37,0,0,0,1.43,2.8,1.42,1.42,0,0,1,.5.68A3.9,3.9,0,0,0,28,55.17h0a3.91,3.91,0,0,0,3.74-2.88,1.26,1.26,0,0,1,.41-.63,3.42,3.42,0,0,0,1.53-3c0-.63,0-1.25,0-1.88s0-1.27,0-1.9c0-.37,0-.49.37-.63a1.72,1.72,0,0,0,1-1.13c0-.26,0-.52.07-.78a5.52,5.52,0,0,0-.51-3.86c.07-.13.13-.25.19-.38a7.82,7.82,0,0,1,.62-1.1,10,10,0,0,1,1.32-1.38A13.18,13.18,0,0,0,41,28.18a2.66,2.66,0,0,0,.06-.62c.08-1.07.09-2.2.09-2.78A2.8,2.8,0,0,0,41.13,24.37ZM29.89,52.17a1.81,1.81,0,0,1-1.66,1.24,2,2,0,0,1-2.06-1.24Zm-3.51-1.78h-.31a2,2,0,0,1-1.58-.49,2.11,2.11,0,0,1-.33-1.62h2.09a1.27,1.27,0,0,0,1-.25.85.85,0,0,0,.22-.63.86.86,0,0,0-.24-.62,1.22,1.22,0,0,0-.93-.22H24.13v-2h7.8v2H29.78a1.85,1.85,0,0,0-.72.11.77.77,0,0,0-.42.74.83.83,0,0,0,.22.61,1.28,1.28,0,0,0,.9.26H31.9a2,2,0,0,1-.26,1.56,1.79,1.79,0,0,1-1.47.55ZM22.62,40.21a.35.35,0,0,1,.42-.45h10a.46.46,0,0,1,.31.08.43.43,0,0,1,.08.31c0,.72,0,1.44,0,2.15a.42.42,0,0,1-.07.31.52.52,0,0,1-.39.08H26.61c-1.16,0-2.32,0-3.48,0a.63.63,0,0,1-.43-.1.57.57,0,0,1-.09-.4C22.64,41.51,22.63,40.81,22.62,40.21Zm10.55-2.65c-.15.37-.4.48-.85.5-3.21,0-5.88,0-8.39,0-.62,0-.9-.16-1.09-.65a8.55,8.55,0,0,0-2.44-3.19,11.44,11.44,0,0,1,7.68-19.93A11.44,11.44,0,0,1,39.41,24.5a16.55,16.55,0,0,1-.14,3.36,10.89,10.89,0,0,1-3.41,6.19A9.4,9.4,0,0,0,33.17,37.56Z"/><g id="_Repetición_radial_" data-name="&lt;Repetición radial&gt;"><rect class="cls-1" x="7.53" y="22.12" width="3.63" height="8.54" rx="1.81" transform="translate(-14.95 40.3) rotate(-100.29)"/></g><g id="_Repetición_radial_2" data-name="&lt;Repetición radial&gt;"><rect class="cls-1" x="10.18" y="9.51" width="3.63" height="8.54" rx="1.81" transform="translate(-5.92 17.36) rotate(-60.29)"/></g><g id="_Repetición_radial_3" data-name="&lt;Repetición radial&gt;"><rect class="cls-1" x="20.31" y="1.54" width="3.63" height="8.54" rx="1.81" transform="translate(-0.64 8.03) rotate(-20.29)"/></g><g id="_Repetición_radial_4" data-name="&lt;Repetición radial&gt;"><rect class="cls-1" x="33.19" y="1.95" width="3.63" height="8.54" rx="1.81" transform="translate(4.15 -11.44) rotate(19.71)"/></g><g id="_Repetición_radial_5" data-name="&lt;Repetición radial&gt;"><rect class="cls-1" x="42.8" y="10.55" width="3.63" height="8.54" rx="1.81" transform="translate(34.91 -31.18) rotate(59.71)"/></g><g id="_Repetición_radial_6" data-name="&lt;Repetición radial&gt;"><rect class="cls-1" x="44.63" y="23.31" width="3.63" height="8.54" rx="1.81" transform="translate(81.46 -13.55) rotate(99.71)"/></g></svg>