<svg id="Capa_1" data-name="Capa 1" xmlns="http://www.w3.org/2000/svg" viewBox="0 0 56 56"><defs><style>.cls-1{fill:#00a8c0;}</style></defs><path class="cls-1" d="M47.7,24.13c1.21-.32,2.41-.77,3.56-1.2l1.23-.45a3,3,0,0,0,2.22-2.87,3,3,0,0,0-2.1-2.84L36.33,10.19,15.13,1.62A2.93,2.93,0,0,0,10.9,3.4Q9.35,7.2,7.82,11q-1.29,3.22-2.6,6.43a3.28,3.28,0,0,0,.24,3.13,1.42,1.42,0,0,1,0,.87c-.07.28-.17.56-.27.85a5.63,5.63,0,0,0-.35,1.34A3.73,3.73,0,0,0,7.4,27.43c3.23,1.32,6.15,2.52,9.17,3.7.57.22.68.39.61.91a6.76,6.76,0,0,0,.88,4.26,1.08,1.08,0,0,1,.05.75,23.19,23.19,0,0,1-1.2,2.58.73.73,0,0,1-.38.34c-1.8,0-3.6,0-5.47,0H9.84V37.15C9.81,34.47,8.31,33,5.62,33H5.21c-.62,0-1.25,0-1.87,0a2,2,0,0,0-2,2.1c0,6,0,11.86,0,17.52a2,2,0,0,0,2.06,2.09l1.49,0c.51,0,1,0,1.42,0A3.71,3.71,0,0,0,9.81,51.1c0-.83,0-1.65,0-2.52,0-.3,0-.6,0-.91h3c1.48,0,3,0,4.44,0a6.52,6.52,0,0,0,6.21-4c.24-.51.49-1,.71-1.55.68-1.63,1.29-2.83,3-3.31a5.14,5.14,0,0,0,2-1.46c.26-.25.52-.5.8-.75l.81.33,4.28,1.72c3.35,1.36,4.71.94,6.38-2.08.74.2,1.27.38,1.45,1.27.28,1.4,2.53,2.59,4.2,2.64,1.49,0,2.4-.65,3.08-2.35,1-2.38,1.94-4.77,2.9-7.15.81-2,.2-3.49-1.83-4.38-1.49-.65-2.84-1.09-4.38,0a2.34,2.34,0,0,1-.87-.21l-.36-.13A2.43,2.43,0,0,1,47.7,24.13ZM42.41,34.29l2.37-5.83,1,.39-2.37,5.84ZM37,36.82c-1.56-.61-3.11-1.24-4.66-1.87L27.9,33.14,8.52,25.3c-1.28-.52-1.54-1.13-1-2.43.1-.26.21-.51.32-.78l.05-.1.17.07.83.31,4.39,1.78q7.09,2.87,14.2,5.77a4.64,4.64,0,0,0,3.6.08c3-1.09,6-2.13,9.19-3.23L43.3,25.7l-.8,2c-1.12,2.76-2.23,5.52-3.36,8.26A1.41,1.41,0,0,1,37,36.82ZM29.53,28l-.2.06L29.18,28q-.29-.09-.57-.21L8.21,19.52c-1.06-.43-1.07-.46-.64-1.52L13,4.66c.29-.69.41-1,.72-1a2.93,2.93,0,0,1,.87.26L18.11,5.4q16.62,6.72,33.23,13.47a1.64,1.64,0,0,1,.9.8c.07.3-.05.4-.69.6l-.25.08L30.05,27.8Zm-2,7.6a4.43,4.43,0,0,1-7.91-3.2Zm-4.76,4.09c-.14.29-.27.58-.4.87-.41.88-.82,1.8-1.29,2.66a3.76,3.76,0,0,1-3.34,2c-.86,0-1.71,0-2.56,0H9.93V42.36h1.8c1.81,0,3.53,0,5.28,0a1.77,1.77,0,0,0,1.86-1.22c.29-.69.62-1.37.94-2,.09-.2.19-.39.28-.58ZM45.18,37a.45.45,0,0,0,0-.11,1.13,1.13,0,0,1,0-.14l.58-1.44c.89-2.21,1.81-4.49,2.76-6.7a1.31,1.31,0,0,1,.74-.22h0a1.54,1.54,0,0,1,.6.21l.32.15c1.09.45,1.08.47.67,1.51l-2.66,6.56c-.28.7-.49,1.21-.68,1.29s-.7-.12-1.44-.43l-.21-.07a1,1,0,0,1-.35-.17,2,2,0,0,1-.32-.39ZM7.46,50.76c0,.3-.07,1.27-.94,1.4a11.43,11.43,0,0,1-2.12.05l-.64,0V35.36l.13,0h.47c.52,0,1,0,1.58,0a1.42,1.42,0,0,1,1.51,1.51C7.48,41.49,7.47,46.13,7.46,50.76Z"/></svg>