<svg width="1105" height="602" viewBox="0 0 1105 602" fill="none" xmlns="http://www.w3.org/2000/svg">
<path d="M0 276.92L30.6944 281.201C61.3889 285.348 122.778 293.91 184.167 311.033C245.556 328.157 306.944 354.11 368.333 355.581C429.722 357.187 491.111 334.444 552.5 330.431C613.889 326.418 675.278 341.133 736.667 353.842C798.056 366.551 859.444 377.253 920.833 377.521C982.222 377.655 1043.61 367.488 1074.31 362.27L1105 357.187V0H1074.31C1043.61 0 982.222 0 920.833 0C859.444 0 798.056 0 736.667 0C675.278 0 613.889 0 552.5 0C491.111 0 429.722 0 368.333 0C306.944 0 245.556 0 184.167 0C122.778 0 61.3889 0 30.6944 0H0V276.92Z" fill="url(#paint0_linear_272_5)"/>
<defs>
<linearGradient id="paint0_linear_272_5" x1="552.5" y1="0" x2="552.5" y2="377.522" gradientUnits="userSpaceOnUse">
<stop stop-color="#005C53"/>
<stop offset="1" stop-color="#069F90"/>
</linearGradient>
</defs>
</svg>






