<?xml version="1.0" encoding="utf-8"?>
<!-- Generator: Adobe Illustrator 25.4.1, SVG Export Plug-In . SVG Version: 6.00 Build 0)  -->
<svg version="1.1" id="Layer_1" xmlns="http://www.w3.org/2000/svg" xmlns:xlink="http://www.w3.org/1999/xlink" x="0px" y="0px"
	 viewBox="0 0 125 125" style="enable-background:new 0 0 125 125;" xml:space="preserve">
<style type="text/css">
	.st0{display:none;}
	.st1{display:inline;}
	
		.st2{fill:none;stroke:url(#path2640_00000165201601887909047570000001343796696851524025_);stroke-width:2.9897;stroke-linecap:round;stroke-linejoin:round;stroke-miterlimit:13.3333;}
	.st3{display:inline;fill:url(#SVGID_1_);}
	
		.st4{fill:none;stroke:url(#path2652_00000163052388628826293770000006584971049118010018_);stroke-width:2.9897;stroke-linecap:round;stroke-linejoin:round;stroke-miterlimit:13.3333;}
	
		.st5{fill:none;stroke:url(#path2656_00000120533595931560432970000018318987101418346929_);stroke-width:2.9897;stroke-linecap:round;stroke-linejoin:round;stroke-miterlimit:13.3333;}
	
		.st6{fill:none;stroke:url(#path2660_00000124156642288151688210000003960736384223534981_);stroke-width:2.9897;stroke-linecap:round;stroke-linejoin:round;stroke-miterlimit:13.3333;}
	
		.st7{fill:none;stroke:url(#path2664_00000158021126971165320340000005612150637739625889_);stroke-width:2.9897;stroke-linecap:round;stroke-linejoin:round;stroke-miterlimit:13.3333;}
	
		.st8{fill:url(#SVGID_00000103972690822237089730000000499604477144979902_);stroke:url(#SVGID_00000034067275648491872660000002026903458529563272_);stroke-width:0.7754;stroke-miterlimit:10;}
	
		.st9{fill:url(#SVGID_00000160881333427686124810000013170799290404328332_);stroke:url(#SVGID_00000149346222856462614370000005046424590099304114_);stroke-width:0.7848;stroke-miterlimit:10;}
	
		.st10{fill:url(#SVGID_00000080195422779722464160000014280254153056094124_);stroke:url(#SVGID_00000153699518290311093760000013317359632454691214_);stroke-width:0.7848;stroke-miterlimit:10;}
	
		.st11{fill:url(#SVGID_00000086672349178397062690000005257356416075221895_);stroke:url(#SVGID_00000114786540246981625250000003042673969065323417_);stroke-width:0.7848;stroke-miterlimit:10;}
	.st12{display:inline;fill-rule:evenodd;clip-rule:evenodd;fill:url(#SVGID_00000152249765909606213620000006400745961204977082_);}
	.st13{display:inline;fill-rule:evenodd;clip-rule:evenodd;fill:url(#SVGID_00000121253729663013095350000008187830915428719518_);}
	.st14{display:inline;fill-rule:evenodd;clip-rule:evenodd;fill:url(#SVGID_00000167379650298661969300000000923664313771923615_);}
	.st15{display:inline;fill-rule:evenodd;clip-rule:evenodd;fill:url(#SVGID_00000024684904798031667070000004319652594096442035_);}
	.st16{display:inline;fill-rule:evenodd;clip-rule:evenodd;fill:url(#SVGID_00000104688344667812267100000000168446645022564224_);}
</style>
<g id="g2632" class="st0">
	<g id="g2638" transform="translate(497,392.5664)" class="st1">
		
			<linearGradient id="path2640_00000100373533099170725570000002164682950907855011_" gradientUnits="userSpaceOnUse" x1="-487.1164" y1="-349.5515" x2="-381.8836" y2="-308.344">
			<stop  offset="0" style="stop-color:#00CCB1"/>
			<stop  offset="0.6955" style="stop-color:#01A49B"/>
		</linearGradient>
		
			<path id="path2640" style="fill:none;stroke:url(#path2640_00000100373533099170725570000002164682950907855011_);stroke-width:2.9897;stroke-linecap:round;stroke-linejoin:round;stroke-miterlimit:13.3333;" d="
			M-386.5-356.1c0-1.7-0.7-3.3-1.9-4.5c-1.2-1.2-2.8-1.9-4.5-1.9h-83.1c-1.7,0-3.3,0.7-4.5,1.9c-1.2,1.2-1.9,2.8-1.9,4.5v54.4
			c0,1.7,0.7,3.3,1.9,4.5c1.2,1.2,2.8,1.9,4.5,1.9h83.1c1.7,0,3.3-0.7,4.5-1.9c1.2-1.2,1.9-2.8,1.9-4.5V-356.1z"/>
	</g>
	<linearGradient id="SVGID_1_" gradientUnits="userSpaceOnUse" x1="31.5575" y1="67.6185" x2="59.9323" y2="78.7296">
		<stop  offset="0" style="stop-color:#00C4AD"/>
		<stop  offset="1" style="stop-color:#01AB9F"/>
	</linearGradient>
	<path class="st3" d="M48.9,71.3c2.4-1.7,3.9-4.5,3.9-7.6c0-5.2-4.3-9.5-9.5-9.5s-9.5,4.3-9.5,9.5c0,3.1,1.5,5.9,3.9,7.6
		c-5.1,2.2-8.7,7.2-8.7,13.1c0,0.8,0.7,1.5,1.5,1.5h25.6c0.8,0,1.5-0.7,1.5-1.5C57.6,78.5,54,73.4,48.9,71.3z M36.8,63.6
		c0-3.6,2.9-6.5,6.5-6.5c3.6,0,6.5,2.9,6.5,6.5c0,3.6-2.9,6.5-6.5,6.5C39.7,70.1,36.8,67.2,36.8,63.6z M32.1,82.9
		c0.7-5.5,5.5-9.8,11.2-9.8s10.5,4.3,11.2,9.8H32.1z"/>
	<g id="g2650" transform="translate(304.2002,280.0996)" class="st1">
		
			<linearGradient id="path2652_00000158708234164996171650000011418987718452445887_" gradientUnits="userSpaceOnUse" x1="-232.0115" y1="-221.4709" x2="-209.8206" y2="-212.7813">
			<stop  offset="0" style="stop-color:#00B7A5"/>
			<stop  offset="1" style="stop-color:#01A49B"/>
		</linearGradient>
		
			<path id="path2652" style="fill:none;stroke:url(#path2652_00000158708234164996171650000011418987718452445887_);stroke-width:2.9897;stroke-linecap:round;stroke-linejoin:round;stroke-miterlimit:13.3333;" d="
			M-232.1-217.1h22.4"/>
	</g>
	<g id="g2654" transform="translate(95.333,360.4336)" class="st1">
		
			<linearGradient id="path2656_00000065046908631395739760000004184738692009447302_" gradientUnits="userSpaceOnUse" x1="-61.9493" y1="-329.0005" x2="-3.7167" y2="-306.1976">
			<stop  offset="0" style="stop-color:#00C4AC"/>
			<stop  offset="1" style="stop-color:#01A49B"/>
		</linearGradient>
		
			<path id="path2656" style="fill:none;stroke:url(#path2656_00000065046908631395739760000004184738692009447302_);stroke-width:2.9897;stroke-linecap:round;stroke-linejoin:round;stroke-miterlimit:13.3333;" d="
			M-64.8-317.6h64"/>
	</g>
	<g id="g2658" transform="translate(304.2002,215.833)" class="st1">
		
			<linearGradient id="path2660_00000175310545759631398760000011298458455050806158_" gradientUnits="userSpaceOnUse" x1="-232.0115" y1="-148.5906" x2="-209.8206" y2="-139.901">
			<stop  offset="0" style="stop-color:#00B7A5"/>
			<stop  offset="1" style="stop-color:#01A49B"/>
		</linearGradient>
		
			<path id="path2660" style="fill:none;stroke:url(#path2660_00000175310545759631398760000011298458455050806158_);stroke-width:2.9897;stroke-linecap:round;stroke-linejoin:round;stroke-miterlimit:13.3333;" d="
			M-232.1-144.2h22.4"/>
	</g>
	<g id="g2662" transform="translate(304.2002,151.5664)" class="st1">
		
			<linearGradient id="path2664_00000175318272730517502810000012388452571529960084_" gradientUnits="userSpaceOnUse" x1="-232.4367" y1="-74.3359" x2="-215.7907" y2="-67.8176">
			<stop  offset="0" style="stop-color:#00B7A5"/>
			<stop  offset="1" style="stop-color:#01A49B"/>
		</linearGradient>
		
			<path id="path2664" style="fill:none;stroke:url(#path2664_00000175318272730517502810000012388452571529960084_);stroke-width:2.9897;stroke-linecap:round;stroke-linejoin:round;stroke-miterlimit:13.3333;" d="
			M-232.1-71.1h16"/>
	</g>
</g>
<g transform="translate(0 1)" class="st0">
	<g class="st1">
		
			<linearGradient id="SVGID_00000086657434859708388950000014153241328781463716_" gradientUnits="userSpaceOnUse" x1="28.5612" y1="52.6514" x2="121.1632" y2="88.9128">
			<stop  offset="0" style="stop-color:#00CCB1"/>
			<stop  offset="1" style="stop-color:#018B8E"/>
		</linearGradient>
		
			<linearGradient id="SVGID_00000112612801532911045340000005739394188900159668_" gradientUnits="userSpaceOnUse" x1="32.4276" y1="54.1654" x2="105.0522" y2="82.604">
			<stop  offset="0" style="stop-color:#00CCB1"/>
			<stop  offset="1" style="stop-color:#019794"/>
		</linearGradient>
		
			<path style="fill:url(#SVGID_00000086657434859708388950000014153241328781463716_);stroke:url(#SVGID_00000112612801532911045340000005739394188900159668_);stroke-width:0.7754;stroke-miterlimit:10;" d="
			M95.7,84.5c-7.3-3.9-13-6.1-18-6.9l0.5-0.7c0.2-0.2,0.4-0.6,0.2-1l-1.2-4.6c0.4-0.6,0.8-1.2,1.2-1.8c4.6-1.6,6.9-4.2,7.3-8.1
			c2-0.1,3.7-1.9,3.7-3.9v-9.2c0-2-1.6-3.8-3.7-3.9c-0.3-7.1-3.4-21-23.3-21c-19.9,0-23.1,13.9-23.3,21c-2,0.1-3.7,1.8-3.7,3.9v9.2
			c0,2.1,1.8,3.9,4.1,3.9h1.8c0.7,0,1.3-0.2,1.9-0.5c0.7,3.7,2.2,7.3,4.4,10.4l-1.2,4.6c0,0.2,0,0.6,0.2,1l0.5,0.7
			c-5,0.8-10.6,3-18,6.9c-2.3,1.1-3.7,3.4-3.7,6v5.3c0,0.7,0.5,1.2,1.2,1.2h29.5h0.5h11.3h0.5h29.5c0.7,0,1.2-0.5,1.2-1.2v-5.3
			C99.4,88,97.9,85.7,95.7,84.5z M62.5,81.7l2.9,6.7h-5.9L62.5,81.7z M58.6,90.9h7.8l0.7,3.7h-9.2L58.6,90.9z M75.4,73.7l0.5,2.2
			l-1.3,1.7c-0.1,0.1-0.2,0.1-0.2,0.2l-5.1,7.1l-1.6,2.2l-3.3-7.5c4-0.5,7.6-2.6,10.5-5.5C75.1,74,75.2,73.8,75.4,73.7z M80.2,66
			c0.7-1.7,1.2-3.4,1.5-5.2c0.5,0.3,1,0.5,1.6,0.5C83.1,63.1,82.3,64.7,80.2,66z M87,48.1v9.2c0,0.7-0.6,1.5-1.5,1.5h-1.8
			c-0.7,0-1.5-0.6-1.5-1.5v-0.9v-8.4c0-0.7,0.6-1.5,1.5-1.5h1.8C86.2,46.6,87,47.2,87,48.1z M62.5,25.7c7.6,0,20.3,2.5,20.9,18.6
			c-0.5,0.1-1,0.2-1.5,0.4c-1.5-9.4-9.7-16.6-19.4-16.6c-9.8,0-17.9,7.2-19.4,16.6c-0.4-0.2-0.9-0.4-1.5-0.4
			C42.2,28.2,54.9,25.7,62.5,25.7z M42.7,57.3c0,0.7-0.6,1.5-1.5,1.5h-1.8c-0.7,0-1.5-0.6-1.5-1.5v-9.2c0-0.7,0.6-1.5,1.5-1.5h1.8
			c0.7,0,1.5,0.6,1.5,1.5V57.3z M45.3,47.8c0-9.5,7.7-17.2,17.2-17.2s17.2,7.7,17.2,17.2v8.6c0,4.1-1.1,7.8-2.8,10.9
			c-2.9,0.9-7.2,1.4-13.2,1.4c-0.7,0-1.2,0.5-1.2,1.2s0.5,1.2,1.2,1.2c4.4,0,8.1-0.3,11.2-0.8c-0.1,0.1-0.2,0.2-0.2,0.2
			c-0.6,0.8-1.3,1.6-2,2.3c-2.9,2.7-6.3,4.3-9.7,4.5c-0.2-0.1-0.4-0.1-0.5-0.1c-0.2,0-0.4,0-0.5,0.1c-2-0.1-4.1-0.7-6.1-1.8
			c-2-1.1-3.9-2.8-5.6-4.9c-0.1-0.1-0.2-0.2-0.4-0.4l-0.1,0c-2.8-3.6-4.6-8.4-4.6-13.7L45.3,47.8L45.3,47.8z M60.6,79.7l-3.3,7.5
			l-1.6-2.2l-5.1-7.1c0,0-0.1-0.1-0.1-0.1l-1.3-1.9l0.5-2.2c0.2,0.2,0.3,0.4,0.5,0.5C53,77.1,56.6,79.2,60.6,79.7z M28.1,90.5
			c0-1.6,0.9-3.1,2.3-3.8c7.8-4.2,13.5-6.3,18.5-6.9l7.3,10.1l-0.9,4.7H28.1V90.5z M96.9,94.5H69.7l-0.9-4.7l7.4-10.2
			c5,0.8,10.7,2.8,18.4,6.9c1.5,0.9,2.3,2.3,2.3,3.9L96.9,94.5L96.9,94.5z"/>
	</g>
</g>
<g>
	
		<linearGradient id="SVGID_00000052096777868786484100000004310345855071634359_" gradientUnits="userSpaceOnUse" x1="23.6858" y1="62.5871" x2="101.3142" y2="62.5871">
		<stop  offset="0" style="stop-color:#00CCB1"/>
		<stop  offset="1" style="stop-color:#019493"/>
	</linearGradient>
	
		<linearGradient id="SVGID_00000010288708922186340470000016873708561177149350_" gradientUnits="userSpaceOnUse" x1="23.2935" y1="62.5871" x2="101.7065" y2="62.5871">
		<stop  offset="0" style="stop-color:#00CCB1"/>
		<stop  offset="1" style="stop-color:#019493"/>
	</linearGradient>
	
		<path style="fill:url(#SVGID_00000052096777868786484100000004310345855071634359_);stroke:url(#SVGID_00000010288708922186340470000016873708561177149350_);stroke-width:0.7848;stroke-miterlimit:10;" d="
		M96.7,52.3c2.7-1.1,4.5-3.8,4.5-6.9c0-4.2-3.3-7.5-7.5-7.5c-2.9,0-5.5,1.7-6.8,4.2c-3.7-2.5-8-4.2-12.6-5v-4.1h2.8c2.2,0,4-1.8,4-4
		v-1.2c0-2.3-1.7-4-4-4H60.9c-2.3,0-4,1.7-4,4V29c0,2.3,1.7,4,4,4h2.7v4.1c-4.5,0.8-8.7,2.5-12.4,4.9c-1.2-2.6-3.8-4.3-6.9-4.3
		c-4.2,0-7.5,3.3-7.5,7.5c0,3.1,1.9,5.8,4.6,6.9c-2.3,3.8-3.9,8.2-4.5,13c0,0,0,0,0,0c-7.6,2.2-13.2,9.3-13.2,17.7
		c0,10.2,8.2,18.4,18.4,18.4c4.3,0,8.2-1.5,11.4-3.9c0,0,0,0,0,0c4.6,2.5,9.9,3.9,15.4,3.9c17.8,0,32.4-14.4,32.4-32.3
		C101.3,63,99.6,57.2,96.7,52.3z M93.7,40.3c2.9,0,5.1,2.2,5.1,5.1c0,2.3-1.5,4.2-3.5,4.8c-1.8-2.5-3.9-4.7-6.3-6.6
		C89.7,41.7,91.5,40.3,93.7,40.3z M59.3,29v-1.2c0-1,0.6-1.6,1.6-1.6h16.1c1,0,1.6,0.6,1.6,1.6V29c0,0.7-0.6,1.6-1.6,1.6h-4h-8.2
		h-3.9C60,30.6,59.3,30,59.3,29z M66,33.1h5.8v3.8c-0.9-0.1-1.8-0.1-2.8-0.1c-1,0-2,0-3,0.1V33.1z M39.2,45.3c0-2.9,2.2-5.1,5.1-5.1
		c2.2,0,4.1,1.4,4.8,3.4c-2.4,1.9-4.5,4.1-6.3,6.5C40.7,49.5,39.2,47.5,39.2,45.3z M26.1,82.9c0-8.9,7.2-16,16-16s16,7.2,16,16
		s-7.2,16-16,16S26.1,91.8,26.1,82.9z M52.7,54.4l2.6,2.6c0.2,0.2,0.5,0.4,0.8,0.4c0.4,0,0.6-0.1,0.8-0.4c0.5-0.5,0.5-1.2,0-1.7
		l-2.6-2.6c3.6-3.2,8.3-5.3,13.4-5.6v3.1c0,0.7,0.5,1.2,1.2,1.2s1.2-0.5,1.2-1.2V47c5.2,0.3,9.9,2.3,13.6,5.6l-2.6,2.6
		c-0.5,0.5-0.5,1.2,0,1.7c0.2,0.2,0.5,0.4,0.8,0.4c0.4,0,0.6-0.1,0.8-0.4l2.6-2.6c3.3,3.6,5.4,8.4,5.7,13.6h-3.2
		c-0.7,0-1.2,0.5-1.2,1.2s0.5,1.2,1.2,1.2h3.2c-0.3,5.2-2.4,9.9-5.6,13.5l-2.7-2.7c-0.5-0.5-1.2-0.5-1.7,0c-0.5,0.5-0.5,1.2,0,1.7
		l2.7,2.7c-3.7,3.3-8.4,5.4-13.6,5.6v-3.2c0-0.7-0.5-1.2-1.2-1.2s-1.2,0.5-1.2,1.2v3.2c-2.8-0.2-5.6-0.9-8.2-2.1
		c0.7-1.9,1-3.9,1-6.1c0-8.4-5.6-15.4-13.2-17.7C48,61.1,50,57.4,52.7,54.4z M68.9,98.9c-4.7,0-9.4-1.2-13.5-3.3
		c1.3-1.3,2.3-2.8,3.2-4.5c3.2,1.5,6.7,2.3,10.3,2.3c13.5,0,24.5-11,24.7-24.5c0-13.5-11-24.5-24.5-24.5c-11.8,0-22,8.7-24.1,20.2
		c-1-0.2-1.9-0.2-2.9-0.2c-0.9,0-1.8,0.1-2.7,0.2C41.6,50,54.2,39.1,69,39.1c6.5,0,12.5,2.1,17.4,5.6c0.2,0.2,0.4,0.4,0.7,0.5
		c7.1,5.5,11.7,14.1,11.7,23.8C98.9,85.6,85.4,98.9,68.9,98.9z"/>
	
		<linearGradient id="SVGID_00000054234913348038961590000003516158351499669121_" gradientUnits="userSpaceOnUse" x1="63.3289" y1="68.2879" x2="78.0919" y2="68.2879">
		<stop  offset="0" style="stop-color:#00BBA8"/>
		<stop  offset="1" style="stop-color:#019593"/>
	</linearGradient>
	
		<linearGradient id="SVGID_00000096019514084406430710000016028319534609352625_" gradientUnits="userSpaceOnUse" x1="62.9365" y1="68.2879" x2="78.4843" y2="68.2879">
		<stop  offset="0" style="stop-color:#00BBA8"/>
		<stop  offset="1" style="stop-color:#019593"/>
	</linearGradient>
	
		<path style="fill:url(#SVGID_00000054234913348038961590000003516158351499669121_);stroke:url(#SVGID_00000096019514084406430710000016028319534609352625_);stroke-width:0.7848;stroke-miterlimit:10;" d="
		M68.9,74.5c0.8,0,1.7-0.2,2.4-0.6l4.6,5.3c0.2,0.2,0.6,0.4,1,0.4c0.2,0,0.6-0.1,0.7-0.2c0.5-0.4,0.6-1.2,0.1-1.7l-4.6-5.3
		c0.7-0.8,1.1-1.9,1.2-2.9c0.1-1.5-0.4-2.9-1.3-4c-0.7-0.8-1.7-1.5-2.8-1.8v-5.5c0-0.7-0.5-1.2-1.2-1.2c-0.7,0-1.2,0.5-1.2,1.2v5.4
		c-0.9,0.2-1.8,0.6-2.5,1.2c-2.3,2.1-2.7,5.5-0.6,7.8C65.9,73.9,67.4,74.5,68.9,74.5z M67,66.5c0.6-0.5,1.3-0.8,2.2-0.7
		c0.8,0,1.6,0.5,2.2,1.1c0.5,0.6,0.8,1.3,0.7,2.2c0,0.8-0.5,1.6-1.1,2.2c-1.3,1.1-3.3,1-4.4-0.4C65.4,69.7,65.7,67.7,67,66.5z"/>
	
		<linearGradient id="SVGID_00000000194799102783203160000003438250144457483176_" gradientUnits="userSpaceOnUse" x1="35.4514" y1="82.8432" x2="48.7937" y2="82.8432">
		<stop  offset="0" style="stop-color:#00CCB1"/>
		<stop  offset="1" style="stop-color:#01A69C"/>
	</linearGradient>
	
		<linearGradient id="SVGID_00000021121781078112951760000012599634920499004094_" gradientUnits="userSpaceOnUse" x1="35.059" y1="82.8432" x2="49.1861" y2="82.8432">
		<stop  offset="0" style="stop-color:#00CCB1"/>
		<stop  offset="1" style="stop-color:#01A69C"/>
	</linearGradient>
	
		<path style="fill:url(#SVGID_00000000194799102783203160000003438250144457483176_);stroke:url(#SVGID_00000021121781078112951760000012599634920499004094_);stroke-width:0.7848;stroke-miterlimit:10;" d="
		M42.1,73.3c2.4,0,4.2,1.8,4.2,4.2c0,0.7,0.5,1.2,1.2,1.2c0.7,0,1.2-0.5,1.2-1.2c0-3.2-2.4-6-5.5-6.6v-1.2c0-0.7-0.5-1.2-1.2-1.2
		c-0.7,0-1.2,0.5-1.2,1.2V71c-3.1,0.6-5.5,3.3-5.5,6.6c0,3.6,3,6.7,6.7,6.7c2.4,0,4.2,1.8,4.2,4.2c0,2.4-1.8,4.2-4.2,4.2
		c-2.4,0-4.2-1.8-4.2-4.2c0-0.7-0.5-1.2-1.2-1.2s-1.2,0.5-1.2,1.2c0,3.2,2.4,6,5.5,6.6v0.8c0,0.7,0.5,1.2,1.2,1.2
		c0.7,0,1.2-0.5,1.2-1.2V95c3.1-0.6,5.5-3.3,5.5-6.6c0-3.6-3-6.7-6.7-6.7c-2.4,0-4.2-1.8-4.2-4.2C37.9,75.1,39.7,73.3,42.1,73.3z"/>
</g>
<g class="st0">
	
		<linearGradient id="SVGID_00000158021119048710633470000005354767400539610515_" gradientUnits="userSpaceOnUse" x1="66.8438" y1="62.5923" x2="83.7622" y2="62.5923">
		<stop  offset="0" style="stop-color:#00CCB1"/>
		<stop  offset="1" style="stop-color:#018B8E"/>
	</linearGradient>
	
		<path style="display:inline;fill-rule:evenodd;clip-rule:evenodd;fill:url(#SVGID_00000158021119048710633470000005354767400539610515_);" d="
		M83.3,54.6c0.6,0.6,0.6,1.6,0,2.3L69.6,70.6c-0.6,0.6-1.6,0.6-2.3,0c-0.6-0.6-0.6-1.6,0-2.3L81,54.6C81.7,54,82.7,54,83.3,54.6z"/>
	
		<linearGradient id="SVGID_00000088122961890447955250000000366295296351107217_" gradientUnits="userSpaceOnUse" x1="65.7008" y1="57.5625" x2="74.8456" y2="57.5625">
		<stop  offset="0" style="stop-color:#00CCB1"/>
		<stop  offset="1" style="stop-color:#018B8E"/>
	</linearGradient>
	
		<path style="display:inline;fill-rule:evenodd;clip-rule:evenodd;fill:url(#SVGID_00000088122961890447955250000000366295296351107217_);" d="
		M70.3,58.9c0.8,0,1.4-0.6,1.4-1.4s-0.6-1.4-1.4-1.4c-0.8,0-1.4,0.6-1.4,1.4S69.5,58.9,70.3,58.9z M70.3,62.1c2.5,0,4.6-2,4.6-4.6
		c0-2.5-2-4.6-4.6-4.6s-4.6,2-4.6,4.6C65.7,60.1,67.7,62.1,70.3,62.1z"/>
	
		<linearGradient id="SVGID_00000006667414331180638840000014427646513859163571_" gradientUnits="userSpaceOnUse" x1="75.7604" y1="67.6221" x2="84.9053" y2="67.6221">
		<stop  offset="0" style="stop-color:#00CCB1"/>
		<stop  offset="1" style="stop-color:#018B8E"/>
	</linearGradient>
	
		<path style="display:inline;fill-rule:evenodd;clip-rule:evenodd;fill:url(#SVGID_00000006667414331180638840000014427646513859163571_);" d="
		M80.3,69c0.8,0,1.4-0.6,1.4-1.4c0-0.8-0.6-1.4-1.4-1.4c-0.8,0-1.4,0.6-1.4,1.4C79,68.4,79.6,69,80.3,69z M80.3,72.2
		c2.5,0,4.6-2,4.6-4.6c0-2.5-2-4.6-4.6-4.6c-2.5,0-4.6,2-4.6,4.6C75.8,70.1,77.8,72.2,80.3,72.2z"/>
	
		<linearGradient id="SVGID_00000052785386813493622480000000010084842565551491_" gradientUnits="userSpaceOnUse" x1="65.7008" y1="62.5923" x2="84.9053" y2="62.5923">
		<stop  offset="0" style="stop-color:#00B9A7"/>
		<stop  offset="1" style="stop-color:#019995"/>
	</linearGradient>
	
		<path style="display:inline;fill-rule:evenodd;clip-rule:evenodd;fill:url(#SVGID_00000052785386813493622480000000010084842565551491_);" d="
		M83.3,56.9c0.6-0.6,0.6-1.6,0-2.3c-0.6-0.6-1.6-0.6-2.3,0L67.3,68.3c-0.6,0.6-0.6,1.6,0,2.3c0.6,0.6,1.6,0.6,2.3,0L83.3,56.9z
		 M74.8,57.6c0,2.5-2,4.6-4.6,4.6s-4.6-2-4.6-4.6c0-2.5,2-4.6,4.6-4.6S74.8,55,74.8,57.6z M84.9,67.6c0,2.5-2,4.6-4.6,4.6
		c-2.5,0-4.6-2-4.6-4.6c0-2.5,2-4.6,4.6-4.6C82.9,63,84.9,65.1,84.9,67.6z M71.6,57.6c0,0.8-0.6,1.4-1.4,1.4c-0.8,0-1.4-0.6-1.4-1.4
		s0.6-1.4,1.4-1.4C71,56.2,71.6,56.8,71.6,57.6z M80.3,69c0.8,0,1.4-0.6,1.4-1.4c0-0.8-0.6-1.4-1.4-1.4c-0.8,0-1.4,0.6-1.4,1.4
		C79,68.4,79.6,69,80.3,69z"/>
	
		<linearGradient id="SVGID_00000018212899966856331490000011444595517091033788_" gradientUnits="userSpaceOnUse" x1="27.2917" y1="62.5871" x2="97.7083" y2="62.5871">
		<stop  offset="0" style="stop-color:#00CCB1"/>
		<stop  offset="1" style="stop-color:#018B8E"/>
	</linearGradient>
	
		<path style="display:inline;fill-rule:evenodd;clip-rule:evenodd;fill:url(#SVGID_00000018212899966856331490000011444595517091033788_);" d="
		M49.2,24.2c-4.4,0-8,3.6-8,8v27.4h-5.9c-6.7,0-10.4,7.8-6.3,13L49.4,98c3.2,4,9.3,4,12.5,0l10.5-13.2c1,0.1,1.9,0.2,2.9,0.2
		c12.4,0,22.4-10,22.4-22.4c0-12.4-10-22.4-22.4-22.4c-1.8,0-3.6,0.2-5.3,0.6v-8.6c0-4.4-3.6-8-8-8L49.2,24.2z M49.2,27.4
		c-2.7,0-4.8,2.1-4.8,4.8v29c0,0.9-0.7,1.6-1.6,1.6h-7.5c-4,0-6.3,4.7-3.8,7.8L51.9,96c1.9,2.4,5.6,2.4,7.5,0l9.5-11.9
		c-9.2-2.8-16-11.3-16-21.5c0-9.4,5.8-17.4,13.9-20.7v-9.7c0-2.7-2.1-4.8-4.8-4.8L49.2,27.4z M75.3,81.8c10.6,0,19.2-8.6,19.2-19.2
		c0-10.6-8.6-19.2-19.2-19.2c-1.8,0-3.6,0.3-5.3,0.7c-1.1,0.3-2.2,0.7-3.2,1.2c-6.4,3.1-10.7,9.7-10.7,17.2c0,9.2,6.4,16.8,15,18.7
		c1.2,0.3,2.4,0.4,3.7,0.5C75,81.8,75.1,81.8,75.3,81.8z"/>
</g>
</svg>
