<svg width="56" height="56" viewBox="0 0 56 56" fill="none" xmlns="http://www.w3.org/2000/svg">
<path d="M40.06 5.91C35.31 5.94 30.87 2.5 22.34 5.28C22.34 5.28 14.53 8.11 11.17 19.49C11.17 19.49 22.86 22.49 28.68 19.32C36.43 15.66 40.04 5.91 40.06 5.91Z" stroke="#2E9372" stroke-width="2.4157" stroke-miterlimit="10" stroke-linecap="round" stroke-linejoin="round"/>
<path d="M31.83 9.94C31.83 9.94 14.1 11.75 6.75 25.29" stroke="#2E9372" stroke-width="2.4157" stroke-miterlimit="10" stroke-linecap="round" stroke-linejoin="round"/>
<path d="M1.94 31.87C4.35 35.97 3.58 41.54 10.25 47.53C10.25 47.53 16.61 52.88 28.14 50.1C28.14 50.1 24.89 38.48 19.23 35.02C12.21 30.14 1.96 31.9 1.94 31.87Z" stroke="#2E9372" stroke-width="2.4157" stroke-miterlimit="10" stroke-linecap="round" stroke-linejoin="round"/>
<path d="M9.55 36.99C9.55 36.99 19.98 51.44 35.38 51.04" stroke="#2E9372" stroke-width="2.4157" stroke-miterlimit="10" stroke-linecap="round" stroke-linejoin="round"/>
<path d="M44.55 51.81C46.9 47.68 52.1 45.55 53.96 36.78C53.96 36.78 55.41 28.6 47.24 20C47.24 20 38.8 28.62 38.63 35.25C37.92 43.79 44.56 51.78 44.55 51.81Z" stroke="#2E9372" stroke-width="2.4157" stroke-miterlimit="10" stroke-linecap="round" stroke-linejoin="round"/>
<path d="M45.18 42.66C45.18 42.66 52.48 26.4 44.43 13.27" stroke="#2E9372" stroke-width="2.4157" stroke-miterlimit="10" stroke-linecap="round" stroke-linejoin="round"/>
</svg>
