<svg id="Capa_1" enable-background="new 0 0 512 512" height="512" viewBox="0 0 512 512" width="512" xmlns="http://www.w3.org/2000/svg"><g><path d="m512 97.5c0-12.407-10.093-22.5-22.5-22.5h-68.5c-12.407 0-22.5 10.093-22.5 22.5 0 9.778 6.271 18.114 15 21.21v325.79c0 4.142 3.358 7.5 7.5 7.5h68.5c4.142 0 7.5-3.358 7.5-7.5v-325.79c8.729-3.096 15-11.432 15-21.21zm-30 22.5v15h-53.5v-15zm-53.5 317v-287h53.5v287zm61-332h-68.5c-4.136 0-7.5-3.364-7.5-7.5s3.364-7.5 7.5-7.5h68.5c4.136 0 7.5 3.364 7.5 7.5s-3.364 7.5-7.5 7.5z"/><path d="m113.5 97.5c0-12.407-10.093-22.5-22.5-22.5h-68.5c-12.407 0-22.5 10.093-22.5 22.5 0 9.778 6.271 18.114 15 21.21v325.79c0 4.142 3.358 7.5 7.5 7.5h68.5c4.142 0 7.5-3.358 7.5-7.5v-325.79c8.729-3.096 15-11.432 15-21.21zm-30 22.5v15h-53.5v-15zm-53.5 317v-287h53.5v287zm61-332h-68.5c-4.136 0-7.5-3.364-7.5-7.5s3.364-7.5 7.5-7.5h68.5c4.136 0 7.5 3.364 7.5 7.5s-3.364 7.5-7.5 7.5z"/><path d="m391 135h-26.396l-39.007-48.759c-13.341-16.677-33.241-26.241-54.597-26.241-4.142 0-7.5 3.358-7.5 7.5v347c0 4.142 3.358 7.5 7.5 7.5h120c4.142 0 7.5-3.358 7.5-7.5v-272c0-4.142-3.358-7.5-7.5-7.5zm-7.5 75v15h-105v-15zm-30-15h-15v-68.619l15 18.75zm-75 45h15v107h-15zm30 0h15v107h-15zm15 122v45h-15v-45zm15 0h15v45h-15zm0-15v-107h15v107zm30-107h15v107h-15zm15-45h-15v-45h15zm-69.616-99.389 9.616 12.02v87.369h-15v-105.216c1.915 1.795 3.715 3.74 5.384 5.827zm-20.384-15.821v115.21h-15v-119.494c5.222.711 10.266 2.161 15 4.284zm-15 282.21h15v45h-15zm90 45v-45h15v45z"/><path d="m241 60c-21.356 0-41.256 9.564-54.597 26.241l-39.007 48.759h-26.396c-4.142 0-7.5 3.358-7.5 7.5v272c0 4.142 3.358 7.5 7.5 7.5h120c4.142 0 7.5-3.358 7.5-7.5v-347c0-4.142-3.358-7.5-7.5-7.5zm-82.5 85.131 15-18.75v68.619h-15zm75 64.869v15h-105v-15zm-105 30h15v107h-15zm30 0h15v107h-15zm15 122v45h-15v-45zm15 0h15v45h-15zm0-15v-107h15v107zm30-107h15v107h-15zm15-45h-15v-115.21c4.734-2.123 9.778-3.573 15-4.284zm-35.384-99.389c1.669-2.087 3.47-4.031 5.384-5.827v105.216h-15v-87.37zm-54.616 54.389v45h-15v-45zm-15 212h15v45h-15zm90 45v-45h15v45z"/></g></svg>