<svg id="Layer_1" enable-background="new 0 0 66 66" height="512" viewBox="0 0 66 66" width="512" xmlns="http://www.w3.org/2000/svg"><g><path d="m55.64 41.65-11.22 4.74c.02-.14.04-.28.04-.43 0-2.18-1.77-3.95-3.95-3.95h-8.08c-.33 0-.65-.07-.95-.21l-6.85-3.1c-1.07-.48-2.26-.74-3.43-.74h-5.58v2h5.58c.89 0 1.79.19 2.61.56l6.85 3.1c.56.25 1.16.38 1.78.38h8.08c1.08 0 1.95.88 1.95 1.95s-.88 1.95-1.95 1.95h-10.47v2h10.46c.69 0 1.33-.19 1.89-.5v.01l14.01-5.93c1.16-.49 2.43-.48 3.58.02.88.39 1.6 1.02 2.08 1.84l-24.73 13.12c-1.89 1-4.14 1.2-6.18.55l-12.1-3.89-3.45-.05v2h2.99l11.95 3.84c.99.32 2.01.47 3.04.47 1.62 0 3.24-.39 4.68-1.16l26.35-13.96-.29-.82c-.61-1.7-1.87-3.04-3.53-3.77-1.66-.71-3.49-.73-5.16-.02z"/><path d="m13.45 58.64v-21.23c0-1.1-.9-2-2-2h-10.07v2h10.07v21.24h-10.07v2h10.07c1.1-.01 2-.91 2-2.01z"/><path d="m8.82 55.53c0 .77-.63 1.4-1.4 1.4-.78 0-1.41-.63-1.41-1.4 0-.78.63-1.41 1.41-1.41.77 0 1.4.63 1.4 1.41z"/><path d="m25.04 28.43 1.08.8 7.44-4.12 6.73 4.05.58.34 1.08-.78-1.62-8.34 5.95-5.16.48-.46-.42-1.24-8.42-1.04-3.06-7.24-.28-.6-.64-.01h-.68l-3.59 7.71-7.84.66-.67.08-.4 1.25 6.21 5.79zm-.85-13.62 6.22-.54.59-.07 2.87-6.16 2.43 5.73.25.55 6.76.83-4.68 4.06-.47.4 1.3 6.7-5.36-3.23-.51-.27-5.93 3.29 1.39-6 .17-.62z"/><path d="m11.89 24.74-1.45 6.23-.2.72 1.13.83 6.23-3.45 5.5 3.3.62.39 1.11-.81-1.36-6.99 1.45-1.25-1.31-1.51-1.93 1.67-.29.34v.4l.94 4.97-4.06-2.45-.21-.2-.85-.02-.2.2-4.15 2.3 1.12-4.86v-.59l-3.89-3.62 4.76-.42.46-.01.42-.42 2.13-4.58 1.92 4.53.31.59h.56l2.41.3.25-1.99-1.93-.23-2.54-6-.34-.64-1.38.11-.19.59-2.7 5.81-6.36.55-.79.04-.42 1.46.55.36z"/><path d="m44.76 18.11.18 1.99 1.93-.18.45-.02.42-.42 2.13-4.58 1.83 4.31.02.81h.94l4.77.59-3.71 3.22-.33.35v.43l.95 4.96-4.07-2.44-.21-.21-.88.01-.18.19-4.13 2.29 1.13-4.86-.01-.59-2.56-2.39-1.37 1.46 1.83 1.71-1.44 6.23-.2.67 1.09.9 6.27-3.47 5.51 3.31.62.38 1.09-.82-1.36-6.98 4.81-4.17c.33-.26.47-.7.36-1.1l-.23-.71-7.02-.86-2.56-6.02-.3-.55-1.19-.04-.31.49-2.8 5.98z"/></g></svg>