<svg version="1.2" xmlns="http://www.w3.org/2000/svg" viewBox="0 0 512 512" width="512" height="512">
	<title>whatsapp_old-svg</title>
	<style>
		.s0 { fill: #25d366 } 
		.s1 { fill: #ffffff } 
	</style>
	<path id="Layer" fill-rule="evenodd" class="s0" d="m256 0c141.4 0 256 114.6 256 256 0 141.4-114.6 256-256 256-141.4 0-256-114.6-256-256 0-141.4 114.6-256 256-256z"/>
	<path id="Layer" fill-rule="evenodd" class="s1" d="m398.8 256c0 78.7-64.1 142.8-142.8 142.8-23.5 0-46.6-5.9-67.2-16.9-11.2 3.1-55 16.9-63.1 16.9-3.6 0-7.1-1.6-9.5-4.4-3.1-3.7-3.8-8.9-1.8-13.3l21.7-47.7c-15-23.1-22.8-49.7-22.8-77.4 0-78.7 64-142.8 142.7-142.8 78.7 0.1 142.8 64.1 142.8 142.8zm-25 0c0-65-52.8-117.8-117.8-117.8-65 0-117.8 52.8-117.8 117.8 0 24.9 7.7 48.7 22.2 68.8 2.6 3.7 3.1 8.4 1.3 12.5l-13.6 29.9 39-10.7c3.2-0.9 6.7-0.4 9.6 1.3 17.9 10.5 38.5 16 59.3 16 65 0 117.8-52.8 117.8-117.8z"/>
	<path id="Layer" fill-rule="evenodd" class="s1" d="m290.1 272.7c-5.4 2.2-8.9 10.7-12.4 15-1.8 2.2-3.9 2.5-6.7 1.4-20.3-8-35.8-21.6-47-40.2-1.9-2.9-1.6-5.2 0.7-7.9 3.4-4 7.7-8.5 8.6-13.9 2-11.8-13.5-48.7-34-32-58.9 48.1 98.3 175.5 126.7 106.6 8.1-19.6-27-32.7-35.9-29z"/>
</svg>