<?xml version="1.0" encoding="utf-8"?>
<!-- Generator: Adobe Illustrator 25.4.1, SVG Export Plug-In . SVG Version: 6.00 Build 0)  -->
<svg version="1.1" xmlns="http://www.w3.org/2000/svg" xmlns:xlink="http://www.w3.org/1999/xlink" x="0px" y="0px"
	 viewBox="0 0 1080 1080" style="enable-background:new 0 0 1080 1080;" xml:space="preserve">
<style type="text/css">
	.st0{fill:#00968B;}
</style>
<g id="Capa_1">
	<g>
		<path class="st0" d="M767.51,959.55c-46.39,0-92.79,0.04-139.18-0.01c-29.63-0.03-52.82-18.05-58.67-45.4
			c-5.72-26.79,8.01-52.89,34.37-65.09c3.82-1.77,7.08-3.01,7.54-8.41c1.92-22.59,13.79-38.61,34.28-47.82
			c6.04-2.72,8.24-5.89,8.22-12.52c-0.24-59.39-0.13-118.79-0.18-178.19c0-2.59,1.21-6.15-0.95-7.57c-3.08-2.02-5.15,1.79-7.39,3.31
			c-43.2,29.26-97.06,28.95-139.56-1.33c-5.43-3.87-9.02-4.26-14.67-0.24c-43.09,30.67-96.47,30.94-140.27,1.26
			c-2.05-1.39-3.91-4.78-6.66-3.21c-2.54,1.44-1.21,4.89-1.21,7.42c-0.07,49.35,0.1,98.7-0.21,148.05
			c-0.05,7.74,2.16,10.57,10.03,10.09c9.71-0.6,19.5-0.22,29.25-0.11c12.65,0.14,17.54,5.05,17.58,17.91
			c0.08,28.37,0.29,56.74-0.13,85.1c-0.12,8.05,2.08,11.46,10.43,10.52c8.15-0.92,14.74,1.97,17.44,10.32
			c3.27,10.13-3.92,18.76-15.63,19.19c-12.06,0.43-12.06,0.43-12.08,12.17c-0.01,9.75,0.17,19.51-0.1,29.25
			c-0.26,9.42-6.19,15.29-14.82,15.24c-8.61-0.05-14.4-5.93-14.62-15.44c-0.24-10.63-0.36-21.29,0.02-31.91
			c0.24-6.62-1.44-9.65-8.85-9.43c-21.62,0.64-18.04-2.3-18.36,18.41c-0.12,7.68,0.14,15.37-0.1,23.05
			c-0.3,9.45-6.14,15.33-14.75,15.32c-8.62-0.01-14.48-5.88-14.69-15.36c-0.25-11.22-0.3-22.46-0.01-33.68
			c0.15-5.84-2.19-7.7-7.85-7.68c-41.67,0.15-83.33,0.18-125-0.03c-6.5-0.03-8.06,2.72-7.9,8.54c0.29,10.63,0.2,21.28,0.02,31.91
			c-0.17,10.21-5.77,16.26-14.69,16.29c-8.95,0.03-14.64-6-14.81-16.16c-0.18-10.93-0.26-21.87,0.02-32.8
			c0.15-5.75-2-8.23-7.76-7.72c-2.34,0.21-4.74,0.13-7.08-0.1c-8.19-0.82-13.53-6.71-13.51-14.72c0.02-8.02,5.38-13.79,13.6-14.66
			c14.68-1.54,14.68-1.54,14.68-16.74c0-25.41-0.02-50.83,0.01-76.24c0.02-16.45,4.06-20.57,20.26-20.58
			c46.39-0.02,92.79-0.21,139.18,0.17c8.59,0.07,11-2.51,10.94-11.01c-0.37-49.05-0.16-98.11-0.24-147.16c0-2.49,1.44-5.97-1.35-7.3
			c-2.66-1.27-4.67,1.85-6.77,3.27c-75.95,51.11-176.09,7.18-189.8-83.31c-7.21-47.55,16.59-96.34,59.78-121.42
			c6.54-3.8,8.24-6.56,5.07-14.16c-21.24-50.78-3.6-108.76,42.25-139.02c6.75-4.46,8.54-8.4,6.98-16.37
			c-11.33-57.86,36.2-114.43,95.12-116.45c59.1-2.03,114.82,50.9,101.69,119.83c-1.08,5.66,0.88,8.38,5.39,11.36
			c48.79,32.33,65.97,88.61,43.6,143.05c-2.2,5.35-0.47,6.91,3.41,10.46c13.67,12.52,26,11.76,39.62-0.08
			c4.15-3.61,5.3-5.37,3.17-10.53c-22.37-54.24-5.16-110.34,43.84-142.97c4.59-3.06,6.17-5.92,5.21-11.45
			c-10.01-57.54,24.39-107.3,81.56-118.33c57.85-11.16,115.78,36.1,116.42,95c0.05,5.02,1.11,10.47-0.43,14.99
			c-4.27,12.53,1.76,18.26,11.41,25.25c42.58,30.86,57.43,87.18,36.79,136.27c-2.59,6.15-2,8.87,3.99,12.35
			c46.85,27.2,69.61,76.87,59.79,129.39c-9.34,49.98-50.39,89.26-102.87,96.68c-30.95,4.38-59.9-2.62-85.83-20.71
			c-2.03-1.41-3.94-4.76-6.67-3.18c-2.5,1.45-1.18,4.9-1.18,7.43c-0.06,59.69-0.07,119.38,0.02,179.07c0,2.98-1.65,7.3,2.53,8.48
			c4.08,1.16,5.02-3.37,6.82-5.79c16.49-22.21,43.55-29.84,69.47-19.17c3.84,1.58,6.93,1.79,10.87,0.18
			c27.01-11.04,52.89-3.64,70.45,20.22c3.04,4.13,5.89,5.56,11.08,4.61c36.14-6.59,65.17,14.75,69.62,51.38
			c0.72,5.96,4.62,6.84,8.52,8.65c38.74,17.96,46.65,67.03,15.27,95.66c-10.66,9.73-23.41,14.67-37.99,14.45
			c-0.59-0.01-1.18,0.01-1.77,0.01C861.48,959.55,814.49,959.55,767.51,959.55z M343.12,367.22c0.76,0.31,1.51,0.61,2.27,0.92
			c8.85-9.07,17.6-18.24,26.57-27.19c8.02-8.01,16.87-8.88,23.36-2.63c6.72,6.46,5.91,15.65-2.37,24.01
			c-14.35,14.48-28.67,28.99-43.3,43.18c-4.57,4.43-6.7,8.96-6.66,15.48c0.27,38.99,0.26,77.99,0.01,116.98
			c-0.04,6.71,2.05,11.94,6.27,16.85c21.77,25.32,48.9,36.84,82.47,33.35c39.37-4.09,79.91-37.79,79.98-91.29
			c0.05-39.04-24.95-71.99-62.17-85.36c-16.45-5.91-19.31-14.43-9.53-28.8c10.31-15.14,15.94-32.04,14.85-50.1
			c-2.12-35.08-19.26-60.61-51.68-75.39c-11.95-5.44-14.31-11.71-9.92-24.27c3.93-11.27,5.95-22.65,4.15-34.73
			c-4.2-28.07-19.66-47.36-45.98-56.75c-26.8-9.57-51.48-3.94-71.87,16.08c-20.39,20.03-25.81,44.42-17.53,71.64
			c5.75,18.91,4.99,21.25-12.99,30.14c-45.91,22.7-61.32,79.48-33.19,122.27c10.71,16.29,8.28,23.41-10.06,30.28
			c-38.27,14.32-61.49,47.89-60.94,87.13c0.86,60.54,57.68,102.42,116.2,86.6c19.76-5.34,35.51-17.01,48.08-33.08
			c8.05-10.29,2.87-22.29,4.36-33.42c0.73-5.47-1.58-9.45-5.46-13.24c-14.16-13.83-28.06-27.92-42.05-41.92
			c-10.22-10.24-11.91-18.83-5.14-25.9c7.03-7.33,15.97-5.7,26.53,4.84c8.2,8.18,16.4,16.38,26.11,26.09c0-5.82,0-9.04,0-12.25
			c0-44.31-0.03-88.63,0.03-132.94c0.02-11.71,5.33-17.92,14.89-17.86c9.44,0.06,14.61,6.35,14.67,18.1
			C343.17,338.42,343.12,352.82,343.12,367.22z M683.54,367.25c0.77,0.28,1.54,0.55,2.31,0.83c8.85-9.08,17.69-18.16,26.55-27.22
			c2.7-2.76,5.48-5.53,9.45-6.26c7.1-1.29,13.09,0.71,16.56,7.28c3.6,6.81,2.16,13.17-3.24,18.59
			c-14.81,14.86-29.47,29.86-44.55,44.43c-5.05,4.88-7.29,9.9-7.23,17.02c0.31,38.4,0.31,76.81,0.01,115.21
			c-0.06,7.35,2.19,13.06,6.89,18.42c22.27,25.37,49.79,36.84,83.63,32.47c41.29-5.34,79.19-41.55,78.25-91.9
			c-0.74-39.86-25.08-71.28-62.84-84.84c-15.71-5.65-18.57-14.45-9.03-28.4c10.34-15.12,16.03-32.01,14.98-50.07
			c-2.03-35.07-19.09-60.68-51.49-75.51c-12.06-5.52-14.59-11.77-10.17-24.15c4.45-12.45,6.07-25.05,3.82-38.25
			c-5.16-30.29-31.9-58.88-70.51-57.65c-49.14,1.57-79.81,48.62-63.38,95.07c4.78,13.51,2.43,19.09-10.7,25.37
			c-50.26,24.06-65.65,80.33-34.64,126.61c7.93,11.84,5,21.62-8.35,26.51c-7.8,2.86-15.26,6.25-22.51,10.29
			c-6.5,3.62-7.39,6.94-3.35,13.88c24.36,41.86,24.41,84.19-0.06,126.02c-4.13,7.05-2.75,10.14,3.54,13.81
			c32.48,18.96,65.16,19.52,97.35,0.17c18.98-11.41,33.01-26.17,29.5-51.58c-1.16-8.37-2.72-14.86-9-20.79
			c-13.96-13.18-27.31-27-40.83-40.63c-8.47-8.53-9.57-17.39-3.16-24.01c6.66-6.87,15.69-5.78,24.65,3.07
			c7.35,7.27,14.58,14.66,21.99,21.88c1.52,1.48,2.5,4.19,5.96,3.41c0-3.24,0-6.47,0-9.7c0-43.72-0.01-87.44,0.01-131.17
			c0.01-13.23,5-19.67,14.99-19.55c9.87,0.11,14.58,6.51,14.61,19.95C683.56,339.66,683.54,353.46,683.54,367.25z M767.57,929.93
			c44.89,0,89.78,0.01,134.67-0.02c3.53,0,7.13,0.07,10.59-0.5c15.07-2.49,25.55-14.84,24.69-28.8
			c-0.85-13.78-12.07-24.63-26.88-25.99c-16.1-1.48-20.19-6.78-17.17-22.27c2.5-12.8-1.3-23.09-10.88-29.51
			c-10.04-6.73-21.08-6.25-32.16,1.37c-13.52,9.31-23.22,5.54-27.29-10.62c-5.8-23-24.69-30.32-44.49-17.05
			c-6.93,4.64-13.46,5.05-20.56,0.47c-21.74-14.01-38.88-7.08-45.68,18.31c-3.71,13.85-13.92,18.06-25.33,9.81
			c-10.97-7.92-22.09-9.93-33.6-2.2c-11.19,7.52-13.54,18.44-10.67,31.2c2.9,12.9-2.49,19.63-15.67,20.46
			c-16.82,1.06-28.83,12.7-28.67,27.8c0.16,15.09,12.39,26.64,29.12,27.46c2.95,0.14,5.91,0.06,8.86,0.06
			C680.15,929.94,723.86,929.93,767.57,929.93z M271.57,816.46c27.48,0,54.96,0.07,82.44-0.02c18.08-0.06,15.6,2.09,16.42-15.96
			c0.42-9.19-2.69-11.39-11.54-11.33c-56.14,0.38-112.28,0.11-168.42,0.24c-19.86,0.05-17.12-3.08-17.69,18.15
			c-0.19,7.11,2.41,9.12,9.25,9.05C211.89,816.29,241.73,816.46,271.57,816.46z M242.32,873.2c18.03,0,36.05,0.11,54.08-0.03
			c19.34-0.15,16.63,2.77,17.24-17.74c0.23-7.52-2.51-9.54-9.71-9.49c-37.53,0.29-75.06-0.01-112.58,0.19
			c-20.89,0.11-18.06-3.69-18.53,19.04c-0.13,6.29,2.3,8.19,8.33,8.11C201.54,873.04,221.93,873.19,242.32,873.2z M370.24,859.68
			c0-13.59,0-13.59-12.42-13.6c-14.69-0.02-14.69-0.02-14.7,13.08c-0.01,14.03-0.01,14.03,12.86,14.04
			C370.24,873.21,370.24,873.21,370.24,859.68z"/>
		<path class="st0" d="M455.36,901.74c0-13.27-0.1-26.55,0.03-39.82c0.12-11.74,5.11-16.93,16.58-17.04
			c17.7-0.16,35.39-0.16,53.09,0c11.46,0.1,16.54,5.32,16.59,17.03c0.12,26.84,0.12,53.68,0,80.52
			c-0.05,12.02-5.21,16.99-17.47,17.07c-17.11,0.11-34.21,0.11-51.32,0c-12.56-0.08-17.4-5.09-17.49-17.95
			C455.28,928.29,455.35,915.02,455.36,901.74z M512.08,901.4c0-2.66,0.06-5.32-0.01-7.98c-0.54-21.51,4.55-18.74-20.32-19.01
			c-4.93-0.05-6.9,1.94-6.82,6.85c0.17,10.04,0.04,20.09,0.03,30.14c0,20.41-0.01,20.29,20.79,18.6c4.45-0.36,6.42-1.96,6.35-6.44
			C511.97,916.17,512.06,908.79,512.08,901.4z"/>
		<path class="st0" d="M768.34,830.73c8.61,0.16,14.78,6.8,14.4,15.48c-0.36,8.2-6.74,14.12-15.04,13.96
			c-8.6-0.16-14.77-6.8-14.39-15.49C753.67,836.46,760.01,830.58,768.34,830.73z"/>
		<path class="st0" d="M853.17,859.1c8.64,0.03,14.92,6.54,14.67,15.21c-0.24,8.23-6.5,14.25-14.78,14.23
			c-8.64-0.03-14.9-6.53-14.66-15.22C838.64,865.06,844.86,859.08,853.17,859.1z"/>
		<path class="st0" d="M697.63,888.24c-0.12,8.6-6.74,14.82-15.41,14.48c-8.22-0.33-14.14-6.65-14.03-14.97
			c0.12-8.63,6.69-14.81,15.4-14.47C691.81,873.61,697.75,879.94,697.63,888.24z"/>
	</g>
</g>
<g id="Capa_2">
</g>
<g id="Capa_3">
</g>
<g id="Capa_4">
</g>
<g id="Capa_5">
</g>
<g id="Capa_6">
</g>
<g id="Capa_7">
</g>
</svg>
