<?xml version="1.0" encoding="utf-8"?>
<!-- Generator: Adobe Illustrator 25.4.1, SVG Export Plug-In . SVG Version: 6.00 Build 0)  -->
<svg version="1.1" id="Layer_1" xmlns="http://www.w3.org/2000/svg" xmlns:xlink="http://www.w3.org/1999/xlink" x="0px" y="0px"
	 viewBox="0 0 512 512" style="enable-background:new 0 0 512 512;" xml:space="preserve">
<style type="text/css">
	.st0{display:none;}
	.st1{display:inline;fill:#00968B;}
	.st2{display:inline;}
	.st3{fill:#00968B;}
	.st4{fill:none;stroke:#00968B;stroke-width:16;stroke-linecap:round;stroke-linejoin:round;stroke-miterlimit:13.3333;}
</style>
<g class="st0">
	<path class="st1" d="M330.6,386.4c-3.9-2.3-9-1.6-11.4,2.3c-2.3,3.9-1.6,9,2.3,11.4c4.7,3.1,10.2,4.7,16.1,4.7
		c5.9,0,11.7-2,16.4-5.1c3.5-2.7,4.7-7.8,2-11.4c-2.7-3.5-7.8-4.7-11.4-2C340.4,388.7,334.5,389.1,330.6,386.4L330.6,386.4z"/>
	<path class="st1" d="M368.6,308.5c4.7,0,8.2-3.5,8.2-8.2c0-3.9-2.7-7-6.7-7.8c-3.5-50.9-38.8-89.3-86.1-93.2l-0.4-14.1
		c0-4.3-3.9-8.2-8.2-8.2h-3.9v-18c0-4.7-3.5-8.2-8.2-8.2h-22.3v-12.9c4.7-1.6,9-3.9,12.5-7.4h52.1c11,0,20-9,20-20s-8.6-20-20-20
		h-50.9c-5.5-6.3-13.3-10.2-21.9-10.2s-16.4,3.9-21.9,10.2h-50.9c-11,0-20,9-20,20s9,20,20,20H212c3.5,3.5,7.8,5.9,12.5,7.4v12.9
		H201c-4.7,0-8.2,3.5-8.2,8.2s3.5,8.2,8.2,8.2h54.4v9.8h-64.2c-4.7,0-8.2,3.5-8.2,8.2v13.7h-42.7c0-4.3-3.5-7.8-8.2-7.8
		s-8.2,3.5-8.2,8.2V283c0,4.7,3.5,8.2,8.2,8.2s8.2-3.5,8.2-8.2v-9h49.3c10.6,12.9,26.6,20.7,43.8,20.7c16.8,0,32.9-7.8,43.8-20.7
		c11.4,0.4,20.7,8.2,23.9,18.4c-3.9,0.4-7,3.9-7,7.8c0,4.7,3.5,8.2,8.2,8.2h27.4c-9,10.6-41.9,50.1-41.9,73.2
		c0,27.8,22.3,50.1,50.1,50.1c27.8,0,50.1-22.3,50.1-50.1c0-23.5-32.9-62.6-41.9-73.2L368.6,308.5z M262.1,106.8h43.8
		c2,0,3.9,1.6,3.9,3.9c0,2-1.6,3.9-3.9,3.9h-43.8c0.4-1.6,0.4-2.7,0.4-4.3C262.5,109.2,262.1,108,262.1,106.8z M159.9,114.7
		c-2,0-3.9-1.6-3.9-3.9c0-2,1.6-3.9,3.9-3.9h43.8c0,1.2-0.4,2-0.4,3.1c0,1.6,0.4,3.1,0.4,4.3h-43.8L159.9,114.7z M219.8,110
		c0-7,5.9-12.9,12.9-12.9s12.9,5.9,12.9,12.9s-5.9,12.9-12.9,12.9S219.8,117.4,219.8,110z M318.1,292c-3.9-19.6-21.1-34.5-41.9-34.5
		H273c-2.7,0-5.1,1.2-6.7,3.5c-7.4,11-20,17.2-32.9,17.2c-12.9,0-25.4-6.7-32.9-17.2c-1.6-2.3-3.9-3.5-6.7-3.5h-53.6v-42.3h50.9
		c4.7,0,8.2-3.5,8.2-8.2v-13.7h64.2h3.9l0.4,13.7c0,4.3,3.9,8.2,8.2,8.2c41.9,0,74.4,32.5,77.9,76.7H318.1z M371.3,381.7
		c0,18.4-15.3,33.7-33.7,33.7S304,400.1,304,381.7c0-12.9,18.8-39.5,33.7-57.5C352.5,342.1,371.3,369.1,371.3,381.7z"/>
</g>
<g class="st0">
	<path class="st1" d="M485,81.5c0,131.1,0,262.2,0,393.3c-3.6,5-8.7,5.6-14.3,5.6c-142.7-0.1-285.4,0-428.2,0c-1.5,0-3,0-4.5,0
		C30.4,480,27,476.5,27,468.9c0-127.4,0-254.8-0.1-382.1c0-5.1,1.9-8.4,6.2-11c6.4-3.8,12.6-8,19-11.8c2.8-1.6,3.9-3.7,3.9-6.9
		c-0.1-5.1-0.2-10.1,0.1-15.2c0.4-6.6,4.5-10.6,10-10.3c5.3,0.3,8.8,4.5,8.9,10.9c0.1,4.9,0.2,9.8,0,14.7c-0.1,2.9,1.1,4.7,3.5,6.1
		c7,4,13.8,8.3,20.7,12.4c4.5,2.6,6.4,6.2,6.3,11.4c-0.2,14.4-0.1,28.9-0.1,43.4c0,5,0.8,5.8,5.8,5.2c21.3-2.4,41.7-7.7,61-17.6
		c26.2-13.4,54.5-20.5,83.9-20.5c29.3,0,57.4,7.1,83.4,20.5c19.4,10,40,15.1,61.4,17.6c5.2,0.6,6-0.1,6-5.5c0-14.6,0.1-29.2,0-43.8
		c0-4.7,1.8-7.9,5.7-10.3c6.4-3.9,12.6-8,19-11.8c3.3-1.9,4.5-4.3,4.4-8c-0.2-5.1-0.1-10.1,0.3-15.2c0.5-6,4.6-9.7,9.8-9.5
		c5.2,0.3,8.8,4.4,9,10.3c0.1,4.9,0.2,9.8,0,14.7c-0.1,3.2,1,5.2,3.8,6.8c6.7,3.8,13.3,7.9,20,11.9C481.3,77,483.6,78.8,485,81.5z
		 M105.5,273c0,17.6,0,35.1,0,52.7c0,5.8,0.2,6,6.1,6c7.1,0,14.3,0,21.4,0c6.5,0,6.6-0.1,6.6-6.4c0-14.6,0.1-29.2,0-43.8
		c0-4.1,1.3-7.3,5-9.3c6.4-3.4,13.5,1.1,13.6,8.7c0.1,15.2,0.1,30.4,0,45.6c0,3.8,1.3,5.4,5.2,5.3c7.6-0.2,15.2-0.2,22.8,0
		c4.4,0.1,5.6-1.6,5.6-5.8c-0.1-35.1-0.1-70.3,0-105.4c0-4.3-1.5-5.6-5.7-5.6c-24.9,0.2-49.7,0.1-74.6,0.1c-5.8,0-5.9,0.1-5.9,6.1
		C105.5,238.4,105.5,255.7,105.5,273z M86.9,258.1c0-32.2,0-64.4,0-96.5c0-5.4-0.4-5.8-5.9-5.9c-10.1,0-20.3,0.1-30.4,0
		c-3.5,0-5.1,1.2-5.1,5c0.1,65,0.1,129.9,0,194.9c0,3.7,1.4,5,5,5c10-0.1,20,0,29.9,0c6.1,0,6.4-0.3,6.4-6.2
		C86.9,322.1,86.9,290.1,86.9,258.1z M425.5,258.1c0,32.2,0,64.4,0,96.5c0,3.3,0.2,5.9,4.6,5.8c10.7-0.1,21.5-0.1,32.2,0
		c3.6,0,4.7-1.6,4.6-5c-0.2-5.2,0-10.4,0-15.6c0-59.1,0-118.3,0-177.4c0-6.6-0.1-6.7-6.8-6.7c-9.4,0-18.8,0-28.2,0
		c-6,0-6.3,0.3-6.3,6.3C425.5,194,425.5,226,425.5,258.1z M336.2,350.9c-21.6,0-43.2,0-64.8,0c-5.9,0-6.1,0.2-6.1,6
		c0,32.8,0,65.5,0,98.3c0,5.8,0.2,6,6.1,6c38.7,0,77.4,0,116.2,0c5.8,0,6.1-0.3,6.1-6c0-25.6,0-51.2,0-76.8c0-2.8-0.1-5.7,0.2-8.5
		c0.6-5.3,3-8.2,8.3-9c4.3-0.6,4.8-3.1,4.6-6.6c-0.2-3.9-3-3.4-5.5-3.4C379.7,350.9,358,350.9,336.2,350.9z M175.8,350.9
		c-21.9,0-43.8,0-65.7,0c-2.4,0-4.6,0.2-4.6,3.4c0,2.8-0.5,5.6,3.7,6.4c7,1.4,9.1,4.3,9.5,11.4c0.1,1.6,0,3.3,0,4.9
		c0,25.9,0,51.8,0,77.8c0,6.2,0.2,6.4,6.1,6.4c38.4,0,76.9,0,115.3,0c5.9,0,6.1-0.2,6.1-6c0-32.8,0-65.5,0-98.3c0-5.8-0.3-6-6.1-6
		C218.7,350.9,197.2,350.9,175.8,350.9z M320.6,195.9c16.5,0,33.1,0,49.6,0c5.8,0,7.1-2,5.5-7.5c-1.7-5.7-6.7-9.5-13.4-10.1
		c-8.6-0.8-16.9,0.9-24.9,4.1c-5.9,2.4-11.8,4.9-17.9,7c-7.3,2.5-14.8,3.2-22.4,1.3c-13.8-3.5-22.4-15.8-21.6-30.4
		c0.7-12.8,11.4-23.4,25-25.1c6.4-0.8,11.8,3.2,12,9.1c0.2,5.2-3.4,8.8-10,9.9c-5,0.9-8.3,4.5-8.2,9c0.1,4.5,3.6,8.5,8.3,9.2
		c4.3,0.7,8.6,0.2,12.7-1.4c5-2,9.9-4,14.9-6c9.8-3.9,19.9-6.2,30.5-5.8c19.8,0.6,33.1,13.3,34.3,32.7c0.3,4.7,3.3,4.1,6.3,4.1
		c3,0.1,5.7,0,5.7-4.3c-0.1-9.5,0-19.1,0-28.6c0-7.9,0-7.9-8-8.7c-0.1,0-0.3,0-0.4,0c-23.2-2.2-45.3-7.9-66.1-18.7
		c-19.5-10.2-40.4-15.6-62.2-18.1c-4-0.5-4.8,0.9-4.8,4.5c0.1,22.8,0.1,45.6,0,68.3c0,4.3,1.5,5.8,5.7,5.7
		C287.6,195.8,304.1,195.9,320.6,195.9z M190.4,195.9c16.4,0,32.8,0,49.2,0c6.4,0,6.7-0.3,6.7-6.4c0-22.3-0.1-44.7,0.1-67
		c0-4.1-1-5.6-5.3-5c-22.1,2.8-43.2,8.5-63,18.7c-10.9,5.6-22.2,10-34.1,13c-11.3,2.8-22.8,4.5-34.3,5.7c-3,0.3-4.2,1.7-4.1,4.6
		c0.1,3.7,0,7.4,0,11.2c0,7.1,0,14.3,0,21.4c0,4.5,3.3,3.7,6,3.9c2.7,0.1,4.5-0.3,4.5-3.8c-0.1-4.8,0.9-9.4,3-13.8
		c6.7-13.9,22.6-21.3,40-19c11.1,1.5,21.4,5.1,31.5,9.6c4.8,2.1,9.7,3.9,15,3.7c6.4-0.1,10.6-3.4,11-8.7c0.4-5.6-2.3-8.5-9.1-9.8
		c-6.1-1.2-9.5-5.5-8.7-10.9c0.8-5.3,5.7-8.7,11.6-8c13.4,1.5,23.2,11,25.3,24.5c1.8,11.6-5.4,24.2-16.8,29.3
		c-8,3.6-16.1,3.5-24.5,1.3c-7.1-1.8-13.7-5.1-20.4-7.8c-8-3.2-16.2-4.9-24.9-4.1c-6.2,0.6-11.1,3.3-13.4,9.4
		c-2.2,5.8-0.6,8.1,5.6,8.1C157.6,196,174,195.9,190.4,195.9z M99.5,420.4c0-12.1-0.1-24.1,0-36.2c0-3.4-1.2-4.8-4.7-4.8
		c-14.9,0.1-29.8,0.1-44.7,0c-3.6,0-4.6,1.4-4.6,4.8c0.1,24,0.1,47.9,0,71.9c0,3.6,1.2,5.1,4.9,5c14.7-0.1,29.5-0.1,44.2,0
		c3.8,0,4.9-1.5,4.9-5.1C99.4,444.2,99.5,432.3,99.5,420.4z M466.8,420.3c0-11.9-0.1-23.8,0.1-35.7c0.1-4-1.4-5.2-5.2-5.1
		c-14.6,0.2-29.2,0.1-43.8,0c-3.6,0-5,1.2-5,4.9c0.1,24,0.1,47.9,0,71.9c0,3.7,1.4,4.9,5,4.9c14.6-0.1,29.2-0.1,43.8,0
		c3.9,0,5.3-1.3,5.2-5.2C466.7,444.1,466.8,432.2,466.8,420.3z M265.4,273.2c0,17.7,0.1,35.4-0.1,53.1c0,3.8,1.1,5.4,5.1,5.4
		c8.6-0.2,17.3-0.2,25.9,0c3.8,0.1,5.3-1.3,5.3-5.2c-0.1-35.4-0.1-70.9,0-106.3c0-4.2-1.6-5.4-5.6-5.3c-8.2,0.2-16.4,0.1-24.6,0.1
		c-5.9,0-6.1,0.1-6.1,5.9C265.4,238.4,265.4,255.8,265.4,273.2z M210.9,272.9c0,17.7,0.1,35.4-0.1,53.2c0,3.9,1,5.8,5.3,5.7
		c8.5-0.2,17-0.1,25.5,0c3.5,0,4.7-1.5,4.7-4.8c-0.1-35.7-0.1-71.5,0-107.2c0-3.5-1.4-4.7-4.8-4.7c-8.3,0.1-16.7,0.2-25,0
		c-4.4-0.1-5.7,1.5-5.6,5.7C211,238.1,210.9,255.5,210.9,272.9z M354.2,273.4c0-17.7-0.1-35.4,0.1-53.1c0-3.8-1.1-5.4-5.1-5.3
		c-7.9,0.2-15.8,0.2-23.7,0c-3.5-0.1-4.7,1.3-4.7,4.7c0.1,35.7,0.1,71.4,0,107.1c0,3.8,1.6,4.9,5.1,4.9c7.6-0.1,15.2-0.2,22.8,0
		c4.3,0.1,5.7-1.4,5.6-5.7C354.1,308.5,354.2,290.9,354.2,273.4z M406.9,273.4c0-17.7-0.1-35.5,0.1-53.2c0-3.9-1.2-5.3-5.2-5.2
		c-7.7,0.2-15.5,0.2-23.2,0c-4.2-0.1-5.6,1.6-5.4,5.6c0.2,3.7,0,7.4,0,11.2c0,31.3,0,62.6,0,93.9c0,5.6,0.5,6.1,6.1,6.1
		c7.3,0,14.6-0.2,21.9,0.1c4.2,0.1,5.8-1.3,5.7-5.6C406.8,308.5,406.9,291,406.9,273.4z M86.9,113.1c0-6.3-0.1-12.5,0-18.8
		c0-2.6-0.8-4.5-3.2-5.9c-5-2.9-10-5.9-14.9-8.9c-2.2-1.4-4-1.3-6.2,0.1c-4.6,3-9.3,5.9-14,8.8c-2.3,1.4-3.1,3.3-3.1,5.9
		c0.1,12.5,0.1,25,0,37.5c0,3.4,1,4.9,4.6,4.8c10.7-0.1,21.4-0.1,32.1,0c3.6,0,4.7-1.4,4.6-4.8C86.8,125.6,86.9,119.4,86.9,113.1z
		 M466.8,113.3c0-6.4-0.1-12.8,0-19.2c0-2.5-0.8-4.2-3-5.5c-5-2.9-10-5.9-14.9-9c-2.3-1.5-4.3-1.4-6.6,0.1c-4.5,3-9,5.8-13.6,8.5
		c-2.3,1.4-3.2,3.2-3.2,5.9c0.1,12.7,0.1,25.3,0,38c0,3.2,1.1,4.6,4.4,4.5c10.9-0.1,21.7-0.1,32.6,0c3.4,0,4.4-1.5,4.3-4.6
		C466.7,125.8,466.8,119.5,466.8,113.3z"/>
	<path class="st1" d="M148.8,252.6c-5.3,0-9.3-4.1-9.1-9.4c0.1-5.1,4.1-9,9.1-9.1c5.2-0.1,9.4,4,9.4,9.3
		C158.2,248.7,154.2,252.7,148.8,252.6z"/>
	<path class="st1" d="M329.9,444.6c-11.5,0-22.9,0-34.4,0c-9.7,0-12.9-3.3-12.9-12.8c0-17.6,0-35.1,0-52.7c0-7.9,3.4-11.5,11.4-11.6
		c24-0.1,47.9-0.1,71.9,0c8,0,11.3,3.6,11.3,11.6c0,17.9,0,35.7,0,53.6c0,8.2-3.4,11.7-11.6,11.8
		C353.7,444.7,341.8,444.6,329.9,444.6C329.9,444.6,329.9,444.6,329.9,444.6z M330.2,386.6c-7.9,0-15.8,0.1-23.7-0.1
		c-3.7-0.1-5.4,1-5.3,5c0.2,9.7,0.2,19.3,0,29c0,3.4,1.1,4.8,4.6,4.8c16.1-0.1,32.1-0.1,48.2,0c3.5,0,4.7-1.4,4.6-4.8
		c-0.1-9.7-0.2-19.4,0-29c0.1-4.1-1.6-5.1-5.3-5C345.6,386.8,337.9,386.6,330.2,386.6z"/>
	<path class="st1" d="M182.6,367.5c11.6,0,23.2-0.1,34.8,0c9.2,0.1,12.3,3.3,12.3,12.4c0,17.7,0,35.4,0,53.1c0,7.7-3.4,11.4-11,11.5
		c-24.1,0.1-48.2,0.1-72.3,0c-7.9,0-11.2-3.7-11.2-11.7c0-17.9,0-35.7,0-53.6c0-8.2,3.4-11.6,11.7-11.7
		C158.8,367.4,170.7,367.5,182.6,367.5z M182.2,425.4c7.9,0,15.8-0.1,23.7,0.1c3.7,0.1,5.4-1,5.3-5c-0.2-9.7-0.2-19.3,0-29
		c0-3.4-1.1-4.8-4.6-4.8c-16.1,0.1-32.2,0.1-48.2,0c-3.5,0-4.7,1.4-4.6,4.8c0.1,9.7,0.2,19.4,0,29c-0.1,4,1.6,5.1,5.3,5.1
		C166.7,425.3,174.5,425.4,182.2,425.4z"/>
</g>
<g class="st0">
	<path class="st1" d="M268.9,36.9c8.6,0,17.1,0,25.7,0c3.4,15.4,6.8,30.9,10.3,46.3c23.8,104.7,47.6,209.4,71.4,314.1
		c5.9,26,11.7,51.9,17.6,77.9c-41.7,0-83.3,0-125,0c-0.1-12.5-0.1-25.1-0.3-37.6c0-2.1-0.1-4.3-0.6-6.4c-1.4-5.9-7.1-10.1-12.9-9.7
		c-6.4,0.4-11.9,5.4-12,11.8c-0.2,14,0,27.9,0.1,41.9c-38.8,0-77.6,0-116.4,0c0.4-2.5,0.7-5.1,1.2-7.5
		c25.5-112.3,51.1-224.7,76.7-337c7.1-31.2,14.3-62.5,21.4-93.7c5.7,0,11.4,0,17.1,0c0,13.8-0.2,27.6-0.1,41.5
		c0,5.6,3.9,10.1,9.1,11.6c8.6,2.5,16.3-3.7,16.4-13.3C268.9,63.4,268.9,50.1,268.9,36.9z M243.1,215.5c0,6-0.1,12,0,18
		c0.1,7.5,5.4,13,12.4,13.1c6.9,0.2,12.9-5.1,13.1-12.5c0.3-12.4,0.3-24.8,0-37.2c-0.2-7.4-6.2-12.8-13.1-12.5
		c-7,0.2-12.3,5.7-12.4,13.2C243,203.5,243.1,209.5,243.1,215.5z M243,290.5c0,5.7,0,11.4,0,17.1c0,0.3,0,0.6,0,0.9
		c0.2,7.8,5.4,13.3,12.6,13.4c7.1,0.1,12.9-5.4,13-13.1c0.2-12.1,0.2-24.2,0-36.3c-0.2-7.4-5.9-12.9-12.8-12.8
		c-7.1,0-12.6,5.6-12.7,13.3C242.9,278.8,243,284.7,243,290.5z M243.1,366.8c0,5.7,0,11.4,0,17.1c0,0.3,0,0.6,0,0.9
		c0.2,7.7,5.5,13.3,12.7,13.3c7.1,0,12.8-5.5,12.9-13.2c0.2-12,0.2-23.9,0-35.9c-0.1-7.6-5.9-13.3-13-13.2
		c-7.1,0.1-12.5,5.7-12.6,13.4C243,355.1,243.1,361,243.1,366.8z M243,140.8c0,5.7-0.1,11.4,0,17.1c0.2,7.8,5.4,13.3,12.6,13.4
		c7.1,0.1,12.8-5.4,13-13.1c0.2-11.5,0.3-23.1,0-34.6c-0.2-7.5-5.9-12.9-12.8-12.8c-7.1,0-12.5,5.6-12.7,13.4
		C242.9,129.6,243,135.2,243,140.8z"/>
	<path class="st1" d="M70.3,475.1c-2.1-0.7-4.3-1.3-6.4-2.1c-14.5-5.5-23-21.6-18.5-36.5c7.4-24.5,15.6-48.8,23.5-73.2
		c32.7-100.5,65.5-200.9,97.9-301.4c4.3-13.4,12.4-21.7,25.9-25c2.3,0,4.6,0,6.8,0c-6,26.5-12,53.1-18,79.6
		c-23.8,104.7-47.6,209.4-71.4,314.1c-3.4,14.8-6.6,29.7-9.9,44.6C90.3,475.1,80.3,475.1,70.3,475.1z"/>
	<path class="st1" d="M327.1,36.9c4.9,2.3,10.1,4,14.5,6.9c6.1,4,9,10.5,11,17.3c24.3,79.8,48.6,159.6,72.9,239.3
		c13.4,43.8,26.7,87.7,40.1,131.5c4.3,13.8,2.5,26.2-8.8,35.7c-4.2,3.5-10,5.1-15,7.5c-7.1,0-14.3,0-21.4,0c-6.8-30-13.7-60-20.5-90
		c-24.1-106-48.2-211.9-72.3-317.9c-2.3-10.1-4.4-20.3-6.5-30.4C323.2,36.9,325.1,36.9,327.1,36.9z"/>
</g>
<g class="st0">
	<g class="st2">
		<path class="st3" d="M493.5,416.3h-32.8V307.8c9.8-3.3,16.4-12.3,16.4-23c0-10.7-6.6-19.7-16.4-23V112.1c0-4.9-3.3-8.2-8.2-8.2
			s-8.2,3.3-8.2,8.2v57.5h-49.1V87.5c0-4.9-3.3-8.2-8.2-8.2s-8.2,3.3-8.2,8.2v82.2h-49.1v-57.5c0-4.9-3.3-8.2-8.2-8.2
			s-8.2,3.3-8.2,8.2v57.5h-49.1V87.5c0-4.9-3.3-8.2-8.2-8.2s-8.2,3.3-8.2,8.2v82.2h-49.1v-57.5c0-4.9-3.3-8.2-8.2-8.2
			s-8.2,3.3-8.2,8.2v57.5h-49.1V87.5c0-4.9-3.3-8.2-8.2-8.2s-8.2,3.3-8.2,8.2v82.2H67.6v-57.5c0-4.9-3.3-8.2-8.2-8.2
			s-8.2,3.3-8.2,8.2v149.6c-9.8,3.3-16.4,12.3-16.4,23c0,10.7,6.6,19.7,16.4,23v108.5H18.5c-4.9,0-8.2,3.3-8.2,8.2
			c0,4.9,3.3,8.2,8.2,8.2h475c4.9,0,8.2-3.3,8.2-8.2C501.7,419.6,498.4,416.3,493.5,416.3z M116.8,416.3H67.6v-41.1h49.1V416.3z
			 M116.8,358.8H67.6v-51c6.6-2.5,12.3-8.2,14.7-14.8H102c2.5,6.6,8.2,12.3,14.7,14.8V358.8z M116.8,261.8
			c-6.6,2.5-12.3,8.2-14.7,14.8H82.4c-2.5-6.6-8.2-12.3-14.7-14.8v-75.6h49.1V261.8z M182.3,416.3h-49.1v-41.1h49.1V416.3z
			 M182.3,358.8h-49.1v-51c6.6-2.5,12.3-8.2,14.7-14.8h19.7c2.5,6.6,8.2,12.3,14.7,14.8V358.8z M182.3,261.8
			c-6.6,2.5-12.3,8.2-14.7,14.8h-19.7c-2.5-6.6-8.2-12.3-14.7-14.8v-75.6h49.1V261.8z M247.8,416.3h-49.1v-41.1h49.1V416.3z
			 M247.8,358.8h-49.1v-51c6.6-2.5,12.3-8.2,14.7-14.8h19.7c2.5,6.6,8.2,12.3,14.7,14.8V358.8z M247.8,261.8
			c-6.6,2.5-12.3,8.2-14.7,14.8h-19.7c-2.5-6.6-8.2-12.3-14.7-14.8v-75.6h49.1V261.8z M313.3,416.3h-49.1v-41.1h49.1V416.3z
			 M313.3,358.8h-49.1v-51c6.6-2.5,12.3-8.2,14.7-14.8h19.7c2.5,6.6,8.2,12.3,14.7,14.8L313.3,358.8L313.3,358.8z M313.3,261.8
			c-6.6,2.5-12.3,8.2-14.7,14.8h-19.7c-2.5-6.6-8.2-12.3-14.7-14.8v-75.6h49.1V261.8L313.3,261.8z M378.9,416.3h-49.1v-41.1h49.1
			V416.3z M378.9,358.8h-49.1v-51c6.6-2.5,12.3-8.2,14.7-14.8h19.7c2.5,6.6,8.2,12.3,14.7,14.8L378.9,358.8L378.9,358.8z
			 M378.9,261.8c-6.6,2.5-12.3,8.2-14.7,14.8h-19.7c-2.5-6.6-8.2-12.3-14.7-14.8v-75.6h49.1V261.8z M444.4,416.3h-49.1v-41.1h49.1
			V416.3z M444.4,358.8h-49.1v-51c6.6-2.5,12.3-8.2,14.7-14.8h19.7c2.5,6.6,8.2,12.3,14.7,14.8L444.4,358.8L444.4,358.8z
			 M444.4,261.8c-6.6,2.5-12.3,8.2-14.7,14.8H410c-2.5-6.6-8.2-12.3-14.7-14.8v-75.6h49.1L444.4,261.8L444.4,261.8z"/>
	</g>
</g>
<g class="st0">
	<path class="st1" d="M166.2,240.3c16,39.1,51.2,64.8,89.8,64.8c38.6,0,73.8-25.7,89.8-64.8c16.5-3.3,30.8-19.1,35.3-39.8
		c2.7-12.2,1.7-24.6-2.8-34.8c-5-11.4-14-19.3-24.7-21.7c-1.1-0.2-2.7-0.2-3.5-0.2c-4.2,8.6-11.7,16.1-21.7,22.4
		c1.1,1.1,2.5,2.1,4,2.7c3.2,1.3,6.7,1.1,9.8-0.4c1.8-0.9,3.5-1.6,6.4-1.2c4.4,0.6,6.8,5.4,7.9,7.9c2.5,5.6,3,13,1.4,20.3
		c-2.9,13.4-11.8,21.7-19.3,21.7c0,0,0,0-0.1,0c-5.6-0.4-10.8,2.8-12.5,8.1c-11.1,33.5-39.2,56.1-70,56.1c-31.3,0-58.7-22-70-56.1
		c-1.6-4.9-6.9-8.1-12.1-8.1c-0.4,0-0.8,0-1.2,0.1c-6.6,0-15.5-8.3-18.5-21.8c-1.6-7.2-1.1-14.6,1.4-20.3c1.1-2.5,3.5-7.5,9.4-8
		c1.5-0.1,3.2,0.5,5,1.4c3.1,1.5,6.6,1.7,9.8,0.4c1.5-0.6,2.8-1.5,3.9-2.7c-10-6.2-17.5-13.8-21.7-22.4c-0.8-0.1-2.5,0-3.7,0.2
		c-10.7,2.3-19.6,10.2-24.5,21.6c-4.5,10.3-5.5,22.6-2.8,34.8C135.4,221.2,149.7,236.9,166.2,240.3z"/>
	<path class="st1" d="M173.8,127.2c0,22.5,36.8,40.8,82.2,40.8c45.4,0,82.2-18.3,82.2-40.8c0-0.9-0.4-1.7-0.5-2.6H174.3
		C174.2,125.4,173.8,126.3,173.8,127.2z"/>
	<path class="st1" d="M169,100.2l2.5,8.5h169l2.5-8.5l12.1-41.4c1.1-3.7,0.6-7.7-1.3-11.1c-1.9-3.4-5.1-5.8-8.9-6.8l-67.1-17.1
		c-14.3-3.7-29.3-3.7-43.6,0l-67.1,17.1c-3.8,1-7,3.4-8.9,6.8c-1.9,3.4-2.4,7.4-1.3,11.1L169,100.2z"/>
	<path class="st1" d="M330.6,314.1h-5.7l-42.7,103.1l-12-60.6c0.2-0.3,0.5-0.5,0.8-0.8l9.7-13.7c3.6-5.1,4.1-11.9,1.2-17.4
		c-2.9-5.6-8.6-9.1-14.9-9.1h-21.8c-6.3,0-12,3.5-14.9,9.1c-2.9,5.6-2.4,12.3,1.2,17.4l9.7,13.7c0.2,0.3,0.5,0.6,0.8,0.9l-12,60.6
		l-42.7-103.1h-5.7c-50.6,0-91.7,41-91.7,91.7V491h332.6v-85.3C422.3,355.1,381.3,314.1,330.6,314.1z"/>
</g>
<g class="st0">
	<g class="st2">
		<g>
			<path class="st3" d="M269.2,25.9c-29,0-53.5,25.1-53.5,54.8s24.5,54.8,53.5,54.8s52.6-25.1,52.6-54.8S298.2,25.9,269.2,25.9z"/>
		</g>
	</g>
	<g class="st2">
		<g>
			<path class="st3" d="M327.6,135.5c-14.5,16.4-35.2,27-58.4,27c-23.2,0-44.8-10.5-59.3-27c-12.6,14.3-20.5,33.1-20.5,53.9V203
				c0,7.5,5.9,13.5,13.2,13.5H335c7.3,0,13.2-6,13.2-13.5v-13.5C348.1,168.7,340.2,149.9,327.6,135.5z"/>
		</g>
	</g>
	<g class="st2">
		<g>
			<path class="st3" d="M158.6,439.8L91.5,302c-6.5-13.3-22.2-18.7-35.2-12.1l-17.5,8.9c-6.5,3.3-9.2,11.4-5.9,18.1l78.9,161.8
				c3.2,6.7,11.1,9.3,17.6,6.1l17.3-8.8C159.8,469.3,165.1,453.1,158.6,439.8z"/>
		</g>
	</g>
	<g class="st2">
		<g>
			<path class="st3" d="M469.8,248.5c-10.8-8.1-25.8-6.5-34.7,3.5l-71.9,90.6c-5,5.4-14.5,8.6-19.5,8.6h-61.3
				c-7.4,0-13.2-5.9-13.2-13.5s5.8-13.5,13.2-13.5c17.6,0,37.1,0,52.6,0c14.5,0,26.3-12.1,26.3-27s-11.8-27-26.3-27
				c-61.8,0-2.9,0-68.9,0c-6.6,0-9.8-4.3-15-8.9c-20.4-18.8-50.8-27.8-81.7-20.5c-17.1,4.1-28.7,11.2-40.4,20.7l-0.4-0.3l-19,17.2
				l74.8,153.7h22.1H335c24.7,0,48.4-12.1,63.2-32.4l77.2-113.3C484,274.7,481.6,257.4,469.8,248.5z"/>
		</g>
	</g>
</g>
<g id="g2818">
	<g id="g2824" transform="translate(191.2417,239.0635)">
		<path id="path2826" class="st4" d="M9.4,31.4v86.1c0.9,0.1,30.2,0,30.2,0"/>
	</g>
	<g id="g2828" transform="translate(438.623,215.8467)">
		<path id="path2830" class="st4" d="M-26.6,74.5c0,10.9-8.9,19.8-19.8,19.8c-5.4,0-25,0.1-25,0.1V74.5V54.6h25
			C-35.5,54.6-26.6,63.5-26.6,74.5z"/>
	</g>
	<g id="g2832" transform="translate(447.665,165.4756)">
		<path id="path2834" class="st4" d="M-27.9,167.9c0,12.8-10.4,23.2-23.2,23.2c-6.3,0-29.4,0.1-29.4,0.1v-23.3v-23.2h29.4
			C-38.3,144.7-27.9,155-27.9,167.9z"/>
	</g>
	<g id="g2836" transform="translate(142.939,230.4453)">
		<path id="path2838" class="st4" d="M16.5,47.4C9.6,42.7,1.3,40-7.6,40c-23.8,0-43.1,19.3-43.1,43.1c0,23.8,19.3,43.1,43.1,43.1
			c10.7,0,20.3-3.9,27.1-12.2"/>
	</g>
	<g id="g2840" transform="translate(271.292,239.0635)">
		<path id="path2842" class="st4" d="M-2.2,31.4v59.3c0,10.1,5,16.9,13.5,22.3c4.1,2.6,9.4,4.5,15.9,4.5c5.6,0,10.3-1.3,14.2-3.2
			c9.9-5,16.2-12.6,16.2-23.7V31.4"/>
	</g>
	<g id="g2844" transform="translate(39.3613,105.6348)">
		<path id="path2846" class="st4" d="M31.6,278.8c-16.9-19.1-27.2-44.2-27.2-71.5C4.3,147.8,53,99.1,112.6,99.1h208.1
			c27.9,0,53.4,10.7,72.7,28.2 M412,149.4c10.7,16.8,16.9,36.6,16.9,57.9c0,59.5-48.7,108.2-108.2,108.2H112.6
			c-21.8,0-42.1-6.5-59.1-17.7"/>
	</g>
	<g id="g2848" transform="translate(239.0059,449.2812)">
		<path id="path2850" class="st4" d="M2.5-358.4h-197.8v39.8h424.6v-39.8H31.5"/>
	</g>
	<g id="g2852" transform="translate(75.9282,301.7646)">
		<path id="path2854" class="st4" d="M26.2-84.9v-45H76v32.8 M284.1-97.1v-32.8h49.8v45"/>
	</g>
	<g id="g2856" transform="translate(105.0405,354.4043)">
		<path id="path2858" class="st4" d="M22-182.5v-41.3"/>
	</g>
	<g id="g2860" transform="translate(406.9316,354.4043)">
		<path id="path2862" class="st4" d="M-22-182.5v-41.3"/>
	</g>
</g>
</svg>
