<?xml version="1.0" encoding="utf-8"?>
<!-- Generator: Adobe Illustrator 25.4.1, SVG Export Plug-In . SVG Version: 6.00 Build 0)  -->
<svg version="1.1" xmlns="http://www.w3.org/2000/svg" xmlns:xlink="http://www.w3.org/1999/xlink" x="0px" y="0px"
	 viewBox="0 0 1080 1080" style="enable-background:new 0 0 1080 1080;" xml:space="preserve">
<style type="text/css">
	.st0{fill:#00968B;}
</style>
<g id="Capa_1">
	<g>
		<path class="st0" d="M432.29,762.32c0,55.34,0.01,110.67-0.01,166.01c0,11.24-0.05,11.35-11.26,11.27
			c-19.78-0.13-17.25,2.08-16.98-17.3c0.11-7.89-2.31-10.2-10.14-10.09c-29.22,0.42-58.46,0.38-87.68,0.02
			c-7.54-0.09-10.47,1.69-10.34,9.88c0.3,19.63,2.99,16.87-17.62,17.7c-9.03,0.36-10.78-3.1-10.77-11.3
			c0.23-110.11,0.18-220.21,0.04-330.32c-0.01-4.14,2.75-10.52-2.88-12.04c-6.67-1.8-14.12-1.71-21,0.22
			c-2.83,0.8-2.01,4.37-2.03,6.83c-0.07,10.78-0.03,21.57-0.03,32.35c0,97.34,0.04,194.67-0.04,292.01
			c-0.02,22.03-15.72,36.73-37.57,35.61c-16.34-0.84-30.66-14.96-31.59-31.3c-0.23-3.96-0.11-7.94-0.11-11.92
			c0-104.43-0.02-208.86,0.04-313.29c0-5.82,0.18-10.7-6.9-13.56c-6.6-2.67-6.82-9.62-6.81-16.15
			c0.08-71.51,0.05-143.03,0.05-214.54c0-9.93-0.45-19.89,0.15-29.79c0.43-7.03-2.14-9.77-8.88-11.63
			c-24.3-6.7-37.71-31.06-30.23-53.61c2.98-8.98,8.55-16.11,16.42-21.09c64.49-40.82,128.89-81.79,193.73-122.04
			c17.3-10.74,36.13-9.87,53.19,1.42c60.35,39.92,120.46,80.2,180.56,120.48c14.6,9.79,21.09,24.01,17.95,41.18
			c-3.03,16.58-13.74,27.56-29.64,33.4c-3.56,1.31-9.14,0.39-10.04,4.95c-1.35,6.88-1.28,14.1,0.13,21.1
			c0.37,1.84,2.44,2.16,4.2,2.2c2.55,0.05,5.11,0.07,7.66,0.07c112.38,0,224.76,0.72,337.13-0.37c40.96-0.4,73.12,32.26,72.93,72.69
			c-0.84,173.95-0.35,347.91-0.36,521.87c0,16.22-3.91,20.59-20.08,19.91c-103.97-4.41-181.94-52.3-233.76-142.1
			c-22.51-39-33.07-81.71-33.51-126.94c-0.34-35.6-14.4-64.29-44.95-83.89c-2.08-1.34-4.3-3.84-6.79-2.71
			c-2.82,1.28-1.4,4.58-1.41,6.95c-0.08,44.83,0.01,89.67-0.15,134.5c-0.02,5.66,1.19,9.14,6.97,11.81
			c15.7,7.27,23.31,23.32,19.74,39.34c-3.56,15.96-17.47,26.82-34.81,26.89c-24.97,0.1-49.95,0.03-74.92,0.04
			c-12.25,0-12.26,0.01-12.26,11.87c-0.01,30.08,0.11,60.16-0.07,90.24c-0.1,17.05-12.88,31.75-28.91,33.87
			c-17.93,2.36-34-7.69-39.11-24.31c-1.46-4.74-1.21-9.54-1.21-14.35c-0.02-105.85,0-211.7-0.11-317.55c0-3.66,2.2-9.39-2.61-10.55
			c-7.01-1.69-14.74-2.29-21.67,0.51c-3.06,1.24-1.63,5.69-1.63,8.69C432.27,651.08,432.29,706.7,432.29,762.32z M350.43,312.99
			c-50.8,0-101.6,0.18-152.4-0.18c-8.4-0.06-11.31,1.92-11.16,10.81c0.53,31.78,0.21,63.57,0.21,95.35
			c0,42.85,0.17,85.71-0.15,128.56c-0.06,7.55,2.27,9.98,9.72,9.61c11.04-0.55,22.15-0.59,33.19,0.01
			c8.01,0.44,10.9-1.9,10.72-10.35c-0.52-25.25-0.24-50.51-0.16-75.77c0.04-12.48-0.96-25.14,0.74-37.41
			c8.19-58.98,59.79-98.99,120.67-94.35c53.69,4.1,97.56,53.22,97.71,109.51c0.08,33.2,0.17,66.41-0.1,99.61
			c-0.06,6.77,2.2,8.97,8.85,8.72c11.34-0.43,22.72-0.56,34.04,0.04c8.03,0.43,10.74-1.94,10.71-10.36
			c-0.31-74.64-0.29-149.28-0.01-223.91c0.03-7.94-2.39-10.09-10.16-10.04C452.03,313.14,401.23,312.99,350.43,312.99z
			 M935.12,622.34c0-16.74,0-33.48,0-50.22c0-53.34,0.1-106.68-0.05-160.02c-0.08-27.79-16.87-44.36-44.69-44.6
			c-9.36-0.08-18.74,0.25-28.09-0.1c-6.04-0.23-7.8,2.21-7.79,8c0.11,121.72,0.11,243.44,0.02,365.16c0,4.84,1.39,7.71,6.06,9.82
			c13.64,6.16,21.25,16.86,21.08,32.06c-0.17,15.08-7.63,25.72-21.35,31.98c-1.48,0.68-3.8,0.61-4.14,2.52
			c-0.46,2.57,2.17,3.01,3.76,3.9c19.78,11.12,40.96,18.07,63.51,20.52c11.14,1.21,11.68,0.48,11.68-10.48
			C935.13,761.37,935.12,691.86,935.12,622.34z M349.43,284.55c60.14,0,120.29,0,180.43,0c4.26,0,8.48,0.06,12.58-1.51
			c5.41-2.08,9.42-5.55,10.47-11.32c1.06-5.85-2.64-9.45-7.11-12.44c-58.72-39.26-117.44-78.52-176.11-117.85
			c-9.52-6.38-18.62-6.74-28.44-0.3c-16.6,10.89-33.55,21.24-50.35,31.83c-45.34,28.6-90.67,57.23-136.02,85.82
			c-4.78,3.01-9.06,6.6-7.92,12.83c1.17,6.4,5.61,10.2,11.91,11.99c3.92,1.12,7.87,0.94,11.82,0.94
			C230.28,284.56,289.85,284.55,349.43,284.55z M826.14,557.45c0-60.11-0.11-120.22,0.14-180.33c0.03-7.29-1.84-9.94-9.51-9.8
			c-24.94,0.44-49.9,0.45-74.85,0c-7.85-0.14-10.15,2.23-10.1,10.09c0.31,55.85,0.22,111.71,0.08,167.57
			c-0.01,5.4,1.52,9.7,4.6,14.1c23.57,33.64,36.06,70.85,36.5,112.17c0.2,19.29,2.95,38.37,9.45,56.77
			c6.94,19.64,6.77,19.7,27.82,19.7c1.7,0,3.44-0.22,5.1,0.04c8.65,1.36,11.02-2.2,10.97-10.83
			C825.97,677.11,826.14,617.28,826.14,557.45z M541.27,529.51c0,6.53,0.26,13.06-0.08,19.57c-0.3,5.8,1.73,8.2,7.77,8.01
			c10.77-0.34,21.56-0.11,32.34-0.08c61.18,0.17,111.65,42.37,121.66,102.71c2.58,15.58,1.58,31.73,3.71,47.41
			c12.28,90.5,60.02,155.61,141.99,195.44c23.37,11.35,48.47,17.54,74.3,20.46c11.31,1.28,12.11,0.51,12.15-9.96
			c0.03-7.09,0.01-14.19,0.01-21.28c0-19.48-0.08-18.96-18.97-21.99c-77.78-12.47-130.91-55.77-160.1-128.81
			c-10.42-26.08-10.89-53.62-13.02-81.02c-4.23-54.46-30.12-96.65-74.68-127.52c-36.8-25.49-78.64-30.41-121.95-28.71
			c-4.23,0.17-5.16,2.63-5.13,6.19C541.33,516.46,541.29,522.98,541.27,529.51z M349.55,557c24.39,0,48.79-0.15,73.17,0.11
			c6.15,0.06,8.52-1.75,8.47-8.2c-0.26-32.62,0.2-65.24-0.2-97.85c-0.71-56.81-47.78-88.61-92.92-82.29
			c-33.6,4.7-64.43,34.16-67.67,67.97c-3.63,37.9-0.73,75.95-1.61,113.92c-0.15,6.48,3.91,6.38,8.44,6.37
			C301.33,556.97,325.44,557,349.55,557z M527.65,666.28c0,24.38,0.16,48.77-0.11,73.15c-0.07,6.24,1.91,8.52,8.28,8.4
			c16.72-0.34,33.46-0.39,50.18,0.02c6.87,0.17,8.71-2.31,8.68-8.88c-0.22-47.63-0.25-95.27,0.03-142.9
			c0.04-6.92-2.32-10-8.99-10.08c-16.15-0.19-32.31-0.06-48.45-0.68c-7.35-0.28-9.93,1.89-9.79,9.53
			C527.93,618.65,527.65,642.47,527.65,666.28z M703.51,522.67c0-51.13-0.02-100.16,0.03-149.2c0-4.4-2.01-6.02-6.23-6
			c-22.7,0.07-45.4,0.07-68.09,0c-4.22-0.01-6.24,1.6-6.23,6c0.06,34.05,0.05,68.09,0.02,102.14c0,3.57,1.23,5.77,4.93,6.8
			C655.37,490.07,679.95,503.25,703.51,522.67z M594.55,422.05c0-15.57-0.18-31.15,0.09-46.72c0.1-5.85-1.88-8.08-7.84-7.94
			c-13.02,0.32-26.05,0.2-39.07,0.06c-4.75-0.05-6.52,1.93-6.5,6.6c0.09,31.43,0.11,62.86-0.02,94.29
			c-0.02,5.12,1.92,7.05,7.02,6.98c13.02-0.17,26.05-0.18,39.07,0.14c5.67,0.14,7.4-2.18,7.32-7.54
			C594.41,452.63,594.55,437.34,594.55,422.05z M213.13,753.34c0-19.28,0-38.56,0-57.84c0-34.02,0.03-68.05-0.03-102.07
			c-0.01-7.05-3.53-9.89-9.22-7.71c-4.88,1.87-3.09,6.23-3.1,9.57c-0.09,105.47-0.08,210.94-0.07,316.41c0,1.42,0,2.84,0.05,4.25
			c0.14,4,1.28,7.84,5.82,8.02c5.14,0.21,6.34-3.86,6.49-8.19c0.09-2.55,0.06-5.1,0.06-7.65
			C213.13,856.54,213.13,804.94,213.13,753.34z M486.78,753.33c0,52.17-0.06,104.33,0.08,156.5c0.01,5.49-2.22,14.09,6.46,13.89
			c7.78-0.18,5.81-8.4,5.82-13.74c0.09-104.61,0.06-209.23,0.06-313.84c0-2.27,0.02-4.54-0.18-6.8c-0.3-3.38-2.77-3.88-5.53-3.86
			c-2.86,0.03-6.01-0.24-6.49,3.71c-0.31,2.52-0.21,5.09-0.21,7.64C486.77,649,486.78,701.17,486.78,753.33z M349.36,611.49
			c12.49,0,24.98,0.11,37.46-0.03c19.26-0.22,16.6,2.91,17.13-17.3c0.18-6.65-1.91-8.93-8.72-8.85c-27.24,0.32-54.49,0-81.73,0.18
			c-19.76,0.13-17.05-3.19-17.54,17.71c-0.15,6.25,1.9,8.55,8.28,8.4C319.28,611.25,334.32,611.49,349.36,611.49z M349.95,665.98
			c12.49,0,24.98,0.1,37.46-0.02c18.58-0.18,15.97,2.65,16.56-17.04c0.22-7.22-2.4-9.19-9.32-9.11
			c-26.96,0.32-53.92-0.03-80.88,0.18c-20.06,0.15-17.34-3.54-17.8,18.29c-0.12,6.04,2.2,7.9,8,7.79
			C319.3,665.8,334.63,665.98,349.95,665.98z M349.58,720.47c12.49,0,24.97,0.1,37.46-0.02c18.96-0.19,16.29,2.64,16.96-16.66
			c0.27-7.72-2.54-9.61-9.82-9.51c-26.67,0.37-53.35-0.03-80.03,0.2c-20.49,0.18-17.76-3.89-18.15,18.76
			c-0.1,5.68,2.25,7.37,7.61,7.3C318.93,720.32,334.25,720.46,349.58,720.47z M349.1,774.96c12.77,0,25.54,0.1,38.31-0.02
			c18.57-0.18,15.97,2.65,16.56-17.04c0.22-7.22-2.41-9.19-9.33-9.11c-26.96,0.32-53.92-0.03-80.88,0.18
			c-20.06,0.15-17.34-3.54-17.79,18.29c-0.12,6.04,2.21,7.9,8,7.79C319.02,774.78,334.06,774.96,349.1,774.96z M349.95,829.45
			c12.49,0,24.98,0.1,37.46-0.02c18.57-0.18,15.97,2.65,16.56-17.04c0.22-7.22-2.41-9.19-9.33-9.11
			c-26.96,0.32-53.92-0.03-80.88,0.18c-20.06,0.15-17.34-3.54-17.79,18.29c-0.12,6.04,2.21,7.89,8,7.79
			C319.3,829.27,334.63,829.45,349.95,829.45z M349.26,883.94c12.77,0,25.54,0.09,38.31-0.02c18.33-0.16,15.7,2.4,16.45-16.34
			c0.33-8.3-2.92-9.93-10.37-9.83c-26.67,0.36-53.35,0.01-80.02,0.18c-19.87,0.13-17.09-3.12-17.7,17.61
			c-0.21,7.12,2.72,8.64,9.06,8.5C319.74,883.72,334.5,883.94,349.26,883.94z M573.71,776.17c-13.01,0-26.02,0.06-39.03-0.04
			c-4.23-0.03-7.07,0.77-7.09,5.97c-0.01,4.77,1.87,6.53,6.55,6.51c26.02-0.11,52.04-0.05,78.06-0.07c4.22,0,8.61-0.87,8.73-5.91
			c0.14-5.67-4.55-6.42-9.05-6.44C599.16,776.15,586.43,776.18,573.71,776.17z M809,776.26c4.33,6.08,6.65,11.81,13.23,12.16
			c7.62,0.41,15.28,0.21,22.92,0.05c4.03-0.09,7.57-1.71,7.44-6.34c-0.11-4.09-3.39-5.77-7.1-5.81
			C833.94,776.18,822.38,776.26,809,776.26z"/>
	</g>
</g>
<g id="Capa_2">
</g>
<g id="Capa_3">
</g>
<g id="Capa_4">
</g>
<g id="Capa_5">
</g>
<g id="Capa_6">
</g>
<g id="Capa_7">
</g>
</svg>
