<?xml version="1.0" encoding="utf-8"?>
<!-- Generator: Adobe Illustrator 25.4.1, SVG Export Plug-In . SVG Version: 6.00 Build 0)  -->
<svg version="1.1" xmlns="http://www.w3.org/2000/svg" xmlns:xlink="http://www.w3.org/1999/xlink" x="0px" y="0px"
	 viewBox="0 0 1080 1080" style="enable-background:new 0 0 1080 1080;" xml:space="preserve">
<style type="text/css">
	.st0{fill:#00968B;}
</style>
<g id="Capa_1">
</g>
<g id="Capa_2">
	<g>
		<path class="st0" d="M968.86,701.61c-6.3,35-22.41,64.86-47.59,89.78c-24.02,23.78-52.41,40.98-83.44,53.96
			c-42.93,17.96-87.79,27.1-134.14,30.36c-61.77,4.35-121.98-2.78-180.32-23.42c-46.57-16.48-88.13-40.92-118.69-81.03
			c-3.79-4.98-7.59-3.12-11.76-2.05c-30.86,7.89-60.78,5.46-88.78-9.99c-20.29-11.2-34.1-27.58-33.99-52.36
			c0.02-4.37,1-8.82,2.05-13.1c3.1-12.64,1.72-16.2-10.56-21.19c-26.37-10.71-51.4-23.83-74.13-41.02
			c-33.22-25.13-59.08-55.91-68.78-97.32c-11.85-50.62,2.12-95.02,36.17-133.44c32.78-36.98,74.91-59.45,120.5-76.3
			c19.56-7.23,39.61-12.8,59.99-17.19c2.43-0.52,4.9-1.07,7.37-1.19c8.09-0.41,13.54,3.52,14.74,10.38
			c1.26,7.2-2.7,13.46-10.64,15.48c-16.95,4.3-34.02,8.09-50.61,13.73c-44.66,15.17-86.36,35.33-119.17,70.5
			c-22.05,23.63-35.14,51.37-35.67,83.89c-0.38,22.94,6.27,44.37,18.71,63.85c18.61,29.14,44.89,49.58,74.6,66.2
			c13.36,7.47,27.41,13.42,41.45,19.43c20.32,8.7,28.93,27.11,22.89,48.35c-4.39,15.46-0.39,26.49,14.2,35.37
			c26.24,15.98,54.07,16.83,82.49,6.79c14.13-4.99,16.84-4.34,25.4,8.29c21.76,32.11,52.36,53.34,87.08,68.89
			c63.84,28.6,131.09,36.2,200.27,31.02c50.41-3.78,98.6-15.62,143.46-39.39c26.83-14.22,50.28-32.58,68.07-57.59
			c32.62-45.86,29.7-105.03-7.09-147.8c-15.97-18.57-34.92-33.25-56.15-45.21c-15.52-8.74-16.02-18.27-1.54-28.88
			c5.86-4.29,10.74-9.39,9.49-17.25c-1.35-8.5-7.83-13.02-14.89-16.79c-2.85-1.52-4.68-0.66-6.06,2.07
			c-1.75,3.47-3.44,6.99-5.48,10.29c-3.28,5.29-8.21,7.44-14.28,6.08c-6.08-1.37-9.39-5.59-10.4-11.62
			c-0.27-1.63-0.37-3.35-0.18-4.98c0.76-6.33-1.38-8.23-7.98-7.01c-13.06,2.42-17.48-0.88-20.62-13.91
			c-9.1-37.74-32.9-64.79-63.33-86.94c-10.67-7.77-17.82-17.34-18.64-30.92c-0.43-7.11,1.22-13.71,4.12-20.16
			c5.08-11.31,1.25-23.08-9.09-29.58c-3.34-2.1-5.09-0.98-6.59,1.94c-2.54,4.94-4.81,10.03-7.63,14.81
			c-3.36,5.72-8.29,9.18-15.25,7.29c-6.74-1.83-9.94-6.76-10.05-13.63c-0.12-6.94-0.39-13.91,0.03-20.82c0.34-5.64-2-8.15-7.33-8.8
			c-21.2-2.58-17.92-5.6-18.19,14.59c-0.07,5.28-0.01,10.55-0.09,15.83c-0.12,7.12-3.97,11.6-10.67,13
			c-6.96,1.45-12.1-2.05-14.57-8.33c-3.56-9.03-6.66-18.26-9.44-27.56c-1.91-6.42-4.61-8.85-11.94-7.15
			c-18.1,4.22-35.09,10.17-49.24,22.87c-11.61,10.41-25.9,10.06-40.24,8.83c-29.15-2.5-58.24-1.17-87.28,1.61
			c-7.84,0.75-14.59-0.35-18-8.41c-2.62-6.21-0.65-11.48,4.54-15.45c3.44-2.63,7.68-2.83,11.87-3.22
			c31.84-2.98,63.72-3.67,95.62-1.41c8.86,0.63,15.7-1.77,22.7-7.56c14.81-12.25,32.56-19.02,51.33-22.54
			c7.51-1.41,9.52-4.22,6.04-10.94c-0.5-0.97-0.65-2.12-1.06-3.15c-2.95-7.42-3.04-14.52,4.42-19.15c6.9-4.28,13.31-2.16,19.78,5.14
			c0-7.34-0.16-13.25,0.04-19.14c0.28-8.44,5.8-14.29,13.14-14.25c7.36,0.04,12.79,5.81,12.95,14.38
			c0.22,11.38,0.22,22.78,0.06,34.16c-0.09,6.54,2.51,9.32,9.33,9.69c15.98,0.87,15.94,1.17,16.16-14.97
			c0.03-2.49-0.08-5.09,0.57-7.44c1.66-6.02,5.79-9.32,12.12-9.5c6.67-0.18,11.12,2.99,13.13,9.34c2.03,6.42,0.86,13.21,1.56,19.6
			c2.75,1.1,3.92-0.99,5.51-1.79c5.29-2.68,10.31-2.31,14.72,1.57c4.6,4.05,6.68,9.49,3.64,14.97c-3.66,6.6-1.6,9.96,3.96,14.19
			c19.06,14.51,30.82,37.02,17.43,63.75c-3.6,7.19,0.21,12.16,5.87,16.24c15.63,11.25,29.77,24.13,42.02,39
			c12.3,14.92,21.79,31.46,28.18,49.75c0.76,2.17,0.66,5.87,3.99,5.4c3.3-0.47,2.27-3.98,2.3-6.28c0.14-9.72-0.05-19.44,0.12-29.16
			c0.17-9.61,5.6-15.83,13.48-15.86c7.3-0.03,13.06,6.18,13.61,15.11c0.31,4.94,0.05,9.92,0.05,14.68c2.71,0.86,3.6-1,4.97-1.73
			c5.43-2.91,10.72-2.96,15.53,1.09c5.08,4.27,5.89,9.67,3.68,15.83c-1.67,4.66-7.06,9.24-5.11,13.48c1.76,3.84,7.8,5.65,11.8,8.55
			c18.13,13.16,28.48,36.71,13.43,59.85c-3.62,5.56,0.28,7.25,3.75,9.6c28.53,19.38,51.83,43.42,67.09,74.76
			c6.26,12.85,9.53,26.6,13.1,40.28C968.86,674.94,968.86,688.27,968.86,701.61z"/>
		<path class="st0" d="M346,672.74c0.55-0.92,0.8-1.15,0.82-1.4c2.5-25.21,2.54-25.34-21.33-32.06
			c-41.78-11.75-81.49-27.72-115.23-55.97c-11.58-9.69-21.68-20.73-29.46-33.73c-19.88-33.25-19.27-66.42,1.25-99.07
			c15.51-24.67,38.11-41.63,63.09-55.6c42.51-23.77,88.69-36.29,136.46-43.68c28.03-4.34,56.31-6.47,84.59-6.11
			c65.42,0.83,129.47,9.85,190.1,36.14c29.02,12.58,56.03,28.37,77.52,52.16c23.8,26.35,34.75,56.28,25.53,91.98
			c-3.73,14.43,1.96,23.23,16.66,27.3c34.55,9.56,67.2,23.08,95.55,45.6c22.86,18.16,39.7,40.24,45.25,69.66
			c1.3,6.89,1.46,13.87,0.52,20.74c-0.94,6.86-5.54,11.17-12.44,11.28c-7.18,0.12-13.12-3.9-13.23-11.21
			c-0.69-46.44-31.96-69.51-67.57-89.17c-17.58-9.71-36.59-15.91-55.94-21.21c-28.2-7.73-41.95-31.08-34.94-59.51
			c6.55-26.57-1.57-48.69-19.62-67.97c-23.8-25.43-53.99-40.56-86.08-52.24c-42.57-15.5-86.73-22.79-131.91-25.43
			c-57.33-3.35-113.68,1.81-168.94,17.3c-34.44,9.65-67.13,23.38-95.49,45.85c-10.5,8.32-19.95,17.71-26.99,29.24
			c-14.57,23.85-14.57,47.76,0.26,71.45c13.72,21.91,34.24,36.13,56.27,48.33c24.43,13.53,50.69,22.46,77.64,29.55
			c6.07,1.6,9,0.67,8.92-6.16c-0.03-2.99,0.54-6.16,1.58-8.96c1.9-5.11,5.94-8.13,11.39-8.38c5.79-0.26,10.25,2.47,12.57,7.85
			c0.96,2.22,1.33,4.81,1.45,7.25c0.82,16.02,0.77,16.04,16.29,18.33c4.39,0.65,8.82,1.04,13.2,1.74
			c27.55,4.41,46.88,23.89,48.06,52.59c1.22,29.52,15.9,50.19,37.81,67.11c30.54,23.58,65.77,36.79,103.28,43.98
			c75.04,14.39,148.61,10.47,219.65-19.78c21.13-8.99,40.32-21.11,56.16-38.05c0.57-0.61,1.16-1.2,1.78-1.76
			c6.49-5.8,14-6.25,19.46-1.19c5.62,5.2,5.98,12.53,0.11,19.28c-14.41,16.57-32.15,28.92-51.47,39.04
			c-37.39,19.58-77.48,29.75-119.23,34.57c-55.63,6.43-110.3,2.23-163.89-13.91c-37.95-11.43-72.93-28.47-100.73-57.78
			c-18.48-19.48-29.14-42.26-29.74-69.49c-0.33-15.05-9.8-25.25-24.9-27.66c-4.65-0.74-9.35-1.2-14.02-1.85
			c-11.72-1.65-11.73-1.66-11.74,10.45c-0.01,14.44-0.06,28.89,0.01,43.33c0.03,6.63-1.88,12.11-8.36,14.95
			c-6.71,2.94-11.78-0.22-16.36-4.79c-7.66-7.65-15.38-15.25-22.96-22.99c-7.22-7.38-8.18-13.72-3.25-19.84
			c4.85-6.02,11.4-6.39,20.03-1.16C344.14,672.05,344.91,672.28,346,672.74z"/>
		<path class="st0" d="M710.14,694.64c21.06,0,42.12-0.17,63.18,0.08c8.96,0.11,15.11,6.02,15.07,13.39
			c-0.05,7.59-5.92,13.03-14.9,13.7c-2.21,0.16-4.43,0.09-6.65,0.09c-13.02,0.01-26.05,0-39.07,0c-24.66,0-49.33,0.01-73.99-0.01
			c-2.77,0-5.57,0.1-8.3-0.28c-7.77-1.1-13.31-7.05-13.09-13.76c0.23-6.94,5.7-12.52,13.75-13.03c7.73-0.49,15.51-0.21,23.27-0.23
			c13.58-0.02,27.16-0.01,40.74-0.01C710.14,694.61,710.14,694.62,710.14,694.64z"/>
		<path class="st0" d="M581.11,592.11c-20.27,0-40.54,0.04-60.8-0.02c-10.93-0.03-16.72-4.51-16.95-12.87
			c-0.24-8.69,5.7-14.12,16.83-14.18c40.26-0.18,80.52-0.08,120.77-0.06c1.66,0,3.33,0.17,4.97,0.45
			c8.05,1.35,13.28,6.86,13.12,13.7c-0.18,7.27-6.02,12.78-14.64,12.87c-21.1,0.21-42.2,0.07-63.3,0.07
			C581.11,592.09,581.11,592.1,581.11,592.11z"/>
		<path class="st0" d="M632.6,643.81c-19.99,0-39.98,0.03-59.97-0.01c-11.5-0.03-17.48-4.54-17.58-13.09
			c-0.1-8.58,5.63-13.72,17.18-13.84c31.37-0.3,62.75-0.17,94.12-0.16c9.99,0,19.99-0.06,29.97,0.37
			c7.35,0.31,12.83,3.88,14.29,11.56c1.53,8.1-5.04,14.98-14.7,15.07c-21.1,0.21-42.2,0.06-63.3,0.06
			C632.6,643.79,632.6,643.8,632.6,643.81z"/>
		<path class="st0" d="M490.37,487.77c16.11,0,32.22-0.07,48.33,0.02c10.45,0.06,16.9,5.22,16.87,13.21
			c-0.02,7.65-6.11,13.59-15.89,13.69c-32.77,0.31-65.55,0.32-98.32,0c-10.14-0.1-16.46-6.48-16-14.37
			c0.46-7.77,6.55-12.47,16.68-12.53C458.15,487.7,474.26,487.77,490.37,487.77z"/>
		<path class="st0" d="M297.2,487.78c11.91,0,23.81-0.12,35.72,0.04c9.32,0.12,15.14,5.11,15.43,12.78
			c0.29,7.64-5.15,13.8-14.41,13.96c-25.18,0.44-50.38,0.43-75.56-0.05c-9.09-0.18-14.74-6.72-14.22-14.13
			c0.53-7.74,6.22-12.46,15.67-12.57C272.28,487.67,284.74,487.78,297.2,487.78z"/>
		<path class="st0" d="M567.93,694.62c8.02,0,16.05-0.18,24.07,0.05c9.12,0.26,15.18,5.61,15.31,13.06
			c0.13,7.48-5.77,13.72-14.6,13.94c-16.31,0.42-32.64,0.4-48.96,0.04c-8.99-0.2-14.93-6.19-14.87-13.65
			c0.07-7.93,6.11-13.07,15.81-13.44c0.55-0.02,1.11-0.02,1.66-0.02c7.19,0,14.39,0,21.58,0
			C567.93,694.6,567.93,694.61,567.93,694.62z"/>
		<path class="st0" d="M775.2,643.77c-8.32,0-16.65,0.19-24.97-0.05c-8.24-0.24-13.65-5.19-14.15-12.36
			c-0.49-7.16,4.25-13.13,12.48-13.85c17.7-1.55,35.48-1.5,53.18-0.05c8.35,0.68,12.92,6.56,12.49,13.84
			c-0.42,7.13-5.9,12.18-14.06,12.42C791.85,643.96,783.52,643.77,775.2,643.77z"/>
		<path class="st0" d="M541.5,436.96c-7.76,0-15.54,0.21-23.29-0.05c-9.31-0.32-14.79-5.45-14.86-13.38
			c-0.07-7.95,5.31-13.46,14.58-13.66c16.08-0.35,32.17-0.33,48.25-0.02c9.36,0.18,14.79,5.51,14.86,13.41
			c0.07,8.25-5.58,13.28-15.41,13.72c-0.55,0.02-1.11,0.02-1.66,0.02c-7.49,0-14.98,0-22.46,0
			C541.5,436.98,541.5,436.97,541.5,436.96z"/>
		<path class="st0" d="M335.48,436.11c8.32,0,16.65-0.2,24.96,0.06c7.68,0.24,13.08,5.15,13.74,11.86
			c0.7,7.11-3.99,13.57-12.02,14.27c-18.24,1.6-36.56,1.69-54.8-0.11c-7.45-0.74-11.14-5.94-11.31-13.18
			c-0.16-6.84,5.34-12.43,12.8-12.76c8.86-0.39,17.75-0.09,26.63-0.09C335.48,436.14,335.48,436.13,335.48,436.11z"/>
		<path class="st0" d="M619.68,487.81c8.32,0,16.65-0.2,24.97,0.05c8.22,0.25,13.81,5.25,14.36,12.24
			c0.54,6.83-4.51,13.4-12.45,14.08c-17.69,1.51-35.47,1.39-53.17,0.07c-8.08-0.6-13.17-7-12.71-13.83
			c0.48-7.2,5.86-12.26,14.04-12.55C603.02,487.59,611.35,487.82,619.68,487.81z"/>
		<path class="st0" d="M425.7,436.16c4.43,0,8.88-0.27,13.29,0.06c7.53,0.57,12.97,5.76,12.91,12.67
			c-0.06,7.26-3.9,12.11-11.22,13.3c-9.89,1.61-19.89,1.74-29.77,0c-7.83-1.38-11.77-6.67-11.04-14.05
			c0.73-7.49,5.24-11.39,12.54-11.92C416.82,435.9,421.27,436.16,425.7,436.16z"/>
		<path class="st0" d="M451.32,591.98c-4.43-0.01-8.89,0.33-13.28-0.08c-7.25-0.68-12-4.91-12.5-12.15
			c-0.5-7.2,3.45-12.4,10.64-13.74c10.39-1.93,20.97-1.97,31.35,0.14c6.84,1.39,10.41,6.31,10.02,13.29
			c-0.41,7.4-4.92,11.64-12.12,12.44C460.78,592.4,456.03,591.98,451.32,591.98z"/>
	</g>
</g>
<g id="Capa_3">
</g>
<g id="Capa_4">
</g>
<g id="Capa_5">
</g>
<g id="Capa_6">
</g>
<g id="Capa_7">
</g>
</svg>
