<?xml version="1.0" encoding="utf-8"?>
<!-- Generator: Adobe Illustrator 25.4.1, SVG Export Plug-In . SVG Version: 6.00 Build 0)  -->
<svg version="1.1" xmlns="http://www.w3.org/2000/svg" xmlns:xlink="http://www.w3.org/1999/xlink" x="0px" y="0px"
	 viewBox="0 0 1080 1080" style="enable-background:new 0 0 1080 1080;" xml:space="preserve">
<style type="text/css">
	.st0{fill:#00968B;}
</style>
<g id="Capa_1">
	<g>
		<path class="st0" d="M538.11,959.59c-120.9,0-241.8,0.01-362.69-0.02c-4.02,0-8.11,0.04-12.03-0.65
			c-7.96-1.41-12.65-7.2-12.18-14.29c0.47-7.13,5.76-12.65,13.74-12.91c13.52-0.44,27.06-0.48,40.58-0.11
			c6.92,0.19,9.6-1.83,9.58-9.2c-0.19-112.55-0.16-225.1-0.05-337.65c0.01-5.42-1.55-8.84-6.27-12.01
			c-18.56-12.46-27.59-30.45-28.13-52.59c-0.37-15.25,0-30.51-0.12-45.77c-0.04-5.08,1.3-9.56,3.92-13.88
			c20.49-33.69,40.86-67.45,61.36-101.12c8.31-13.65,20.61-20.39,36.64-20.39c49.51,0.03,99.02-0.02,148.53,0.03
			c11.02,0.01,17.51,5,17.9,13.34c0.4,8.47-6.57,14.65-17.67,14.69c-47.21,0.16-94.42,0.47-141.62-0.17
			c-11.95-0.16-18.9,3.75-24.72,14.11c-12.53,22.32-26.37,43.91-39.56,65.87c-1.57,2.61-5.2,5.24-3.69,8.2
			c1.58,3.09,5.77,1.38,8.76,1.39c89.23,0.08,178.47,0.07,267.7,0.07c115.43,0,230.86,0,346.29,0c2.3,0,4.61-0.06,6.91,0
			c3.84,0.09,5.62-0.87,3.14-4.94c-16.01-26.3-31.93-52.66-47.93-78.97c-3.37-5.54-8.99-5.46-14.55-5.46
			c-47.21,0.01-94.42,0.03-141.62-0.05c-3.99-0.01-8.11-0.2-11.95-1.16c-6.6-1.65-10.42-6.3-10.26-13.17
			c0.17-7.22,4.41-11.72,11.38-13.28c2.76-0.62,5.72-0.47,8.59-0.48c48.07-0.02,96.14,0.1,144.21-0.08
			c17.35-0.06,30.44,6.71,39.45,21.69c19.88,33.05,39.92,66,59.97,98.94c3.24,5.33,4.96,10.92,4.72,17.18
			c-0.68,18.09,1.47,36.27-1.34,54.29c-2.77,17.78-12.08,31.6-26.81,41.55c-4.67,3.16-6.36,6.51-6.36,11.96
			c0.12,112.55,0.14,225.1-0.04,337.65c-0.01,7.17,2.28,9.61,9.41,9.36c12.65-0.45,25.33-0.23,37.99-0.07
			c10.19,0.13,16.38,5.46,16.47,13.77c0.08,7.92-5.49,13.08-15.49,14.04c-3.71,0.36-7.48,0.26-11.22,0.26
			C778.75,959.6,658.43,959.59,538.11,959.59z M243.18,757.23c0,54.41,0.18,108.83-0.18,163.24c-0.06,8.82,2.71,11.18,11.35,11.16
			c105.94-0.27,211.89-0.27,317.84,0.01c8.83,0.02,11.22-2.62,11.17-11.27c-0.33-63.62-0.16-127.25-0.19-190.87
			c0-7.21,0.41-14.35,1.33-21.51c7.26-56.69,64.77-95.38,119.92-80.57c43.25,11.62,72.62,49.52,72.78,94.82
			c0.24,66.5,0.17,133.01-0.07,199.51c-0.03,7.56,2.27,10.2,9.87,9.85c11.78-0.54,23.6-0.12,35.4-0.15
			c11.37-0.02,11.42-0.04,11.42-11.59c0.02-52.97,0.01-105.95,0.01-158.92c0-55.56-0.11-111.13,0.12-166.69
			c0.03-7.25-1.57-10.81-9.63-11.69c-13.81-1.51-25.88-7.66-35.65-17.72c-3.22-3.31-5.44-3.7-9.23-0.35
			c-28.88,25.51-60.54,25.66-89,0.36c-4.08-3.62-6.18-3.07-9.86,0.32c-27.13,25.02-63.14,24.64-88.9-0.99
			c-3.28-3.26-4.54-3.4-7.9-0.05c-25.84,25.7-61.77,26.11-88.89,1.09c-3.61-3.33-5.73-4.14-9.86-0.42
			c-28.09,25.3-60.52,25.2-88.99-0.19c-3.66-3.26-5.7-3.06-9.25,0.1c-28.46,25.33-60.55,25.32-89.05-0.02
			c-3.63-3.23-5.84-3.4-9.21,0.09c-9.72,10.09-21.78,16.38-35.59,17.81c-8.62,0.89-9.95,4.76-9.91,12.27
			C243.3,648.98,243.18,703.11,243.18,757.23z M749.15,818.61c0-31.08,0.03-62.16-0.03-93.24c-0.01-6.32,0.2-12.66-1.2-18.91
			c-8.04-35.65-39.62-57.63-77.32-53.79c-32.37,3.3-58.95,33.63-59.06,68.19c-0.21,66.76,0.03,133.53-0.22,200.29
			c-0.03,7.67,1.9,10.56,10.12,10.48c39.13-0.39,78.28-0.36,117.41-0.02c7.87,0.07,10.53-2.27,10.45-10.26
			C748.95,887.11,749.15,852.86,749.15,818.61z M502.89,505.42c0.17,7.16-0.25,14.32,1.21,21.46c3.51,17.1,16.66,28.23,33.97,28.36
			c18.04,0.13,31.28-10.72,34.78-28.33c2.27-11.41,0.69-22.93,1.29-34.38c0.3-5.65-2.08-7.59-7.61-7.5
			c-14.36,0.24-28.73,0.07-43.1,0.07C502.91,485.12,502.91,485.12,502.89,505.42z M832.84,485.13c-9.18,0-18.37,0.15-27.55-0.06
			c-5.02-0.11-7.41,1.65-7.31,6.94c0.21,10.61-0.3,21.25,0.23,31.84c0.9,18.01,16.53,31.53,35.58,31.39
			c18.45-0.13,33.37-13.82,34.12-31.8c0.43-10.31-0.06-20.66,0.21-30.98c0.15-5.69-2.32-7.56-7.75-7.41
			C851.21,485.32,842.02,485.13,832.84,485.13z M244.33,485.12c-8.92,0-17.85,0.26-26.76-0.09c-6.12-0.24-9.06,1.59-8.78,8.23
			c0.39,9.48-0.07,19,0.2,28.49c0.55,19.31,15.23,33.44,34.47,33.5c19.83,0.06,34.77-13.98,35.39-33.58c0.3-9.49-0.14-19,0.17-28.49
			c0.19-5.85-1.79-8.39-7.93-8.15C262.18,485.39,253.25,485.12,244.33,485.12z M734.67,485.13c-9.21,0-18.43,0.14-27.63-0.06
			c-4.93-0.11-7.55,1.39-7.43,6.83c0.23,10.36-0.32,20.75,0.22,31.08c0.99,19.01,16.27,32.5,35.84,32.26
			c18.94-0.24,33.34-14.13,33.95-33.07c0.3-9.2-0.21-18.44,0.22-27.63c0.33-6.95-1.88-10-9.27-9.55
			C751.96,485.52,743.3,485.12,734.67,485.13z M342.84,485.14c-9.5,0-19,0.15-28.49-0.06c-5.23-0.12-7.24,2.12-7.16,7.2
			c0.16,9.5-0.12,19,0.09,28.49c0.45,19.86,14.32,34.05,33.45,34.47c20.32,0.45,35.53-13.31,36.46-33.47
			c0.45-9.77-0.09-19.57,0.21-29.35c0.18-5.8-2.4-7.52-7.79-7.36C360.69,485.32,351.76,485.13,342.84,485.14z M441.39,485.12
			c-9.18,0-18.37,0.29-27.54-0.1c-6.52-0.27-8.62,2.51-8.42,8.66c0.3,9.46-0.11,18.94,0.21,28.4c0.57,17.22,13.31,31.35,29.33,32.92
			c19.91,1.96,35.27-8.33,39.37-26.58c2.86-12.76,1.01-25.73,1.27-38.6c0.09-4.43-3.31-4.7-6.67-4.7
			C459.75,485.14,450.57,485.14,441.39,485.12z M636.51,485.14c-9.47,0-18.94,0.11-28.4-0.05c-4.6-0.08-6.95,1.5-6.85,6.44
			c0.19,10.04-0.44,20.12,0.25,30.11c1.45,20.89,16.49,34.21,37.09,33.57c19.25-0.59,32.5-14.9,32.89-35.68
			c0.15-8.32-0.25-16.65,0.13-24.96c0.32-6.88-1.91-10.01-9.29-9.57C653.75,485.52,645.12,485.12,636.51,485.14z"/>
		<path class="st0" d="M538.24,106.68c60.24-0.47,111.28,46.45,116.82,106.42c2.28,24.69-5.85,46.57-15.66,68.03
			c-23.56,51.52-54.72,98.52-87.81,144.28c-7.99,11.05-17.86,11.74-25.45,1.18c-35.95-50.07-69.7-101.44-94.3-158.36
			c-22.54-52.15-4.39-99.63,25.28-128.51C478.71,118.7,507.73,106.92,538.24,106.68z M538.89,134.39
			c-13.38-0.04-27.01,3.15-39.19,8.85c-35.89,16.79-62.32,62.4-45.04,107.14c19.76,51.16,49.75,96.43,80.46,141.33
			c2.95,4.31,4.9,2.44,6.99-0.61c28.92-42.29,57.2-84.96,76.81-132.61c4.58-11.13,8.68-22.6,8.87-34.91
			C628.51,175.48,587.64,134.51,538.89,134.39z"/>
		<path class="st0" d="M412.4,841.08c-31.94-0.01-63.87-0.08-95.81,0.04c-7.75,0.03-13.57-2.43-15.9-10.32
			c-2.28-7.7,2.96-15.74,11.89-16.47c6.77-0.55,7.84-3.53,7.81-9.32c-0.18-34.52-0.11-69.05-0.07-103.57
			c0.01-14.91,4.38-19.7,19.53-19.76c48.33-0.2,96.67-0.2,145-0.01c16.35,0.07,20.91,5.01,20.95,21.43
			c0.08,33.37,0.12,66.75-0.05,100.12c-0.03,6.42,0.44,10.6,8.74,11.39c7.33,0.7,11.16,6.68,10.59,14.41
			c-0.53,7.26-5.77,11.9-14.28,11.95c-31.36,0.18-62.72,0.1-94.08,0.12C415.28,841.08,413.84,841.08,412.4,841.08z M412.35,709.64
			c-18.68,0-37.37,0.23-56.05-0.12c-6.73-0.13-9.04,2.04-8.97,8.87c0.3,29.03,0.26,58.06,0.02,87.1c-0.05,6.29,1.92,8.59,8.39,8.55
			c37.65-0.23,75.31-0.24,112.97,0.01c6.7,0.04,9.06-2.03,9-8.86c-0.29-29.03-0.25-58.06-0.02-87.1c0.05-6.29-1.96-8.66-8.42-8.56
			C450.3,709.84,431.32,709.64,412.35,709.64z"/>
		<path class="st0" d="M735.88,809.59c0,4.3,0.27,8.61-0.06,12.88c-0.62,8.19-6.34,13.44-13.97,13.25
			c-7.5-0.19-12.54-5.05-12.87-13.22c-0.34-8.29-0.36-16.62,0.04-24.91c0.38-7.93,5.86-12.91,13.24-12.9
			c7.11,0.01,12.84,5.27,13.53,12.88c0.36,3.98,0.06,8.01,0.06,12.02C735.86,809.59,735.87,809.59,735.88,809.59z"/>
		<path class="st0" d="M537.95,284.67c-33.53-0.11-60.55-27.49-60.42-61.23c0.13-33.28,27.97-60.81,61.3-60.61
			c33.27,0.2,60.76,28.09,60.55,61.43C599.18,257.68,571.62,284.78,537.95,284.67z M571.21,223.6c-0.1-19.02-14.24-32.7-33.59-32.49
			c-18.24,0.19-32.97,15.15-32.57,33.1c0.4,17.95,15.36,32.81,33.24,33.01C556.62,257.42,571.3,242.43,571.21,223.6z"/>
	</g>
</g>
<g id="Capa_2">
</g>
<g id="Capa_3">
</g>
<g id="Capa_4">
</g>
<g id="Capa_5">
</g>
<g id="Capa_6">
</g>
<g id="Capa_7">
</g>
</svg>
