<?xml version="1.0" encoding="utf-8"?>
<!-- Generator: Adobe Illustrator 25.4.1, SVG Export Plug-In . SVG Version: 6.00 Build 0)  -->
<svg version="1.1" xmlns="http://www.w3.org/2000/svg" xmlns:xlink="http://www.w3.org/1999/xlink" x="0px" y="0px"
	 viewBox="0 0 1080 1080" style="enable-background:new 0 0 1080 1080;" xml:space="preserve">
<style type="text/css">
	.st0{fill:#00968B;}
</style>
<g id="Capa_1">
	<g>
		<path class="st0" d="M155.04,453.68c31.25-32.5,72.91-34.14,106.47-4.19c18.11,16.16,40.57,16.24,58.7,0.21
			c32.37-28.64,69.48-28.86,102.47-0.57c4.13,3.54,8.33,6.9,13.42,9.01c7.24,3,7.99,2.61,7.99-5.11
			c0.03-34.96-0.18-69.93,0.09-104.89c0.14-18.18-1.32-36.41,1.43-54.56c8.68-57.19,61.58-102.9,119.56-103.43
			c46.9-0.43,83.05,19.22,108.9,57.98c3.68,5.52,4.82,4.75,8.04-0.2c44.81-68.63,139.02-78.2,195.22-19.7
			c26.42,27.5,37.14,60.87,34.54,98.68c-0.55,8.03-6.36,14.08-15.22,14.27c-21.65,0.47-43.34,0.56-64.98-0.04
			c-10.11-0.28-15.06-6.83-15.24-17.19c-0.05-2.71,0.07-5.42-0.07-8.12c-0.87-17.04-12.99-29.66-28.69-29.94
			c-15.73-0.28-28.82,12.79-29.19,30.1c-0.42,19.94-0.12,39.89-0.13,59.83c0,25.12,0.17,50.23-0.12,75.35
			c-0.07,6,2.46,8.35,7.84,9.37c16.05,3.02,29.26-1.81,41.13-12.88c23.12-21.58,55.77-25.44,83.62-10.62
			c5.47,2.91,10.43,6.52,14.91,10.79c7.25,6.9,8.34,16.53,2.57,22.94c-6.17,6.86-14.91,7.2-23.03,0.3
			c-7.77-6.6-16.26-10.76-26.61-11.29c-12.31-0.63-22.79,3.31-31.59,11.71c-17.75,16.94-38.82,23.6-62.98,20.39
			c-4.45-0.59-5.77,0.62-5.76,4.83c0.07,27.09,0.1,54.17-0.02,81.26c-0.02,4.29,1.94,6.2,5.83,7.1c14.61,3.4,27.96,1.16,39.24-9.16
			c11.1-10.15,23.19-18.31,38.3-20.99c24.34-4.33,45.92,1.39,64.29,18.13c7.17,6.53,8.03,15.71,2.48,22.41
			c-5.88,7.1-15.27,8.13-22.82,0.98c-17.49-16.55-43.96-14.25-61.1,2.08c-27.97,26.66-69.71,25.84-98.54-0.04
			c-20.7-18.58-40.7-18.8-61.85-0.67c-32.17,27.58-70.46,27.01-101.9-1.52c-17.38-15.77-40.64-15.73-58.09,0.1
			c-31.39,28.47-69.76,28.97-101.91,1.34c-21.01-18.06-41.02-17.78-61.86,0.86c-28.89,25.83-70.54,26.54-98.55-0.16
			c-16.7-15.92-43.26-18.78-61.11-1.93c-8.97,8.47-17.97,5.95-25.71-5.38c0-3.94,0-7.88,0-11.82c2.89-3.01,5.51-6.35,8.71-8.97
			c29.01-23.71,66.63-22.48,96.45,3.02c21.01,17.96,40.93,18.03,61.45,0.22c31.64-27.46,70.47-27.11,101.39,0.98
			c4.23,3.84,8.77,7.08,14.11,9.26c4.71,1.92,7.11,1.83,7.06-4.47c-0.24-26.59-0.23-53.18,0-79.77c0.05-5.26-1.91-7.47-6.87-8.42
			c-13.14-2.52-24.42-8.84-34.36-17.71c-21.22-18.95-41.6-18.78-63.01,0.34c-13.96,12.47-30.25,18.93-49.11,18.89
			c-19.71-0.04-36.32-7.28-50.71-20.51c-17.94-16.49-39.36-16.95-58.11-1.6c-10.3,8.43-17.89,7.44-26.99-3.53
			C155.04,462.55,155.04,458.11,155.04,453.68z M474.7,580.44c9.37-7.25,15.79-15.3,25.14-18.7c7.91-2.87,9.49-7.8,9.46-15.69
			c-0.3-77.03-0.23-154.07-0.15-231.11c0.03-29.66,19.82-53.37,48.92-59.05c27.07-5.28,54.79,10.09,66.09,35.99
			c2.58,5.9,0.55,14.94,7.2,17.42c6.07,2.27,13.6,0.66,20.49,0.67c9.99,0.01,11.16-1.18,9.25-11.23
			c-8.47-44.52-45.01-77.33-92.75-77.76c-38.39-0.35-72.91,24.22-87,60.03c-4.85,12.34-6.6,25.21-6.61,38.3
			c-0.09,83.93-0.04,167.85-0.04,251.78C474.7,573.5,474.7,575.91,474.7,580.44z M727.79,431.75c0-39.14-0.09-78.28,0.03-117.42
			c0.09-29.08,19.98-52.72,48.81-58.41c27.33-5.4,55.38,10.29,66.44,36.56c2.4,5.71,0.38,14.41,6.87,16.82
			c5.86,2.18,13.12,0.66,19.76,0.67c10.98,0.02,11.92-1.12,10-11.88c-11.49-64.13-84.71-97.51-140.29-63.57
			c-30.91,18.87-45.64,47.4-45.96,83.28c-0.33,36.92-0.08,73.85-0.08,110.77c0,39.14,0.09,78.28-0.1,117.42
			c-0.03,5.64,1.48,8.08,7.47,7.82c6.71-0.3,13.27,1.47,19.32,4.23c6,2.74,7.91,1.89,7.86-5.18
			C727.64,512.49,727.78,472.12,727.79,431.75z M601.24,419.3c18.21,0,36.43-0.11,54.64,0.07c4.99,0.05,7.02-1.53,6.97-6.77
			c-0.21-21.41-0.2-42.83-0.01-64.24c0.05-5.19-1.95-6.95-6.95-6.87c-12.06,0.19-24.12,0.08-36.18,0.04
			c-17.03-0.05-21.87-4.87-21.94-21.93c-0.03-8.04-1.26-15.74-6.36-22.27c-7.81-9.99-20.34-13.58-32.4-9.44
			c-11.87,4.07-19.18,14.9-19.25,29.46c-0.15,31.5,0.08,63.01-0.17,94.51c-0.05,6,2.11,7.61,7.75,7.53
			C565.3,419.15,583.27,419.31,601.24,419.3z M601.21,515.89c-17.95,0-35.91,0-53.86,0c-0.25,0-0.49,0.02-0.74,0
			c-4.96-0.45-7.17,1.53-6.98,6.77c0.29,8.35,0.2,16.72,0.03,25.08c-0.08,3.84,1.19,5.85,5.18,6.52
			c16.3,2.74,29.55,10.96,41.79,21.93c16.4,14.7,39.4,13.98,55.73-0.71c4.95-4.45,9.95-8.85,15.76-12.1
			c3.44-1.92,4.78-4.38,4.71-8.3c-0.2-10.57-0.34-21.16,0.04-31.72c0.22-5.99-2.22-7.62-7.8-7.55
			C637.12,516.03,619.16,515.89,601.21,515.89z M600.77,484.31c18.21,0,36.43-0.13,54.64,0.08c5.21,0.06,7.76-1.33,7.45-7.05
			c-0.38-6.87-0.2-13.78-0.06-20.67c0.08-4.07-1.67-5.79-5.71-5.79c-37.16,0.04-74.33,0.05-111.49-0.02
			c-4.53-0.01-6.04,2.06-5.92,6.34c0.18,6.64,0.31,13.3-0.04,19.93c-0.29,5.49,1.8,7.33,7.24,7.26
			C564.83,484.16,582.8,484.31,600.77,484.31z"/>
		<path class="st0" d="M155.04,830.43c16.84-24.78,55.23-34.04,84.99-20.45c7.68,3.5,14.49,8.28,20.67,14.04
			c18.65,17.36,41.6,17.45,60.22,0.34c29.83-27.42,69.46-27.91,100.23-1.24c21.77,18.86,41.35,18.72,62.98-0.45
			c28.96-25.67,69.87-25.48,98.76,0.45c20.65,18.54,40.74,18.71,61.87,0.52c31.85-27.41,70.67-26.97,101.33,1.16
			c18.15,16.65,41.16,16.37,59.71-0.71c24.43-22.5,56.9-26.9,85.38-11.58c5.68,3.05,10.82,6.83,15.33,11.44
			c6.5,6.64,7.3,15.75,1.96,21.92c-5.86,6.76-14.83,7.56-22.41,1.1c-8.78-7.48-18.3-12.03-30.08-11.99
			c-11.26,0.04-20.56,4.29-28.73,11.57c-32.61,29.08-70.55,29.03-103.56-0.17c-17.74-15.7-40.47-15.53-58.12,0.43
			c-31.38,28.38-69.69,28.71-101.95,0.89c-20.09-17.33-40.34-17.39-60.31-0.2c-32.61,28.07-70.73,27.74-102.59-0.89
			c-17.38-15.61-40.92-16.6-57.41-0.35c-29.48,29.06-75.94,28.2-104.42,0.24c-16.28-15.98-38.78-15.66-56.34-1.16
			c-10.85,8.96-18.32,8.12-27.52-3.1C155.04,838.31,155.04,834.37,155.04,830.43z"/>
		<path class="st0" d="M155.04,704.85c23.63-32.16,73.47-35.5,104.81-6.69c12.11,11.13,25.5,16.42,41.83,12.17
			c7.03-1.83,13.05-5.51,18.44-10.42c31.68-28.85,71.56-28.89,102.96-0.17c13.49,12.34,28.74,14.84,45.91,9.01
			c8.41-2.86,16.18,1.16,19.27,8.97c3.05,7.7-0.24,15.86-8.16,19.73c-2.64,1.28-5.48,2.26-8.32,2.98
			c-26.41,6.63-49.63,0.54-69.67-17.8c-14.78-13.52-32.42-16.62-49-8.59c-5.42,2.63-9.64,6.81-14.05,10.7
			c-11.64,10.26-25.12,16.1-40.55,17.73c-20.43,2.15-38.38-3.61-54.18-16.51c-2.29-1.87-4.46-3.88-6.72-5.78
			c-16.56-13.92-37.89-14.03-54.75-0.29c-11.43,9.32-19.19,8.42-27.81-3.22C155.04,712.73,155.04,708.79,155.04,704.85z"/>
		<path class="st0" d="M911.97,709.85c0.09,6.59-2.4,11.19-7.5,14.13c-5.07,2.92-10.39,2.87-15.49,0c-1.91-1.07-3.53-2.66-5.24-4.06
			c-17.11-13.94-38.83-13.95-55.24,0.76c-13.21,11.84-27.73,20.12-45.73,21.84c-19.9,1.9-37.43-3.59-52.99-15.85
			c-2.51-1.98-4.83-4.19-7.28-6.26c-17.28-14.6-39.85-14.62-56.33,0.78c-13.49,12.61-28.98,20.1-47.33,21.73
			c-11.01,0.97-21.64-0.94-31.71-5.24c-8.13-3.47-11.45-11.83-8.53-19.54c2.95-7.78,10.86-12.11,19.15-9.3
			c19.19,6.5,34.73,1.25,49.28-12.17c27.69-25.55,69.55-24.18,98.55,2.38c15.9,14.56,34.9,16.95,52.11,6.24
			c3.72-2.32,6.93-5.49,10.25-8.41c27.98-24.58,70.61-24.43,97.09,0.33C908.92,700.86,912.13,704.78,911.97,709.85z"/>
		<path class="st0" d="M518.06,693.93c0.14-8.5,7.41-15.63,15.67-15.36c8.41,0.28,15.06,7.53,14.8,16.12
			c-0.26,8.46-6.82,14.89-15.19,14.88C524.8,709.57,517.92,702.52,518.06,693.93z"/>
	</g>
</g>
<g id="Capa_2">
</g>
<g id="Capa_3">
</g>
<g id="Capa_4">
</g>
<g id="Capa_5">
</g>
<g id="Capa_6">
</g>
<g id="Capa_7">
</g>
</svg>
