<?xml version="1.0" encoding="utf-8"?>
<!-- Generator: Adobe Illustrator 25.4.1, SVG Export Plug-In . SVG Version: 6.00 Build 0)  -->
<svg version="1.1" id="Layer_1" xmlns="http://www.w3.org/2000/svg" xmlns:xlink="http://www.w3.org/1999/xlink" x="0px" y="0px"
	 viewBox="0 0 512 512" style="enable-background:new 0 0 512 512;" xml:space="preserve">
<style type="text/css">
	.st0{display:none;}
	.st1{display:inline;fill:#00968B;}
	.st2{fill:#00968B;}
	.st3{display:inline;}
</style>
<g class="st0">
	<path class="st1" d="M330.6,386.4c-3.9-2.3-9-1.6-11.4,2.3c-2.3,3.9-1.6,9,2.3,11.4c4.7,3.1,10.2,4.7,16.1,4.7
		c5.9,0,11.7-2,16.4-5.1c3.5-2.7,4.7-7.8,2-11.4c-2.7-3.5-7.8-4.7-11.4-2C340.4,388.7,334.5,389.1,330.6,386.4L330.6,386.4z"/>
	<path class="st1" d="M368.6,308.5c4.7,0,8.2-3.5,8.2-8.2c0-3.9-2.7-7-6.7-7.8c-3.5-50.9-38.8-89.3-86.1-93.2l-0.4-14.1
		c0-4.3-3.9-8.2-8.2-8.2h-3.9v-18c0-4.7-3.5-8.2-8.2-8.2h-22.3v-12.9c4.7-1.6,9-3.9,12.5-7.4h52.1c11,0,20-9,20-20s-8.6-20-20-20
		h-50.9c-5.5-6.3-13.3-10.2-21.9-10.2s-16.4,3.9-21.9,10.2h-50.9c-11,0-20,9-20,20s9,20,20,20H212c3.5,3.5,7.8,5.9,12.5,7.4v12.9
		H201c-4.7,0-8.2,3.5-8.2,8.2s3.5,8.2,8.2,8.2h54.4v9.8h-64.2c-4.7,0-8.2,3.5-8.2,8.2v13.7h-42.7c0-4.3-3.5-7.8-8.2-7.8
		s-8.2,3.5-8.2,8.2V283c0,4.7,3.5,8.2,8.2,8.2s8.2-3.5,8.2-8.2v-9h49.3c10.6,12.9,26.6,20.7,43.8,20.7c16.8,0,32.9-7.8,43.8-20.7
		c11.4,0.4,20.7,8.2,23.9,18.4c-3.9,0.4-7,3.9-7,7.8c0,4.7,3.5,8.2,8.2,8.2h27.4c-9,10.6-41.9,50.1-41.9,73.2
		c0,27.8,22.3,50.1,50.1,50.1c27.8,0,50.1-22.3,50.1-50.1c0-23.5-32.9-62.6-41.9-73.2L368.6,308.5z M262.1,106.8h43.8
		c2,0,3.9,1.6,3.9,3.9c0,2-1.6,3.9-3.9,3.9h-43.8c0.4-1.6,0.4-2.7,0.4-4.3C262.5,109.2,262.1,108,262.1,106.8z M159.9,114.7
		c-2,0-3.9-1.6-3.9-3.9c0-2,1.6-3.9,3.9-3.9h43.8c0,1.2-0.4,2-0.4,3.1c0,1.6,0.4,3.1,0.4,4.3h-43.8L159.9,114.7z M219.8,110
		c0-7,5.9-12.9,12.9-12.9s12.9,5.9,12.9,12.9s-5.9,12.9-12.9,12.9S219.8,117.4,219.8,110z M318.1,292c-3.9-19.6-21.1-34.5-41.9-34.5
		H273c-2.7,0-5.1,1.2-6.7,3.5c-7.4,11-20,17.2-32.9,17.2c-12.9,0-25.4-6.7-32.9-17.2c-1.6-2.3-3.9-3.5-6.7-3.5h-53.6v-42.3h50.9
		c4.7,0,8.2-3.5,8.2-8.2v-13.7h64.2h3.9l0.4,13.7c0,4.3,3.9,8.2,8.2,8.2c41.9,0,74.4,32.5,77.9,76.7H318.1z M371.3,381.7
		c0,18.4-15.3,33.7-33.7,33.7S304,400.1,304,381.7c0-12.9,18.8-39.5,33.7-57.5C352.5,342.1,371.3,369.1,371.3,381.7z"/>
</g>
<g class="st0">
	<path class="st1" d="M433.4,120.9c0,101.5,0,203.1,0,304.6c-2.8,3.8-6.7,4.3-11.1,4.3c-110.5,0-221,0-331.6,0c-1.2,0-2.3,0-3.5,0
		c-6-0.3-8.6-3-8.6-8.9c0-98.6,0-197.3-0.1-295.9c0-3.9,1.5-6.5,4.8-8.5c4.9-3,9.7-6.2,14.7-9.1c2.1-1.3,3.1-2.9,3-5.4
		c-0.1-3.9-0.1-7.9,0.1-11.8c0.3-5.1,3.5-8.2,7.8-7.9c4.1,0.3,6.8,3.5,6.9,8.4c0.1,3.8,0.1,7.6,0,11.4c-0.1,2.3,0.8,3.6,2.7,4.7
		c5.4,3.1,10.7,6.5,16,9.6c3.5,2,4.9,4.8,4.9,8.8c-0.1,11.2-0.1,22.4,0,33.6c0,3.9,0.6,4.5,4.5,4c16.5-1.8,32.3-5.9,47.2-13.6
		c20.3-10.4,42.2-15.9,65-15.9c22.7,0,44.4,5.5,64.6,15.9c15.1,7.7,31,11.7,47.6,13.6c4,0.5,4.6-0.1,4.6-4.2c0-11.3,0.1-22.6,0-33.9
		c0-3.6,1.4-6.1,4.4-8c4.9-3,9.7-6.2,14.7-9.1c2.5-1.5,3.5-3.4,3.4-6.2c-0.1-3.9-0.1-7.9,0.2-11.8c0.4-4.7,3.5-7.5,7.6-7.3
		c4,0.2,6.8,3.4,6.9,8c0.1,3.8,0.1,7.6,0,11.4c-0.1,2.5,0.8,4.1,3,5.3c5.2,3,10.3,6.1,15.5,9.2C430.5,117.4,432.3,118.7,433.4,120.9
		z M139.4,269.1c0,13.6,0,27.2,0,40.8c0,4.5,0.2,4.6,4.7,4.6c5.5,0,11.1,0,16.6,0c5,0,5.1-0.1,5.1-5c0-11.3,0-22.6,0-33.9
		c0-3.2,1-5.7,3.8-7.2c4.9-2.7,10.5,0.8,10.5,6.7c0.1,11.8,0.1,23.5,0,35.3c0,3,1,4.2,4,4.1c5.9-0.1,11.8-0.2,17.6,0
		c3.4,0.1,4.4-1.2,4.4-4.5c-0.1-27.2-0.1-54.4,0-81.6c0-3.4-1.2-4.4-4.4-4.3c-19.3,0.1-38.5,0.1-57.8,0.1c-4.5,0-4.6,0.1-4.6,4.7
		C139.4,242.4,139.4,255.8,139.4,269.1z M125,257.6c0-24.9,0-49.8,0-74.8c0-4.2-0.3-4.5-4.5-4.5c-7.8,0-15.7,0-23.5,0
		c-2.7,0-3.9,1-3.9,3.8c0.1,50.3,0.1,100.6,0,150.9c0,2.9,1.1,3.9,3.9,3.9c7.7-0.1,15.5,0,23.2,0c4.7,0,4.9-0.2,4.9-4.8
		C125,307.2,125,282.4,125,257.6z M387.3,257.6c0,24.9,0,49.8,0,74.8c0,2.6,0.2,4.6,3.6,4.5c8.3-0.1,16.6-0.1,24.9,0
		c2.8,0,3.6-1.3,3.5-3.8c-0.1-4,0-8.1,0-12.1c0-45.8,0-91.6,0-137.4c0-5.1-0.1-5.2-5.3-5.2c-7.3,0-14.5,0-21.8,0
		c-4.7,0-4.9,0.3-4.9,4.9C387.3,208,387.3,232.8,387.3,257.6z M318.1,329.5c-16.7,0-33.4,0-50.2,0c-4.6,0-4.7,0.1-4.7,4.6
		c0,25.4,0,50.7,0,76.1c0,4.5,0.1,4.6,4.7,4.7c30,0,60,0,89.9,0c4.5,0,4.7-0.2,4.7-4.7c0-19.8,0-39.7,0-59.5c0-2.2-0.1-4.4,0.2-6.6
		c0.5-4.1,2.3-6.3,6.5-6.9c3.3-0.5,3.7-2.4,3.5-5.1c-0.2-3-2.3-2.7-4.2-2.7C351.8,329.5,335,329.5,318.1,329.5z M193.9,329.5
		c-17,0-33.9,0-50.9,0c-1.9,0-3.5,0.2-3.5,2.7c0,2.2-0.4,4.3,2.8,4.9c5.4,1.1,7.1,3.3,7.3,8.8c0.1,1.3,0,2.5,0,3.8
		c0,20.1,0,40.1,0,60.2c0,4.8,0.2,5,4.8,5c29.8,0,59.5,0,89.3,0c4.5,0,4.7-0.2,4.7-4.6c0-25.4,0-50.8,0-76.1c0-4.5-0.2-4.6-4.7-4.6
		C227.1,329.5,210.5,329.5,193.9,329.5z M306,209.5c12.8,0,25.6,0,38.4,0c4.5,0,5.5-1.5,4.3-5.8c-1.3-4.4-5.2-7.3-10.4-7.8
		c-6.7-0.6-13.1,0.7-19.3,3.2c-4.6,1.8-9.2,3.8-13.8,5.4c-5.6,2-11.5,2.5-17.4,1c-10.7-2.7-17.4-12.2-16.7-23.6
		c0.6-9.9,8.8-18.1,19.4-19.4c5-0.6,9.1,2.5,9.3,7c0.2,4-2.6,6.8-7.8,7.7c-3.9,0.7-6.5,3.5-6.4,7c0.1,3.5,2.8,6.5,6.4,7.1
		c3.4,0.5,6.7,0.1,9.9-1.1c3.9-1.5,7.7-3.1,11.5-4.7c7.6-3,15.4-4.8,23.6-4.5c15.3,0.5,25.6,10.3,26.5,25.3c0.2,3.6,2.6,3.2,4.8,3.2
		c2.3,0.1,4.4,0,4.4-3.3c-0.1-7.4,0-14.8,0-22.1c0-6.1,0-6.1-6.2-6.8c-0.1,0-0.2,0-0.3,0c-18-1.7-35.1-6.1-51.2-14.5
		c-15.1-7.9-31.3-12.1-48.2-14.1c-3.1-0.4-3.7,0.7-3.7,3.5c0.1,17.6,0.1,35.3,0,52.9c0,3.3,1.2,4.5,4.4,4.4
		C280.4,209.4,293.2,209.5,306,209.5z M205.2,209.5c12.7,0,25.4,0,38.1,0c5,0,5.2-0.2,5.2-5c0-17.3-0.1-34.6,0.1-51.9
		c0-3.1-0.7-4.3-4.1-3.9c-17.1,2.1-33.5,6.6-48.8,14.5c-8.4,4.4-17.2,7.8-26.4,10.1c-8.7,2.2-17.6,3.5-26.6,4.4
		c-2.3,0.2-3.2,1.3-3.1,3.6c0.1,2.9,0,5.8,0,8.6c0,5.5,0,11.1,0,16.6c0,3.5,2.6,2.9,4.7,3c2.1,0.1,3.5-0.2,3.5-3
		c-0.1-3.7,0.7-7.3,2.3-10.7c5.2-10.7,17.5-16.5,31-14.7c8.6,1.1,16.5,4,24.4,7.4c3.7,1.6,7.5,3,11.7,2.9c5-0.1,8.2-2.7,8.5-6.8
		c0.3-4.3-1.8-6.6-7-7.6c-4.7-0.9-7.4-4.3-6.8-8.4c0.6-4.1,4.4-6.7,9-6.2c10.3,1.2,18,8.5,19.6,19c1.4,9-4.2,18.7-13,22.7
		c-6.2,2.8-12.5,2.7-18.9,1c-5.5-1.4-10.6-3.9-15.8-6c-6.2-2.5-12.6-3.8-19.3-3.2c-4.8,0.4-8.6,2.5-10.4,7.3
		c-1.7,4.5-0.4,6.3,4.3,6.3C179.8,209.5,192.5,209.5,205.2,209.5z M134.8,383.3c0-9.3-0.1-18.7,0-28c0-2.6-0.9-3.7-3.6-3.7
		c-11.5,0.1-23.1,0.1-34.6,0c-2.8,0-3.6,1.1-3.6,3.7c0.1,18.6,0.1,37.1,0,55.7c0,2.8,0.9,3.9,3.8,3.9c11.4-0.1,22.8-0.1,34.2,0
		c2.9,0,3.8-1.1,3.8-3.9C134.7,401.8,134.8,392.6,134.8,383.3z M419.2,383.2c0-9.2-0.1-18.5,0.1-27.7c0-3.1-1.1-4-4.1-4
		c-11.3,0.1-22.6,0.1-33.9,0c-2.8,0-3.9,1-3.9,3.8c0.1,18.6,0.1,37.1,0,55.7c0,2.9,1.1,3.8,3.9,3.8c11.3-0.1,22.6-0.1,33.9,0
		c3,0,4.1-1,4-4C419.2,401.7,419.2,392.5,419.2,383.2z M263.3,269.4c0,13.7,0.1,27.4,0,41.2c0,2.9,0.9,4.2,3.9,4.1
		c6.7-0.1,13.4-0.1,20.1,0c2.9,0.1,4.1-1,4.1-4c-0.1-27.4-0.1-54.9,0-82.3c0-3.3-1.3-4.2-4.3-4.1c-6.3,0.2-12.7,0-19,0.1
		c-4.6,0-4.7,0.1-4.7,4.6C263.3,242.4,263.3,255.9,263.3,269.4z M221,269.1c0,13.7,0.1,27.4,0,41.2c0,3,0.8,4.5,4.1,4.4
		c6.6-0.2,13.1-0.1,19.7,0c2.7,0,3.6-1.1,3.6-3.7c0-27.7,0-55.4,0-83c0-2.7-1.1-3.7-3.7-3.6c-6.5,0.1-12.9,0.2-19.4,0
		c-3.4-0.1-4.4,1.1-4.3,4.4C221.1,242.1,221,255.6,221,269.1z M332,269.4c0-13.7-0.1-27.4,0-41.1c0-2.9-0.9-4.2-3.9-4.1
		c-6.1,0.2-12.2,0.1-18.3,0c-2.7-0.1-3.7,1-3.7,3.7c0.1,27.7,0.1,55.3,0,83c0,2.9,1.2,3.8,4,3.8c5.9-0.1,11.8-0.2,17.6,0
		c3.3,0.1,4.4-1.1,4.4-4.4C332,296.6,332,283,332,269.4z M372.9,269.5c0-13.7-0.1-27.5,0-41.2c0-3-0.9-4.1-4-4c-6,0.2-12,0.2-18,0
		c-3.2-0.1-4.3,1.3-4.2,4.3c0.1,2.9,0,5.8,0,8.7c0,24.2,0,48.5,0,72.7c0,4.4,0.4,4.7,4.8,4.7c5.7,0,11.3-0.1,17,0.1
		c3.3,0.1,4.5-1,4.4-4.4C372.8,296.7,372.9,283.1,372.9,269.5z M125,145.3c0-4.8-0.1-9.7,0-14.5c0-2-0.6-3.5-2.4-4.5
		c-3.9-2.2-7.8-4.5-11.6-6.9c-1.7-1-3.1-1-4.8,0.1c-3.6,2.3-7.2,4.6-10.8,6.8c-1.8,1.1-2.4,2.5-2.4,4.6c0.1,9.7,0.1,19.4,0,29
		c0,2.6,0.8,3.8,3.6,3.7c8.3-0.1,16.6-0.1,24.9,0c2.8,0,3.7-1.1,3.6-3.7C125,155,125,150.2,125,145.3z M419.2,145.5
		c0-5-0.1-9.9,0-14.9c0-1.9-0.6-3.3-2.3-4.2c-3.9-2.3-7.8-4.5-11.6-6.9c-1.8-1.1-3.3-1.1-5.1,0.1c-3.5,2.3-7,4.5-10.5,6.6
		c-1.8,1.1-2.5,2.5-2.5,4.5c0.1,9.8,0.1,19.6,0,29.4c0,2.5,0.9,3.5,3.4,3.5c8.4-0.1,16.8-0.1,25.2,0c2.6,0,3.4-1.2,3.4-3.6
		C419.2,155.2,419.2,150.3,419.2,145.5z"/>
	<path class="st1" d="M173,253.4c-4.1,0-7.2-3.1-7.1-7.3c0.1-3.9,3.2-7,7-7c4,0,7.3,3.1,7.3,7.2C180.2,250.4,177.2,253.4,173,253.4z
		"/>
	<path class="st1" d="M313.2,402.1c-8.9,0-17.7,0-26.6,0c-7.5,0-10-2.5-10-9.9c0-13.6,0-27.2,0-40.8c0-6.1,2.6-8.9,8.8-9
		c18.6-0.1,37.1-0.1,55.7,0c6.2,0,8.7,2.8,8.7,9c0,13.8,0,27.7,0,41.5c0,6.4-2.6,9.1-9,9.2C331.7,402.1,322.5,402,313.2,402.1
		C313.2,402.1,313.2,402.1,313.2,402.1z M313.4,357.2c-6.1,0-12.2,0.1-18.3,0c-2.9-0.1-4.2,0.8-4.1,3.9c0.2,7.5,0.1,15,0,22.5
		c0,2.6,0.9,3.7,3.6,3.7c12.4-0.1,24.9-0.1,37.3,0c2.7,0,3.6-1.1,3.6-3.7c-0.1-7.5-0.1-15,0-22.5c0.1-3.1-1.3-4-4.1-3.9
		C325.4,357.3,319.4,357.2,313.4,357.2z"/>
	<path class="st1" d="M199.1,342.3c9,0,18,0,27,0c7.1,0,9.5,2.6,9.5,9.6c0,13.7,0,27.4,0,41.1c0,5.9-2.6,8.9-8.5,8.9
		c-18.7,0.1-37.3,0.1-56,0c-6.1,0-8.7-2.9-8.7-9.1c0-13.8,0-27.7,0-41.5c0-6.3,2.6-9,9-9.1C180.7,342.3,189.9,342.3,199.1,342.3z
		 M198.9,387.2c6.1,0,12.2-0.1,18.3,0c2.9,0.1,4.2-0.8,4.1-3.9c-0.2-7.5-0.1-15,0-22.5c0-2.6-0.8-3.7-3.6-3.7
		c-12.4,0.1-24.9,0.1-37.3,0c-2.7,0-3.6,1.1-3.6,3.7c0.1,7.5,0.1,15,0,22.5c-0.1,3.1,1.2,4,4.1,3.9
		C186.9,387.1,192.9,387.2,198.9,387.2z"/>
</g>
<g>
	<path class="st2" d="M268.9,36.9c8.6,0,17.1,0,25.7,0c3.4,15.4,6.8,30.9,10.3,46.3c23.8,104.7,47.6,209.4,71.4,314.1
		c5.9,26,11.7,51.9,17.6,77.9c-41.7,0-83.3,0-125,0c-0.1-12.5-0.1-25.1-0.3-37.6c0-2.1-0.1-4.3-0.6-6.4c-1.4-5.9-7.1-10.1-12.9-9.7
		c-6.4,0.4-11.9,5.4-12,11.8c-0.2,14,0,27.9,0.1,41.9c-38.8,0-77.6,0-116.4,0c0.4-2.5,0.7-5.1,1.2-7.5
		c25.5-112.3,51.1-224.7,76.7-337c7.1-31.2,14.3-62.5,21.4-93.7c5.7,0,11.4,0,17.1,0c0,13.8-0.2,27.6-0.1,41.5
		c0,5.6,3.9,10.1,9.1,11.6c8.6,2.5,16.3-3.7,16.4-13.3C268.9,63.4,268.9,50.1,268.9,36.9z M243.1,215.5c0,6-0.1,12,0,18
		c0.1,7.5,5.4,13,12.4,13.1c6.9,0.2,12.9-5.1,13.1-12.5c0.3-12.4,0.3-24.8,0-37.2c-0.2-7.4-6.2-12.8-13.1-12.5
		c-7,0.2-12.3,5.7-12.4,13.2C243,203.5,243.1,209.5,243.1,215.5z M243,290.5c0,5.7,0,11.4,0,17.1c0,0.3,0,0.6,0,0.9
		c0.2,7.8,5.4,13.3,12.6,13.4c7.1,0.1,12.9-5.4,13-13.1c0.2-12.1,0.2-24.2,0-36.3c-0.2-7.4-5.9-12.9-12.8-12.8
		c-7.1,0-12.6,5.6-12.7,13.3C242.9,278.8,243,284.7,243,290.5z M243.1,366.8c0,5.7,0,11.4,0,17.1c0,0.3,0,0.6,0,0.9
		c0.2,7.7,5.5,13.3,12.7,13.3c7.1,0,12.8-5.5,12.9-13.2c0.2-12,0.2-23.9,0-35.9c-0.1-7.6-5.9-13.3-13-13.2
		c-7.1,0.1-12.5,5.7-12.6,13.4C243,355.1,243.1,361,243.1,366.8z M243,140.8c0,5.7-0.1,11.4,0,17.1c0.2,7.8,5.4,13.3,12.6,13.4
		c7.1,0.1,12.8-5.4,13-13.1c0.2-11.5,0.3-23.1,0-34.6c-0.2-7.5-5.9-12.9-12.8-12.8c-7.1,0-12.5,5.6-12.7,13.4
		C242.9,129.6,243,135.2,243,140.8z"/>
	<path class="st2" d="M70.3,475.1c-2.1-0.7-4.3-1.3-6.4-2.1c-14.5-5.5-23-21.6-18.5-36.5c7.4-24.5,15.6-48.8,23.5-73.2
		c32.7-100.5,65.5-200.9,97.9-301.4c4.3-13.4,12.4-21.7,25.9-25c2.3,0,4.6,0,6.8,0c-6,26.5-12,53.1-18,79.6
		c-23.8,104.7-47.6,209.4-71.4,314.1c-3.4,14.8-6.6,29.7-9.9,44.6C90.3,475.1,80.3,475.1,70.3,475.1z"/>
	<path class="st2" d="M327.1,36.9c4.9,2.3,10.1,4,14.5,6.9c6.1,4,9,10.5,11,17.3c24.3,79.8,48.6,159.6,72.9,239.3
		c13.4,43.8,26.7,87.7,40.1,131.5c4.3,13.8,2.5,26.2-8.8,35.7c-4.2,3.5-10,5.1-15,7.5c-7.1,0-14.3,0-21.4,0c-6.8-30-13.7-60-20.5-90
		c-24.1-106-48.2-211.9-72.3-317.9c-2.3-10.1-4.4-20.3-6.5-30.4C323.2,36.9,325.1,36.9,327.1,36.9z"/>
</g>
<g class="st0">
	<g class="st3">
		<path class="st2" d="M493.5,416.3h-32.8V307.8c9.8-3.3,16.4-12.3,16.4-23c0-10.7-6.6-19.7-16.4-23V112.1c0-4.9-3.3-8.2-8.2-8.2
			s-8.2,3.3-8.2,8.2v57.5h-49.1V87.5c0-4.9-3.3-8.2-8.2-8.2s-8.2,3.3-8.2,8.2v82.2h-49.1v-57.5c0-4.9-3.3-8.2-8.2-8.2
			s-8.2,3.3-8.2,8.2v57.5h-49.1V87.5c0-4.9-3.3-8.2-8.2-8.2s-8.2,3.3-8.2,8.2v82.2h-49.1v-57.5c0-4.9-3.3-8.2-8.2-8.2
			s-8.2,3.3-8.2,8.2v57.5h-49.1V87.5c0-4.9-3.3-8.2-8.2-8.2s-8.2,3.3-8.2,8.2v82.2H67.6v-57.5c0-4.9-3.3-8.2-8.2-8.2
			s-8.2,3.3-8.2,8.2v149.6c-9.8,3.3-16.4,12.3-16.4,23c0,10.7,6.6,19.7,16.4,23v108.5H18.5c-4.9,0-8.2,3.3-8.2,8.2
			c0,4.9,3.3,8.2,8.2,8.2h475c4.9,0,8.2-3.3,8.2-8.2C501.7,419.6,498.4,416.3,493.5,416.3z M116.8,416.3H67.6v-41.1h49.1V416.3z
			 M116.8,358.8H67.6v-51c6.6-2.5,12.3-8.2,14.7-14.8H102c2.5,6.6,8.2,12.3,14.7,14.8V358.8z M116.8,261.8
			c-6.6,2.5-12.3,8.2-14.7,14.8H82.4c-2.5-6.6-8.2-12.3-14.7-14.8v-75.6h49.1V261.8z M182.3,416.3h-49.1v-41.1h49.1V416.3z
			 M182.3,358.8h-49.1v-51c6.6-2.5,12.3-8.2,14.7-14.8h19.7c2.5,6.6,8.2,12.3,14.7,14.8V358.8z M182.3,261.8
			c-6.6,2.5-12.3,8.2-14.7,14.8h-19.7c-2.5-6.6-8.2-12.3-14.7-14.8v-75.6h49.1V261.8z M247.8,416.3h-49.1v-41.1h49.1V416.3z
			 M247.8,358.8h-49.1v-51c6.6-2.5,12.3-8.2,14.7-14.8h19.7c2.5,6.6,8.2,12.3,14.7,14.8V358.8z M247.8,261.8
			c-6.6,2.5-12.3,8.2-14.7,14.8h-19.7c-2.5-6.6-8.2-12.3-14.7-14.8v-75.6h49.1V261.8z M313.3,416.3h-49.1v-41.1h49.1V416.3z
			 M313.3,358.8h-49.1v-51c6.6-2.5,12.3-8.2,14.7-14.8h19.7c2.5,6.6,8.2,12.3,14.7,14.8L313.3,358.8L313.3,358.8z M313.3,261.8
			c-6.6,2.5-12.3,8.2-14.7,14.8h-19.7c-2.5-6.6-8.2-12.3-14.7-14.8v-75.6h49.1V261.8L313.3,261.8z M378.9,416.3h-49.1v-41.1h49.1
			V416.3z M378.9,358.8h-49.1v-51c6.6-2.5,12.3-8.2,14.7-14.8h19.7c2.5,6.6,8.2,12.3,14.7,14.8L378.9,358.8L378.9,358.8z
			 M378.9,261.8c-6.6,2.5-12.3,8.2-14.7,14.8h-19.7c-2.5-6.6-8.2-12.3-14.7-14.8v-75.6h49.1V261.8z M444.4,416.3h-49.1v-41.1h49.1
			V416.3z M444.4,358.8h-49.1v-51c6.6-2.5,12.3-8.2,14.7-14.8h19.7c2.5,6.6,8.2,12.3,14.7,14.8L444.4,358.8L444.4,358.8z
			 M444.4,261.8c-6.6,2.5-12.3,8.2-14.7,14.8H410c-2.5-6.6-8.2-12.3-14.7-14.8v-75.6h49.1L444.4,261.8L444.4,261.8z"/>
	</g>
</g>
<g class="st0">
	<path class="st1" d="M166.2,240.3c16,39.1,51.2,64.8,89.8,64.8c38.6,0,73.8-25.7,89.8-64.8c16.5-3.3,30.8-19.1,35.3-39.8
		c2.7-12.2,1.7-24.6-2.8-34.8c-5-11.4-14-19.3-24.7-21.7c-1.1-0.2-2.7-0.2-3.5-0.2c-4.2,8.6-11.7,16.1-21.7,22.4
		c1.1,1.1,2.5,2.1,4,2.7c3.2,1.3,6.7,1.1,9.8-0.4c1.8-0.9,3.5-1.6,6.4-1.2c4.4,0.6,6.8,5.4,7.9,7.9c2.5,5.6,3,13,1.4,20.3
		c-2.9,13.4-11.8,21.7-19.3,21.7c0,0,0,0-0.1,0c-5.6-0.4-10.8,2.8-12.5,8.1c-11.1,33.5-39.2,56.1-70,56.1c-31.3,0-58.7-22-70-56.1
		c-1.6-4.9-6.9-8.1-12.1-8.1c-0.4,0-0.8,0-1.2,0.1c-6.6,0-15.5-8.3-18.5-21.8c-1.6-7.2-1.1-14.6,1.4-20.3c1.1-2.5,3.5-7.5,9.4-8
		c1.5-0.1,3.2,0.5,5,1.4c3.1,1.5,6.6,1.7,9.8,0.4c1.5-0.6,2.8-1.5,3.9-2.7c-10-6.2-17.5-13.8-21.7-22.4c-0.8-0.1-2.5,0-3.7,0.2
		c-10.7,2.3-19.6,10.2-24.5,21.6c-4.5,10.3-5.5,22.6-2.8,34.8C135.4,221.2,149.7,236.9,166.2,240.3z"/>
	<path class="st1" d="M173.8,127.2c0,22.5,36.8,40.8,82.2,40.8c45.4,0,82.2-18.3,82.2-40.8c0-0.9-0.4-1.7-0.5-2.6H174.3
		C174.2,125.4,173.8,126.3,173.8,127.2z"/>
	<path class="st1" d="M169,100.2l2.5,8.5h169l2.5-8.5l12.1-41.4c1.1-3.7,0.6-7.7-1.3-11.1c-1.9-3.4-5.1-5.8-8.9-6.8l-67.1-17.1
		c-14.3-3.7-29.3-3.7-43.6,0l-67.1,17.1c-3.8,1-7,3.4-8.9,6.8c-1.9,3.4-2.4,7.4-1.3,11.1L169,100.2z"/>
	<path class="st1" d="M330.6,314.1h-5.7l-42.7,103.1l-12-60.6c0.2-0.3,0.5-0.5,0.8-0.8l9.7-13.7c3.6-5.1,4.1-11.9,1.2-17.4
		c-2.9-5.6-8.6-9.1-14.9-9.1h-21.8c-6.3,0-12,3.5-14.9,9.1c-2.9,5.6-2.4,12.3,1.2,17.4l9.7,13.7c0.2,0.3,0.5,0.6,0.8,0.9l-12,60.6
		l-42.7-103.1h-5.7c-50.6,0-91.7,41-91.7,91.7V491h332.6v-85.3C422.3,355.1,381.3,314.1,330.6,314.1z"/>
</g>
<g class="st0">
	<g class="st3">
		<g>
			<path class="st2" d="M269.2,25.9c-29,0-53.5,25.1-53.5,54.8s24.5,54.8,53.5,54.8s52.6-25.1,52.6-54.8S298.2,25.9,269.2,25.9z"/>
		</g>
	</g>
	<g class="st3">
		<g>
			<path class="st2" d="M327.6,135.5c-14.5,16.4-35.2,27-58.4,27c-23.2,0-44.8-10.5-59.3-27c-12.6,14.3-20.5,33.1-20.5,53.9V203
				c0,7.5,5.9,13.5,13.2,13.5H335c7.3,0,13.2-6,13.2-13.5v-13.5C348.1,168.7,340.2,149.9,327.6,135.5z"/>
		</g>
	</g>
	<g class="st3">
		<g>
			<path class="st2" d="M158.6,439.8L91.5,302c-6.5-13.3-22.2-18.7-35.2-12.1l-17.5,8.9c-6.5,3.3-9.2,11.4-5.9,18.1l78.9,161.8
				c3.2,6.7,11.1,9.3,17.6,6.1l17.3-8.8C159.8,469.3,165.1,453.1,158.6,439.8z"/>
		</g>
	</g>
	<g class="st3">
		<g>
			<path class="st2" d="M469.8,248.5c-10.8-8.1-25.8-6.5-34.7,3.5l-71.9,90.6c-5,5.4-14.5,8.6-19.5,8.6h-61.3
				c-7.4,0-13.2-5.9-13.2-13.5s5.8-13.5,13.2-13.5c17.6,0,37.1,0,52.6,0c14.5,0,26.3-12.1,26.3-27s-11.8-27-26.3-27
				c-61.8,0-2.9,0-68.9,0c-6.6,0-9.8-4.3-15-8.9c-20.4-18.8-50.8-27.8-81.7-20.5c-17.1,4.1-28.7,11.2-40.4,20.7l-0.4-0.3l-19,17.2
				l74.8,153.7h22.1H335c24.7,0,48.4-12.1,63.2-32.4l77.2-113.3C484,274.7,481.6,257.4,469.8,248.5z"/>
		</g>
	</g>
</g>
</svg>
