<?xml version="1.0" encoding="utf-8"?>
<!-- Generator: Adobe Illustrator 25.4.1, SVG Export Plug-In . SVG Version: 6.00 Build 0)  -->
<svg version="1.1" xmlns="http://www.w3.org/2000/svg" xmlns:xlink="http://www.w3.org/1999/xlink" x="0px" y="0px"
	 viewBox="0 0 1080 1080" style="enable-background:new 0 0 1080 1080;" xml:space="preserve">
<style type="text/css">
	.st0{fill:#00968B;}
</style>
<g id="Capa_1">
	<g>
		<path class="st0" d="M120.13,936.38c4.9-8.19,12.18-10.78,21.55-10.66c29.09,0.35,58.2-0.09,87.29,0.28
			c7.29,0.09,9.5-2.2,9.32-9.41c-0.44-17.83-0.22-35.68-0.1-53.52c0.44-63.05,40.72-123.37,99.46-146.79
			c37.45-14.93,75.62-28.06,113.44-42.07c12.38-4.59,12.87-5.43,12.89-18.5c0.02-11.53-0.24-23.07,0.1-34.58
			c0.17-5.68-1.89-9.09-6.87-11.79c-12.55-6.79-24.93-13.9-37.22-21.15c-27.81-16.4-41.5-41.4-43.39-73.12
			c-0.72-12.03,2.27-24.94-1.15-35.98c-3.46-11.17-15.75-17.74-23.95-26.54c-52.32-56.15-55.2-140.5-4.01-197.79
			c36.17-40.49,74.57-79.21,115.41-115.03c51.04-44.77,132.8-26.18,160.06,35.65c5.53,12.54,13.03,22.35,22.41,31.64
			c30.62,30.33,60.55,61.36,91.59,91.25c39.6,38.13,42.56,103.81-11.79,145.48c-1.74,1.33-3.51,2.99-5.52,3.53
			c-11.51,3.1-13.61,10.85-12.87,21.73c0.96,14.21,0.56,28.54,0.17,42.8c-0.93,33.54-15.39,59.49-44.46,76.77
			c-12.03,7.15-24.15,14.17-36.49,20.77c-5.11,2.73-6.81,6.21-6.66,11.82c0.34,12.34,0.43,24.71,0,37.05
			c-0.28,8.16,3.15,12.56,10.68,15.28c35.37,12.73,70.64,25.71,105.91,38.7c67.67,24.93,109.25,84.53,109.41,156.73
			c0.04,16.2,0.26,32.4-0.11,48.58c-0.15,6.56,2.18,8.5,8.58,8.45c30.47-0.24,60.94-0.21,91.41-0.02
			c12.08,0.07,19.82,8.47,18.46,19.13c-0.85,6.64-5.58,10.43-10.15,14.38c-275.34,0-550.67-0.02-826.01,0.16
			c-6.22,0-8.2-1.43-7.5-7.6C120.59,946.85,120.13,941.59,120.13,936.38z M541.69,925.85c46.66,0,93.32,0,139.98,0
			c6.86,0,13.72-0.05,20.58-0.01c3.67,0.02,6.75-0.73,6.71-5.23c-0.21-23.86,1.52-47.79-0.82-71.56
			c-1.58-16.02-11.75-24.11-27.89-24.2c-22.78-0.13-45.56-0.05-68.34-0.04c-3.85,0-7.72,0.05-11.35-1.47
			c-7.26-3.04-11.53-8.27-11.42-16.4c0.1-7.69,5.24-14.05,12.97-16.01c2.9-0.73,5.94-1.25,8.93-1.26c22.78-0.1,45.57-0.5,68.34,0.04
			c39.05,0.92,63.77,26.56,63.86,65.52c0.05,20.86,0.18,41.72-0.09,62.58c-0.08,6.04,1.86,8.26,8.02,8.15
			c17.01-0.31,34.03-0.29,51.05-0.01c6.12,0.1,8.3-2.25,8.18-8.22c-0.25-12.07,0-24.15-0.08-36.23
			c-0.08-12.33,0.78-24.77-1.68-36.93c-10.23-50.67-40.61-83.81-88.8-101.34c-34.55-12.56-69.13-25.04-103.54-37.96
			c-21.97-8.25-31.97-23.31-32.08-46.6c-0.02-5.21,0.02-10.43-0.01-15.64c-0.06-9.22-0.18-9.39-8.31-4.91
			c-18.91,10.41-38.35,11.67-58.78,4.78c-5.89-1.99-12.01-10.24-16.86-5.7c-3.36,3.14-1.02,12.48-1.04,19.05
			c-0.09,26.79-10.08,41.02-35.3,50.25c-34.01,12.45-68.04,24.83-101.99,37.4c-46.49,17.22-76.45,49.33-86.55,98.37
			c-5.35,25.98-2.81,52.48-3.05,78.77c-0.05,5.46,4.26,4.77,7.75,4.78c17.29,0.05,34.59-0.22,51.87,0.15
			c6.59,0.14,8.48-2.24,8.41-8.61c-0.27-23.33-0.41-46.67,0.07-69.99c0.59-28.36,24.37-53.48,52.55-56.53
			c24.09-2.61,48.25-0.65,72.37-1.21c4.37-0.1,8.82-0.02,13.1,0.74c9.62,1.71,15.88,8.91,15.63,17.3
			c-0.26,8.84-7.19,15.74-17.16,16.91c-2.44,0.29-4.93,0.2-7.4,0.21c-21.13,0.01-42.27-0.02-63.4,0.02
			c-21.6,0.04-31.65,10.03-31.76,31.76c-0.11,19.76,0.33,39.53-0.2,59.28c-0.22,8.02,2.38,10.21,10.25,10.16
			C436.84,925.7,489.27,925.85,541.69,925.85z M672.82,487.51c0-10.39-0.16-18.9,0.06-27.41c0.12-4.48-1.5-7.1-5.81-8.62
			c-10.89-3.82-19.38-11.17-27.39-19.21c-28.1-28.18-56.41-56.16-84.29-84.56c-5.54-5.65-8.56-6.62-14.75-0.31
			c-36.13,36.83-72.04,73.95-109.66,109.23c-15.82,14.84-24.16,30.08-20.41,51.44c0.09,0.53-0.01,1.1,0.03,1.64
			c1.58,21.5,9.47,38.99,29.41,50c27.38,15.12,54.45,30.81,81.49,46.55c13.67,7.96,26.89,7.79,40.44-0.06
			c27.55-15.95,55.13-31.83,82.81-47.56c14.88-8.46,23.04-21.38,26.55-37.76C673.81,509.21,672.39,497.39,672.82,487.51z
			 M584.1,177.27c-1.74,7.32-2.87,13.82-4.85,20.04c-11.93,37.47-43.5,59.01-69.92,84.46c-8.39,8.08-23.13,0.61-25.34-11.07
			c-1.37-7.23,1.89-12.74,6.78-17.63c13.39-13.38,27.01-26.54,40.06-40.26c14.19-14.92,20.36-32.82,17.87-53.5
			c-0.67-5.59-3.52-7.8-9.15-8.3c-23.14-2.07-43.59,3.69-60.32,20.22c-33.37,32.97-66.86,65.84-99.75,99.28
			c-27.15,27.6-37.76,60.99-31.9,99.45c4.25,27.91,19.19,49.62,38.84,68.95c5.55,5.46,8.53,5.86,14.21,0.13
			c52.74-53.18,105.8-106.05,158.75-159.02c6.79-6.79,13.78-13.4,20.25-20.48C601.08,236.1,603.09,202.1,584.1,177.27z
			 M731.04,364.66c0.39-12.63-3.64-24.76-12.67-34.66c-27.16-29.77-56.73-57.19-84.82-86.05c-4.66-4.79-5.62-1.11-6.79,2.56
			c-5.14,16.01-14.23,29.51-26.1,41.26c-7.79,7.71-15.45,15.56-23.3,23.21c-2.96,2.89-4.31,5.27-0.72,8.83
			c31.49,31.29,62.74,62.84,94.4,93.96c9.12,8.97,23.17,9.75,33.28,1.91C720.55,403.07,731.68,387.29,731.04,364.66z"/>
		<path class="st0" d="M120.13,539.45c4.1-17.71,14.73-31.65,26.16-45.09c7.33-8.62,16.84-10.23,24.73-4.42
			c8.21,6.05,9.39,16.05,2.68,25.5c-3.65,5.14-7.86,9.88-11.66,14.91c-10.47,13.84-10.55,29.37-0.23,43.35
			c5.54,7.5,11.59,14.65,16.73,22.41c15.78,23.83,14.08,56.26-3.76,78.48c-5.53,6.89-14.84,8.9-22.12,4.77
			c-7.75-4.4-10.67-13.53-6.97-22.11c0.86-2,2.04-3.88,3.14-5.78c8.48-14.73,7.71-28.73-3.14-42.04
			c-10.8-13.26-21.19-26.65-25.57-43.62C120.13,557.02,120.13,548.23,120.13,539.45z"/>
		<path class="st0" d="M282.05,616.01c-14.33,0.29-22.52-12.31-17.29-24.12c2.43-5.49,6.69-10.14,7.82-16.23
			c2.27-12.31-0.38-23.21-8.69-32.93c-9.44-11.05-18.42-22.41-22.65-36.82c-5.41-18.45-2.91-35.84,6.11-52.42
			c5.13-9.44,12.07-17.67,19.24-25.59c7.3-8.06,16.87-8.89,24.2-2.83c7.22,5.98,8.4,15.96,2.46,24.44
			c-4.09,5.83-8.89,11.16-13.04,16.94c-9,12.53-9.27,27.21-0.55,39.97c4.01,5.87,8.75,11.25,13.09,16.9
			c20.11,26.16,21.07,58.78,2.6,84C291.59,612.46,287.1,616.08,282.05,616.01z"/>
		<path class="st0" d="M799.8,664.82c-0.42-5.02,2.05-9,4.44-13.03c8.78-14.87,7.91-28.4-2.58-42.03
			c-5.18-6.73-10.84-13.18-15.34-20.35c-14.89-23.73-15.26-48.03-1.36-72.37c4.91-8.61,11.36-16.17,17.82-23.62
			c6.96-8.02,16.58-9.07,24.25-3.29c7.46,5.63,8.87,15.6,2.96,24.26c-3.86,5.65-8.45,10.8-12.5,16.32
			c-9.82,13.38-10.11,28.44-0.62,42.03c3.92,5.61,8.45,10.79,12.63,16.23c20.21,26.28,20.86,59.61,1.75,84.72
			c-5.03,6.61-11.66,9.3-19.53,7.04C804.08,678.53,800.15,672.82,799.8,664.82z"/>
		<path class="st0" d="M929.4,568.53c-0.25-10.78-4.01-18.47-9.69-25.53c-9.62-11.94-19.42-23.64-23.37-39.19
			c-4.51-17.77-1.98-34.29,6.58-50.07c5.12-9.44,11.97-17.75,19.13-25.7c7.32-8.12,16.68-9.1,24.23-3.18
			c7.48,5.86,8.56,16.3,2.28,25.07c-3.83,5.35-8.2,10.31-12.09,15.61c-10.15,13.83-10.13,28.83,0.06,42.67
			c7.62,10.35,16.87,19.59,21.84,31.75c9.81,24.01,7.24,46.67-7.74,67.82c-5.97,8.43-15.85,10.72-23.78,5.84
			c-8.24-5.07-10.55-15.07-4.94-24.42C926.08,582.23,929.14,575.09,929.4,568.53z"/>
		<path class="st0" d="M544.74,824.48c-9.06,0.22-17.46-8.13-17.42-17.32c0.03-8.97,7.81-16.83,16.8-16.98
			c8.87-0.15,17.01,7.48,17.49,16.4C562.09,815.53,553.86,824.26,544.74,824.48z"/>
		<path class="st0" d="M541.03,558.07c-9.29,0.47-18.2-2.82-26.37-8.15c-8.62-5.62-11.04-15.29-6.29-23.55
			c4.66-8.1,13.46-10.93,22.66-6.47c7.26,3.52,13.87,3.57,21.14,0.04c9.25-4.49,18.22-1.74,22.76,6.17
			c4.62,8.05,2.48,17.01-5.53,23.19C562.42,554.69,551.83,558.04,541.03,558.07z"/>
		<path class="st0" d="M477.06,309.31c-0.68,9.16-8.75,16.57-17.59,16.15c-9.26-0.44-17.24-9.16-16.59-18.12
			c0.7-9.57,8.95-16.6,18.57-15.82C470.83,292.29,477.74,300.16,477.06,309.31z"/>
	</g>
</g>
<g id="Capa_2">
</g>
<g id="Capa_3">
</g>
<g id="Capa_4">
</g>
<g id="Capa_5">
</g>
<g id="Capa_6">
</g>
<g id="Capa_7">
</g>
</svg>
