<?xml version="1.0" encoding="utf-8"?>
<!-- Generator: Adobe Illustrator 25.4.1, SVG Export Plug-In . SVG Version: 6.00 Build 0)  -->
<svg version="1.1" id="Layer_1" xmlns="http://www.w3.org/2000/svg" xmlns:xlink="http://www.w3.org/1999/xlink" x="0px" y="0px"
	 viewBox="0 0 512 512" style="enable-background:new 0 0 512 512;" xml:space="preserve">
<style type="text/css">
	.st0{display:none;}
	.st1{display:inline;fill:#00968B;}
	.st2{display:inline;}
	.st3{fill:#00968B;}
</style>
<g class="st0">
	<path class="st1" d="M330.6,386.4c-3.9-2.3-9-1.6-11.4,2.3c-2.3,3.9-1.6,9,2.3,11.4c4.7,3.1,10.2,4.7,16.1,4.7
		c5.9,0,11.7-2,16.4-5.1c3.5-2.7,4.7-7.8,2-11.4c-2.7-3.5-7.8-4.7-11.4-2C340.4,388.7,334.5,389.1,330.6,386.4L330.6,386.4z"/>
	<path class="st1" d="M368.6,308.5c4.7,0,8.2-3.5,8.2-8.2c0-3.9-2.7-7-6.7-7.8c-3.5-50.9-38.8-89.3-86.1-93.2l-0.4-14.1
		c0-4.3-3.9-8.2-8.2-8.2h-3.9v-18c0-4.7-3.5-8.2-8.2-8.2h-22.3v-12.9c4.7-1.6,9-3.9,12.5-7.4h52.1c11,0,20-9,20-20s-8.6-20-20-20
		h-50.9c-5.5-6.3-13.3-10.2-21.9-10.2s-16.4,3.9-21.9,10.2h-50.9c-11,0-20,9-20,20s9,20,20,20H212c3.5,3.5,7.8,5.9,12.5,7.4v12.9
		H201c-4.7,0-8.2,3.5-8.2,8.2s3.5,8.2,8.2,8.2h54.4v9.8h-64.2c-4.7,0-8.2,3.5-8.2,8.2v13.7h-42.7c0-4.3-3.5-7.8-8.2-7.8
		s-8.2,3.5-8.2,8.2V283c0,4.7,3.5,8.2,8.2,8.2s8.2-3.5,8.2-8.2v-9h49.3c10.6,12.9,26.6,20.7,43.8,20.7c16.8,0,32.9-7.8,43.8-20.7
		c11.4,0.4,20.7,8.2,23.9,18.4c-3.9,0.4-7,3.9-7,7.8c0,4.7,3.5,8.2,8.2,8.2h27.4c-9,10.6-41.9,50.1-41.9,73.2
		c0,27.8,22.3,50.1,50.1,50.1c27.8,0,50.1-22.3,50.1-50.1c0-23.5-32.9-62.6-41.9-73.2L368.6,308.5z M262.1,106.8h43.8
		c2,0,3.9,1.6,3.9,3.9c0,2-1.6,3.9-3.9,3.9h-43.8c0.4-1.6,0.4-2.7,0.4-4.3C262.5,109.2,262.1,108,262.1,106.8z M159.9,114.7
		c-2,0-3.9-1.6-3.9-3.9c0-2,1.6-3.9,3.9-3.9h43.8c0,1.2-0.4,2-0.4,3.1c0,1.6,0.4,3.1,0.4,4.3h-43.8L159.9,114.7z M219.8,110
		c0-7,5.9-12.9,12.9-12.9s12.9,5.9,12.9,12.9s-5.9,12.9-12.9,12.9S219.8,117.4,219.8,110z M318.1,292c-3.9-19.6-21.1-34.5-41.9-34.5
		H273c-2.7,0-5.1,1.2-6.7,3.5c-7.4,11-20,17.2-32.9,17.2c-12.9,0-25.4-6.7-32.9-17.2c-1.6-2.3-3.9-3.5-6.7-3.5h-53.6v-42.3h50.9
		c4.7,0,8.2-3.5,8.2-8.2v-13.7h64.2h3.9l0.4,13.7c0,4.3,3.9,8.2,8.2,8.2c41.9,0,74.4,32.5,77.9,76.7H318.1z M371.3,381.7
		c0,18.4-15.3,33.7-33.7,33.7S304,400.1,304,381.7c0-12.9,18.8-39.5,33.7-57.5C352.5,342.1,371.3,369.1,371.3,381.7z"/>
</g>
<g class="st0">
	<path class="st1" d="M433.4,120.9c0,101.5,0,203.1,0,304.6c-2.8,3.8-6.7,4.3-11.1,4.3c-110.5,0-221,0-331.6,0c-1.2,0-2.3,0-3.5,0
		c-6-0.3-8.6-3-8.6-8.9c0-98.6,0-197.3-0.1-295.9c0-3.9,1.5-6.5,4.8-8.5c4.9-3,9.7-6.2,14.7-9.1c2.1-1.3,3.1-2.9,3-5.4
		c-0.1-3.9-0.1-7.9,0.1-11.8c0.3-5.1,3.5-8.2,7.8-7.9c4.1,0.3,6.8,3.5,6.9,8.4c0.1,3.8,0.1,7.6,0,11.4c-0.1,2.3,0.8,3.6,2.7,4.7
		c5.4,3.1,10.7,6.5,16,9.6c3.5,2,4.9,4.8,4.9,8.8c-0.1,11.2-0.1,22.4,0,33.6c0,3.9,0.6,4.5,4.5,4c16.5-1.8,32.3-5.9,47.2-13.6
		c20.3-10.4,42.2-15.9,65-15.9c22.7,0,44.4,5.5,64.6,15.9c15.1,7.7,31,11.7,47.6,13.6c4,0.5,4.6-0.1,4.6-4.2c0-11.3,0.1-22.6,0-33.9
		c0-3.6,1.4-6.1,4.4-8c4.9-3,9.7-6.2,14.7-9.1c2.5-1.5,3.5-3.4,3.4-6.2c-0.1-3.9-0.1-7.9,0.2-11.8c0.4-4.7,3.5-7.5,7.6-7.3
		c4,0.2,6.8,3.4,6.9,8c0.1,3.8,0.1,7.6,0,11.4c-0.1,2.5,0.8,4.1,3,5.3c5.2,3,10.3,6.1,15.5,9.2C430.5,117.4,432.3,118.7,433.4,120.9
		z M139.4,269.1c0,13.6,0,27.2,0,40.8c0,4.5,0.2,4.6,4.7,4.6c5.5,0,11.1,0,16.6,0c5,0,5.1-0.1,5.1-5c0-11.3,0-22.6,0-33.9
		c0-3.2,1-5.7,3.8-7.2c4.9-2.7,10.5,0.8,10.5,6.7c0.1,11.8,0.1,23.5,0,35.3c0,3,1,4.2,4,4.1c5.9-0.1,11.8-0.2,17.6,0
		c3.4,0.1,4.4-1.2,4.4-4.5c-0.1-27.2-0.1-54.4,0-81.6c0-3.4-1.2-4.4-4.4-4.3c-19.3,0.1-38.5,0.1-57.8,0.1c-4.5,0-4.6,0.1-4.6,4.7
		C139.4,242.4,139.4,255.8,139.4,269.1z M125,257.6c0-24.9,0-49.8,0-74.8c0-4.2-0.3-4.5-4.5-4.5c-7.8,0-15.7,0-23.5,0
		c-2.7,0-3.9,1-3.9,3.8c0.1,50.3,0.1,100.6,0,150.9c0,2.9,1.1,3.9,3.9,3.9c7.7-0.1,15.5,0,23.2,0c4.7,0,4.9-0.2,4.9-4.8
		C125,307.2,125,282.4,125,257.6z M387.3,257.6c0,24.9,0,49.8,0,74.8c0,2.6,0.2,4.6,3.6,4.5c8.3-0.1,16.6-0.1,24.9,0
		c2.8,0,3.6-1.3,3.5-3.8c-0.1-4,0-8.1,0-12.1c0-45.8,0-91.6,0-137.4c0-5.1-0.1-5.2-5.3-5.2c-7.3,0-14.5,0-21.8,0
		c-4.7,0-4.9,0.3-4.9,4.9C387.3,208,387.3,232.8,387.3,257.6z M318.1,329.5c-16.7,0-33.4,0-50.2,0c-4.6,0-4.7,0.1-4.7,4.6
		c0,25.4,0,50.7,0,76.1c0,4.5,0.1,4.6,4.7,4.7c30,0,60,0,89.9,0c4.5,0,4.7-0.2,4.7-4.7c0-19.8,0-39.7,0-59.5c0-2.2-0.1-4.4,0.2-6.6
		c0.5-4.1,2.3-6.3,6.5-6.9c3.3-0.5,3.7-2.4,3.5-5.1c-0.2-3-2.3-2.7-4.2-2.7C351.8,329.5,335,329.5,318.1,329.5z M193.9,329.5
		c-17,0-33.9,0-50.9,0c-1.9,0-3.5,0.2-3.5,2.7c0,2.2-0.4,4.3,2.8,4.9c5.4,1.1,7.1,3.3,7.3,8.8c0.1,1.3,0,2.5,0,3.8
		c0,20.1,0,40.1,0,60.2c0,4.8,0.2,5,4.8,5c29.8,0,59.5,0,89.3,0c4.5,0,4.7-0.2,4.7-4.6c0-25.4,0-50.8,0-76.1c0-4.5-0.2-4.6-4.7-4.6
		C227.1,329.5,210.5,329.5,193.9,329.5z M306,209.5c12.8,0,25.6,0,38.4,0c4.5,0,5.5-1.5,4.3-5.8c-1.3-4.4-5.2-7.3-10.4-7.8
		c-6.7-0.6-13.1,0.7-19.3,3.2c-4.6,1.8-9.2,3.8-13.8,5.4c-5.6,2-11.5,2.5-17.4,1c-10.7-2.7-17.4-12.2-16.7-23.6
		c0.6-9.9,8.8-18.1,19.4-19.4c5-0.6,9.1,2.5,9.3,7c0.2,4-2.6,6.8-7.8,7.7c-3.9,0.7-6.5,3.5-6.4,7c0.1,3.5,2.8,6.5,6.4,7.1
		c3.4,0.5,6.7,0.1,9.9-1.1c3.9-1.5,7.7-3.1,11.5-4.7c7.6-3,15.4-4.8,23.6-4.5c15.3,0.5,25.6,10.3,26.5,25.3c0.2,3.6,2.6,3.2,4.8,3.2
		c2.3,0.1,4.4,0,4.4-3.3c-0.1-7.4,0-14.8,0-22.1c0-6.1,0-6.1-6.2-6.8c-0.1,0-0.2,0-0.3,0c-18-1.7-35.1-6.1-51.2-14.5
		c-15.1-7.9-31.3-12.1-48.2-14.1c-3.1-0.4-3.7,0.7-3.7,3.5c0.1,17.6,0.1,35.3,0,52.9c0,3.3,1.2,4.5,4.4,4.4
		C280.4,209.4,293.2,209.5,306,209.5z M205.2,209.5c12.7,0,25.4,0,38.1,0c5,0,5.2-0.2,5.2-5c0-17.3-0.1-34.6,0.1-51.9
		c0-3.1-0.7-4.3-4.1-3.9c-17.1,2.1-33.5,6.6-48.8,14.5c-8.4,4.4-17.2,7.8-26.4,10.1c-8.7,2.2-17.6,3.5-26.6,4.4
		c-2.3,0.2-3.2,1.3-3.1,3.6c0.1,2.9,0,5.8,0,8.6c0,5.5,0,11.1,0,16.6c0,3.5,2.6,2.9,4.7,3c2.1,0.1,3.5-0.2,3.5-3
		c-0.1-3.7,0.7-7.3,2.3-10.7c5.2-10.7,17.5-16.5,31-14.7c8.6,1.1,16.5,4,24.4,7.4c3.7,1.6,7.5,3,11.7,2.9c5-0.1,8.2-2.7,8.5-6.8
		c0.3-4.3-1.8-6.6-7-7.6c-4.7-0.9-7.4-4.3-6.8-8.4c0.6-4.1,4.4-6.7,9-6.2c10.3,1.2,18,8.5,19.6,19c1.4,9-4.2,18.7-13,22.7
		c-6.2,2.8-12.5,2.7-18.9,1c-5.5-1.4-10.6-3.9-15.8-6c-6.2-2.5-12.6-3.8-19.3-3.2c-4.8,0.4-8.6,2.5-10.4,7.3
		c-1.7,4.5-0.4,6.3,4.3,6.3C179.8,209.5,192.5,209.5,205.2,209.5z M134.8,383.3c0-9.3-0.1-18.7,0-28c0-2.6-0.9-3.7-3.6-3.7
		c-11.5,0.1-23.1,0.1-34.6,0c-2.8,0-3.6,1.1-3.6,3.7c0.1,18.6,0.1,37.1,0,55.7c0,2.8,0.9,3.9,3.8,3.9c11.4-0.1,22.8-0.1,34.2,0
		c2.9,0,3.8-1.1,3.8-3.9C134.7,401.8,134.8,392.6,134.8,383.3z M419.2,383.2c0-9.2-0.1-18.5,0.1-27.7c0-3.1-1.1-4-4.1-4
		c-11.3,0.1-22.6,0.1-33.9,0c-2.8,0-3.9,1-3.9,3.8c0.1,18.6,0.1,37.1,0,55.7c0,2.9,1.1,3.8,3.9,3.8c11.3-0.1,22.6-0.1,33.9,0
		c3,0,4.1-1,4-4C419.2,401.7,419.2,392.5,419.2,383.2z M263.3,269.4c0,13.7,0.1,27.4,0,41.2c0,2.9,0.9,4.2,3.9,4.1
		c6.7-0.1,13.4-0.1,20.1,0c2.9,0.1,4.1-1,4.1-4c-0.1-27.4-0.1-54.9,0-82.3c0-3.3-1.3-4.2-4.3-4.1c-6.3,0.2-12.7,0-19,0.1
		c-4.6,0-4.7,0.1-4.7,4.6C263.3,242.4,263.3,255.9,263.3,269.4z M221,269.1c0,13.7,0.1,27.4,0,41.2c0,3,0.8,4.5,4.1,4.4
		c6.6-0.2,13.1-0.1,19.7,0c2.7,0,3.6-1.1,3.6-3.7c0-27.7,0-55.4,0-83c0-2.7-1.1-3.7-3.7-3.6c-6.5,0.1-12.9,0.2-19.4,0
		c-3.4-0.1-4.4,1.1-4.3,4.4C221.1,242.1,221,255.6,221,269.1z M332,269.4c0-13.7-0.1-27.4,0-41.1c0-2.9-0.9-4.2-3.9-4.1
		c-6.1,0.2-12.2,0.1-18.3,0c-2.7-0.1-3.7,1-3.7,3.7c0.1,27.7,0.1,55.3,0,83c0,2.9,1.2,3.8,4,3.8c5.9-0.1,11.8-0.2,17.6,0
		c3.3,0.1,4.4-1.1,4.4-4.4C332,296.6,332,283,332,269.4z M372.9,269.5c0-13.7-0.1-27.5,0-41.2c0-3-0.9-4.1-4-4c-6,0.2-12,0.2-18,0
		c-3.2-0.1-4.3,1.3-4.2,4.3c0.1,2.9,0,5.8,0,8.7c0,24.2,0,48.5,0,72.7c0,4.4,0.4,4.7,4.8,4.7c5.7,0,11.3-0.1,17,0.1
		c3.3,0.1,4.5-1,4.4-4.4C372.8,296.7,372.9,283.1,372.9,269.5z M125,145.3c0-4.8-0.1-9.7,0-14.5c0-2-0.6-3.5-2.4-4.5
		c-3.9-2.2-7.8-4.5-11.6-6.9c-1.7-1-3.1-1-4.8,0.1c-3.6,2.3-7.2,4.6-10.8,6.8c-1.8,1.1-2.4,2.5-2.4,4.6c0.1,9.7,0.1,19.4,0,29
		c0,2.6,0.8,3.8,3.6,3.7c8.3-0.1,16.6-0.1,24.9,0c2.8,0,3.7-1.1,3.6-3.7C125,155,125,150.2,125,145.3z M419.2,145.5
		c0-5-0.1-9.9,0-14.9c0-1.9-0.6-3.3-2.3-4.2c-3.9-2.3-7.8-4.5-11.6-6.9c-1.8-1.1-3.3-1.1-5.1,0.1c-3.5,2.3-7,4.5-10.5,6.6
		c-1.8,1.1-2.5,2.5-2.5,4.5c0.1,9.8,0.1,19.6,0,29.4c0,2.5,0.9,3.5,3.4,3.5c8.4-0.1,16.8-0.1,25.2,0c2.6,0,3.4-1.2,3.4-3.6
		C419.2,155.2,419.2,150.3,419.2,145.5z"/>
	<path class="st1" d="M173,253.4c-4.1,0-7.2-3.1-7.1-7.3c0.1-3.9,3.2-7,7-7c4,0,7.3,3.1,7.3,7.2C180.2,250.4,177.2,253.4,173,253.4z
		"/>
	<path class="st1" d="M313.2,402.1c-8.9,0-17.7,0-26.6,0c-7.5,0-10-2.5-10-9.9c0-13.6,0-27.2,0-40.8c0-6.1,2.6-8.9,8.8-9
		c18.6-0.1,37.1-0.1,55.7,0c6.2,0,8.7,2.8,8.7,9c0,13.8,0,27.7,0,41.5c0,6.4-2.6,9.1-9,9.2C331.7,402.1,322.5,402,313.2,402.1
		C313.2,402.1,313.2,402.1,313.2,402.1z M313.4,357.2c-6.1,0-12.2,0.1-18.3,0c-2.9-0.1-4.2,0.8-4.1,3.9c0.2,7.5,0.1,15,0,22.5
		c0,2.6,0.9,3.7,3.6,3.7c12.4-0.1,24.9-0.1,37.3,0c2.7,0,3.6-1.1,3.6-3.7c-0.1-7.5-0.1-15,0-22.5c0.1-3.1-1.3-4-4.1-3.9
		C325.4,357.3,319.4,357.2,313.4,357.2z"/>
	<path class="st1" d="M199.1,342.3c9,0,18,0,27,0c7.1,0,9.5,2.6,9.5,9.6c0,13.7,0,27.4,0,41.1c0,5.9-2.6,8.9-8.5,8.9
		c-18.7,0.1-37.3,0.1-56,0c-6.1,0-8.7-2.9-8.7-9.1c0-13.8,0-27.7,0-41.5c0-6.3,2.6-9,9-9.1C180.7,342.3,189.9,342.3,199.1,342.3z
		 M198.9,387.2c6.1,0,12.2-0.1,18.3,0c2.9,0.1,4.2-0.8,4.1-3.9c-0.2-7.5-0.1-15,0-22.5c0-2.6-0.8-3.7-3.6-3.7
		c-12.4,0.1-24.9,0.1-37.3,0c-2.7,0-3.6,1.1-3.6,3.7c0.1,7.5,0.1,15,0,22.5c-0.1,3.1,1.2,4,4.1,3.9
		C186.9,387.1,192.9,387.2,198.9,387.2z"/>
</g>
<g class="st0">
	<path class="st1" d="M266.2,83.8c6.7,0,13.5,0,20.2,0c2.7,12.1,5.3,24.3,8.1,36.4c18.7,82.3,37.4,164.6,56.1,246.9
		c4.6,20.4,9.2,40.8,13.8,61.2c-32.7,0-65.5,0-98.2,0c-0.1-9.9-0.1-19.7-0.2-29.6c0-1.7-0.1-3.4-0.5-5c-1.1-4.7-5.6-7.9-10.2-7.6
		c-5.1,0.3-9.3,4.2-9.4,9.3c-0.2,11,0,21.9,0.1,32.9c-30.5,0-61,0-91.5,0c0.3-2,0.5-4,1-5.9c20.1-88.3,40.2-176.6,60.3-264.9
		c5.6-24.6,11.2-49.1,16.8-73.7c4.5,0,9,0,13.5,0c0,10.9-0.2,21.7-0.1,32.6c0,4.4,3,7.9,7.2,9.1c6.8,2,12.8-2.9,12.9-10.5
		C266.1,104.6,266.1,94.2,266.2,83.8z M245.8,224.1c0,4.7-0.1,9.4,0,14.1c0.1,5.9,4.2,10.2,9.8,10.3c5.5,0.1,10.2-4,10.3-9.8
		c0.2-9.7,0.2-19.5,0-29.2c-0.1-5.8-4.9-10-10.3-9.9c-5.5,0.2-9.7,4.5-9.8,10.3C245.7,214.7,245.8,219.4,245.8,224.1z M245.8,283.1
		c0,4.5,0,9,0,13.4c0,0.2,0,0.4,0,0.7c0.2,6.1,4.3,10.5,9.9,10.5c5.6,0.1,10.1-4.2,10.2-10.3c0.2-9.5,0.2-19,0-28.6
		c-0.1-5.8-4.7-10.1-10.1-10.1c-5.6,0-9.9,4.4-10,10.5C245.7,274,245.8,278.6,245.8,283.1z M245.8,343.1c0,4.5,0,9,0,13.4
		c0,0.2,0,0.4,0,0.7c0.2,6.1,4.3,10.4,10,10.5c5.6,0,10.1-4.3,10.2-10.3c0.2-9.4,0.2-18.8,0-28.2c-0.1-6-4.7-10.4-10.2-10.3
		c-5.6,0.1-9.8,4.5-9.9,10.6C245.8,333.9,245.8,338.5,245.8,343.1z M245.8,165.4c0,4.5-0.1,9,0,13.4c0.1,6.1,4.3,10.5,9.9,10.5
		c5.6,0.1,10.1-4.2,10.2-10.3c0.2-9.1,0.2-18.1,0-27.2c-0.1-5.9-4.7-10.1-10.1-10.1c-5.6,0-9.9,4.4-10,10.5
		C245.7,156.7,245.8,161,245.8,165.4z"/>
	<path class="st1" d="M110,428.2c-1.7-0.6-3.4-1-5-1.7c-11.4-4.4-18.1-17-14.5-28.7c5.9-19.3,12.2-38.4,18.5-57.5
		c25.7-79,51.5-157.9,77-236.9c3.4-10.5,9.8-17.1,20.4-19.6c1.8,0,3.6,0,5.4,0c-4.7,20.9-9.4,41.7-14.1,62.5
		c-18.7,82.3-37.4,164.6-56.1,246.9c-2.7,11.7-5.2,23.4-7.8,35.1C125.8,428.2,117.9,428.2,110,428.2z"/>
	<path class="st1" d="M311.9,83.8c3.8,1.8,7.9,3.1,11.4,5.4c4.8,3.1,7,8.2,8.7,13.6c19.1,62.7,38.2,125.4,57.3,188.1
		c10.5,34.5,21,68.9,31.5,103.4c3.3,10.9,2,20.6-6.9,28.1c-3.3,2.8-7.8,4-11.8,5.9c-5.6,0-11.2,0-16.8,0
		c-5.4-23.6-10.8-47.1-16.1-70.7c-18.9-83.3-37.9-166.6-56.8-249.9c-1.8-8-3.4-15.9-5.1-23.9C308.8,83.8,310.4,83.8,311.9,83.8z"/>
</g>
<g class="st0">
	<g class="st2">
		<path class="st3" d="M475.9,404.4h-30.3V303.9c9.1-3,15.2-11.4,15.2-21.3c0-9.9-6.1-18.3-15.2-21.3V122.8c0-4.6-3-7.6-7.6-7.6
			c-4.5,0-7.6,3-7.6,7.6v53.3h-45.5V100c0-4.6-3-7.6-7.6-7.6c-4.5,0-7.6,3-7.6,7.6v76.1h-45.5v-53.3c0-4.6-3-7.6-7.6-7.6
			s-7.6,3-7.6,7.6v53.3h-45.5V100c0-4.6-3-7.6-7.6-7.6c-4.5,0-7.6,3-7.6,7.6v76.1h-45.5v-53.3c0-4.6-3-7.6-7.6-7.6
			c-4.5,0-7.6,3-7.6,7.6v53.3h-45.5V100c0-4.6-3-7.6-7.6-7.6c-4.5,0-7.6,3-7.6,7.6v76.1H81.6v-53.3c0-4.6-3-7.6-7.6-7.6
			c-4.5,0-7.6,3-7.6,7.6v138.5c-9.1,3-15.2,11.4-15.2,21.3s6.1,18.3,15.2,21.3v100.5H36.1c-4.5,0-7.6,3-7.6,7.6s3,7.6,7.6,7.6h439.8
			c4.5,0,7.6-3,7.6-7.6S480.4,404.4,475.9,404.4z M127.1,404.4H81.6v-38.1h45.5V404.4z M127.1,351.1H81.6v-47.2
			c6.1-2.3,11.4-7.6,13.6-13.7h18.2c2.3,6.1,7.6,11.4,13.6,13.7V351.1z M127.1,261.3c-6.1,2.3-11.4,7.6-13.6,13.7H95.3
			c-2.3-6.1-7.6-11.4-13.6-13.7v-70h45.5V261.3z M187.8,404.4h-45.5v-38.1h45.5V404.4z M187.8,351.1h-45.5v-47.2
			c6.1-2.3,11.4-7.6,13.6-13.7h18.2c2.3,6.1,7.6,11.4,13.6,13.7V351.1z M187.8,261.3c-6.1,2.3-11.4,7.6-13.6,13.7h-18.2
			c-2.3-6.1-7.6-11.4-13.6-13.7v-70h45.5V261.3z M248.4,404.4h-45.5v-38.1h45.5V404.4z M248.4,351.1h-45.5v-47.2
			c6.1-2.3,11.4-7.6,13.6-13.7h18.2c2.3,6.1,7.6,11.4,13.6,13.7V351.1z M248.4,261.3c-6.1,2.3-11.4,7.6-13.6,13.7h-18.2
			c-2.3-6.1-7.6-11.4-13.6-13.7v-70h45.5V261.3z M309.1,404.4h-45.5v-38.1h45.5V404.4z M309.1,351.1h-45.5v-47.2
			c6.1-2.3,11.4-7.6,13.6-13.7h18.2c2.3,6.1,7.6,11.4,13.6,13.7L309.1,351.1L309.1,351.1z M309.1,261.3c-6.1,2.3-11.4,7.6-13.6,13.7
			h-18.2c-2.3-6.1-7.6-11.4-13.6-13.7v-70h45.5V261.3L309.1,261.3z M369.7,404.4h-45.5v-38.1h45.5V404.4z M369.7,351.1h-45.5v-47.2
			c6.1-2.3,11.4-7.6,13.6-13.7h18.2c2.3,6.1,7.6,11.4,13.6,13.7L369.7,351.1L369.7,351.1z M369.7,261.3c-6.1,2.3-11.4,7.6-13.6,13.7
			h-18.2c-2.3-6.1-7.6-11.4-13.6-13.7v-70h45.5V261.3z M430.4,404.4h-45.5v-38.1h45.5V404.4z M430.4,351.1h-45.5v-47.2
			c6.1-2.3,11.4-7.6,13.6-13.7h18.2c2.3,6.1,7.6,11.4,13.6,13.7L430.4,351.1L430.4,351.1z M430.4,261.3c-6.1,2.3-11.4,7.6-13.6,13.7
			h-18.2c-2.3-6.1-7.6-11.4-13.6-13.7v-70h45.5L430.4,261.3L430.4,261.3z"/>
	</g>
</g>
<g class="st0">
	<path class="st1" d="M186.7,243.8c12.3,30.2,39.5,50,69.3,50c29.8,0,57-19.9,69.3-50c12.7-2.6,23.8-14.7,27.3-30.8
		c2.1-9.4,1.3-19-2.2-26.9c-3.8-8.8-10.8-14.9-19.1-16.7c-0.9-0.2-2.1-0.2-2.7-0.1c-3.3,6.6-9.1,12.5-16.8,17.3
		c0.9,0.9,1.9,1.6,3.1,2.1c2.5,1,5.2,0.9,7.6-0.3c1.4-0.7,2.7-1.2,5-0.9c3.4,0.5,5.3,4.1,6.1,6.1c1.9,4.4,2.3,10.1,1.1,15.7
		c-2.2,10.3-9.1,16.8-14.9,16.8c0,0,0,0,0,0c-4.3-0.3-8.3,2.2-9.7,6.3c-8.6,25.9-30.3,43.3-54.1,43.3c-24.1,0-45.3-17-54-43.3
		c-1.3-3.8-5.3-6.3-9.3-6.3c-0.3,0-0.6,0-1,0.1c-5.1,0-12-6.4-14.3-16.8c-1.2-5.6-0.8-11.3,1.1-15.6c0.9-2,2.7-5.8,7.2-6.2
		c1.2-0.1,2.5,0.4,3.9,1.1c2.4,1.2,5.1,1.3,7.6,0.3c1.2-0.5,2.2-1.2,3-2.1c-7.7-4.8-13.5-10.7-16.8-17.3c-0.7-0.1-1.9,0-2.8,0.2
		c-8.3,1.8-15.1,7.9-19,16.7c-3.5,7.9-4.2,17.5-2.2,26.9C162.9,229.1,174,241.3,186.7,243.8z"/>
	<path class="st1" d="M192.5,156.5c0,17.4,28.4,31.5,63.5,31.5c35.1,0,63.5-14.1,63.5-31.5c0-0.7-0.3-1.3-0.4-2H192.9
		C192.8,155.2,192.5,155.8,192.5,156.5z"/>
	<path class="st1" d="M188.8,135.7l1.9,6.6h130.5l1.9-6.6l9.4-32c0.8-2.9,0.5-6-1-8.6c-1.5-2.6-4-4.5-6.9-5.2l-51.8-13.2
		c-11.1-2.8-22.6-2.8-33.7,0l-51.8,13.2c-2.9,0.7-5.4,2.6-6.9,5.2c-1.5,2.6-1.8,5.7-1,8.6L188.8,135.7z"/>
	<path class="st1" d="M313.6,300.8h-4.4l-33,79.6l-9.3-46.8c0.2-0.2,0.4-0.4,0.6-0.7l7.5-10.5c2.8-4,3.2-9.2,0.9-13.5
		c-2.2-4.3-6.7-7-11.5-7h-16.9c-4.9,0-9.3,2.7-11.5,7c-2.2,4.3-1.9,9.5,0.9,13.5l7.5,10.5c0.2,0.3,0.4,0.4,0.6,0.7l-9.2,46.8
		l-33-79.6h-4.4c-39.1,0-70.8,31.7-70.8,70.8v65.8h256.8v-65.8C384.4,332.5,352.7,300.8,313.6,300.8z"/>
</g>
<g>
	<g>
		<g>
			<path class="st3" d="M269.2,25.9c-29,0-53.5,25.1-53.5,54.8s24.5,54.8,53.5,54.8s52.6-25.1,52.6-54.8S298.2,25.9,269.2,25.9z"/>
		</g>
	</g>
	<g>
		<g>
			<path class="st3" d="M327.6,135.5c-14.5,16.4-35.2,27-58.4,27c-23.2,0-44.8-10.5-59.3-27c-12.6,14.3-20.5,33.1-20.5,53.9V203
				c0,7.5,5.9,13.5,13.2,13.5H335c7.3,0,13.2-6,13.2-13.5v-13.5C348.1,168.7,340.2,149.9,327.6,135.5z"/>
		</g>
	</g>
	<g>
		<g>
			<path class="st3" d="M158.6,439.8L91.5,302c-6.5-13.3-22.2-18.7-35.2-12.1l-17.5,8.9c-6.5,3.3-9.2,11.4-5.9,18.1l78.9,161.8
				c3.2,6.7,11.1,9.3,17.6,6.1l17.3-8.8C159.8,469.3,165.1,453.1,158.6,439.8z"/>
		</g>
	</g>
	<g>
		<g>
			<path class="st3" d="M469.8,248.5c-10.8-8.1-25.8-6.5-34.7,3.5l-71.9,90.6c-5,5.4-14.5,8.6-19.5,8.6h-61.3
				c-7.4,0-13.2-5.9-13.2-13.5s5.8-13.5,13.2-13.5c17.6,0,37.1,0,52.6,0c14.5,0,26.3-12.1,26.3-27s-11.8-27-26.3-27
				c-61.8,0-2.9,0-68.9,0c-6.6,0-9.8-4.3-15-8.9c-20.4-18.8-50.8-27.8-81.7-20.5c-17.1,4.1-28.7,11.2-40.4,20.7l-0.4-0.3l-19,17.2
				l74.8,153.7h22.1H335c24.7,0,48.4-12.1,63.2-32.4l77.2-113.3C484,274.7,481.6,257.4,469.8,248.5z"/>
		</g>
	</g>
</g>
</svg>
