<?xml version="1.0" encoding="utf-8"?>
<!-- Generator: Adobe Illustrator 25.4.1, SVG Export Plug-In . SVG Version: 6.00 Build 0)  -->
<svg version="1.1" xmlns="http://www.w3.org/2000/svg" xmlns:xlink="http://www.w3.org/1999/xlink" x="0px" y="0px"
	 viewBox="0 0 1080 1080" style="enable-background:new 0 0 1080 1080;" xml:space="preserve">
<style type="text/css">
	.st0{fill:#00968B;}
</style>
<g id="Capa_1">
	<g>
		<path class="st0" d="M936.03,726.71c-23.59,12.26-44.64,9.27-64.22-8.56c-11.82-10.77-28.59-11.2-40,0.06
			c-21.21,20.93-53.72,20.83-74.75,0.16c-11.75-11.56-28.14-10.75-40.7,0.09c-24.55,21.18-48.8,21.15-73.81-0.11
			c-12.91-10.97-28.63-10.82-41.45,0.55c-4.8,4.26-9.8,8.12-15.71,10.76c-11.63,5.19-21.08,5.34-32.37-3.97
			c-62.23-51.36-133.89-81.92-213.85-92.68c-6.89-0.93-8.05-1.9-5.01-8.55c17.74-38.85,32.61-78.82,45.16-119.64
			c3.79-12.34,7.22-24.8,11.34-39.03c7.16,25.73,9.46,49.92,8.44,74.49c-1.04,25.1-5.89,49.52-12.59,73.67
			c-2.84,10.23,0.78,18.82,8.95,23.76c8.37,5.06,16.95,4.11,25.25-2.98c14.87-12.69,28.09-26.92,39-43.15
			c19.47-28.97,29.24-60.31,21.78-95.39c-1.72-8.06-4.67-15.87-7.62-25.67c12.89,9.97,22.84,19.98,32.3,30.48
			c20.2,22.42,36.28,47.59,49.89,74.45c5.12,10.1,13.67,14.08,24.03,12.15c9.48-1.77,15.74-8.97,16.97-19.96
			c2.63-23.6,2.61-47.15-1.91-70.55c-9.2-47.65-33.69-83.26-80.16-101.5c-1.18-0.46-2.23-1.24-3.34-1.88
			c11.06-0.44,21.78,0.08,32.44,1.21c31.91,3.41,62.52,12.01,92.51,23.2c10.78,4.03,20.63,0.9,26.74-7.49
			c5.99-8.22,6.1-18.11-0.42-27.09c-16.91-23.31-36.28-44.28-60.08-60.74c-29.98-20.73-62.75-31.65-99.62-27.08
			c-28.54,3.54-53.51,15.64-76.59,32.23c-2.01,1.44-4.1,2.78-7.65,5.19c4.25-14.14,7.03-26.57,8.52-39.22
			c5.79-49.06-5.76-92.65-41.52-128.17c-32.58-32.36-73.33-49.13-117.04-59.7c-11.36-2.75-22.25,4.64-25.97,15.84
			c-3.54,10.67,0.96,18.7,7.99,26.27c37.1,39.93,65.9,84.91,82.82,137.05c0.85,2.63,2.42,5.27,1.04,8.47
			c-3.43-1.05-4.7-3.68-6.5-5.59c-22.39-23.7-49.17-38.6-82.14-40.94c-45.23-3.21-84.08,14.01-120.52,38.37
			c-7.98,5.33-10.35,14.76-7.49,23.73c3.15,9.9,11.49,14.95,25.14,14.85c39.53-0.31,77.93,5.87,114.92,20.04
			c3.45,1.32,7.58,1.82,9.58,6.36c-43.8,3.02-74.52,25.86-96.21,62.44c-10.98,18.52-18.2,38.56-23.29,59.37
			c-2.37,9.68,1.46,18.46,9.17,23.13c8.05,4.88,17.44,3.8,25.34-2.99c2.53-2.17,4.92-4.5,7.39-6.74
			c29.63-26.74,62.98-47.08,101.17-59.21c8.23-2.61,15.49-4.77,23.26,2.66c4.5,4.3,5.83,6.73,3.84,12.72
			c-22.3,67.06-55.06,128.8-94.17,187.38c-2.22,3.33-4.77,4.65-8.69,5.24c-26.11,3.91-51.62,10.35-76.47,19.31
			c-18,6.49-26.09,17.95-26.1,37.08c-0.04,76.99-0.02,153.98-0.01,230.97c0,3.88,0.2,7.69,1.18,11.55
			c3.47,13.73,13.54,20.85,25.51,26.19c72.23,0,144.46,0,216.69,0c7.66,0,15.53,0,23.48,0c168.49,0,397.93,0,560.38,0
			c12.78-5.01,21.87-13.72,26.68-26.69c0-64.49,0-128.99,0-193.48C958.4,725,948.16,720.41,936.03,726.71z M439.99,576.01
			c-6.83,10.48-14.95,19.91-25.54,30.4c8.22-34.44,11.85-67.08,8.9-100.28c-1.28-14.4-3.75-28.56-7.15-42.6
			c-0.63-2.58-3.64-6.65,1.23-7.32c5.12-0.7,9.34-8.8,15.75-1.28C464.65,491.78,467.21,534.25,439.99,576.01z M549.19,450.67
			c15.9,20.45,22.12,44.44,23.96,69.72c0.75,10.35,0.12,20.81,0.12,33.73c-10.45-18.77-20.46-34.85-31.97-49.95
			c-23.48-30.8-51.3-56.83-84.89-76.27c-8.88-5.14-1.2-10.46-1.49-15.6c-0.31-5.42,4.42-3,6.75-2.8
			C495.87,412.47,527.04,422.18,549.19,450.67z M536.09,321.2c43.54,7.09,73.17,35.38,98.87,68.67
			c-28.64-9.22-57.29-16.08-86.78-19.66c-32.25-3.91-64.32-3.04-96.2,2.88c-5.17,0.96-8.02,0-11.31-3.8
			c-3.39-3.92-7.82-6.93-12.38-10.84C459.74,332.49,493.93,314.33,536.09,321.2z M429.5,399.21c2.5,10.68-2.35,23.04-11.44,29.17
			c-8.77,5.91-22.81,5.98-31.49,0.39c-4.07-2.62-4.85-4.62-1.27-8.86c8.73-10.36,12.66-22.26,12.54-35
			c-3.28-8.88,3.12-7.99,8.86-7.16C417.6,379.3,426.94,388.28,429.5,399.21z M273,133.82C273,133.82,273,133.82,273,133.82
			c-0.01-0.3-0.02-0.6-0.02-0.9C272.98,133.22,272.99,133.52,273,133.82z M281.09,144.22c-2.77-3.23-6.61-5.72-7.83-10.16
			c7.05-0.64,13.14,2.8,19.46,4.94c24.06,8.11,46.65,19.13,66.22,35.57c40.28,33.82,50.9,77.54,41.93,127.54
			c-3.03,16.89-8.19,33.19-14.94,49.02c-11.09-5.81-14.89-14.88-16.94-26.99C357.37,255.69,325.93,196.62,281.09,144.22z
			 M336.5,294.86c-0.04-0.04-0.09-0.1-0.13-0.15C336.41,294.76,336.46,294.81,336.5,294.86L336.5,294.86z M335.98,294.36
			c0.03-0.01,0.07,0.01,0.11,0.04C336.06,294.37,336.02,294.35,335.98,294.36z M287.54,401.54c-28.32,8.52-54.58,21.28-79,37.89
			c-10.5,7.14-20.51,14.92-30.7,22.76c8.79-28.05,21.55-53.39,46.1-70.95c19.27-13.78,41.02-17.19,64.04-15.21
			c0.82,0.07,2.1-0.01,2.38,0.45c3.82,6.44,0.15,13.8,2.56,20.6C294.4,401.3,289.8,400.86,287.54,401.54z M294.48,333.17
			c-43.98-23.22-91.59-32.82-141.21-34.14c62.45-42.23,135.48-39.99,178.06,35.61c-0.88,0.46-1.4,0.66-1.82,0.98
			C317.08,344.81,306.56,339.55,294.48,333.17z M316.79,385.56c0.45-15.12,12.96-27.32,28.01-27.33
			c15.28-0.01,28.21,12.97,28.03,28.17c-0.17,15.31-13.15,27.96-28.44,27.73C329.16,413.9,316.34,400.62,316.79,385.56z
			 M138.2,687.3c0.05-5.04,3.4-7.95,7.98-9.52c16.77-5.75,33.64-11.16,51.15-14.26c0.32,0.38,0.66,0.74,1.02,1.08
			c-17.61,26.2-38.46,49.76-60.21,75.01C138.14,720.94,138.03,704.12,138.2,687.3z M142.58,771.93
			c48.46-52.66,92.04-109.03,128.9-170.45c29.61-49.34,54.5-100.88,71.92-155.85c1.66-5.23,9.85-9.4,15.63-8.09
			c4.9,1.12,10.13,10.32,8.76,15.56c-35.96,137.68-96.85,262.81-187.81,372.77c-12.88,15.58-26.36,30.63-41.91,46.22
			c0-31.58,0.11-61.28-0.12-90.98C137.92,776.87,140.16,774.56,142.58,771.93z M660.23,934.65c-71.96-0.12-143.91-0.08-215.87-0.08
			c-1.54,0-49.01,0.07-69.78,0.03c-1.11-0.07-2.25-0.1-3.41-0.1c-2.32,0-4.63,0-6.95,0c-1.09-0.05-2.16-0.06-3.2,0
			c-69.13,0.09-138.26,0.06-207.38,0.06c-13.06,0-15.02-2.51-15.74-15.46c-0.45-8.18,2.14-13.73,7.99-19.46
			c69.4-68.07,124.59-146.51,168.22-233.17c4.08-8.11,7.69-10.92,17.35-9.47c152.73,22.99,260.51,104.98,323.94,245.58
			c3.75,8.31,6.19,17.2,9.89,25.54C668.03,934.35,665.43,934.66,660.23,934.65z M941.76,925.53c-0.06,5.37-3.8,8.42-9.2,8.97
			c-1.65,0.17-3.33,0.07-4.99,0.07c-75.53,0-151.05-0.07-226.58,0.15c-5.68,0.02-8-1.48-9.69-7.02
			c-6.55-21.4-15.14-42.06-26.03-63.73c26.91,3.33,49.04-3.1,67.57-20.75c4.88-4.64,7.86-0.18,11.18,2.61
			c23.53,19.76,49.81,24.14,78.55,13.67c8.94-3.26,16.82-8.48,23.67-15.11c3.19-3.09,5.96-4.12,10.08-1
			c31.08,23.6,49.47,26.79,85.57,14.88C941.87,880.85,942.02,903.19,941.76,925.53z M937.27,831.43
			c-18.55,12.74-44.31,10.97-61.74-4.2c-17.47-15.2-29.82-15.19-47.57,0.03c-19.9,17.07-47.9,16.91-67.68-0.39
			c-16.83-14.71-29.8-14.66-46.96,0.2c-23.76,20.56-58.02,16.15-75.51-9.66c-13.74-20.28-29.13-39.24-46.19-56.81
			c-3.23-3.33-4.58-4.99,1.22-6.94c8.75-2.95,16.51-8.01,23.09-14.48c4.24-4.17,7.47-4.29,12.05-0.45
			c32.93,27.59,70.07,27.54,103.35-0.16c4.36-3.63,7.27-3.26,11.43,0.23c32.87,27.55,69.77,27.46,103.42-0.22
			c3.87-3.18,6.84-3.86,10.8-0.32c24.24,21.59,51.55,26.62,81.88,14.83c0.72-0.28,1.6-0.15,3.08-0.27c0,24.27-0.05,48.35,0.06,72.43
			C942.01,828.78,939.49,829.91,937.27,831.43z"/>
		<path class="st0" d="M713.98,512.05c-5.85,14.78-7.94,31.37-5.39,48.37c3.1,20.69,13.93,38.97,29.34,52.25
			c0.06,0.06,0.13,0.11,0.19,0.17c0.47,0.4,0.94,0.79,1.42,1.19c15.88,13.28,35.97,20.71,56.87,20.8c0.2,0,0.4,0.01,0.6,0.02
			c0.59,0,1.17-0.02,1.76-0.03c0.22-0.01,0.45,0,0.67-0.01c6.15-0.09,12.25-0.68,18.22-2.22c28.35-7.32,48.86-24.15,61.05-50.83
			c0.51-1.11,0.87-2.2,1.12-3.28c5.85-14.78,7.94-31.37,5.38-48.37c-3.1-20.69-13.93-38.97-29.34-52.24
			c-0.07-0.06-0.13-0.12-0.2-0.18c-0.47-0.4-0.94-0.79-1.41-1.18c-15.88-13.28-35.97-20.71-56.87-20.8c-0.2,0-0.4-0.01-0.6-0.02
			c-0.59,0-1.17,0.02-1.75,0.03c-0.23,0.01-0.45,0-0.68,0.01c-6.15,0.09-12.25,0.68-18.22,2.22c-28.35,7.32-48.86,24.15-61.05,50.83
			C714.59,509.88,714.23,510.98,713.98,512.05z M851.33,510.59c0.03,0.05,0.07,0.1,0.1,0.15c0.71,1.11,1.35,2.27,1.99,3.42
			c0.29,0.53,0.6,1.05,0.88,1.6c0.55,1.06,1.06,2.14,1.55,3.23c0.23,0.54,0.47,1.07,0.71,1.61c3.32,7.91,5.1,16.48,4.94,25.26
			c-0.56,29.65-21.51,55.74-49.85,62.08c-20.33,4.55-40.48-0.44-55.5-12.6c-5.34-4.39-9.97-9.62-13.69-15.42
			c-0.03-0.05-0.06-0.09-0.09-0.14c-0.71-1.11-1.35-2.27-2-3.42c-0.29-0.53-0.6-1.05-0.88-1.59c-0.55-1.06-1.06-2.14-1.55-3.23
			c-0.23-0.54-0.48-1.08-0.72-1.61c-3.32-7.9-5.1-16.48-4.94-25.26c0.56-29.65,21.51-55.74,49.85-62.08
			c20.33-4.55,40.49,0.44,55.5,12.6C842.99,499.57,847.61,504.79,851.33,510.59z"/>
		<path class="st0" d="M784.89,690.43c0.86,6.72,5.31,10.34,11.9,10.5c6.23,0.14,10.87-3.13,11.98-9.37
			c1.56-8.76,1.59-17.74-0.01-26.48c-1.21-6.66-6.2-9.66-12.87-9.17c-6.33,0.47-10.25,4.12-11.02,10.43
			c-0.47,3.82-0.09,7.75-0.08,11.63C784.8,682.12,784.37,686.34,784.89,690.43z"/>
		<path class="st0" d="M784.79,412.1c0,4.16-0.38,8.36,0.09,12.46c0.72,6.41,5,9.97,11.14,10.39c6.52,0.45,11.62-2.68,12.78-9.37
			c1.52-8.75,1.53-17.71-0.04-26.47c-1.13-6.32-6.03-9.46-12.1-9.27c-6.44,0.21-11.04,3.8-11.82,10.63
			c-0.44,3.83-0.08,7.75-0.08,11.63C784.78,412.1,784.79,412.1,784.79,412.1z"/>
		<path class="st0" d="M887.81,620.67c-5.37-2.95-10.41-0.45-13.92,4.09c-3.61,4.66-3.85,10.2-0.08,14.62
			c5.2,6.1,11.03,11.72,17,17.09c3.82,3.43,8.64,3.68,13.22,1.11c4.16-2.34,6.53-5.91,6.46-11.71c-0.15-0.79,0.05-2.78-0.84-3.98
			C903.55,633.62,896.92,625.68,887.81,620.67z"/>
		<path class="st0" d="M702,467.93c2.26,2.15,5.11,3.3,7.66,3.08c5.59-0.1,9.37-2.36,11.48-6.6c2.4-4.83,2.12-9.87-1.66-13.96
			c-4.89-5.3-9.93-10.5-15.3-15.3c-5.37-4.81-12.6-4.45-17.26,0.25c-4.74,4.78-5.09,11.75-0.21,17.23
			C691.5,458,696.78,462.95,702,467.93z"/>
		<path class="st0" d="M704,621.53c-7.1,5.32-13.35,11.73-18.79,18.75c-2.95,3.82-2.59,8.37-0.19,12.57
			c2.42,4.23,6.3,6.04,11.39,6.41c1-0.29,2.5-0.4,3.61-1.11c8.75-5.56,16.29-12.63,21.5-21.49c2.83-4.82,1.1-10.36-3.64-14.14
			C713.52,619.04,708.43,618.22,704,621.53z"/>
		<path class="st0" d="M651.86,533.23c-6.79,0.8-10.77,5.65-10.28,12.9c0.48,7.15,4.69,11.03,11.75,11.58
			c3.59,0.28,7.22,0.05,10.83,0.04c3.61-0.01,7.24,0.25,10.83-0.06c7.12-0.61,11.26-4.85,11.6-11.82c0.35-7.1-3.79-11.98-10.63-12.7
			C668,532.34,659.8,532.3,651.86,533.23z"/>
		<path class="st0" d="M907.28,545.91c0.37,6.88,4.49,11.23,11.67,11.78c3.59,0.28,7.22,0.05,10.82,0.05
			c3.61,0,7.24,0.23,10.82-0.04c7.08-0.55,11.25-4.49,11.71-11.62c0.47-7.24-3.54-12.08-10.32-12.87
			c-7.94-0.92-16.14-0.87-24.09-0.03C911.03,533.91,906.9,538.89,907.28,545.91z"/>
		<path class="st0" d="M883.97,471.02c1-0.18,2.93-0.01,4.2-0.84c8.61-5.72,16.26-12.72,21.44-21.59
			c2.77-4.75,1.07-10.52-3.72-14.13c-4.95-3.73-10.58-4.06-15.32,0.05c-5.85,5.08-11.27,10.7-16.51,16.42
			c-3.52,3.84-3.56,8.72-1.38,13.25C874.75,468.44,878.41,470.84,883.97,471.02z"/>
	</g>
</g>
<g id="Capa_2">
</g>
<g id="Capa_3">
</g>
<g id="Capa_4">
</g>
<g id="Capa_5">
</g>
<g id="Capa_6">
</g>
<g id="Capa_7">
</g>
</svg>
